<?xml version="1.0" encoding="utf-8"?><svg viewBox="0 0 792 792" xmlns="http://www.w3.org/2000/svg" xmlns:xlink="http://www.w3.org/1999/xlink"><style>:root>svg{display:none}:root>svg:target{display:block}</style><svg fill="none" viewBox="0 0 92 32" id="banner_arrow" xmlns="http://www.w3.org/2000/svg"><path fill-rule="evenodd" clip-rule="evenodd" d="M1 15.394h87.83L76.175 1.857 76.976 1l13.223 14.143L91 16l-.801.857L76.976 31l-.801-.857L88.83 16.606H1v-1.212z" fill="#E60000" stroke="#E60000"/></svg><svg viewBox="0 0 40 40" id="icons8-joe-pineapples" xmlns="http://www.w3.org/2000/svg"><path fill="#b6dcfe" d="M5 22.5c.011-.001-1.5-.175-1.5-4s1.511-3.999 1.526-4.001L35 14.5c-.027 0 1.5.225 1.5 4 0 3.606-1.393 3.973-1.532 4H5z"/><path fill="#4788c7" d="M35 15l-.086.002c.334.117 1.086.921 1.086 3.498 0 2.592-.76 3.39-1.092 3.5H5.071C4.753 21.91 4 21.137 4 18.5c0-2.634.752-3.409 1.07-3.5h29.838l.003.001.013-.001H35m0-1H5s-2 .045-2 4.5S5 23 5 23h30s2-.114 2-4.5-2-4.5-2-4.5z"/><path fill="#b6dcfe" d="M16.268 38.5L10.5 29.849V21.5h19v8.349L23.732 38.5z"/><path fill="#4788c7" d="M29 22v7.697L23.465 38h-6.93L11 29.697V22h18m1-1H10v9l6 9h8l6-9v-9z"/><path fill="#dff0fe" d="M16.5 38.5v-16H13a79.28 79.28 0 01-1.048.009C6.5 22.509 6.5 21.941 6.5 15 6.5 8.498 10.725 1.5 20 1.5S33.5 8.498 33.5 15l.002 1.034c.008 3.1.012 4.807-.766 5.587-.745.747-2.444.879-5.736.879h-3.5v16h-7z"/><path fill="#4788c7" d="M20 2c8.932 0 13 6.739 13 13l.002 1.035c.008 2.868.012 4.6-.62 5.233-.617.619-2.296.732-5.382.732h-4v16h-6V22H12.985a75.7 75.7 0 01-1.035.008c-2.774 0-3.918-.243-4.371-.929C7 20.202 7 18.133 7 15 7 8.739 11.068 2 20 2m0-1C11.092 1 6 7.607 6 15c0 7.002.002 8.008 5.95 8.008.332 0 .68-.003 1.05-.008h3v16h8V23h3c7.379 0 7-.607 7-8S28.908 1 20 1z"/><path fill="#4788c7" d="M20 22.821c-.55 0-1-.45-1-1v-3c0-.55.45-1 1-1s1 .45 1 1v3c0 .55-.45 1-1 1z"/><path fill="#fff" d="M21.423 19.5a1.43 1.43 0 00-.335-.578c-.185-.193-.525-.422-1.088-.422s-.903.229-1.088.422a1.437 1.437 0 00-.335.578c-6.587-.015-9.669-.356-9.7-.36-2.375-.578-2.375-2.204-2.374-3.511 0-3.622.532-4.129 2.497-4.129h22c1.935 0 2.497.534 2.497 4.071 0 1.58-.186 3.157-2.41 3.574-.01.001-3.052.34-9.664.355z"/><path fill="#4788c7" d="M31 12c1.413 0 1.997 0 1.997 3.571 0 1.524-.146 2.719-1.966 3.075-.343.036-3.284.329-9.276.352a1.84 1.84 0 00-.307-.424C21.195 18.312 20.738 18 20 18s-1.195.312-1.448.575a1.87 1.87 0 00-.307.424c-5.83-.023-8.801-.303-9.251-.349-1.852-.468-1.992-1.502-1.991-3.019v-.058C7.003 12 7.547 12 9 12h22m0-1H9c-2.459 0-2.997 1.004-2.997 4.571 0 1.292-.044 3.374 2.817 4.065 0 0 3.181.364 10.18.364 0 0-.035-1 1-1s1 1 1 1c7.042 0 10.18-.364 10.18-.364 2.816-.528 2.817-2.815 2.817-4.065C33.997 12.113 33.459 11 31 11zM26.5 29.375L24 26h-4v1h3.625l2.875 4 2.5-4v-1.646zm-13 .021L16 26h4v1h-3.604L13.5 31 11 27v-1.646z"/></svg><svg viewBox="0 0 24 30" id="loader" xmlns="http://www.w3.org/2000/svg"><style>rect{fill:#ff3b11}</style><path fill="#333" opacity=".2" d="M0 10h4v10H0z"><animate attributeName="opacity" attributeType="XML" values="0.2; 1; .2" begin="0s" dur="1.0s" repeatCount="indefinite"/><animate attributeName="height" attributeType="XML" values="10; 20; 10" begin="0s" dur="1.0s" repeatCount="indefinite"/><animate attributeName="y" attributeType="XML" values="10; 5; 10" begin="0s" dur="1.0s" repeatCount="indefinite"/></path><path fill="#333" opacity=".2" d="M8 10h4v10H8z"><animate attributeName="opacity" attributeType="XML" values="0.2; 1; .2" begin="0.15s" dur="1.0s" repeatCount="indefinite"/><animate attributeName="height" attributeType="XML" values="10; 20; 10" begin="0.15s" dur="1.0s" repeatCount="indefinite"/><animate attributeName="y" attributeType="XML" values="10; 5; 10" begin="0.15s" dur="1.0s" repeatCount="indefinite"/></path><path fill="#333" opacity=".2" d="M16 10h4v10h-4z"><animate attributeName="opacity" attributeType="XML" values="0.2; 1; .2" begin="0.3s" dur="1.0s" repeatCount="indefinite"/><animate attributeName="height" attributeType="XML" values="10; 20; 10" begin="0.3s" dur="1.0s" repeatCount="indefinite"/><animate attributeName="y" attributeType="XML" values="10; 5; 10" begin="0.3s" dur="1.0s" repeatCount="indefinite"/></path></svg><svg viewBox="0 0 207 24.01" id="logo" xmlns="http://www.w3.org/2000/svg"><defs><style>.dcls-1{fill:#e64415}</style></defs><g id="dСлой_2" data-name="Слой 2"><g id="dСлой_1-2" data-name="Слой 1"><path id="d_Составной_контур_" data-name="&lt;Составной контур>" class="dcls-1" d="M52.31 5.61a12.05 12.05 0 00-10.75 0 9.46 9.46 0 00-5.13 8.55 9.51 9.51 0 005.13 8.57 11.91 11.91 0 0010.75 0 9.5 9.5 0 005.13-8.57 9.45 9.45 0 00-5.13-8.55zm.07 11.78a5.79 5.79 0 01-2.23 2.25 6.4 6.4 0 01-3.23.82 6.33 6.33 0 01-3.2-.82 5.9 5.9 0 01-2.25-2.25 6.4 6.4 0 01-.82-3.23 6.31 6.31 0 01.83-3.16 5.94 5.94 0 012.25-2.23 6.34 6.34 0 013.2-.82 6.51 6.51 0 013.23.8 5.68 5.68 0 012.23 2.23 6.51 6.51 0 01.8 3.23 6.51 6.51 0 01-.81 3.18z"/><path id="d_Контур_" data-name="&lt;Контур>" class="dcls-1" d="M83.58 4.37h-4.66l-8.86 9.5v-9.5h-4.37v19.65h4.37v-5.03l2.67-2.66 6.4 7.69h4.95l-8.52-10.8 8.02-8.85z"/><path id="d_Контур_2" data-name="&lt;Контур>" class="dcls-1" d="M97.38 8.7a6.67 6.67 0 013.28-.8 6.45 6.45 0 015 2.26l2.73-2.6q-2.66-3.23-7.85-3.23a11.09 11.09 0 00-5.34 1.28 9.68 9.68 0 00-3.74 3.51 9.43 9.43 0 00-1.36 5 9.52 9.52 0 001.36 5 9.63 9.63 0 003.74 3.53 11.08 11.08 0 005.33 1.35q5.13 0 7.85-3.23l-2.73-2.63a6.34 6.34 0 01-5 2.3 6.67 6.67 0 01-3.28-.8 5.75 5.75 0 01-2.26-2.23 6.47 6.47 0 01-.82-3.26 6.4 6.4 0 01.82-3.23 5.76 5.76 0 012.27-2.22z"/><path id="d_Контур_3" data-name="&lt;Контур>" class="dcls-1" d="M114.69 8.11h6.24v15.91h4.05V8.11h6.55V4.37h-16.84v3.74z"/><path id="d_Составной_контур_2" data-name="&lt;Составной контур>" class="dcls-1" d="M154.06 6.39a9.44 9.44 0 00-6.09-2h-8.28V24h4.05v-5.6H148a9.32 9.32 0 006-1.77 6.31 6.31 0 002.25-5.13 6.29 6.29 0 00-2.19-5.11zm-3.11 7.77a5.15 5.15 0 01-3.28.82h-3.93V8.11h3.93a5.2 5.2 0 013.28.92 3 3 0 011.12 2.56 3.09 3.09 0 01-1.13 2.56z"/><path id="d_Составной_контур_3" data-name="&lt;Составной контур>" class="dcls-1" d="M179.38 5.61a12.05 12.05 0 00-10.75 0 9.46 9.46 0 00-5.13 8.55 9.51 9.51 0 005.13 8.57 11.91 11.91 0 0010.75 0 9.51 9.51 0 005.13-8.57 9.46 9.46 0 00-5.13-8.55zm.07 11.78a5.79 5.79 0 01-2.23 2.25 6.4 6.4 0 01-3.23.82 6.33 6.33 0 01-3.2-.82 5.9 5.9 0 01-2.25-2.25 6.4 6.4 0 01-.82-3.23 6.31 6.31 0 01.82-3.21 5.94 5.94 0 012.25-2.23 6.34 6.34 0 013.2-.82 6.51 6.51 0 013.23.8 5.68 5.68 0 012.23 2.23 6.51 6.51 0 01.8 3.23 6.51 6.51 0 01-.81 3.23z"/><path id="d_Контур_4" data-name="&lt;Контур>" class="dcls-1" d="M190.78 4.37v3.74h5.93v15.91h4.68V8.11H207V4.37h-16.22z"/><path id="d_Составной_контур_4" data-name="&lt;Составной контур>" class="dcls-1" d="M23.48 3.57a11.11 11.11 0 00-5.33-1.27 9.5 9.5 0 00-1.7.12V0H12.4v2.43a13.6 13.6 0 00-1.85-.13 11.44 11.44 0 00-5.41 1.27A9.46 9.46 0 000 12.12a9.5 9.5 0 005.12 8.57A11.39 11.39 0 0010.55 22a13.42 13.42 0 001.85-.13V24h4.05v-2.15a9.39 9.39 0 001.7.12 11.12 11.12 0 005.36-1.28 9.5 9.5 0 005.1-8.57 9.46 9.46 0 00-5.13-8.55zM10.55 18.41a6.47 6.47 0 01-3.25-.81 5.81 5.81 0 01-2.24-2.25 6.51 6.51 0 01-.8-3.23 6.51 6.51 0 01.8-3.23 5.67 5.67 0 012.23-2.23 6.64 6.64 0 013.26-.8 7.22 7.22 0 011.85.24v12.07a7.22 7.22 0 01-1.85.24zm13-3.06a5.78 5.78 0 01-2.23 2.25 6.16 6.16 0 01-3.16.82 5.09 5.09 0 01-1.7-.23V6.09a5.08 5.08 0 011.7-.23 6.39 6.39 0 013.2.8 5.64 5.64 0 012.21 2.23 6.5 6.5 0 01.79 3.23 6.51 6.51 0 01-.81 3.23z"/></g></g></svg><svg fill="none" viewBox="0 0 63 57" id="logo_brand" xmlns="http://www.w3.org/2000/svg"><path clip-rule="evenodd" d="M17.692 3.375a5.82 5.82 0 00-1.544 5.044c1.765.26 3.623-.3 4.962-1.686a5.82 5.82 0 001.544-5.046 5.716 5.716 0 00-4.962 1.688zM8.587 11.075a5.621 5.621 0 002.729 4.329 5.646 5.646 0 001.889-4.762 5.636 5.636 0 00-2.728-4.33 5.643 5.643 0 00-1.89 4.763zM3.7 22.685a5.567 5.567 0 004.288 2.759 5.661 5.661 0 00-.284-5.12 5.58 5.58 0 00-4.288-2.762 5.668 5.668 0 00.285 5.123zM4.405 36.47a5.541 5.541 0 005.044.674 5.64 5.64 0 00-2.405-4.52A5.543 5.543 0 002 31.948a5.642 5.642 0 002.405 4.52zM10.761 47.566a5.549 5.549 0 004.853-1.538 5.586 5.586 0 00-4.073-3.072 5.555 5.555 0 00-4.854 1.537 5.58 5.58 0 004.074 3.072zM21.043 55.086a5.591 5.591 0 003.754-3.462 5.548 5.548 0 00-4.981-1.048 5.6 5.6 0 00-3.753 3.461 5.546 5.546 0 004.98 1.05z" stroke="#E60000" stroke-width="2"/><path d="M28.646 51.7C16.545 49.574 7.757 38.523 8.62 25.899a24.482 24.482 0 018.28-16.773" stroke="#E60000" stroke-width="2"/><path clip-rule="evenodd" d="M46.423 3.373a5.817 5.817 0 011.542 5.047 5.717 5.717 0 01-4.962-1.688 5.821 5.821 0 01-1.542-5.045 5.72 5.72 0 014.962 1.686zM55.394 11.075a5.624 5.624 0 01-2.73 4.329 5.65 5.65 0 01-1.89-4.764 5.628 5.628 0 012.73-4.328 5.65 5.65 0 011.89 4.763zM60.205 22.685a5.573 5.573 0 01-4.288 2.76 5.662 5.662 0 01.284-5.122 5.578 5.578 0 014.288-2.76c.698 1.599.656 3.5-.284 5.122zM59.543 36.468a5.539 5.539 0 01-5.043.675 5.642 5.642 0 012.405-4.52 5.546 5.546 0 015.044-.675 5.642 5.642 0 01-2.406 4.52zM53.729 47.565a5.545 5.545 0 01-4.854-1.538 5.592 5.592 0 014.075-3.072 5.556 5.556 0 014.854 1.538 5.585 5.585 0 01-4.075 3.072zM43.255 55.086a5.594 5.594 0 01-3.755-3.461 5.543 5.543 0 014.981-1.048 5.599 5.599 0 013.755 3.46 5.549 5.549 0 01-4.98 1.049z" stroke="#E60000" stroke-width="2"/><path d="M35.75 51.7c12.1-2.128 20.888-13.178 20.024-25.802a24.484 24.484 0 00-8.28-16.773" stroke="#E60000" stroke-width="2"/><path clip-rule="evenodd" d="M32.399 16.625l2.307 7.159h7.466l-6.04 4.424 2.308 7.161-6.041-4.425-6.04 4.425 2.305-7.16-6.039-4.425h7.466l2.308-7.159z" stroke="#E60000" stroke-width="2"/></svg><svg viewBox="0 0 792 792" id="money_uah" xmlns="http://www.w3.org/2000/svg"><defs><style>.fcls-1{fill:#e64415}</style></defs><path class="fcls-1" d="M650.462 465.447H309.938c32.586-19.855 69.08-37.412 105.021-54.372 56.945-27.025 111.318-52.947 149.834-87.326h85.67c8.871 0 16.088-7.17 16.088-16.086 0-8.871-7.17-16.086-16.088-16.086h-56.439c.139-.184.322-.368.459-.552 37.965-54.602 42.33-122.164 11.721-180.718C570.583 42.192 495.206 0 409.489 0c-74.457 0-134.298 21.556-177.961 64.023-6.388 6.159-6.526 16.408-.321 22.797 6.296 6.297 16.316 6.572 22.75.276 37.412-36.447 89.762-54.969 155.532-54.969 73.721 0 138.158 35.62 168.172 93.071 25.324 48.489 21.83 102.263-9.607 147.489-4.596 6.572-10.111 12.823-16.131 18.844H141.537c-8.917.046-16.086 7.216-16.086 16.086 0 8.87 7.17 16.086 16.086 16.086h369.986c-31.668 20.729-70.273 39.205-110.352 58.233-52.075 24.589-105.619 50.281-148.317 83.465H141.537c-8.871 0-16.086 7.17-16.086 16.086 0 8.871 7.17 16.087 16.086 16.087h77.95c-41.181 49.086-54.74 112.374-33.644 170.285C214.292 746.039 296.011 792 405.444 792c2.85 0 5.654 0 8.504-.092 68.619-1.425 124.645-20.177 166.471-55.659 6.801-5.745 7.582-15.902 1.838-22.612-5.654-6.711-15.811-7.722-22.658-1.885-36.035 30.519-85.258 46.696-146.387 48.029-98.356 1.057-172.951-36.355-197.173-102.86-20.131-55.199-1.011-117.063 48.305-159.347h386.073c8.869 0 16.086-7.17 16.086-16.087.047-8.87-7.17-16.04-16.041-16.04z"/></svg></svg>