<svg width="1086" height="301" viewBox="0 0 1086 301" fill="none" xmlns="http://www.w3.org/2000/svg">
<g opacity="0.05">
<path fill-rule="evenodd" clip-rule="evenodd" d="M665.092 -338.169C634.767 -337.203 603.286 -336.092 573.829 -324.81C527.093 -306.947 485.024 -262.903 455.376 -200.821C435.269 -158.764 420.898 -108.79 406.996 -60.4296C400.369 -37.2954 393.477 -13.3832 386.052 9.46822C378.132 33.7958 369.226 58.0451 360.623 81.4753C336.061 148.41 310.643 217.622 305.157 297.031C294.979 444.759 323.147 547.845 391.246 612.187C468.924 685.609 560.315 708.829 641.97 675.902C662.374 667.661 682.508 655.987 702.025 644.653C722.986 632.492 744.66 619.93 766.81 611.559C807.734 596.057 851.027 594.568 892.903 593.097C944.407 591.239 997.979 589.435 1046.43 560.994C1083.9 538.999 1116.73 501.801 1141.14 471.87C1179.41 424.889 1225.24 359.184 1239.57 267.295C1256.58 158.099 1226.79 43.9212 1197.92 -66.516L1194.13 -81.1227C1191.66 -90.6069 1189.23 -100.093 1186.78 -109.558C1172.6 -164.777 1157.95 -221.827 1138.22 -273.142C1120.03 -320.466 1089.17 -383.101 1045.39 -412.764C1010.05 -436.667 971.873 -436.251 932.718 -433.591C903.71 -431.635 875.528 -428.65 849.484 -414.101C836.769 -407.016 824.499 -397.056 812.61 -387.426C801.677 -378.543 790.379 -369.39 778.666 -362.365C744.372 -341.796 706.929 -339.638 670.417 -338.364C668.649 -338.292 666.86 -338.24 665.092 -338.169ZM1046.88 -419.909C1091.88 -389.467 1123.46 -325.445 1142.05 -277.114C1161.99 -225.217 1176.73 -167.816 1190.97 -112.324C1193.42 -102.859 1195.85 -93.373 1198.3 -83.9077L1202.13 -69.3026C1231.29 42.3622 1261.43 157.845 1244.01 269.616C1229.33 363.762 1182.82 430.537 1143.98 478.21C1119.3 508.428 1086.14 545.993 1048.13 568.325C999.043 597.165 945.335 598.994 893.24 600.838C851.698 602.314 808.523 603.798 768.045 619.106C746.128 627.388 724.57 639.907 703.705 652.004C684.11 663.381 663.862 675.138 643.263 683.426C560.485 716.831 467.881 693.287 389.182 618.883C319.163 552.729 290.205 447.018 300.601 295.739C306.201 214.691 331.867 144.761 356.678 77.1475C365.264 53.777 374.135 29.6472 382.001 5.45955C389.374 -17.2127 396.23 -41.0448 402.86 -64.1003C416.867 -112.819 431.341 -163.191 451.737 -205.89C481.987 -269.196 524.908 -314.121 572.594 -332.356C602.497 -343.794 634.194 -344.933 664.755 -345.909C702.542 -347.293 741.654 -348.515 776.948 -369.675C788.431 -376.573 799.632 -385.663 810.452 -394.423C822.454 -404.176 834.839 -414.219 847.823 -421.472C874.426 -436.339 902.961 -439.339 932.264 -441.326C938.642 -441.76 944.964 -442.133 951.292 -442.349C984.326 -443.503 1016.5 -440.489 1046.88 -419.909Z" fill="url(#paint0_linear)"/>
<path fill-rule="evenodd" clip-rule="evenodd" d="M668.537 -323.177C639.115 -322.179 608.749 -321.142 580.255 -310.229C535.032 -292.913 494.334 -250.31 465.629 -190.255C446.195 -149.597 432.287 -101.218 418.809 -54.4487C412.385 -32.08 405.735 -8.93516 398.534 13.17C390.858 36.7303 382.252 60.1513 373.932 82.8133C350.146 147.565 325.539 214.514 320.228 291.34C310.337 434.222 337.523 533.921 403.36 596.134C478.501 667.135 566.854 689.569 645.84 657.684C665.578 649.742 685.088 638.408 703.925 627.474C724.224 615.694 745.196 603.513 766.62 595.424C806.188 580.423 848.202 579.011 888.58 577.529C938.585 575.773 990.22 573.971 1037.1 546.439C1073.34 525.141 1105.09 489.156 1128.72 460.187C1165.77 414.742 1210.08 351.183 1223.97 262.286C1240.48 156.663 1211.66 46.2128 1183.81 -60.5788L1180.13 -74.7087C1177.73 -83.8558 1175.42 -93.0453 1173.04 -102.213C1159.34 -155.608 1145.18 -210.794 1126.14 -260.412C1108.56 -306.176 1078.72 -366.763 1036.37 -395.411C1002.21 -418.531 965.308 -418.154 927.41 -415.552C899.379 -413.647 872.094 -410.749 846.886 -396.685C834.601 -389.813 822.736 -380.165 811.231 -370.867C800.664 -362.255 789.713 -353.392 778.388 -346.619C745.202 -326.704 708.958 -324.583 673.644 -323.345C671.935 -323.295 670.226 -323.246 668.537 -323.177ZM1037.83 -402.355C1081.34 -372.907 1111.86 -311.01 1129.81 -264.259C1149.09 -214.08 1163.34 -158.583 1177.11 -104.895C1179.46 -95.7075 1181.8 -86.5383 1184.17 -77.4101L1187.86 -63.3195C1216.03 44.7178 1245.15 156.395 1228.27 264.551C1214.04 355.566 1169.05 420.195 1131.45 466.312C1107.59 495.564 1075.51 531.917 1038.73 553.513C991.233 581.424 939.357 583.118 888.906 585.029C848.606 586.509 806.964 587.885 767.803 602.732C746.613 610.733 725.757 622.87 705.572 634.566C686.62 645.584 667.013 656.942 647.102 664.989C567.032 697.311 477.447 674.574 401.347 602.648C333.653 538.681 305.682 436.437 315.815 290.103C321.242 211.679 346.098 144.052 370.115 78.6414C378.418 56.0391 387.006 32.6777 394.612 9.31703C401.759 -12.6483 408.393 -35.6942 414.799 -58.0031C428.362 -105.11 442.375 -153.848 462.12 -195.128C491.408 -256.386 532.939 -299.85 579.053 -317.517C607.993 -328.585 638.576 -329.611 668.214 -330.638C704.649 -331.862 742.574 -333.225 776.722 -353.691C787.835 -360.357 798.671 -369.137 809.144 -377.646C820.743 -387.047 832.741 -396.798 845.297 -403.799C871.044 -418.16 898.623 -421.09 926.988 -423.029C933.146 -423.476 939.27 -423.803 945.357 -424.05C977.332 -425.152 1008.44 -422.246 1037.83 -402.355Z" fill="url(#paint1_linear)"/>
<path fill-rule="evenodd" clip-rule="evenodd" d="M672.904 -308.692C644.461 -307.758 615.075 -306.786 587.524 -296.281C543.822 -279.615 504.496 -238.459 476.803 -180.419C458.05 -141.11 444.671 -94.3359 431.722 -49.1332C425.514 -27.4969 419.119 -5.12506 412.192 16.2245C404.789 38.99 396.496 61.6525 388.469 83.5765C365.542 146.174 341.873 210.886 336.808 285.185C327.448 423.36 353.926 519.806 417.705 580.116C490.48 648.891 576.016 670.7 652.384 640.003C671.466 632.31 690.322 621.417 708.541 610.845C728.166 599.489 748.425 587.734 769.156 579.937C807.395 565.492 848.006 564.18 887.099 562.828C935.509 561.152 985.436 559.515 1030.71 532.947C1065.78 512.387 1096.44 477.651 1119.27 449.677C1155.04 405.767 1197.81 344.362 1211.11 258.405C1226.94 156.27 1198.91 49.4134 1171.82 -53.9176L1168.23 -67.6131C1165.91 -76.4971 1163.61 -85.4015 1161.31 -94.2666C1147.98 -145.921 1134.21 -199.31 1115.7 -247.317C1098.65 -291.622 1069.67 -350.242 1028.68 -378.024C995.57 -400.445 959.899 -400.133 923.212 -397.656C896.083 -395.847 869.72 -393.105 845.361 -379.536C833.48 -372.912 822 -363.606 810.883 -354.61C800.682 -346.319 790.117 -337.758 779.159 -331.189C747.091 -311.986 711.999 -310.004 677.857 -308.847C676.207 -308.782 674.554 -308.757 672.904 -308.692ZM1030.08 -384.751C1072.21 -356.187 1101.83 -296.293 1119.25 -251.038C1137.97 -202.467 1151.84 -148.788 1165.24 -96.8411C1167.54 -87.976 1169.82 -79.0905 1172.12 -70.2254L1175.72 -56.5299C1203.12 47.9694 1231.48 156.033 1215.27 260.584C1201.64 348.621 1158.22 411.055 1121.92 455.615C1098.87 483.874 1067.89 518.957 1032.34 539.791C986.43 566.719 935.879 568.499 887.426 570.058C848.505 571.304 808.155 572.744 770.321 586.996C749.805 594.726 729.642 606.418 710.152 617.709C691.816 628.326 672.865 639.321 653.608 647.041C576.194 678.172 489.525 656.073 415.788 586.371C350.211 524.399 322.985 425.482 332.567 283.953C337.709 208.136 361.627 142.745 384.786 79.5283C392.776 57.6846 401.052 35.0818 408.403 12.4955C415.277 -8.71426 421.675 -31.0075 427.826 -52.5826C440.879 -98.1435 454.364 -145.237 473.407 -185.147C501.664 -244.371 541.745 -286.344 586.359 -303.341C614.336 -314.019 643.917 -315.038 672.578 -315.922C707.939 -317.088 744.52 -318.262 777.53 -338.034C788.257 -344.476 798.745 -352.955 808.871 -361.164C820.083 -370.262 831.677 -379.651 843.808 -386.423C868.668 -400.286 895.364 -403.062 922.826 -404.903C928.755 -405.292 934.685 -405.642 940.581 -405.834C971.519 -406.886 1001.61 -404.027 1030.08 -384.751Z" fill="url(#paint2_linear)"/>
<path fill-rule="evenodd" clip-rule="evenodd" d="M675.743 -292.25C648.251 -291.393 619.919 -290.364 593.316 -280.157C551.121 -264.007 513.117 -224.237 486.301 -168.175C468.158 -130.212 455.169 -85.0601 442.615 -41.4012C436.607 -20.4976 430.391 1.12276 423.685 21.7595C416.499 43.734 408.502 65.6035 400.713 86.7563C378.513 147.236 355.544 209.733 350.596 281.458C341.359 414.865 366.782 507.989 428.286 566.084C498.406 632.369 580.938 653.349 654.681 623.565C673.108 616.148 691.316 605.573 708.927 595.356C727.866 584.358 747.461 573.018 767.437 565.441C804.402 551.47 843.427 550.166 881.326 548.769C928.015 547.234 976.228 545.44 1019.99 519.742C1053.83 499.856 1083.48 466.269 1105.52 439.226C1140.12 396.8 1181.47 337.454 1194.44 254.464C1209.83 155.852 1182.92 52.7144 1156.91 -47.0163L1153.46 -60.2171C1151.24 -68.7458 1149.04 -77.3342 1146.83 -85.9022C1134.02 -135.756 1120.79 -187.285 1103.02 -233.612C1086.59 -276.354 1058.73 -332.918 1019.2 -359.672C987.293 -381.244 952.837 -380.873 917.455 -378.477C891.257 -376.688 865.801 -374.025 842.262 -360.872C830.801 -354.447 819.714 -345.478 808.97 -336.759C799.105 -328.745 788.895 -320.481 778.337 -314.131C747.332 -295.56 713.508 -293.581 680.557 -292.425C678.946 -292.359 677.354 -292.315 675.743 -292.25ZM1020.57 -366.142C1061.19 -338.645 1089.69 -280.847 1106.45 -237.195C1124.45 -190.345 1137.75 -138.524 1150.63 -88.4174C1152.82 -79.829 1155.02 -71.2799 1157.26 -62.7324L1160.67 -49.5299C1187 51.3291 1214.21 155.616 1198.44 256.565C1185.16 341.555 1143.16 401.891 1108.06 444.947C1085.81 472.254 1055.86 506.168 1021.52 526.35C977.164 552.406 928.672 554.133 881.612 555.743C843.927 557.071 805.1 558.407 768.583 572.261C748.762 579.754 729.283 591.049 710.44 601.985C692.772 612.263 674.467 622.862 655.827 630.385C581.096 660.544 497.471 639.313 426.393 572.142C363.173 512.385 337.031 416.929 346.479 280.306C351.527 207.082 374.727 143.926 397.16 82.8661C404.892 61.7747 412.911 39.9633 420.025 18.1492C426.698 -2.32882 432.897 -23.8895 438.888 -44.694C451.528 -88.6909 464.602 -134.181 483.037 -172.746C510.361 -229.93 549.142 -270.499 592.188 -286.998C619.219 -297.341 647.867 -298.343 675.436 -299.242C709.624 -300.469 744.876 -301.62 776.747 -320.717C787.132 -326.962 797.246 -335.163 807.036 -343.096C817.875 -351.877 829.076 -360.969 840.768 -367.522C864.809 -380.931 890.557 -383.665 917.069 -385.466C922.799 -385.856 928.492 -386.204 934.19 -386.395C964.055 -387.447 993.082 -384.726 1020.57 -366.142Z" fill="url(#paint3_linear)"/>
<path fill-rule="evenodd" clip-rule="evenodd" d="M678.399 -277.573C652.04 -276.752 624.606 -275.75 598.947 -265.949C558.29 -250.394 521.659 -212.069 495.86 -158.053C478.375 -121.46 465.878 -77.9476 453.778 -35.8476C448.008 -15.6939 442.027 5.09762 435.558 24.9844C428.648 46.1671 420.927 67.2448 413.436 87.6249C392.068 145.889 369.952 206.15 365.188 275.252C356.371 403.852 380.88 493.571 440.172 549.583C507.813 613.5 587.354 633.732 658.42 605.079C676.177 597.935 693.718 587.753 710.683 577.907C728.936 567.322 747.786 556.379 767.072 549.095C802.696 535.63 840.438 534.195 876.853 533.049C921.885 531.459 968.294 529.892 1010.46 505.132C1043.1 485.985 1071.66 453.609 1092.89 427.564C1126.2 386.698 1166.06 329.502 1178.5 249.51C1193.34 154.496 1167.35 55.1204 1142.24 -40.9861L1138.92 -53.754C1136.79 -62.0073 1134.64 -70.2794 1132.53 -78.5531C1120.18 -126.595 1107.38 -176.251 1090.24 -220.914C1074.41 -262.091 1047.55 -316.61 1009.4 -342.436C978.645 -363.249 945.463 -362.901 911.316 -360.568C886.091 -358.887 861.549 -356.31 838.873 -343.64C827.824 -337.454 817.146 -328.805 806.811 -320.405C797.276 -312.707 787.437 -304.721 777.251 -298.609C747.402 -280.715 714.77 -278.835 682.995 -277.718C681.463 -277.657 679.93 -277.635 678.399 -277.573ZM1010.71 -348.644C1049.87 -322.151 1077.39 -266.418 1093.57 -224.351C1110.91 -179.204 1123.75 -129.275 1136.18 -80.9409C1138.31 -72.6877 1140.41 -64.4139 1142.56 -56.1811L1145.91 -43.4336C1171.29 53.763 1197.55 154.268 1182.4 251.557C1169.63 333.449 1129.16 391.595 1095.35 433.091C1073.91 459.399 1045.04 492.063 1011.95 511.504C969.202 536.602 922.367 538.343 877.133 539.784C840.84 541.043 803.369 542.35 768.151 555.661C749.079 562.876 730.326 573.757 712.149 584.3C695.107 594.187 677.489 604.413 659.538 611.642C587.505 640.688 506.872 620.205 438.372 555.418C377.406 497.821 352.18 405.81 361.232 274.133C366.078 203.591 388.407 142.732 410.007 83.8886C417.461 63.5493 425.164 42.5314 432.021 21.4884C438.456 1.76028 444.4 -18.9904 450.174 -39.0263C462.341 -81.4435 474.963 -125.295 492.701 -162.449C519.028 -217.568 556.376 -256.669 597.868 -272.513C623.913 -282.487 651.449 -283.395 678.1 -284.287C710.997 -285.39 745.013 -286.558 775.745 -304.999C785.721 -310.965 795.485 -318.869 804.904 -326.524C815.354 -334.967 826.165 -343.759 837.446 -350.033C860.604 -362.978 885.439 -365.587 910.937 -367.318C916.468 -367.697 921.982 -368.016 927.481 -368.198C956.251 -369.214 984.24 -366.561 1010.71 -348.644Z" fill="url(#paint4_linear)"/>
<path fill-rule="evenodd" clip-rule="evenodd" d="M682.888 -263.542C657.46 -262.662 631.107 -261.803 606.385 -252.359C567.248 -237.382 531.987 -200.499 507.163 -148.48C490.339 -113.259 478.296 -71.3477 466.672 -30.8295C461.091 -11.4546 455.339 8.59563 449.12 27.7208C442.477 48.1213 435.025 68.4166 427.822 88.0727C407.225 144.149 385.955 202.141 381.393 268.685C372.894 392.467 396.51 478.883 453.591 532.813C518.693 594.346 595.302 613.812 663.719 586.258C680.813 579.341 697.677 569.562 714.023 560.098C731.598 549.878 749.772 539.378 768.336 532.343C802.616 519.389 839.118 518.144 874.01 516.924C917.387 515.482 962.075 513.889 1002.64 490.046C1034.05 471.603 1061.55 440.458 1081.99 415.356C1114.07 376.024 1152.42 320.986 1164.44 243.959C1178.7 152.487 1153.68 56.7882 1129.49 -35.7589L1126.28 -48.0376C1124.24 -55.9784 1122.19 -63.938 1120.13 -71.8976C1108.23 -118.14 1095.94 -165.959 1079.41 -208.948C1064.15 -248.606 1038.27 -301.111 1001.57 -325.95C971.966 -346.001 940.009 -345.665 907.142 -343.445C882.844 -341.823 859.248 -339.325 837.385 -327.124C826.762 -321.193 816.468 -312.837 806.496 -304.789C797.366 -297.364 787.872 -289.67 778.053 -283.791C749.306 -266.556 717.897 -264.767 687.287 -263.679L682.888 -263.542ZM1002.85 -331.959C1040.54 -306.432 1067.02 -252.771 1082.61 -212.281C1099.31 -168.787 1111.67 -120.715 1123.64 -74.2204C1125.7 -66.2607 1127.73 -58.2807 1129.79 -50.3604L1133 -38.0817C1157.46 55.4768 1182.76 152.266 1168.16 245.914C1155.87 324.82 1116.93 380.747 1084.38 420.668C1063.71 446.014 1035.95 477.485 1004.07 496.183C963.78 519.857 919.696 521.819 876.951 523.314C876.048 523.35 875.164 523.366 874.3 523.401C839.526 524.616 803.279 525.871 769.367 538.672C750.997 545.621 732.921 556.098 715.46 566.235C699.037 575.741 682.058 585.603 664.809 592.566C595.442 620.492 517.842 600.79 451.842 538.428C393.167 482.949 368.858 394.379 377.596 267.598C382.242 199.694 403.744 141.084 424.517 84.4497C431.701 64.8533 439.118 44.6381 445.707 24.3774C451.892 5.37159 457.646 -14.6001 463.171 -33.9138C474.901 -74.7508 487.03 -116.961 504.088 -152.722C529.462 -205.785 565.421 -243.423 605.353 -258.688C630.425 -268.265 656.856 -269.126 682.616 -270.04C714.235 -270.991 747.024 -272.186 776.616 -289.927C786.243 -295.68 795.622 -303.292 804.696 -310.655C814.762 -318.805 825.152 -327.224 836.025 -333.302C858.311 -345.756 882.221 -348.267 906.792 -349.939C912.107 -350.289 917.423 -350.6 922.705 -350.792C950.41 -351.764 977.347 -349.205 1002.85 -331.959Z" fill="url(#paint5_linear)"/>
<path fill-rule="evenodd" clip-rule="evenodd" d="M686.664 -248.33C662.197 -247.552 636.829 -246.698 613.084 -237.645C575.422 -223.286 541.531 -187.804 517.66 -137.799C501.511 -103.935 489.967 -63.6208 478.802 -24.6588C473.483 -5.99479 467.951 13.2678 461.973 31.7017C455.589 51.3124 448.453 70.8344 441.529 89.7185C421.789 143.654 401.395 199.446 397.049 263.484C388.985 382.564 411.784 465.71 466.776 517.671C529.477 576.946 603.204 595.769 669.014 569.272C685.457 562.668 701.691 553.258 717.406 544.164C734.293 534.374 751.797 524.246 769.633 517.528C802.609 505.084 837.45 503.939 871.326 502.773C913.042 501.321 956.059 499.936 995.094 477.043C1025.28 459.335 1051.72 429.379 1071.36 405.256C1102.19 367.434 1139.07 314.501 1150.55 240.405C1164.18 152.393 1140 60.289 1116.63 -28.7967L1113.57 -40.5613C1111.57 -48.1964 1109.6 -55.852 1107.62 -63.5075C1096.13 -108.038 1084.23 -154.048 1068.29 -195.434C1053.59 -233.622 1028.62 -284.139 993.294 -308.082C964.783 -327.392 934.04 -327.116 902.386 -324.994C879.013 -323.432 856.281 -321.088 835.299 -309.367C825.057 -303.655 815.163 -295.654 805.594 -287.882C796.785 -280.769 787.674 -273.369 778.256 -267.728C750.618 -251.183 720.403 -249.471 690.967 -248.479C689.532 -248.442 688.118 -248.387 686.664 -248.33ZM994.501 -313.855C1030.82 -289.262 1056.34 -237.625 1071.39 -198.624C1087.49 -156.792 1099.44 -110.469 1111 -65.7248C1112.95 -58.0882 1114.93 -50.4327 1116.94 -42.818L1120.03 -31.0344C1143.65 59.0447 1168.09 152.181 1154.13 242.312C1142.38 318.17 1104.95 371.99 1073.63 410.382C1053.8 434.748 1027.1 464.99 996.469 482.931C956.915 506.14 913.606 507.595 871.574 509.021C837.858 510.259 803.25 511.316 770.642 523.608C752.961 530.281 735.593 540.345 718.782 550.092C702.99 559.228 686.68 568.68 670.062 575.35C603.342 602.217 528.64 583.138 465.082 523.07C408.577 469.673 385.123 384.407 393.367 262.428C397.779 197.088 418.426 140.736 438.36 86.222C445.267 67.3976 452.385 47.9353 458.715 28.4645C464.64 10.1703 470.155 -9.03252 475.478 -27.6179C486.709 -66.8973 498.32 -107.49 514.744 -141.857C539.085 -192.903 573.639 -229.06 612.094 -243.745C636.188 -252.93 661.638 -253.708 686.376 -254.576C716.858 -255.511 748.395 -256.605 776.842 -273.615C786.105 -279.171 795.123 -286.469 803.834 -293.558C813.519 -301.374 823.508 -309.477 833.941 -315.315C855.387 -327.251 878.411 -329.665 902.059 -331.238C907.181 -331.576 912.266 -331.873 917.355 -332.052C944.02 -332.956 969.954 -330.486 994.501 -313.855Z" fill="url(#paint6_linear)"/>
<path fill-rule="evenodd" clip-rule="evenodd" d="M688.827 -232.345C665.324 -231.535 641.014 -230.751 618.229 -222.007C582.073 -208.161 549.525 -174.131 526.598 -126.095C511.036 -93.5944 499.92 -54.9026 489.168 -17.5035C484.036 0.399661 478.691 18.9013 472.941 36.5738C466.843 55.4007 459.954 74.1416 453.297 92.2636C434.289 144.035 414.621 197.582 410.376 259.022C402.518 373.283 424.299 453.021 476.977 502.806C537.042 559.607 607.725 577.56 670.92 552.086C686.7 545.728 702.277 536.684 717.374 527.916C733.587 518.512 750.358 508.791 767.488 502.28C799.136 490.327 832.829 489.166 865.011 488.045C905.065 486.627 946.298 485.2 983.792 463.2C1012.77 446.164 1038.14 417.397 1057.03 394.259C1086.66 357.908 1122.1 307.087 1133.19 235.992C1146.35 151.542 1123.31 63.2231 1101 -22.1956L1098.04 -33.5202C1096.13 -40.8558 1094.26 -48.193 1092.36 -55.549C1081.4 -98.2466 1070.05 -142.364 1054.8 -182.057C1040.75 -218.673 1016.87 -267.102 983.001 -290.039C955.669 -308.521 926.168 -308.256 895.834 -306.148C873.419 -304.634 851.624 -302.36 831.452 -291.086C821.616 -285.597 812.121 -277.899 802.931 -270.45C794.465 -263.581 785.753 -256.485 776.701 -251.067C750.16 -235.152 721.166 -233.472 692.931 -232.49C691.557 -232.435 690.202 -232.4 688.827 -232.345ZM984.163 -295.591C1018.96 -272.023 1043.4 -222.515 1057.77 -185.107C1073.18 -145.007 1084.57 -100.616 1095.6 -57.6656C1097.5 -50.3489 1099.37 -43.0117 1101.28 -35.6761L1104.24 -24.3515C1126.8 62.0205 1150.09 151.332 1136.63 237.801C1125.27 310.617 1089.29 362.266 1059.23 399.165C1040.17 422.526 1014.51 451.599 985.11 468.849C947.137 491.163 905.479 492.804 865.279 494.012C833.139 495.17 799.739 496.3 768.44 508.121C751.484 514.566 734.81 524.224 718.694 533.604C703.539 542.395 687.845 551.482 671.891 557.906C607.865 583.749 536.248 565.538 475.367 507.983C421.201 456.823 398.792 375.065 406.877 258.022C411.191 195.322 431.055 141.235 450.259 88.9254C456.898 70.8632 463.73 52.1836 469.834 33.4744C475.549 15.9213 480.837 -2.5191 485.972 -20.3437C496.792 -58.0208 507.997 -96.9718 523.793 -130.013C547.175 -178.991 580.384 -213.736 617.277 -227.847C640.392 -236.703 664.837 -237.551 688.578 -238.332C717.796 -239.313 748.034 -240.336 775.343 -256.715C784.202 -262.046 792.878 -269.062 801.248 -275.868C810.534 -283.38 820.144 -291.161 830.172 -296.776C850.766 -308.302 872.816 -310.607 895.505 -312.131C900.427 -312.468 905.312 -312.763 910.2 -312.94C935.784 -313.834 960.647 -311.494 984.163 -295.591Z" fill="url(#paint7_linear)"/>
<path fill-rule="evenodd" clip-rule="evenodd" d="M691.936 -217.893C669.44 -217.105 646.137 -216.344 624.285 -207.994C589.669 -194.747 558.491 -162.117 536.497 -116.117C521.618 -84.93 510.956 -47.8779 500.659 -12.0396C495.736 5.10374 490.659 22.8234 485.138 39.755C479.268 57.8014 472.666 75.7398 466.278 93.1191C448.079 142.741 429.256 194.02 425.192 252.882C417.671 362.346 438.539 438.762 488.985 486.446C546.569 540.841 614.301 558.087 674.808 533.673C689.926 527.58 704.865 518.899 719.325 510.533C734.84 501.514 750.934 492.197 767.344 485.973C796.91 474.797 828.152 473.46 858.461 472.397C860.031 472.334 861.582 472.291 863.113 472.23C900.685 470.914 939.421 469.197 974.578 448.536C1002.35 432.223 1026.69 404.665 1044.78 382.47C1073.15 347.654 1107.07 298.972 1117.71 230.861C1130.34 149.931 1108.23 65.2894 1086.86 -16.5514L1084.03 -27.3867C1082.2 -34.4099 1080.4 -41.4534 1078.6 -48.4577C1068.08 -89.3751 1057.21 -131.674 1042.62 -169.695C1029.12 -204.772 1006.26 -251.188 973.769 -273.155C947.592 -290.874 919.357 -290.583 890.282 -288.607C868.794 -287.152 847.905 -284.954 828.586 -274.151C819.175 -268.917 810.083 -261.533 801.257 -254.395C793.175 -247.819 784.788 -241.033 776.123 -235.829C750.704 -220.593 722.951 -218.984 695.921 -218.034C694.586 -217.98 693.252 -217.926 691.936 -217.893ZM974.901 -278.469C1008.24 -255.907 1031.65 -208.451 1045.41 -172.638C1060.2 -134.173 1071.12 -91.64 1081.7 -50.5091C1083.51 -43.5048 1085.31 -36.4613 1087.13 -29.4381L1089.95 -18.6216C1111.55 64.1534 1133.91 149.748 1121 232.576C1110.14 302.347 1075.67 351.838 1046.87 387.163C1028.61 409.581 1004.03 437.404 975.848 453.95C939.46 475.329 899.665 476.597 861.057 478.053C830.297 479.153 798.26 480.247 768.268 491.597C752.012 497.737 736.035 507.01 720.576 515.967C706.059 524.395 691.062 533.098 675.77 539.257C614.45 563.978 545.826 546.552 487.447 491.423C435.553 442.401 414.099 364.043 421.814 251.918C425.948 191.834 444.987 140.035 463.383 89.9135C469.734 72.6143 476.299 54.7168 482.135 36.7897C487.621 19.9775 492.681 2.31747 497.586 -14.7662C507.95 -50.8824 518.681 -88.2125 533.798 -119.861C556.228 -166.783 588.049 -200.068 623.382 -213.599C645.542 -222.08 668.984 -222.827 691.695 -223.643C719.688 -224.612 748.665 -225.543 774.834 -241.222C783.345 -246.342 791.637 -253.064 799.662 -259.58C808.563 -266.799 817.77 -274.266 827.372 -279.626C847.077 -290.641 868.22 -292.869 889.962 -294.353C894.668 -294.661 899.355 -294.948 904.028 -295.097C928.526 -295.965 952.377 -293.721 974.901 -278.469Z" fill="url(#paint8_linear)"/>
<path fill-rule="evenodd" clip-rule="evenodd" d="M696.174 -202.946C674.651 -202.266 652.404 -201.5 631.52 -193.499C598.42 -180.867 568.636 -149.704 547.642 -105.729C533.421 -75.9516 523.25 -40.5399 513.428 -6.28141C508.723 10.0931 503.864 27.0435 498.6 43.2045C493.006 60.4591 486.702 77.6241 480.611 94.2305C463.247 141.637 445.258 190.659 441.401 246.918C434.262 351.536 454.24 424.607 502.497 470.229C557.565 522.259 622.326 538.739 680.174 515.438C694.621 509.618 708.894 501.33 722.707 493.335C737.557 484.749 752.905 475.829 768.625 469.9C797.587 458.965 828.21 457.885 857.932 456.879C894.341 455.589 932.382 454.331 966.682 434.187C993.223 418.594 1016.48 392.288 1033.76 371.091C1060.85 337.816 1093.3 291.303 1103.41 226.19C1115.44 148.861 1094.28 67.96 1073.8 -10.2966L1071.1 -20.6598C1069.34 -27.3872 1067.61 -34.1349 1065.87 -40.8827C1055.8 -79.9489 1045.41 -120.377 1031.42 -156.714C1018.52 -190.226 996.617 -234.637 965.585 -255.641C940.546 -272.581 913.546 -272.312 885.743 -270.441C865.209 -269.074 845.235 -266.963 826.797 -256.663C817.78 -251.649 809.077 -244.604 800.68 -237.767C792.929 -231.507 784.931 -225.02 776.638 -220.054C752.336 -205.493 725.797 -203.967 699.96 -203.077C698.685 -203.045 697.429 -202.996 696.174 -202.946ZM966.644 -260.712C998.543 -239.133 1020.94 -193.78 1034.12 -159.513C1048.26 -122.769 1058.72 -82.1276 1068.84 -42.8275C1070.58 -36.0797 1072.29 -29.3508 1074.05 -22.6235L1076.75 -12.2602C1097.46 66.8516 1118.87 148.666 1106.56 227.853C1096.19 294.508 1063.27 341.826 1035.75 375.57C1018.29 396.99 994.832 423.599 967.886 439.384C933.125 459.783 895.03 461.18 858.185 462.37C828.56 463.352 798.134 464.424 769.462 475.249C753.956 481.111 738.685 489.989 723.892 498.553C710.042 506.589 695.672 514.9 681.09 520.784C622.468 544.391 556.834 527.71 501.031 474.963C451.428 428.059 430.868 353.165 438.182 245.986C442.113 188.584 460.259 139.065 477.84 91.1782C483.893 74.6126 490.161 57.5275 495.74 40.3718C500.968 24.3301 505.81 7.43929 510.496 -8.91484C520.388 -43.4118 530.628 -79.062 545.086 -109.301C566.479 -154.156 596.886 -185.953 630.662 -198.867C651.838 -206.938 674.225 -207.652 695.94 -208.456C722.74 -209.326 750.422 -210.25 775.415 -225.231C783.554 -230.112 791.476 -236.517 799.13 -242.754C807.643 -249.634 816.421 -256.761 825.612 -261.881C844.453 -272.413 864.662 -274.533 885.451 -275.929C889.937 -276.245 894.445 -276.503 898.919 -276.642C922.342 -277.455 945.115 -275.316 966.644 -260.712Z" fill="url(#paint9_linear)"/>
<path fill-rule="evenodd" clip-rule="evenodd" d="M698.132 -187.326C677.5 -186.589 656.254 -185.927 636.305 -178.311C604.665 -166.239 576.181 -136.444 556.126 -94.4271C542.525 -65.9477 532.834 -32.113 523.455 0.646891C518.953 16.2913 514.317 32.5314 509.276 47.9807C503.921 64.4655 497.915 80.8778 492.103 96.7511C475.504 142.075 458.296 188.958 454.641 242.724C447.845 342.777 466.958 412.626 513.122 456.239C565.766 506.03 627.719 521.785 683.005 499.53C696.816 493.967 710.477 486.068 723.676 478.423C737.874 470.188 752.554 461.679 767.562 456.009C795.251 445.549 824.608 444.508 852.947 443.585C887.851 442.482 924.124 441.168 956.938 421.926C982.309 407.051 1004.52 381.872 1021.06 361.6C1046.95 329.821 1077.96 285.325 1087.62 223.097C1099.1 149.147 1078.83 71.7885 1059.25 -3.03961L1056.65 -12.9335C1054.96 -19.38 1053.3 -25.8077 1051.64 -32.2559C1042.01 -69.6368 1032.05 -108.264 1018.68 -143.038C1006.33 -175.097 985.398 -217.542 955.703 -237.64C931.748 -253.873 905.921 -253.62 879.369 -251.804C859.723 -250.497 840.655 -248.504 822.977 -238.676C814.39 -233.85 806.074 -227.146 798.027 -220.61C790.627 -214.611 782.981 -208.386 775.059 -203.666C751.835 -189.761 726.449 -188.306 701.728 -187.448C700.529 -187.42 699.311 -187.372 698.132 -187.326ZM956.733 -242.482C987.217 -221.844 1008.66 -178.475 1021.28 -145.718C1034.8 -110.577 1044.8 -71.7148 1054.48 -34.139C1056.15 -27.672 1057.82 -21.2442 1059.47 -14.8354L1062.06 -4.94153C1081.88 70.7433 1102.36 148.979 1090.64 224.67C1080.74 288.423 1049.26 333.626 1022.96 365.893C1006.31 386.366 983.833 411.792 958.098 426.898C924.86 446.393 888.447 447.653 853.173 448.83C824.972 449.767 795.791 450.782 768.393 461.132C753.56 466.735 738.918 475.204 724.835 483.395C711.56 491.082 697.861 499.022 683.875 504.651C627.833 527.192 565.103 511.212 511.707 460.801C464.235 415.941 444.581 344.343 451.538 241.862C455.286 186.971 472.632 139.611 489.43 93.8263C495.225 78.0128 501.214 61.6602 506.534 45.2948C511.538 29.9256 516.159 13.7846 520.621 -1.85832C530.09 -34.8381 539.87 -68.9322 553.671 -97.8327C574.124 -140.731 603.176 -171.1 635.454 -183.453C655.714 -191.16 677.17 -191.968 697.906 -192.571C723.529 -193.504 749.965 -194.292 773.881 -208.617C781.668 -213.274 789.238 -219.417 796.561 -225.373C804.685 -231.952 813.096 -238.758 821.857 -243.649C839.9 -253.709 859.222 -255.731 879.065 -257.046C883.401 -257.355 887.681 -257.603 891.945 -257.752C914.348 -258.518 936.133 -256.447 956.733 -242.482Z" fill="url(#paint10_linear)"/>
<path fill-rule="evenodd" clip-rule="evenodd" d="M701.692 -172.157C682.034 -171.49 661.844 -170.861 642.841 -163.612C612.739 -152.136 585.65 -123.768 566.573 -83.7955C553.65 -56.7065 544.413 -24.4714 535.526 6.68812C531.243 21.6029 526.821 36.995 522.078 51.7114C516.98 67.3855 511.269 82.9852 505.735 98.106C489.95 141.234 473.614 185.819 470.166 237.021C463.729 332.209 481.97 398.691 525.942 440.239C576.086 487.643 635.011 502.692 687.656 481.529C700.779 476.259 713.792 468.732 726.344 461.459C739.857 453.638 753.811 445.544 768.109 440.149C793.798 430.457 820.969 429.321 847.324 428.452C848.699 428.398 850.073 428.345 851.429 428.312C884.087 427.217 917.773 425.748 948.346 407.823C972.501 393.649 993.611 369.702 1009.32 350.448C1033.98 320.169 1063.42 277.866 1072.61 218.654C1083.47 148.286 1064.18 74.6678 1045.5 3.46451L1043 -5.99483C1041.42 -12.1078 1039.82 -18.2396 1038.24 -24.3918C1029.05 -59.9603 1019.54 -96.7353 1006.78 -129.824C995.048 -160.338 975.092 -200.757 946.819 -219.89C924.021 -235.363 899.451 -235.114 874.151 -233.421C855.459 -232.202 837.285 -230.314 820.491 -220.949C812.316 -216.363 804.39 -209.959 796.75 -203.782C789.722 -198.061 782.445 -192.154 774.897 -187.632C752.808 -174.423 728.655 -173.07 705.11 -172.251L701.692 -172.157ZM947.795 -224.51C976.817 -204.836 997.26 -163.551 1009.26 -132.379C1022.15 -98.9409 1031.71 -61.9318 1040.94 -26.1685C1042.54 -20.0366 1044.1 -13.9033 1045.72 -7.79187L1048.18 1.66898C1067.07 73.6704 1086.61 148.124 1075.46 220.155C1066.1 280.829 1036.17 323.82 1011.16 354.526C995.277 374.002 973.959 398.173 949.439 412.539C917.809 431.075 883.15 432.327 849.585 433.378C822.682 434.308 794.95 435.191 768.893 445.035C754.77 450.363 740.872 458.396 727.436 466.176C714.808 473.491 701.757 481.058 688.478 486.373C635.156 507.819 575.418 492.585 524.6 444.559C479.401 401.839 460.622 333.687 467.241 236.171C470.746 183.925 487.241 138.882 503.205 95.3138C508.703 80.2731 514.395 64.6939 519.438 49.1202C524.186 34.5216 528.57 19.1703 532.836 4.31517C541.811 -27.1034 551.099 -59.5567 564.221 -87.0664C583.678 -127.86 611.315 -156.78 642.038 -168.477C661.292 -175.834 681.597 -176.546 701.454 -177.143C725.964 -177.94 751.044 -178.739 773.765 -192.347C781.16 -196.784 788.38 -202.63 795.352 -208.289C803.086 -214.568 811.068 -221.034 819.417 -225.685C836.557 -235.261 854.946 -237.176 873.874 -238.405C877.972 -238.702 882.052 -238.94 886.117 -239.078C907.426 -239.771 928.172 -237.806 947.795 -224.51Z" fill="url(#paint11_linear)"/>
<path fill-rule="evenodd" clip-rule="evenodd" d="M706.15 -157.081C687.515 -156.406 668.289 -155.746 650.242 -148.802C621.608 -137.84 595.813 -110.83 577.607 -72.7876C565.275 -47.0244 556.448 -16.3917 547.897 13.2462C543.785 27.4193 539.572 42.0685 535.021 56.0631C530.131 70.9961 524.647 85.8357 519.382 100.194C504.275 141.216 488.67 183.634 485.253 232.273C478.93 322.745 496.089 385.89 537.728 425.246C585.256 470.159 641.215 484.338 691.25 464.11C703.745 459.049 716.1 451.849 728.053 444.923C740.91 437.467 754.17 429.738 767.762 424.592C792.192 415.319 818.046 414.188 843.102 413.266C844.339 413.234 845.596 413.182 846.852 413.13C877.917 411.999 909.933 410.533 939.045 393.415C962 379.896 982.151 357.113 997.098 338.734C1020.57 309.952 1048.68 269.689 1057.53 213.371C1068.04 146.482 1049.86 76.5556 1032.27 8.92469L1029.94 -0.0247913C1028.44 -5.80375 1026.95 -11.622 1025.47 -17.4607C1016.82 -51.2426 1007.91 -86.174 995.863 -117.593C984.756 -146.553 965.905 -184.907 939.097 -203.048C917.493 -217.669 894.125 -217.348 870.118 -215.723C852.329 -214.494 835.075 -212.657 819.107 -203.715C811.325 -199.38 803.806 -193.247 796.535 -187.34C789.815 -181.909 782.887 -176.292 775.714 -171.963C754.692 -159.35 731.737 -158.004 709.39 -157.195C708.33 -157.151 707.231 -157.106 706.15 -157.081ZM940.035 -207.414C967.549 -188.81 986.864 -149.61 998.211 -120.011C1010.37 -88.2624 1019.36 -53.1378 1028.04 -19.1408C1029.54 -13.3225 1031.01 -7.52311 1032.53 -1.72534L1034.85 7.20533C1052.63 75.5947 1071 146.3 1060.24 214.812C1051.18 272.456 1022.66 313.405 998.817 342.635C983.718 361.177 963.379 384.205 940.078 397.896C910.004 415.604 877.191 416.788 845.203 417.938C819.812 418.854 793.302 419.796 768.484 429.204C755.087 434.302 741.865 441.99 729.066 449.424C717.075 456.391 704.662 463.612 692.031 468.699C641.317 489.211 584.626 474.885 536.465 429.35C493.625 388.883 475.974 324.146 482.47 231.484C485.949 181.84 501.715 139.001 516.962 97.5412C522.25 83.2408 527.675 68.4232 532.512 53.6302C537.047 39.7345 541.261 25.1246 545.336 10.9925C553.957 -18.8451 562.855 -49.7167 575.368 -75.8808C593.958 -114.706 620.283 -142.25 649.478 -153.451C667.798 -160.485 687.181 -161.151 705.954 -161.812C729.106 -162.635 753.044 -163.49 774.662 -176.462C781.701 -180.688 788.572 -186.243 795.214 -191.632C802.563 -197.581 810.178 -203.777 818.113 -208.236C834.428 -217.35 851.877 -219.234 869.862 -220.472C873.747 -220.712 877.631 -220.952 881.479 -221.111C901.744 -221.834 921.436 -220.015 940.035 -207.414Z" fill="url(#paint12_linear)"/>
<path fill-rule="evenodd" clip-rule="evenodd" d="M708.555 -142.413C690.963 -141.84 672.726 -141.143 655.612 -134.594C628.478 -124.188 604.053 -98.6178 586.799 -62.5903C575.147 -38.1791 566.754 -9.16462 558.678 18.8929C554.795 32.3254 550.791 46.2151 546.469 59.4692C541.865 73.6001 536.688 87.6564 531.671 101.254C517.373 140.128 502.573 180.281 499.357 226.363C493.351 312.06 509.595 371.845 549.062 409.118C594.073 451.666 647.079 465.059 694.449 445.91C706.302 441.132 717.981 434.337 729.295 427.772C741.474 420.681 754.078 413.375 766.93 408.496C790.074 399.711 814.548 398.637 838.283 397.79C839.46 397.741 840.638 397.692 841.836 397.662C871.263 396.58 901.564 395.205 929.13 378.981C950.886 366.184 969.936 344.592 984.129 327.192C1006.37 299.943 1032.98 261.758 1041.35 208.463C1051.3 145.095 1034.1 78.8607 1017.43 14.8075L1015.24 6.3454C1013.82 0.859925 1012.41 -4.64601 1011.01 -10.1519C1002.82 -42.1748 994.352 -75.248 982.962 -104.995C972.443 -132.458 954.577 -168.759 929.188 -185.932C908.719 -199.77 886.574 -199.501 863.848 -197.949C847.044 -196.799 830.675 -195.059 815.559 -186.587C808.184 -182.447 801.047 -176.685 794.159 -171.071C787.824 -165.932 781.241 -160.606 774.454 -156.53C754.554 -144.557 732.8 -143.281 711.637 -142.521C710.617 -142.479 709.576 -142.455 708.555 -142.413ZM930.075 -190.078C956.15 -172.462 974.42 -135.332 985.175 -107.308C996.696 -77.2127 1005.21 -43.9449 1013.45 -11.7666C1014.85 -6.26066 1016.26 -0.754766 1017.68 4.73072L1019.88 13.1724C1036.72 77.9462 1054.12 144.938 1043.92 209.812C1035.36 264.412 1008.34 303.204 985.762 330.9C971.436 348.442 952.178 370.259 930.114 383.227C901.625 400 870.35 401.081 840.255 402.191C815.972 403.1 791.097 403.955 767.624 412.892C754.889 417.726 742.383 425.008 730.279 432.018C718.908 438.644 707.131 445.463 695.202 450.283C647.154 469.716 593.453 456.136 547.871 413.021C507.303 374.693 490.549 313.376 496.694 225.608C499.994 178.579 514.935 137.988 529.395 98.7337C534.374 85.1771 539.534 71.1805 544.122 57.1485C548.408 43.9746 552.394 30.1446 556.26 16.7718C564.425 -11.5057 572.851 -40.7181 584.705 -65.5113C602.304 -102.281 627.223 -128.343 654.899 -138.968C672.244 -145.645 690.598 -146.347 708.368 -146.907C730.336 -147.681 752.972 -148.482 773.451 -160.755C780.123 -164.747 786.63 -170.031 792.907 -175.148C799.871 -180.804 807.084 -186.648 814.594 -190.852C830.057 -199.496 846.603 -201.263 863.622 -202.441C867.289 -202.692 870.957 -202.903 874.608 -203.054C893.788 -203.751 912.449 -202.009 930.075 -190.078Z" fill="url(#paint13_linear)"/>
<path fill-rule="evenodd" clip-rule="evenodd" d="M712.573 -127.165C695.952 -126.665 678.707 -126.061 662.546 -119.875C636.946 -110.11 613.895 -85.9887 597.664 -51.9683C586.668 -28.9336 578.811 -1.55814 571.195 24.9423C567.562 37.6349 563.808 50.7453 559.735 63.2585C555.399 76.5886 550.55 89.8604 545.841 102.694C532.409 139.377 518.495 177.318 515.519 220.826C510.018 301.785 525.49 358.292 562.828 393.596C605.436 433.884 655.56 446.634 700.289 428.618C711.481 424.123 722.52 417.707 733.214 411.541C744.675 404.872 756.58 397.969 768.713 393.398C791.138 384.939 814.984 384.113 837.829 383.348C866.149 382.267 895.42 381.384 921.972 365.798C942.487 353.756 960.472 333.395 973.833 316.974C994.816 291.282 1019.88 255.28 1027.7 204.893C1037 145.085 1020.62 82.4777 1004.75 21.9345L1002.65 13.9337C1001.31 8.75488 999.962 3.5368 998.637 -1.66243C990.842 -31.9198 982.791 -63.2095 971.952 -91.3599C961.967 -117.282 945.004 -151.622 920.999 -167.903C901.623 -181.003 880.743 -180.806 859.223 -179.345C843.333 -178.284 827.897 -176.69 813.596 -168.709C806.647 -164.835 799.917 -159.396 793.437 -154.104C787.432 -149.244 781.237 -144.22 774.817 -140.386C756.022 -129.139 735.475 -127.953 715.479 -127.28C714.497 -127.241 713.515 -127.202 712.573 -127.165ZM921.829 -171.83C946.519 -155.104 963.846 -120.012 974.03 -93.5269C985 -65.067 993.078 -33.6013 1000.92 -3.18836C1002.28 2.00931 1003.61 7.20854 1004.95 12.3874L1007.07 20.407C1023.09 81.6525 1039.67 144.941 1030.13 206.194C1022.14 257.787 996.667 294.356 975.386 320.453C961.913 337.036 943.739 357.601 922.897 369.833C896.556 385.273 867.733 386.571 839.762 387.52C839.173 387.543 838.584 387.566 837.995 387.59C815.035 388.439 791.579 389.17 769.387 397.542C757.39 402.088 745.581 408.928 734.139 415.576C723.407 421.783 712.311 428.221 701.002 432.76C655.633 451.017 604.853 438.077 561.694 397.28C523.294 360.995 507.373 303.05 513.033 220.118C516.052 175.704 530.128 137.382 543.683 100.321C548.374 87.547 553.205 74.2956 557.525 61.0645C561.562 48.6313 565.298 35.5806 568.953 22.9462C576.582 -3.73176 584.508 -31.346 595.667 -54.7608C612.245 -89.4441 635.73 -114.035 661.872 -124.018C678.266 -130.292 695.55 -130.897 712.386 -131.426C733.127 -132.167 754.54 -132.818 773.873 -144.4C780.157 -148.17 786.296 -153.133 792.224 -157.95C798.821 -163.286 805.607 -168.786 812.71 -172.745C827.28 -180.894 842.911 -182.535 858.997 -183.605C862.47 -183.84 865.943 -184.037 869.381 -184.153C887.511 -184.772 905.16 -183.11 921.829 -171.83Z" fill="url(#paint14_linear)"/>
<path fill-rule="evenodd" clip-rule="evenodd" d="M716.612 -113.193C700.982 -112.657 684.684 -112.093 669.472 -106.278C645.336 -97.0286 623.603 -74.2924 608.309 -42.2298C597.915 -20.5447 590.495 5.29179 583.297 30.2727C579.874 42.2047 576.31 54.5756 572.449 66.368C568.361 78.9373 563.759 91.4488 559.318 103.54C546.62 138.116 533.494 173.851 530.668 214.857C525.388 291.146 539.899 344.383 575.044 377.586C615.153 415.491 662.324 427.455 704.492 410.444C715.039 406.197 725.439 400.144 735.492 394.301C746.336 388.014 757.546 381.534 768.975 377.191C789.565 369.405 811.301 368.444 832.415 367.704C833.516 367.659 834.656 367.613 835.777 367.587C861.925 366.683 888.886 365.43 913.378 351.048C932.709 339.671 949.674 320.455 962.255 305.001C982.059 280.749 1005.71 246.811 1013.13 199.357C1021.96 142.967 1006.57 84.0167 991.694 26.9944L989.713 19.436C988.464 14.5648 987.175 9.6558 985.945 4.76411C978.617 -23.7416 971.056 -53.2222 960.893 -79.6833C951.515 -104.129 935.577 -136.459 912.985 -151.764C894.737 -164.115 875.041 -163.886 854.797 -162.493C839.835 -161.491 825.268 -159.935 811.814 -152.419C805.26 -148.767 798.92 -143.627 792.791 -138.633C787.138 -134.072 781.294 -129.346 775.272 -125.695C757.546 -115.072 738.159 -113.95 719.306 -113.283C718.401 -113.246 717.497 -113.209 716.612 -113.193ZM913.749 -155.457C936.987 -139.745 953.288 -106.701 962.862 -81.7321C973.155 -54.9612 980.762 -25.325 988.095 3.338C989.365 8.22809 990.634 13.1182 991.882 17.9894L993.864 25.5478C1008.9 83.2132 1024.44 142.827 1015.42 200.563C1007.82 249.147 983.804 283.651 963.737 308.268C951.006 323.886 933.871 343.285 914.25 354.812C889.412 369.405 862.254 370.666 835.93 371.597C835.38 371.62 834.809 371.623 834.259 371.646C812.728 372.303 790.515 373.166 769.597 381.103C758.303 385.382 747.151 391.839 736.366 398.105C726.254 403.969 715.796 410.044 705.133 414.336C662.422 431.565 614.595 419.451 573.975 381.036C537.849 346.888 522.893 292.33 528.32 214.205C531.212 172.349 544.462 136.235 557.285 101.319C561.727 89.2672 566.31 76.7762 570.382 64.306C574.207 52.5938 577.733 40.2638 581.158 28.3711C588.407 3.21091 595.88 -22.8049 606.418 -44.8502C622.062 -77.5374 644.229 -100.744 668.852 -110.151C684.295 -116.094 700.653 -116.64 716.44 -117.183C735.866 -117.814 756.134 -118.539 774.34 -129.477C780.287 -133.046 786.093 -137.731 791.688 -142.27C797.875 -147.285 804.271 -152.487 810.979 -156.224C824.703 -163.909 839.427 -165.472 854.605 -166.501C857.884 -166.733 861.125 -166.924 864.388 -167.056C881.453 -167.631 898.068 -166.081 913.749 -155.457Z" fill="url(#paint15_linear)"/>
<path fill-rule="evenodd" clip-rule="evenodd" d="M718.989 -96.8899C704.235 -96.4387 689.092 -95.8933 674.848 -90.4271C652.249 -81.8147 631.913 -60.5075 617.579 -30.51C607.866 -10.1776 600.918 13.998 594.214 37.3771C591.01 48.5788 587.684 60.1591 584.1 71.199C580.269 82.9568 575.965 94.6942 571.801 105.993C559.92 138.371 547.668 171.846 545.028 210.228C540.132 281.665 553.771 331.533 586.725 362.672C624.295 398.191 668.495 409.467 708 393.532C717.837 389.559 727.609 383.898 737.035 378.447C747.171 372.554 757.655 366.491 768.355 362.445C788.146 354.948 809.05 354.349 829.335 353.52C854.302 352.7 880.171 351.805 903.592 338.046C921.726 327.389 937.57 309.428 949.38 294.972C967.89 272.243 990.023 240.478 996.932 196.045C1005.17 143.258 990.731 88.0324 976.758 34.6371L974.908 27.512C973.707 22.918 972.545 18.3224 971.344 13.7284C964.466 -12.9638 957.395 -40.553 947.837 -65.3679C939.041 -88.266 924.097 -118.55 902.888 -132.889C885.839 -144.442 867.416 -144.277 848.407 -142.988C834.381 -142.054 820.748 -140.605 808.158 -133.572C802.016 -130.16 796.086 -125.341 790.347 -120.686C785.046 -116.383 779.572 -111.975 773.922 -108.563C757.334 -98.6368 739.221 -97.5795 721.562 -96.973C720.717 -96.9589 719.853 -96.9244 718.989 -96.8899ZM903.638 -136.361C925.414 -121.612 940.679 -90.6525 949.671 -67.2705C959.319 -42.1838 966.474 -14.4406 973.377 12.3883C974.559 17.0027 975.74 21.5779 976.941 26.1719L978.771 33.2781C992.905 87.2767 1007.5 143.106 999.08 197.159C991.997 242.681 969.53 274.97 950.737 298.006C938.835 312.643 922.822 330.788 904.418 341.573C880.669 355.523 854.681 356.383 829.521 357.289C809.369 358.014 788.546 358.688 768.968 366.079C758.366 370.101 747.94 376.143 737.841 381.994C728.378 387.486 718.587 393.168 708.613 397.166C668.604 413.279 623.791 401.928 585.711 365.939C551.838 333.912 537.815 282.781 542.822 209.627C545.508 170.417 557.905 136.622 569.91 103.905C574.055 92.6263 578.321 80.9298 582.116 69.2521C585.703 58.2908 589.012 46.7701 592.218 35.6077C598.973 12.0495 605.974 -12.3052 615.813 -32.9376C630.457 -63.5573 651.19 -85.2933 674.254 -94.0817C688.712 -99.6154 704.089 -100.21 718.824 -100.64C737.15 -101.273 756.027 -101.889 773.076 -112.109C778.632 -115.419 784.066 -119.826 789.29 -124.086C795.067 -128.782 801.074 -133.644 807.37 -137.14C820.249 -144.322 834.019 -145.797 848.203 -146.736C851.263 -146.937 854.325 -147.099 857.368 -147.24C873.377 -147.781 888.933 -146.317 903.638 -136.361Z" fill="url(#paint16_linear)"/>
<path fill-rule="evenodd" clip-rule="evenodd" d="M722.429 -81.8752C708.635 -81.4131 694.588 -80.921 681.285 -75.8419C660.219 -67.7558 641.232 -47.9067 627.859 -19.9159C618.799 -0.961292 612.292 21.603 606.031 43.4106C603.049 53.827 599.924 64.6029 596.564 74.8971C592.995 85.9072 588.991 96.817 585.111 107.388C574.023 137.565 562.541 168.78 560.056 204.6C555.444 271.196 568.139 317.677 598.831 346.687C633.843 379.765 675.045 390.214 711.865 375.377C721.054 371.644 730.146 366.382 738.93 361.291C748.386 355.798 758.169 350.115 768.162 346.33C786.172 339.508 805.197 338.695 823.619 338.045C824.542 338.027 825.463 337.97 826.386 337.952C849.262 337.141 872.816 336.086 894.24 323.486C911.15 313.565 925.932 296.794 936.93 283.301C954.216 262.107 974.874 232.484 981.348 191.04C989.058 141.804 975.623 90.3237 962.646 40.5534L960.94 33.9426C959.813 29.6463 958.726 25.3484 957.6 21.0521C951.23 -3.79863 944.632 -29.5045 935.755 -52.6226C927.554 -73.9802 913.65 -102.199 893.907 -115.563C877.996 -126.331 860.795 -126.104 843.1 -124.933C830.05 -124.049 817.332 -122.707 805.578 -116.159C799.846 -112.94 794.319 -108.471 788.965 -104.108C784.05 -100.097 778.922 -95.9786 773.659 -92.8176C758.179 -83.5438 741.282 -82.543 724.842 -81.9536C724.037 -81.9406 723.252 -81.9087 722.429 -81.8752ZM894.589 -118.793C914.876 -105.078 929.08 -76.2035 937.475 -54.4019C946.439 -31.0516 953.083 -5.19039 959.497 19.8156C960.604 24.0932 961.711 28.4099 962.817 32.6874L964.523 39.2982C977.659 89.6318 991.235 141.696 983.353 192.098C976.72 234.531 955.747 264.658 938.218 286.157C927.107 299.772 912.155 316.726 894.995 326.795C873.302 339.563 849.552 340.626 826.519 341.444C825.617 341.481 824.694 341.499 823.792 341.535C805.448 342.182 786.521 343.01 768.723 349.726C758.828 353.488 749.082 359.129 739.703 364.579C730.842 369.714 721.752 375.015 712.426 378.773C675.143 393.825 633.365 383.223 597.885 349.711C566.336 319.872 553.283 272.226 558.009 203.995C560.526 167.447 572.133 135.932 583.328 105.436C587.209 94.9049 591.194 84.0155 594.747 73.1044C598.071 62.8902 601.177 52.1347 604.16 41.7575C610.473 19.7709 617.013 -2.95186 626.221 -22.1875C639.866 -50.7591 659.23 -71.0165 680.723 -79.2379C694.219 -84.4033 708.422 -84.9411 722.295 -85.3672C739.326 -85.9412 756.945 -86.5391 772.867 -96.0863C778.052 -99.2048 783.122 -103.301 788 -107.271C793.392 -111.675 798.995 -116.186 804.843 -119.45C816.847 -126.146 829.702 -127.513 842.928 -128.424C845.789 -128.618 848.631 -128.793 851.494 -128.909C866.386 -129.416 880.877 -128.06 894.589 -118.793Z" fill="url(#paint17_linear)"/>
<path fill-rule="evenodd" clip-rule="evenodd" d="M726.362 -67.4471C713.668 -67.0553 700.405 -66.6218 688.043 -61.9081C668.443 -54.4126 650.798 -35.9787 638.366 -9.92418C629.97 7.69926 623.974 28.678 618.167 48.9598C615.405 58.6815 612.518 68.743 609.414 78.3005C606.1 88.5361 602.37 98.6892 598.784 108.522C588.502 136.601 577.904 165.639 575.655 198.984C571.463 260.993 583.387 304.293 612.02 331.362C644.686 362.235 683.07 372.062 717.354 358.285C725.904 354.822 734.359 349.944 742.544 345.234C751.343 340.107 760.452 334.849 769.73 331.338C786.462 325.057 804.126 324.295 821.266 323.732C821.738 323.714 822.21 323.695 822.663 323.698C844.488 323.032 866.8 322.209 887.13 310.312C902.839 301.114 916.598 285.53 926.833 272.978C942.889 253.266 962.059 225.709 968.019 187.157C975.106 141.311 962.501 93.3286 950.295 46.927L948.711 40.8409C947.685 36.8612 946.639 32.9019 945.592 28.9033C939.597 5.70816 933.414 -18.2678 925.101 -39.8168C917.426 -59.7158 904.41 -86.0286 885.999 -98.4985C871.153 -108.545 855.139 -108.419 838.671 -107.31C826.505 -106.544 814.654 -105.298 803.746 -99.2026C798.427 -96.2387 793.274 -92.0597 788.293 -88.0253C783.714 -84.3018 778.942 -80.4528 774.035 -77.5245C759.662 -68.9108 743.934 -68.0274 728.604 -67.5338C727.857 -67.5049 727.109 -67.476 726.362 -67.4471ZM886.647 -101.499C905.545 -88.6927 918.841 -61.78 926.71 -41.4747C935.111 -19.6927 941.34 4.43914 947.359 27.7712C948.405 31.7305 949.411 35.6913 950.457 39.6506L952.082 45.7745C964.387 92.6845 977.132 141.213 969.891 188.129C963.791 227.613 944.304 255.635 928.023 275.631C917.675 288.306 903.785 304.073 887.845 313.397C867.689 325.229 845.619 326.161 824.211 326.909C823.739 326.927 823.285 326.925 822.813 326.943C805.28 327.522 787.236 328.12 770.251 334.51C761.071 337.997 752.02 343.233 743.257 348.281C735.055 353.05 726.523 357.971 717.894 361.437C683.146 375.428 644.244 365.464 611.148 334.193C581.677 306.349 569.473 261.957 573.741 198.428C576.042 164.411 586.766 135.073 597.115 106.714C600.722 96.901 604.433 86.7683 607.711 76.6129C610.797 67.1151 613.647 57.0945 616.431 47.4311C622.271 26.9903 628.3 5.85275 636.842 -12.0522C649.511 -38.6084 667.493 -57.4494 687.522 -65.0797C700.059 -69.8592 713.363 -70.2549 726.212 -70.6922C742.014 -71.2041 758.505 -71.7229 773.301 -80.5894C778.131 -83.4753 782.826 -87.2819 787.368 -90.9645C792.386 -95.0398 797.616 -99.2612 803.031 -102.288C814.21 -108.512 826.179 -109.763 838.501 -110.574C841.154 -110.735 843.808 -110.897 846.444 -110.999C860.337 -111.457 873.866 -110.167 886.647 -101.499Z" fill="url(#paint18_linear)"/>
<path fill-rule="evenodd" clip-rule="evenodd" d="M729.644 -50.9756C717.802 -50.6359 705.729 -50.169 694.335 -45.8167C676.258 -38.8946 660.004 -21.8806 648.541 2.13661C640.752 18.4162 635.204 37.7514 629.828 56.4505C627.263 65.4018 624.59 74.6328 621.726 83.4978C618.667 92.9017 615.232 102.262 611.884 111.323C602.381 137.228 592.557 163.971 590.435 194.69C586.497 251.83 597.389 291.698 623.728 316.61C653.78 344.991 689.101 353.968 720.718 341.231C728.577 338.044 736.386 333.521 743.905 329.148C752.021 324.456 760.425 319.575 768.971 316.341C784.456 310.506 800.787 309.809 816.631 309.229C817.005 309.234 817.377 309.199 817.75 309.204C837.684 308.617 858.394 307.801 877.139 296.763C891.637 288.274 904.316 273.901 913.779 262.313C928.573 244.138 946.274 218.729 951.828 183.192C958.423 140.968 946.876 96.8195 935.717 54.0912L934.261 48.4282C933.295 44.7707 932.366 41.0723 931.4 37.4147C925.919 16.0662 920.255 -5.98269 912.63 -25.8291C905.615 -44.1271 893.674 -68.3415 876.737 -79.8298C863.071 -89.0904 848.313 -88.9085 833.154 -87.8847C821.938 -87.1181 811.051 -85.9715 800.945 -80.3537C796.037 -77.6195 791.29 -73.7513 786.714 -70.0278C782.482 -66.5933 778.115 -63.0551 773.581 -60.3162C760.32 -52.3888 745.843 -51.5301 731.725 -51.0594C731.039 -51.0121 730.351 -51.004 729.644 -50.9756ZM877.32 -82.586C894.72 -70.8214 906.938 -46.048 914.124 -27.3636C921.816 -7.30367 927.506 14.8819 933.03 36.3466C933.977 40.0245 934.925 43.7025 935.871 47.3412L937.347 53.023C948.622 96.199 960.287 140.873 953.534 184.087C947.856 220.495 929.877 246.328 914.858 264.786C905.319 276.457 892.489 290.993 877.78 299.628C859.169 310.563 838.777 311.483 819.004 312.142C818.278 312.191 817.532 312.221 816.805 312.231C801.02 312.788 784.767 313.483 769.457 319.251C760.969 322.464 752.642 327.302 744.565 331.993C737.006 336.367 729.16 340.93 721.203 344.141C689.18 357.033 653.362 347.937 622.924 319.199C595.85 293.609 584.624 252.712 588.686 194.21C590.842 162.841 600.774 135.818 610.365 109.654C613.694 100.613 617.11 91.2738 620.152 81.9296C623 73.1635 625.654 63.953 628.221 55.0409C633.63 36.1832 639.232 16.7082 647.129 0.188283C658.83 -24.2908 675.424 -41.6723 693.869 -48.7469C705.437 -53.1652 717.789 -53.5254 729.509 -53.9781C744.196 -54.4914 759.258 -54.9607 772.921 -63.16C777.36 -65.836 781.688 -69.3333 785.883 -72.727C790.515 -76.5118 795.301 -80.3815 800.324 -83.1991C810.622 -88.9425 821.646 -90.1143 832.98 -90.8857C835.451 -91.0639 837.904 -91.1824 840.338 -91.2805C853.14 -91.7178 865.551 -90.5467 877.32 -82.586Z" fill="url(#paint19_linear)"/>
<path fill-rule="evenodd" clip-rule="evenodd" d="M732.748 -36.5279C721.975 -36.1145 710.825 -35.7842 700.406 -31.7884C683.848 -25.4429 668.943 -9.848 658.432 12.1542C651.302 27.0239 646.227 44.7393 641.306 61.8785C638.949 70.0706 636.505 78.5609 633.869 86.6463C631.058 95.289 627.911 103.886 624.87 112.165C616.155 135.903 607.157 160.439 605.215 188.582C601.612 240.927 611.609 277.454 635.717 300.266C663.251 326.281 695.64 334.492 724.59 322.833C731.809 319.929 738.96 315.789 745.88 311.777C753.3 307.469 760.969 303.014 768.814 300.045C782.974 294.7 797.924 294.06 812.427 293.536C813.154 293.526 813.86 293.498 814.587 293.488C832.564 292.844 851.084 292.021 867.919 282.147C881.178 274.342 892.816 261.178 901.466 250.551C915.033 233.909 931.272 210.616 936.345 178.062C942.38 139.357 931.82 98.9019 921.585 59.7701L920.226 54.5772C919.35 51.232 918.493 47.8664 917.635 44.4615C912.598 24.9317 907.397 4.72068 900.407 -13.4728C893.983 -30.2346 883.026 -52.4351 867.528 -62.9361C854.997 -71.4141 841.482 -71.2638 827.584 -70.3317C817.294 -69.6233 807.311 -68.593 798.077 -63.4264C793.595 -60.9074 789.25 -57.3916 785.038 -53.9795C781.15 -50.8358 777.149 -47.5697 773 -45.0838C760.84 -37.8145 747.566 -37.0253 734.632 -36.6036C734.004 -36.5784 733.376 -36.5532 732.748 -36.5279ZM868.059 -65.4729C884.001 -54.6753 895.192 -31.9929 901.768 -14.8638C908.844 3.52273 914.069 23.8311 919.131 43.4975C919.987 46.8631 920.844 50.2287 921.722 53.6132L923.08 58.7668C933.39 98.3475 944.107 139.288 937.911 178.903C932.73 212.228 916.25 235.905 902.477 252.81C893.751 263.518 881.981 276.825 868.529 284.716C851.138 294.948 832.121 295.614 813.632 296.239C798.776 296.777 783.605 297.289 769.251 302.72C761.504 305.665 753.853 310.1 746.471 314.367C739.532 318.4 732.343 322.58 725.028 325.508C695.711 337.358 662.884 329.008 634.982 302.615C610.201 279.182 599.915 241.742 603.605 188.116C605.564 159.383 614.671 134.607 623.475 110.649C626.516 102.37 629.644 93.7933 632.44 85.2495C635.038 77.205 637.483 68.7539 639.84 60.5619C644.796 43.3033 649.926 25.4874 657.145 10.3587C667.874 -12.0847 683.081 -28.0062 699.969 -34.4632C710.562 -38.525 721.83 -38.86 732.623 -39.2546C745.987 -39.7721 759.865 -40.1925 772.389 -47.6926C776.461 -50.1361 780.426 -53.3222 784.274 -56.4643C788.505 -59.8968 792.907 -63.4739 797.505 -66.0368C806.932 -71.2899 817.031 -72.3641 827.42 -73.0568C829.693 -73.2268 831.929 -73.356 834.166 -73.4459C845.882 -73.858 857.283 -72.7833 868.059 -65.4729Z" fill="url(#paint20_linear)"/>
<path fill-rule="evenodd" clip-rule="evenodd" d="M735.403 -21.8227C725.604 -21.4783 715.53 -21.1623 706.038 -17.5527C690.997 -11.8224 677.506 2.32475 667.974 22.2825C661.523 35.8007 656.921 51.8958 652.453 67.4361C650.334 74.878 648.146 82.5581 645.748 89.8931C643.212 97.7046 640.362 105.528 637.599 113.054C629.718 134.576 621.552 156.816 619.836 182.374C616.615 229.872 625.699 263.034 647.635 283.761C672.65 307.409 702.049 314.912 728.32 304.346C734.868 301.715 741.372 297.948 747.626 294.328C754.379 290.414 761.343 286.393 768.478 283.7C781.297 278.861 794.854 278.291 808.024 277.854C808.69 277.827 809.375 277.781 810.023 277.775C826.348 277.234 843.136 276.479 858.402 267.521C870.467 260.475 881.022 248.523 888.843 238.876C901.14 223.814 915.845 202.672 920.445 173.135C925.884 138.031 916.247 101.3 906.952 65.7916L905.705 61.0523C904.877 57.9841 904.108 54.9333 903.32 51.8636C898.731 34.1072 894.002 15.7675 887.618 -0.741189C881.776 -15.9563 871.813 -36.1123 857.718 -45.6666C846.344 -53.3848 834.064 -53.2572 821.46 -52.4104C812.143 -51.8101 803.074 -50.8663 794.704 -46.1821C790.613 -43.9222 786.659 -40.7061 782.857 -37.6136C779.319 -34.767 775.688 -31.8186 771.95 -29.5726C760.889 -22.958 748.847 -22.2706 737.088 -21.8887C736.539 -21.8672 735.951 -21.8442 735.403 -21.8227ZM858.195 -47.9815C872.693 -38.1682 882.869 -17.5888 888.863 -2.00677C895.273 14.6775 900.046 33.1332 904.658 50.9868C905.446 54.0173 906.234 57.087 907.042 60.1363L908.289 64.8756C917.68 100.812 927.431 137.951 921.868 173.884C917.159 204.151 902.252 225.634 889.75 240.959C881.833 250.669 871.184 262.723 858.967 269.893C843.51 278.976 826.563 279.698 810.141 280.263C809.475 280.289 808.808 280.315 808.142 280.341C795.05 280.775 781.572 281.342 768.868 286.137C761.811 288.788 754.885 292.807 748.17 296.681C741.879 300.342 735.375 304.109 728.75 306.782C702.131 317.479 672.335 309.874 646.974 285.906C624.427 264.614 615.073 230.599 618.368 181.96C620.121 155.871 628.356 133.393 636.326 111.652C639.071 104.146 641.922 96.3616 644.441 88.6097C646.802 81.3154 649.01 73.6541 651.131 66.2515C655.612 50.5732 660.251 34.3982 666.81 20.6403C676.523 0.282995 690.297 -14.1303 705.647 -19.9905C715.274 -23.6643 725.502 -24.0648 735.285 -24.3104C747.492 -24.7688 760.018 -25.1219 771.366 -31.9243C775.066 -34.1297 778.66 -37.0374 782.139 -39.8621C785.98 -42.9952 789.992 -46.2333 794.139 -48.5543C802.702 -53.3245 811.888 -54.2729 821.321 -54.917C823.358 -55.036 825.394 -55.155 827.432 -55.2347C838.073 -55.5926 848.395 -54.623 858.195 -47.9815Z" fill="url(#paint21_linear)"/>
<path fill-rule="evenodd" clip-rule="evenodd" d="M738.298 -8.04401C729.544 -7.72751 720.336 -7.45263 711.78 -4.18894C698.198 0.981532 685.987 13.7424 677.415 31.7609C671.585 43.9812 667.423 58.5013 663.42 72.5622C661.504 79.2742 659.498 86.2063 657.362 92.8282C655.086 99.8889 652.533 106.921 650.03 113.734C642.914 133.174 635.569 153.273 634.018 176.34C631.14 219.275 639.381 249.236 659.207 267.976C681.838 289.346 708.412 296.146 732.121 286.627C738.033 284.253 743.905 280.856 749.545 277.586C755.648 274.062 761.942 270.412 768.385 267.998C779.931 263.634 792.164 263.125 804.047 262.748C804.362 262.736 804.696 262.703 805.031 262.71C820.039 262.153 835.564 261.695 849.632 253.452C860.526 247.085 870.019 236.28 877.095 227.597C888.208 213.972 901.505 194.906 905.609 168.214C910.495 136.489 901.77 103.317 893.323 71.198L892.206 66.9467C891.482 64.1575 890.761 61.4078 890.058 58.6376C885.905 42.6049 881.611 26.0261 875.848 11.119C870.545 -2.64362 861.537 -20.8536 848.797 -29.4848C838.508 -36.4568 827.44 -36.3863 816.025 -35.613C807.596 -35.0726 799.415 -34.2265 791.843 -30.0157C788.144 -27.9432 784.596 -25.0492 781.143 -22.2572C777.977 -19.693 774.695 -17.0455 771.291 -15.004C761.346 -9.0474 750.457 -8.43221 739.853 -8.08403C739.321 -8.0833 738.809 -8.06365 738.298 -8.04401ZM849.224 -31.5893C862.329 -22.6964 871.531 -4.08021 876.963 9.95318C882.792 25.0351 887.091 41.7319 891.266 57.8228C891.989 60.6119 892.692 63.3821 893.434 66.1508L894.551 70.4022C903.071 102.853 911.911 136.435 906.878 168.894C902.681 196.22 889.2 215.608 877.919 229.456C870.787 238.24 861.159 249.109 850.132 255.58C835.872 263.948 820.251 264.469 805.121 264.952C793.021 265.318 780.49 265.78 768.75 270.19C762.365 272.582 756.128 276.21 750.045 279.714C744.367 283.024 738.495 286.421 732.504 288.799C708.466 298.468 681.514 291.584 658.596 269.91C638.217 250.659 629.747 219.92 632.683 175.978C634.274 152.416 641.69 132.118 648.895 112.458C651.36 105.685 653.933 98.6723 656.192 91.6714C658.33 85.0888 660.296 78.1582 662.214 71.4855C666.251 57.3051 670.429 42.686 676.351 30.2848C685.105 11.9048 697.562 -1.1216 711.415 -6.38131C720.086 -9.72821 729.334 -10.0046 738.187 -10.3052C749.108 -10.6261 760.538 -11.0061 770.791 -17.1321C774.118 -19.1313 777.381 -21.7583 780.49 -24.3006C784.001 -27.1144 787.586 -30.0493 791.382 -32.1453C799.088 -36.4597 807.387 -37.3103 815.914 -37.8742C817.762 -37.9846 819.609 -38.0949 821.439 -38.1455C831.039 -38.4748 840.374 -37.5726 849.224 -31.5893Z" fill="url(#paint22_linear)"/>
<path fill-rule="evenodd" clip-rule="evenodd" d="M741.603 7.7565C733.849 8.06457 725.718 8.28951 718.124 11.1997C706.124 15.7756 695.288 27.0913 687.673 43.0449C682.525 53.8404 678.829 66.6964 675.255 79.1357C673.565 85.0867 671.786 91.257 669.877 97.1187C667.847 103.397 665.539 109.608 663.344 115.657C657.033 132.854 650.509 150.647 649.13 171.08C646.533 209.075 653.765 235.579 671.298 252.161C691.295 271.058 714.788 277.029 735.797 268.584C741.048 266.453 746.246 263.442 751.271 260.536C756.641 257.42 762.202 254.179 767.904 252.05C778.167 248.17 789.014 247.7 799.551 247.321C800.08 247.32 800.589 247.299 801.098 247.279C814.143 246.839 827.612 246.226 839.807 239.073C849.451 233.414 857.904 223.86 864.154 216.159C873.999 204.078 885.775 187.214 889.442 163.572C893.818 135.489 886.141 106.12 878.698 77.7217L877.707 73.9365C877.062 71.4909 876.436 69.0249 875.811 66.5589C872.159 52.3866 868.39 37.7285 863.326 24.5537C858.615 12.3847 850.69 -3.73606 839.409 -11.3684C830.304 -17.5182 820.503 -17.4034 810.428 -16.7481C802.976 -16.2363 795.709 -15.4769 789.011 -11.7393C785.747 -9.92297 782.591 -7.36559 779.531 -4.87085C776.717 -2.60162 773.828 -0.250962 770.82 1.57486C761.984 6.84872 752.337 7.40851 742.955 7.7224C742.485 7.74107 742.054 7.75819 741.603 7.7565ZM839.789 -13.2072C851.372 -5.37107 859.506 11.0944 864.306 23.5345C869.416 36.8644 873.206 51.5804 876.881 65.8499C877.526 68.2955 878.152 70.7615 878.796 73.2071L879.767 76.9734C887.302 105.721 895.051 135.421 890.583 164.174C886.82 188.369 874.879 205.534 864.904 217.796C858.559 225.56 850.032 235.235 840.253 240.958C827.886 248.216 814.337 248.793 801.216 249.275C800.667 249.297 800.158 249.317 799.629 249.319C789.15 249.676 778.363 250.164 768.235 253.979C762.61 256.104 757.048 259.307 751.678 262.423C746.634 265.349 741.436 268.36 736.127 270.513C714.849 279.086 691.019 273.031 670.776 253.869C652.755 236.835 645.281 209.654 647.94 170.735C649.382 149.907 655.956 131.897 662.339 114.541C664.536 108.53 666.805 102.321 668.817 96.102C670.747 90.2592 672.507 84.1092 674.199 78.1974C677.809 65.6782 681.501 52.7439 686.741 41.7682C694.519 25.4747 705.541 13.9162 717.813 9.25115C725.504 6.31745 733.635 6.09251 741.525 5.7594C751.26 5.43151 761.289 5.11152 770.353 -0.328341C773.324 -2.11344 776.175 -4.42339 778.971 -6.67225C782.05 -9.18735 785.264 -11.7666 788.583 -13.6441C795.417 -17.4459 802.78 -18.2288 810.311 -18.7437C811.954 -18.8482 813.579 -18.9323 815.185 -18.9961C823.705 -19.2758 831.972 -18.5059 839.789 -13.2072Z" fill="url(#paint23_linear)"/>
<path fill-rule="evenodd" clip-rule="evenodd" d="M745.141 23.5954C738.276 23.8857 731.25 24.0648 724.629 26.5789C714.129 30.5976 704.683 40.4914 698.022 54.4287C693.515 63.873 690.293 75.1083 687.175 85.9868C685.694 91.178 684.143 96.568 682.482 101.668C680.699 107.146 678.701 112.612 676.772 117.88C671.271 132.927 665.574 148.472 664.355 166.309C662.095 199.507 668.434 222.708 683.755 237.17C701.234 253.701 721.795 258.944 740.155 251.559C744.726 249.714 749.245 247.067 753.652 244.542C758.364 241.81 763.229 238.992 768.21 237.111C777.147 233.722 786.633 233.329 795.828 233.005C796.298 232.987 796.767 232.968 797.257 232.968C808.643 232.559 820.378 232.057 831.064 225.797C839.47 220.862 846.841 212.519 852.337 205.798C860.933 195.233 871.205 180.448 874.41 159.81C878.226 135.288 871.496 109.614 864.975 84.7751L864.14 81.4775C863.567 79.3647 863.013 77.2315 862.478 75.078C859.268 62.6858 855.961 49.8272 851.531 38.306C847.429 27.6534 840.489 13.5863 830.646 6.90197C822.677 1.53475 814.1 1.63785 805.287 2.20086C798.78 2.63375 792.439 3.29519 786.592 6.56236C783.716 8.16468 780.983 10.3883 778.286 12.5713C775.857 14.5479 773.312 16.6073 770.69 18.18C762.977 22.8138 754.552 23.2831 746.335 23.568C745.962 23.5631 745.532 23.58 745.141 23.5954ZM830.955 5.30276C841.099 12.1515 848.209 26.5646 852.397 37.4097C856.872 49.0859 860.201 62.0024 863.414 74.4728C863.968 76.606 864.522 78.7391 865.056 80.8535L865.93 84.1496C872.52 109.241 879.32 135.205 875.411 160.358C872.128 181.489 861.688 196.496 852.96 207.204C847.429 214.005 839.982 222.428 831.422 227.448C820.622 233.791 808.809 234.296 797.345 234.708C796.855 234.708 796.386 234.727 795.916 234.745C786.76 235.067 777.352 235.458 768.492 238.804C763.55 240.684 758.704 243.481 754.011 246.193C749.624 248.737 745.066 251.385 740.437 253.252C721.806 260.726 701.007 255.414 683.286 238.696C667.537 223.801 661.018 200.02 663.326 166.036C664.568 147.807 670.317 132.083 675.892 116.915C677.82 111.648 679.8 106.202 681.566 100.784C683.208 95.7036 684.761 90.3527 686.241 85.1614C689.377 74.2235 692.614 62.8897 697.214 53.3046C704 39.0684 713.615 28.9917 724.347 24.8854C730.678 22.4807 737.383 22.1184 743.879 21.9015L745.073 21.874C753.581 21.5189 762.349 21.2907 770.292 16.5303C772.856 14.9795 775.383 12.9795 777.813 11.0029C780.489 8.80116 783.299 6.53532 786.194 4.91267C792.194 1.56109 798.614 0.896556 805.199 0.460589C806.645 0.364392 808.072 0.288524 809.48 0.232991C816.915 -0.0209738 824.112 0.67478 830.955 5.30276Z" fill="url(#paint24_linear)"/>
<path fill-rule="evenodd" clip-rule="evenodd" d="M748.681 39.1971C742.852 39.3937 736.749 39.6415 731.029 41.8383C721.973 45.3215 713.841 53.8754 708.051 65.8848C704.149 74.0174 701.343 83.6943 698.624 93.0725C697.326 97.5329 695.975 102.172 694.518 106.6C692.974 111.327 691.23 115.984 689.542 120.54C684.748 133.508 679.792 146.897 678.697 162.258C676.61 190.835 682.002 210.748 695.091 223.149C710.068 237.295 727.732 241.73 743.524 235.318C747.476 233.69 751.386 231.415 755.141 229.226C759.205 226.866 763.403 224.401 767.69 222.778C775.408 219.845 783.53 219.45 791.419 219.143C791.851 219.124 792.303 219.124 792.735 219.105C802.507 218.716 812.591 218.235 821.776 212.82C829.034 208.511 835.386 201.313 840.136 195.522C847.559 186.39 856.468 173.654 859.306 155.876C862.676 134.753 856.973 112.691 851.472 91.3474L850.764 88.528C850.288 86.7206 849.831 84.8928 849.354 83.0461C846.663 72.3913 843.841 61.3491 840.076 51.4491C836.592 42.3034 830.668 30.2177 822.235 24.5129C815.412 19.9169 808.066 20.003 800.461 20.5722C794.874 20.9547 789.411 21.5283 784.362 24.3838C781.915 25.7688 779.526 27.7017 777.213 29.5527C775.112 31.296 772.914 33.0633 770.642 34.421C764.002 38.4274 756.767 38.8821 749.702 39.1524C749.349 39.1679 749.014 39.1629 748.681 39.1971ZM822.54 23.1233C831.195 28.9953 837.266 41.3302 840.815 50.6892C844.643 60.6848 847.448 71.7867 850.181 82.5183C850.638 84.3462 851.094 86.174 851.57 87.9814L852.298 90.8196C857.847 112.397 863.597 134.693 860.167 156.33C857.266 174.543 848.227 187.5 840.669 196.737C835.902 202.588 829.475 209.868 822.1 214.221C812.78 219.701 802.638 220.205 792.806 220.577C792.355 220.616 791.923 220.635 791.471 220.635C783.622 220.94 775.539 221.333 767.936 224.222C763.689 225.843 759.51 228.287 755.465 230.627C751.691 232.837 747.762 235.132 743.771 236.762C727.746 243.263 709.864 238.778 694.723 224.443C681.209 211.687 675.682 191.268 677.805 162.042C678.947 146.344 683.957 132.815 688.805 119.707C690.456 115.192 692.198 110.496 693.725 105.829C695.183 101.44 696.515 96.8212 697.814 92.3609C700.55 82.923 703.373 73.1863 707.349 64.9325C713.248 52.6431 721.57 43.9236 730.8 40.3738C736.579 38.1547 742.743 37.9632 748.609 37.6865C755.912 37.4844 763.505 37.132 770.318 33.0197C772.531 31.6842 774.711 29.9374 776.832 28.2128C779.143 26.3226 781.551 24.3692 784.057 22.9619C789.203 20.0825 794.723 19.4475 800.388 19.0616C801.604 18.969 802.839 18.8952 804.037 18.8624C810.435 18.6213 816.643 19.1552 822.54 23.1233Z" fill="url(#paint25_linear)"/>
<path fill-rule="evenodd" clip-rule="evenodd" d="M750.68 51.8281C745.767 52.0121 740.675 52.1837 735.903 54.0219C728.325 56.9251 721.498 64.0657 716.676 74.127C713.432 80.9214 711.085 89.0026 708.848 96.8422C707.764 100.602 706.644 104.483 705.418 108.19C704.123 112.136 702.689 116.069 701.289 119.843C697.307 130.719 693.161 141.938 692.257 154.781C690.581 178.723 695.134 195.392 706.133 205.824C718.727 217.693 733.49 221.468 746.744 216.076C750.035 214.774 753.304 212.88 756.456 211.029C759.859 209.031 763.38 207.027 766.964 205.653C773.471 203.17 780.337 202.885 787.007 202.648C787.283 202.637 787.559 202.625 787.796 202.615C796.044 202.313 804.546 201.94 812.261 197.411C818.351 193.819 823.659 187.788 827.608 182.941C833.825 175.351 841.252 164.688 843.602 149.789C846.381 132.124 841.562 113.61 836.904 95.7402L836.302 93.3542C835.908 91.8093 835.515 90.2645 835.121 88.7196C832.813 79.8038 830.453 70.5739 827.279 62.2671C824.345 54.6025 819.364 44.4735 812.29 39.6881C806.574 35.8146 800.411 35.8726 794.026 36.335C789.335 36.6482 784.77 37.1537 780.55 39.5026C778.478 40.6359 776.504 42.279 774.586 43.821C772.802 45.2585 770.961 46.7578 769.086 47.8829C763.521 51.2362 757.428 51.5877 751.529 51.8126C751.272 51.8035 750.956 51.8166 750.68 51.8281ZM812.542 38.5116C819.799 43.4278 824.908 53.7887 827.907 61.6284C831.124 70.0125 833.505 79.3007 835.796 88.2765C836.19 89.8214 836.583 91.3663 836.977 92.9112L837.598 95.2766C842.304 113.381 847.15 132.073 844.308 150.174C841.912 165.411 834.372 176.238 828.061 183.969C824.074 188.858 818.709 194.95 812.542 198.585C804.711 203.198 796.17 203.572 787.843 203.878C787.724 203.883 787.566 203.889 787.448 203.894C780.719 204.114 773.714 204.385 767.168 206.87C763.602 208.223 760.101 210.246 756.736 212.203C753.564 214.035 750.277 215.95 746.949 217.333C733.556 222.71 718.557 218.945 705.818 206.905C694.493 196.209 689.824 179.091 691.538 154.574C692.432 141.454 696.613 130.115 700.67 119.157C702.031 115.385 703.486 111.471 704.762 107.545C705.968 103.859 707.088 99.9782 708.154 96.2385C710.45 88.3768 712.793 80.2166 716.112 73.3006C721.005 63.0387 727.965 55.7542 735.679 52.7861C740.257 51.0351 745.088 50.7754 749.765 50.6012C750.041 50.5897 750.317 50.5783 750.633 50.5652C756.789 50.3494 763.085 50.1475 768.805 46.7088C770.661 45.6042 772.463 44.1066 774.228 42.6896C776.165 41.1271 778.178 39.4823 780.288 38.3079C784.605 35.8958 789.209 35.3886 793.959 35.0533C795.004 34.9902 796.029 34.9476 797.055 34.9051C802.402 34.703 807.598 35.199 812.542 38.5116Z" fill="url(#paint26_linear)"/>
<path fill-rule="evenodd" clip-rule="evenodd" d="M755.395 66.5355C751.429 66.6807 747.383 66.8292 743.565 68.2924C737.506 70.6195 732.067 76.3399 728.216 84.3659C725.593 89.8308 723.721 96.3317 721.899 102.613C721.041 105.593 720.149 108.694 719.192 111.659C718.162 114.785 716.995 117.936 715.883 120.986C712.688 129.657 709.385 138.608 708.661 148.915C707.318 168.062 710.955 181.409 719.761 189.739C729.797 199.243 741.626 202.249 752.235 197.953C754.883 196.895 757.474 195.364 760.008 193.895C762.716 192.32 765.56 190.68 768.424 189.592C773.587 187.619 779.032 187.392 784.34 187.191C784.616 187.18 784.893 187.168 785.169 187.157C791.76 186.922 798.506 186.602 804.655 182.986C809.529 180.135 813.775 175.295 816.931 171.428C821.921 165.331 827.868 156.803 829.737 144.887C831.958 130.743 828.109 115.943 824.376 101.631L823.911 99.7533C823.569 98.5224 823.246 97.271 822.943 96.0385C821.117 88.9009 819.222 81.5093 816.703 74.8748C814.34 68.7279 810.364 60.6323 804.689 56.7972C800.109 53.707 795.171 53.7543 790.086 54.1239C786.342 54.3982 782.7 54.7671 779.313 56.6669C777.667 57.5852 776.075 58.857 774.521 60.1272C773.121 61.2724 771.625 62.4809 770.117 63.3737C765.672 66.0487 760.821 66.3295 756.105 66.5059C755.868 66.5158 755.632 66.5256 755.395 66.5355ZM804.853 55.8813C810.709 59.8077 814.792 68.1163 817.178 74.361C819.739 81.0728 821.654 88.4833 823.482 95.6604C823.805 96.9118 824.128 98.1632 824.431 99.3957L824.935 101.272C828.695 115.76 832.59 130.717 830.303 145.219C828.384 157.394 822.344 166.065 817.317 172.242C814.104 176.17 809.819 181.052 804.868 183.946C798.642 187.604 791.817 187.928 785.226 188.162C784.95 188.174 784.674 188.185 784.397 188.197C779.129 188.396 773.704 188.641 768.579 190.574C765.734 191.641 762.93 193.279 760.222 194.854C757.688 196.324 755.057 197.856 752.39 198.935C741.683 203.254 729.676 200.236 719.497 190.6C710.406 182.045 706.676 168.346 708.062 148.743C708.818 138.237 712.156 129.165 715.367 120.395C716.48 117.384 717.648 114.233 718.659 111.127C719.636 108.182 720.509 105.102 721.367 102.121C723.187 95.8005 725.058 89.2601 727.717 83.7147C731.661 75.507 737.234 69.6822 743.41 67.3107C747.053 65.9141 750.917 65.6743 754.667 65.5579C754.883 65.5291 755.14 65.5382 755.358 65.5489C760.251 65.3453 765.324 65.1936 769.884 62.4347C771.393 61.5419 772.83 60.3556 774.23 59.2104C775.804 57.9592 777.395 56.6479 779.08 55.728C782.545 53.7854 786.246 53.3944 790.029 53.1184C790.877 53.0634 791.685 53.01 792.514 52.9755C796.796 52.8172 800.94 53.2179 804.853 55.8813Z" fill="url(#paint27_linear)"/>
<path fill-rule="evenodd" clip-rule="evenodd" d="M757.978 81.6655C755.226 81.7727 752.378 81.9429 749.715 82.965C745.2 84.7372 741.137 88.9718 738.245 94.971C736.305 99.01 734.9 103.846 733.528 108.484C732.878 110.724 732.191 113.043 731.481 115.227C730.698 117.57 729.837 119.917 729.012 122.184C726.604 128.63 724.105 135.296 723.554 142.928C722.494 157.133 725.144 167.042 731.658 173.214C739.079 180.225 747.828 182.403 755.716 179.204C757.663 178.391 759.619 177.245 761.48 176.162C763.512 174.974 765.583 173.744 767.745 172.941C771.586 171.454 775.645 171.267 779.586 171.086C779.763 171.097 779.958 171.088 780.153 171.079C785.033 170.893 790.066 170.623 794.628 167.91C798.252 165.768 801.418 162.181 803.786 159.295C807.488 154.764 811.932 148.42 813.361 139.555C815.05 129.036 812.25 118.117 809.538 107.507L809.179 106.077C808.953 105.149 808.727 104.22 808.482 103.313C807.155 97.9965 805.765 92.5465 803.905 87.646C802.212 83.0898 799.24 77.0868 795.083 74.267C791.706 71.9784 787.995 72.071 784.251 72.3216C781.444 72.5291 778.756 72.8092 776.243 74.2351C775.034 74.936 773.854 75.8898 772.692 76.8232C771.626 77.6935 770.521 78.5656 769.41 79.2425C766.095 81.2527 762.487 81.4775 758.993 81.6188C758.661 81.6145 758.33 81.6493 757.978 81.6655ZM795.216 73.5567C799.513 76.4678 802.509 82.6066 804.263 87.2577C806.166 92.2345 807.557 97.7236 808.884 103.04C809.128 103.947 809.354 104.876 809.58 105.804L809.939 107.234C812.674 117.941 815.499 129.034 813.779 139.79C812.317 148.852 807.818 155.296 804.059 159.888C801.674 162.834 798.469 166.423 794.807 168.605C790.168 171.361 785.096 171.633 780.177 171.821C779.982 171.83 779.806 171.818 779.592 171.848C775.688 171.988 771.649 172.194 767.866 173.658C765.743 174.46 763.672 175.69 761.659 176.858C759.761 177.981 757.803 179.088 755.837 179.922C747.872 183.163 738.966 180.953 731.444 173.849C724.748 167.51 722.033 157.389 723.1 142.811C723.686 135.022 726.182 128.278 728.626 121.752C729.452 119.524 730.314 117.177 731.078 114.854C731.807 112.65 732.495 110.37 733.126 108.151C734.516 103.453 735.94 98.5964 737.916 94.4774C740.863 88.378 745 84.0226 749.594 82.2468C752.295 81.1839 755.163 81.0323 757.954 80.9233L758.969 80.8766C762.423 80.7371 766.011 80.4937 769.251 78.5652C770.362 77.8883 771.447 76.9975 772.494 76.1476C773.636 75.1956 774.855 74.24 776.102 73.5373C778.635 72.0911 781.399 71.7683 784.227 71.5794C784.831 71.532 785.436 71.4846 786.041 71.4763C789.222 71.3494 792.318 71.5979 795.216 73.5567Z" fill="url(#paint28_linear)"/>
<path fill-rule="evenodd" clip-rule="evenodd" d="M762.1 98.8925C760.276 98.9806 758.413 99.0707 756.646 99.7785C753.649 100.935 750.956 103.769 749.035 107.732C747.718 110.441 746.785 113.618 745.888 116.715C745.447 118.195 744.988 119.735 744.507 121.178C743.972 122.76 743.416 124.284 742.84 125.79C741.26 130.068 739.588 134.526 739.197 139.563C738.474 149.012 740.229 155.58 744.531 159.632C749.455 164.296 755.232 165.709 760.473 163.569C761.779 163.039 763.059 162.296 764.318 161.535C765.656 160.77 767.049 159.944 768.471 159.409C771.007 158.43 773.647 158.303 776.248 158.177L776.753 158.153C779.956 158.018 783.274 157.838 786.31 156.038C788.696 154.619 790.82 152.241 792.375 150.318C794.848 147.281 797.772 143.074 798.74 137.211C799.889 130.231 798.035 122.968 796.266 115.935L796.023 114.993C795.868 114.359 795.712 113.724 795.557 113.09C794.693 109.611 793.787 106.017 792.56 102.77C791.439 99.7703 789.51 95.7981 786.733 93.9483C784.489 92.4033 782.061 92.4623 779.559 92.6415C777.717 92.7889 775.916 93.012 774.253 93.9288C773.412 94.3974 772.635 95.0379 771.876 95.6581C771.194 96.2357 770.473 96.8152 769.71 97.28C767.515 98.6114 765.128 98.7462 762.799 98.8587C762.566 98.87 762.333 98.8812 762.1 98.8925ZM786.835 93.4764C789.693 95.4001 791.662 99.4481 792.825 102.524C794.053 105.81 794.94 109.424 795.824 112.921C795.979 113.556 796.135 114.19 796.309 114.804L796.533 115.766C798.343 122.875 800.199 130.216 799.037 137.372C798.053 143.372 795.054 147.66 792.542 150.699C790.969 152.642 788.846 155.059 786.402 156.5C783.328 158.341 780.01 158.521 776.768 158.658C776.593 158.647 776.437 158.654 776.282 158.662C773.681 158.787 771.023 158.935 768.524 159.873C767.122 160.427 765.747 161.233 764.43 162.016C763.15 162.758 761.871 163.501 760.546 164.051C755.247 166.214 749.372 164.786 744.389 160.066C739.966 155.904 738.167 149.144 738.904 139.519C739.31 134.344 740.981 129.848 742.599 125.53C743.156 124.044 743.731 122.499 744.247 120.937C744.728 119.494 745.187 117.955 745.609 116.495C746.525 113.377 747.476 110.141 748.793 107.432C750.768 103.369 753.518 100.474 756.553 99.2771C758.378 98.5859 760.24 98.457 762.085 98.3873C762.338 98.3946 762.571 98.3833 762.784 98.3536C765.094 98.2614 767.461 98.1082 769.598 96.7989C770.342 96.3545 771.063 95.775 771.746 95.1974C772.504 94.5772 773.32 93.9348 774.123 93.4681C775.842 92.4903 777.663 92.2856 779.525 92.1567C779.932 92.1176 780.359 92.097 780.747 92.0782C782.864 91.9954 784.89 92.1698 786.835 93.4764Z" fill="url(#paint29_linear)"/>
<path fill-rule="evenodd" clip-rule="evenodd" d="M764.7 112.911C763.793 112.948 762.828 113.008 761.932 113.362C760.413 113.939 759.063 115.358 758.09 117.354C757.451 118.744 756.977 120.364 756.503 121.944C756.313 122.683 756.085 123.463 755.835 124.185C755.568 124.966 755.301 125.748 755.013 126.51C754.224 128.677 753.399 130.924 753.218 133.499C752.862 138.275 753.777 141.635 755.987 143.716C758.483 146.061 761.436 146.847 764.081 145.749C764.743 145.484 765.4 145.101 766.039 144.739C766.715 144.335 767.431 143.93 768.132 143.664C769.417 143.176 770.758 143.12 772.099 143.064L772.336 143.054C773.993 142.985 775.689 142.915 777.196 142.022C778.394 141.3 779.475 140.09 780.249 139.129C781.515 137.595 782.996 135.459 783.459 132.496C784.019 128.937 783.051 125.224 782.109 121.648L782.014 121.217L781.761 120.26C781.301 118.501 780.838 116.663 780.183 114.992C779.614 113.475 778.61 111.442 777.212 110.493C776.239 109.822 775.209 109.747 774.163 109.771C773.945 109.76 773.75 109.807 773.553 109.816C772.626 109.874 771.702 109.972 770.871 110.461C770.444 110.676 770.041 110.989 769.677 111.301C769.293 111.593 768.948 111.884 768.563 112.137C767.461 112.796 766.259 112.865 765.076 112.915C764.937 112.901 764.819 112.906 764.7 112.911ZM777.262 110.234C778.721 111.24 779.726 113.312 780.316 114.848C780.972 116.559 781.435 118.397 781.897 120.195C781.988 120.507 782.058 120.801 782.148 121.113L782.243 121.544C783.208 125.178 784.176 128.93 783.62 132.569C783.121 135.612 781.602 137.789 780.375 139.322C779.562 140.323 778.481 141.534 777.244 142.257C775.697 143.151 774.001 143.222 772.345 143.291C772.266 143.294 772.187 143.298 772.089 143.321C770.807 143.355 769.447 143.432 768.18 143.899C767.479 144.165 766.784 144.589 766.087 144.974C765.469 145.355 764.791 145.719 764.15 146.003C761.465 147.103 758.434 146.32 755.915 143.916C753.644 141.779 752.726 138.34 753.059 133.467C753.257 130.831 754.102 128.563 754.889 126.358C755.158 125.616 755.464 124.832 755.692 124.052C755.942 123.331 756.17 122.551 756.38 121.831C756.834 120.232 757.308 118.612 757.966 117.202C758.957 115.145 760.344 113.685 761.903 113.106C762.798 112.753 763.745 112.714 764.692 112.674C764.81 112.669 764.947 112.644 765.066 112.639C766.23 112.61 767.412 112.521 768.514 111.902C768.881 111.67 769.245 111.358 769.589 111.067C769.993 110.754 770.396 110.441 770.802 110.207C771.673 109.716 772.597 109.619 773.542 109.54C773.74 109.531 773.937 109.523 774.154 109.534C775.219 109.49 776.27 109.584 777.262 110.234Z" fill="url(#paint30_linear)"/>
</g>
<defs>
<linearGradient id="paint0_linear" x1="-8.10713" y1="364.982" x2="652.761" y2="767.158" gradientUnits="userSpaceOnUse">
<stop stop-color="#737373" stop-opacity="0.01"/>
<stop offset="1" stop-color="#3F3F3F"/>
</linearGradient>
<linearGradient id="paint1_linear" x1="17.1738" y1="357.194" x2="656.141" y2="746.157" gradientUnits="userSpaceOnUse">
<stop stop-color="#737373" stop-opacity="0.01"/>
<stop offset="1" stop-color="#3F3F3F"/>
</linearGradient>
<linearGradient id="paint2_linear" x1="43.7593" y1="348.399" x2="662.954" y2="724.822" gradientUnits="userSpaceOnUse">
<stop stop-color="#737373" stop-opacity="0.01"/>
<stop offset="1" stop-color="#3F3F3F"/>
</linearGradient>
<linearGradient id="paint3_linear" x1="67.6456" y1="342.907" x2="664.352" y2="706.101" gradientUnits="userSpaceOnUse">
<stop stop-color="#737373" stop-opacity="0.01"/>
<stop offset="1" stop-color="#3F3F3F"/>
</linearGradient>
<linearGradient id="paint4_linear" x1="92.5202" y1="334.361" x2="667.881" y2="684.446" gradientUnits="userSpaceOnUse">
<stop stop-color="#737373" stop-opacity="0.01"/>
<stop offset="1" stop-color="#3F3F3F"/>
</linearGradient>
<linearGradient id="paint5_linear" x1="118.85" y1="325.58" x2="672.834" y2="662.641" gradientUnits="userSpaceOnUse">
<stop stop-color="#737373" stop-opacity="0.01"/>
<stop offset="1" stop-color="#3F3F3F"/>
</linearGradient>
<linearGradient id="paint6_linear" x1="144.453" y1="317.975" x2="678.109" y2="642.392" gradientUnits="userSpaceOnUse">
<stop stop-color="#737373" stop-opacity="0.01"/>
<stop offset="1" stop-color="#3F3F3F"/>
</linearGradient>
<linearGradient id="paint7_linear" x1="168.057" y1="311.592" x2="679.256" y2="622.693" gradientUnits="userSpaceOnUse">
<stop stop-color="#737373" stop-opacity="0.01"/>
<stop offset="1" stop-color="#3F3F3F"/>
</linearGradient>
<linearGradient id="paint8_linear" x1="192.998" y1="303.242" x2="682.82" y2="601.321" gradientUnits="userSpaceOnUse">
<stop stop-color="#737373" stop-opacity="0.01"/>
<stop offset="1" stop-color="#3F3F3F"/>
</linearGradient>
<linearGradient id="paint9_linear" x1="219.477" y1="294.96" x2="687.954" y2="579.929" gradientUnits="userSpaceOnUse">
<stop stop-color="#737373" stop-opacity="0.01"/>
<stop offset="1" stop-color="#3F3F3F"/>
</linearGradient>
<linearGradient id="paint10_linear" x1="242.435" y1="288.609" x2="690.521" y2="561.108" gradientUnits="userSpaceOnUse">
<stop stop-color="#737373" stop-opacity="0.01"/>
<stop offset="1" stop-color="#3F3F3F"/>
</linearGradient>
<linearGradient id="paint11_linear" x1="268.22" y1="280.542" x2="694.96" y2="539.931" gradientUnits="userSpaceOnUse">
<stop stop-color="#737373" stop-opacity="0.01"/>
<stop offset="1" stop-color="#3F3F3F"/>
</linearGradient>
<linearGradient id="paint12_linear" x1="293.346" y1="274.12" x2="697.567" y2="520.366" gradientUnits="userSpaceOnUse">
<stop stop-color="#737373" stop-opacity="0.01"/>
<stop offset="1" stop-color="#3F3F3F"/>
</linearGradient>
<linearGradient id="paint13_linear" x1="317.593" y1="265.986" x2="700.436" y2="499.208" gradientUnits="userSpaceOnUse">
<stop stop-color="#737373" stop-opacity="0.01"/>
<stop offset="1" stop-color="#3F3F3F"/>
</linearGradient>
<linearGradient id="paint14_linear" x1="343.823" y1="257.969" x2="706.37" y2="478.462" gradientUnits="userSpaceOnUse">
<stop stop-color="#737373" stop-opacity="0.01"/>
<stop offset="1" stop-color="#3F3F3F"/>
</linearGradient>
<linearGradient id="paint15_linear" x1="368.898" y1="250.011" x2="710.005" y2="457.654" gradientUnits="userSpaceOnUse">
<stop stop-color="#737373" stop-opacity="0.01"/>
<stop offset="1" stop-color="#3F3F3F"/>
</linearGradient>
<linearGradient id="paint16_linear" x1="393.509" y1="243.071" x2="713.271" y2="437.604" gradientUnits="userSpaceOnUse">
<stop stop-color="#737373" stop-opacity="0.01"/>
<stop offset="1" stop-color="#3F3F3F"/>
</linearGradient>
<linearGradient id="paint17_linear" x1="418.79" y1="235.283" x2="716.651" y2="416.603" gradientUnits="userSpaceOnUse">
<stop stop-color="#737373" stop-opacity="0.01"/>
<stop offset="1" stop-color="#3F3F3F"/>
</linearGradient>
<linearGradient id="paint18_linear" x1="444.12" y1="227.311" x2="722.145" y2="396.264" gradientUnits="userSpaceOnUse">
<stop stop-color="#737373" stop-opacity="0.01"/>
<stop offset="1" stop-color="#3F3F3F"/>
</linearGradient>
<linearGradient id="paint19_linear" x1="469.262" y1="220.996" x2="724.861" y2="376.547" gradientUnits="userSpaceOnUse">
<stop stop-color="#737373" stop-opacity="0.01"/>
<stop offset="1" stop-color="#3F3F3F"/>
</linearGradient>
<linearGradient id="paint20_linear" x1="494.203" y1="212.646" x2="728.425" y2="355.174" gradientUnits="userSpaceOnUse">
<stop stop-color="#737373" stop-opacity="0.01"/>
<stop offset="1" stop-color="#3F3F3F"/>
</linearGradient>
<linearGradient id="paint21_linear" x1="519.077" y1="204.101" x2="731.955" y2="333.519" gradientUnits="userSpaceOnUse">
<stop stop-color="#737373" stop-opacity="0.01"/>
<stop offset="1" stop-color="#3F3F3F"/>
</linearGradient>
<linearGradient id="paint22_linear" x1="542.993" y1="195.929" x2="735.479" y2="312.877" gradientUnits="userSpaceOnUse">
<stop stop-color="#737373" stop-opacity="0.01"/>
<stop offset="1" stop-color="#3F3F3F"/>
</linearGradient>
<linearGradient id="paint23_linear" x1="568.547" y1="188.508" x2="738.639" y2="291.966" gradientUnits="userSpaceOnUse">
<stop stop-color="#737373" stop-opacity="0.01"/>
<stop offset="1" stop-color="#3F3F3F"/>
</linearGradient>
<linearGradient id="paint24_linear" x1="593.92" y1="181.547" x2="742.635" y2="271.983" gradientUnits="userSpaceOnUse">
<stop stop-color="#737373" stop-opacity="0.01"/>
<stop offset="1" stop-color="#3F3F3F"/>
</linearGradient>
<linearGradient id="paint25_linear" x1="618.103" y1="175.605" x2="745.347" y2="253.276" gradientUnits="userSpaceOnUse">
<stop stop-color="#737373" stop-opacity="0.01"/>
<stop offset="1" stop-color="#3F3F3F"/>
</linearGradient>
<linearGradient id="paint26_linear" x1="641.52" y1="165.849" x2="748.405" y2="230.964" gradientUnits="userSpaceOnUse">
<stop stop-color="#737373" stop-opacity="0.01"/>
<stop offset="1" stop-color="#3F3F3F"/>
</linearGradient>
<linearGradient id="paint27_linear" x1="668.066" y1="157.763" x2="753.574" y2="209.855" gradientUnits="userSpaceOnUse">
<stop stop-color="#737373" stop-opacity="0.01"/>
<stop offset="1" stop-color="#3F3F3F"/>
</linearGradient>
<linearGradient id="paint28_linear" x1="693.405" y1="149.646" x2="756.519" y2="188.248" gradientUnits="userSpaceOnUse">
<stop stop-color="#737373" stop-opacity="0.01"/>
<stop offset="1" stop-color="#3F3F3F"/>
</linearGradient>
<linearGradient id="paint29_linear" x1="719.209" y1="144.075" x2="760.946" y2="169.653" gradientUnits="userSpaceOnUse">
<stop stop-color="#737373" stop-opacity="0.01"/>
<stop offset="1" stop-color="#3F3F3F"/>
</linearGradient>
<linearGradient id="paint30_linear" x1="743.058" y1="135.708" x2="764.435" y2="148.731" gradientUnits="userSpaceOnUse">
<stop stop-color="#737373" stop-opacity="0.01"/>
<stop offset="1" stop-color="#3F3F3F"/>
</linearGradient>
</defs>
</svg>
