<svg width="1441" height="487" fill="none" xmlns="http://www.w3.org/2000/svg"><mask id="a" maskUnits="userSpaceOnUse" x="0" y="0" width="1441" height="487"><path fill="#2A2E37" d="M0 0h1441v487H0z"/></mask><g mask="url(#a)"><path fill="#2A2E37" d="M0 0h1441v487H0z"/><g opacity=".2" fill-rule="evenodd" clip-rule="evenodd"><path d="M1571.73-207.343c-12.03-30.819-31.55-62.145-58.4-93.581-17.6-20.631-41.85-46.037-73.49-59.73-19.5-8.445-40.66-12.022-64.35-15.509-38.58-5.684-77.79-10.842-116.55-15.273-27.31-3.142-51.9-5.466-76.44-2.306-65.47 8.444-117.45 54.372-167.72 98.793-46.64 41.206-94.862 83.828-154.717 98.284-8.354 2.016-16.962 3.469-25.298 4.885-15.802 2.67-32.129 5.448-46.79 12.077-56.104 25.406-72.649 100.318-56.231 158.069 14.661 51.448 48.765 95.033 81.783 137.202a2795.4 2795.4 0 0115.077 19.359c44.633 58.023 71.163 108.055 65.636 178.045-5.763 72.715 69.985 120.096 102.822 137.112 54.198 28.076 115.128 39.554 174.058 50.668l94.61 17.815c32.04 6.048 68.36 12.876 102.3 5.412 55.21-12.149 94.25-59.276 117.28-96.65 29.63-48.107 49.4-103.115 57.17-159.086 4.99-36.03 5.19-73.187 5.4-109.126.2-38.537.42-78.38 6.55-117.117 3.46-21.92 8.87-44.003 14.11-65.36 10.51-42.84 21.39-87.134 16.51-131.191-1.92-17.379-6.36-35.013-13.32-52.792zM733.973-.278c-2.555-6.556-4.838-13.239-6.777-20.067-16.98-59.675.399-137.22 58.84-163.68 15.204-6.883 31.84-9.698 47.932-12.44 8.263-1.399 16.78-2.851 24.99-4.831 58.695-14.147 106.482-56.388 152.712-97.231 50.77-44.875 103.31-91.293 170.23-99.919 25.05-3.251 49.96-.872 77.6 2.288 38.78 4.45 78.05 9.607 116.68 15.291 24.01 3.56 45.54 7.192 65.55 15.836 32.51 14.093 57.26 40.008 75.2 61.001 42.97 50.341 67.47 100.464 72.83 148.953 4.99 44.892-6 89.603-16.62 132.843-5.21 21.266-10.61 43.259-14.04 64.979-6.05 38.373-6.27 78.053-6.49 116.408-.2 36.085-.4 73.405-5.45 109.744-7.85 56.624-27.85 112.268-57.83 160.902-23.5 38.191-63.46 86.298-120.29 98.811-34.88 7.682-71.7.744-104.18-5.376l-94.61-17.815c-59.28-11.187-120.55-22.719-175.363-51.122-33.67-17.452-111.339-66.158-105.377-141.706 5.419-68.465-20.731-117.625-64.657-174.758-4.966-6.447-10.003-12.894-15.041-19.341-28.958-36.975-58.768-75.057-75.839-118.77z" fill="url(#paint0_linear)"/><path d="M1562.26-199.29c-11.73-30.032-30.73-60.536-56.89-91.186-17.12-20.088-40.73-44.858-71.53-58.195-18.98-8.221-39.59-11.705-62.65-15.098a3520.685 3520.685 0 00-113.47-14.88c-26.58-3.049-50.52-5.335-74.41-2.25-63.77 8.238-114.36 52.969-163.29 96.248-45.417 40.158-92.374 81.677-150.658 95.741-8.125 1.978-16.503 3.393-24.609 4.772-15.381 2.613-31.268 5.299-45.545 11.759-54.629 24.77-70.734 97.736-54.738 153.99 14.223 50.12 47.463 92.601 79.6 133.649 4.922 6.314 9.844 12.611 14.693 18.89 43.428 56.562 69.286 105.285 63.894 173.461-5.609 70.808 68.128 117.008 100.103 133.576 52.78 27.365 112.1 38.543 169.44 49.358l92.14 17.384c31.18 5.862 66.52 12.54 99.58 5.263 53.76-11.832 91.76-57.742 114.2-94.162 28.82-46.854 48.07-100.44 55.64-154.988 4.87-35.113 5.07-71.297 5.26-106.32.2-37.545.42-76.36 6.37-114.104 3.39-21.359 8.65-42.88 13.76-63.676 10.24-41.737 20.82-84.889 16.06-127.805-1.88-16.949-6.2-34.097-12.95-51.427zM746.623 2.425a211.822 211.822 0 01-6.586-19.543c-16.539-58.142.38-133.685 57.271-159.471 14.801-6.714 30.996-9.454 46.667-12.122 8.052-1.361 16.34-2.758 24.319-4.682 57.163-13.809 103.685-54.947 148.686-94.742 49.44-43.715 100.57-88.935 165.73-97.355 24.41-3.158 48.66-.853 75.53 2.25 37.7 4.319 75.93 9.327 113.64 14.898 23.38 3.448 44.3 6.986 63.79 15.425 31.66 13.718 55.76 38.978 73.23 59.429 41.81 49.05 65.68 97.863 70.91 145.117 4.81 43.714-5.86 87.284-16.19 129.42-5.07 20.723-10.32 42.118-13.68 63.294-5.89 37.4-6.1 76.052-6.3 113.415-.2 35.15-.42 71.515-5.32 106.919-7.66 55.165-27.11 109.368-56.3 156.785-22.87 37.164-61.79 84.054-117.11 96.23-33.98 7.495-69.83.726-101.44-5.226l-92.12-17.366c-57.69-10.87-117.31-22.139-170.71-49.794-32.786-17.003-108.406-64.474-102.579-138.058 5.265-66.688-20.176-114.594-62.971-170.249a2278.703 2278.703 0 00-14.657-18.872c-28.174-36.02-57.198-73.112-73.81-115.702z" fill="url(#paint1_linear)"/><path d="M1554.72-193.049c-11.43-29.28-29.97-59.013-55.47-88.874-16.7-19.586-39.74-43.729-69.77-56.726-18.49-8.005-38.59-11.4-61.08-14.722a3517.693 3517.693 0 00-110.66-14.503c-25.94-2.977-49.3-5.192-72.57-2.179-62.18 8.006-111.51 51.626-159.23 93.812-44.3 39.136-90.084 79.598-146.915 93.321-7.933 1.906-16.119 3.304-24.033 4.629-14.978 2.559-30.48 5.191-44.389 11.472-53.282 24.124-68.984 95.263-53.409 150.083 13.891 48.867 46.309 90.254 77.641 130.298a2550.887 2550.887 0 0114.325 18.388c42.361 55.093 67.572 102.615 62.319 169.071-5.451 69.033 66.449 114.051 97.621 130.189 51.45 26.647 109.31 37.557 165.24 48.121l89.85 16.937c30.4 5.717 64.87 12.198 97.11 5.118 52.43-11.544 89.5-56.29 111.36-91.778 28.13-45.671 46.91-97.895 54.26-151.045 4.76-34.236 4.94-69.506 5.14-103.632.2-36.595.4-74.443 6.21-111.22 3.28-20.82 8.44-41.786 13.42-62.062 9.98-40.698 20.29-82.757 15.67-124.58-1.83-16.5-6.05-33.237-12.64-50.118zM759.313 3.559a213.555 213.555 0 01-6.429-19.042c-16.119-56.672.362-130.298 55.871-155.438 14.416-6.535 30.209-9.222 45.494-11.8 7.842-1.325 15.938-2.704 23.726-4.592 55.726-13.451 101.112-53.549 144.975-92.323 48.23-42.622 98.11-86.695 161.64-94.9 23.78-3.068 47.43-.817 73.66 2.196 36.8 4.212 74.09 9.095 110.82 14.504 22.8 3.376 43.21 6.825 62.21 15.048 30.88 13.36 54.38 37.975 71.39 57.924 40.8 47.814 64.06 95.391 69.16 141.443 4.71 42.622-5.7 85.08-15.79 126.14-4.94 20.186-10.05 41.062-13.31 61.7-5.76 36.45-5.98 74.098-6.18 110.548-.2 34.272-.38 69.687-5.18 104.195-7.44 53.767-26.44 106.608-54.87 152.806-22.35 36.25-60.27 81.958-114.23 93.811-33.14 7.298-68.09.708-98.92-5.1l-89.84-16.937c-56.26-10.601-114.43-21.565-166.48-48.539-31.964-16.555-105.711-62.843-100.042-134.545 5.143-65.004-19.686-111.691-61.396-165.949l1.775-1.379-1.775 1.379c-4.708-6.117-9.508-12.234-14.289-18.388-27.492-35.107-55.781-71.248-71.99-112.762z" fill="url(#paint2_linear)"/><path d="M1545.2-186.604c-11.11-28.542-29.16-57.538-53.97-86.662-16.27-19.088-38.67-42.631-67.91-55.32-18.03-7.799-37.6-11.108-59.47-14.344-35.63-5.272-71.88-10.017-107.71-14.143-25.23-2.909-47.97-5.073-70.64-2.146-60.51 7.836-108.54 50.358-154.99 91.48-43.112 38.177-87.686 77.644-142.995 91.006-7.731 1.873-15.697 3.236-23.41 4.527-14.574 2.49-29.655 5.054-43.198 11.198-51.851 23.525-67.15 92.88-51.96 146.345 13.506 47.649 45.063 88.007 75.551 127.039a2077.881 2077.881 0 0113.94 17.961c41.243 53.739 65.775 100.042 60.651 164.852-5.304 67.337 64.706 111.204 95.031 126.947 50.1 26.015 106.4 36.65 160.86 46.922l87.45 16.525c29.6 5.581 63.13 11.907 94.52 4.999 51.02-11.253 87.1-54.902 108.39-89.516 27.38-44.521 45.63-95.46 52.81-147.29 4.62-33.359 4.8-67.773 5-101.042.2-35.686.4-72.59 6.05-108.459 3.2-20.288 8.2-40.758 13.05-60.52 9.72-39.667 19.77-80.698 15.26-121.475-1.77-16.107-5.9-32.414-12.31-48.884zM770.993 5.135c-2.372-6.09-4.472-12.253-6.264-18.598-15.697-55.247.362-127.038 54.386-151.562 14.031-6.363 29.42-8.981 44.266-11.508 7.64-1.291 15.534-2.636 23.102-4.472 54.259-13.107 98.417-52.212 141.147-90.025 46.92-41.576 95.46-84.535 157.33-92.534 23.13-2.999 46.15-.818 71.69 2.127 35.87 4.127 72.15 8.89 107.85 14.162 22.18 3.273 42.06 6.636 60.54 14.671 30.06 13.035 52.94 37.032 69.51 56.484 39.7 46.594 62.35 93.006 67.31 137.928 4.6 41.558-5.56 82.953-15.35 123.002-4.82 19.689-9.82 40.05-12.98 60.156-5.6 35.523-5.82 72.264-6.01 107.786-.17 33.414-.37 67.955-5.04 101.624-7.26 52.448-25.74 103.968-53.42 148.999-21.73 35.341-58.66 79.917-111.19 91.479-32.24 7.127-66.26.691-96.26-4.963l-87.44-16.507c-54.77-10.344-111.38-21.052-162.06-47.339-31.121-16.144-102.906-61.265-97.384-131.22 5.015-63.392-19.155-108.913-59.746-161.815-4.58-5.963-9.251-11.926-13.922-17.907-26.759-34.232-54.296-69.5-70.065-109.968z" fill="url(#paint3_linear)"/><path d="M1538.65-178.567c-10.83-27.756-28.39-55.93-52.55-84.249-15.84-18.565-37.67-41.452-66.14-53.768-17.56-7.611-36.61-10.808-57.92-13.969a3327.462 3327.462 0 00-104.9-13.751c-24.58-2.815-46.7-4.923-68.79-2.071-58.93 7.611-105.71 48.955-150.94 88.936-41.985 37.111-85.404 75.475-139.261 88.481-7.52 1.799-15.276 3.125-22.797 4.396-14.207 2.416-28.885 4.905-42.06 10.881-50.504 22.87-65.4 90.298-50.613 142.286 13.156 46.32 43.89 85.575 73.591 123.503 4.549 5.831 9.097 11.626 13.573 17.439 40.158 52.242 64.042 97.291 59.076 160.287-5.201 65.448 62.991 108.118 92.531 123.431 48.8 25.267 103.62 35.621 156.66 45.594l85.15 16.058c28.83 5.431 61.5 11.589 92.06 4.868 49.69-10.935 84.81-53.351 105.56-87.01 26.65-43.287 44.43-92.805 51.44-143.213 4.5-32.424 4.68-65.884 4.86-98.217.18-34.714.4-70.571 5.91-105.448 3.11-19.727 7.99-39.618 12.7-58.836 9.46-38.564 19.23-78.454 14.86-118.109-1.74-15.658-5.75-31.516-12-47.519zM784.672 7.842a199.538 199.538 0 01-6.088-18.075c-15.295-53.713.344-123.521 52.951-147.353 13.663-6.195 28.631-8.738 43.111-11.19 7.429-1.253 15.113-2.561 22.506-4.341 52.843-12.752 95.845-50.771 137.438-87.537 45.72-40.399 92.98-82.178 153.23-89.953 22.54-2.906 44.94-.799 69.8 2.071a3274.65 3274.65 0 01105.04 13.769c21.6 3.179 40.95 6.448 58.98 14.259 29.27 12.679 51.56 36.003 67.69 54.913 38.67 45.321 60.72 90.425 65.56 134.093 4.48 40.4-5.4 80.653-14.97 119.58-4.67 19.146-9.55 38.928-12.63 58.491-5.47 34.532-5.65 70.244-5.83 104.794-.2 32.497-.39 66.066-4.93 98.799-7.05 50.989-25.07 101.07-52.03 144.865-21.17 34.35-57.12 77.674-108.26 88.918-31.42 6.92-64.55.672-93.76-4.814l-85.17-16.058c-53.33-10.063-108.47-20.454-157.82-46.012-30.299-15.712-100.211-59.599-94.829-127.572 4.874-61.616-18.647-105.883-58.188-157.327a3596.41 3596.41 0 00-13.555-17.42c-26.059-33.278-52.879-67.555-68.246-106.9z" fill="url(#paint4_linear)"/><path d="M1529.17-172.322c-10.55-26.985-27.61-54.406-51.11-81.935-15.4-18.063-36.61-40.323-64.27-52.298-17.05-7.377-35.58-10.521-56.29-13.574-33.66-4.979-67.97-9.467-101.95-13.374-23.88-2.744-45.38-4.797-66.87-2.017-57.28 7.396-102.73 47.609-146.7 86.478-40.8 36.106-82.991 73.412-135.346 86.06-7.318 1.762-14.855 3.052-22.137 4.288-13.804 2.326-28.098 4.761-40.906 10.576-49.076 22.242-63.568 87.822-49.202 138.375 12.808 45.03 42.662 83.19 71.521 120.114 4.438 5.669 8.859 11.32 13.206 16.972 39.04 50.807 62.265 94.6 57.41 155.874-5.018 63.637 61.231 105.14 89.944 120.059 47.43 24.568 100.72 34.635 152.25 44.338l82.79 15.628c28 5.288 59.72 11.266 89.45 4.724 48.3-10.63 82.45-51.879 102.59-84.624 25.93-42.103 43.21-90.276 50-139.284 4.37-31.546 4.57-64.073 4.73-95.546.18-33.726.38-68.615 5.72-102.523 3.03-19.207 7.78-38.523 12.38-57.24 9.18-37.506 18.69-76.283 14.44-114.843-1.69-15.228-5.58-30.656-11.65-46.228zM796.345 8.974c-2.246-5.742-4.239-11.593-5.924-17.59-14.855-52.243.344-120.131 51.467-143.3 13.297-6.015 27.844-8.504 41.92-10.885 7.211-1.217 14.692-2.489 21.848-4.215 51.359-12.411 93.17-49.39 133.584-85.134 44.44-39.304 90.38-79.936 148.91-87.495 21.94-2.835 43.72-.763 67.87 2.017 34.04 3.907 68.38 8.413 102.1 13.392 20.99 3.09 39.82 6.27 57.32 13.865 28.44 12.32 50.09 35.017 65.77 53.406 37.6 44.066 59.03 87.95 63.72 130.416 4.33 39.287-5.26 78.428-14.55 116.298-4.56 18.607-9.27 37.869-12.26 56.894-5.31 33.581-5.51 68.325-5.69 101.888-.18 31.6-.35 64.272-4.77 96.108-6.86 49.572-24.36 98.271-50.58 140.883-20.56 33.418-55.52 75.557-105.23 86.515-30.54 6.723-62.72.636-91.12-4.725l-82.77-15.591c-51.83-9.776-105.44-19.898-153.39-44.756-29.458-15.282-97.392-57.967-92.175-124.075 4.747-59.929-18.116-102.977-56.557-153.003l1.648-1.254-1.648 1.254a2505.325 2505.325 0 00-13.189-16.954c-25.308-32.364-51.376-65.69-66.304-103.959z" fill="url(#paint5_linear)"/><path d="M1520.64-164.285c-10.21-26.199-26.8-52.797-49.62-79.541-14.94-17.52-35.55-39.107-62.42-50.745-16.55-7.172-34.53-10.204-54.65-13.163a3063.76 3063.76 0 00-99.01-12.999c-23.2-2.669-44.08-4.648-64.94-1.961-55.61 7.171-99.76 46.206-142.44 83.952-39.63 35.023-80.609 71.243-131.442 83.535-7.099 1.706-14.415 2.941-21.496 4.139-13.418 2.288-27.29 4.63-39.713 10.258-47.682 21.588-61.717 85.26-47.772 134.317 12.441 43.719 41.416 80.775 69.449 116.596 4.292 5.501 8.583 10.966 12.821 16.467 37.885 49.312 60.449 91.832 55.74 151.293-4.871 61.784 59.453 102.053 87.343 116.523 46.05 23.839 97.81 33.625 147.84 43.048l80.37 15.142c27.22 5.138 58.06 10.966 86.89 4.611 46.9-10.33 80.06-50.364 99.64-82.137 25.15-40.868 41.96-87.619 48.55-135.188 4.24-30.628 4.42-62.201 4.58-92.721.2-32.771.36-66.614 5.58-99.548 2.93-18.628 7.53-37.383 11.99-55.539 8.92-36.402 18.16-74.057 14.01-111.476-1.63-14.779-5.41-29.758-11.3-44.863zM809.02 11.662a183.057 183.057 0 01-5.759-17.048c-14.415-50.709.326-116.596 49.982-139.091 12.912-5.846 27.055-8.243 40.709-10.567 7.009-1.198 14.271-2.433 21.224-4.103 49.873-12.037 90.454-47.913 129.714-82.627 43.14-38.145 87.76-77.58 144.61-84.915 21.31-2.741 42.44-.744 65.91 1.961 32.96 3.777 66.32 8.152 99.12 12.982 20.4 3.014 38.68 6.118 55.66 13.471 27.64 11.965 48.66 33.988 63.89 51.835 36.47 42.775 57.32 85.35 61.88 126.564 4.2 38.145-5.12 76.145-14.14 112.893-4.42 18.064-9 36.747-11.92 55.23-5.14 32.59-5.34 66.304-5.5 98.912-.18 30.665-.36 62.365-4.64 93.266-6.66 48.113-23.67 95.391-49.11 136.731-19.98 32.445-53.93 73.332-102.19 83.971-29.65 6.518-60.9.617-88.5-4.575l-80.37-15.16c-50.33-9.496-102.37-19.3-148.95-43.429-28.59-14.815-94.584-56.247-89.495-120.427 4.582-58.171-17.62-99.93-54.925-148.496l1.593-1.235-1.593 1.235c-4.22-5.483-8.512-10.966-12.803-16.449-24.593-31.41-49.91-63.764-64.397-100.928z" fill="url(#paint6_linear)"/><path d="M1511.11-158.034c-9.93-25.428-26.05-51.273-48.2-77.227-14.54-17.001-34.53-37.978-60.66-49.275-16.08-6.957-33.55-9.917-53.09-12.787-31.8-4.704-64.16-8.936-96.19-12.605-22.52-2.597-42.84-4.522-63.11-1.907-54.03 6.975-96.91 44.862-138.38 81.514-38.51 34-78.318 69.181-127.717 81.078-6.889 1.671-14.013 2.888-20.884 4.05-13.034 2.216-26.521 4.486-38.594 9.953-46.318 20.978-59.968 82.767-46.408 130.426 12.091 42.446 40.244 78.426 67.472 113.189 4.17 5.34 8.357 10.662 12.454 16.002 36.837 47.894 58.735 89.16 54.167 146.899-4.731 59.954 57.76 99.095 84.86 113.116 44.74 23.176 95.03 32.639 143.64 41.811l78.1 14.73c26.43 4.958 56.4 10.607 84.42 4.449 45.56-10.025 77.79-48.911 96.79-79.752 24.45-39.685 40.75-85.073 47.17-131.279 4.13-29.714 4.29-60.372 4.46-90.032.18-31.803.38-64.659 5.42-96.625 2.84-18.09 7.32-36.307 11.64-53.943 8.68-35.326 17.65-71.888 13.63-108.231-1.58-14.348-5.26-28.879-10.99-43.554zM819.708 12.804a184.687 184.687 0 01-5.602-16.547c-13.995-49.238.326-113.225 48.565-135.057 12.545-5.666 26.286-8.009 39.556-10.262 6.816-1.144 13.849-2.343 20.611-3.977 48.457-11.697 87.902-46.533 126.042-80.243 41.91-37.015 85.28-75.32 140.5-82.44 20.72-2.67 41.24-.726 64.02 1.889 32.09 3.687 64.5 7.937 96.34 12.623 19.79 2.924 37.56 5.921 54.07 13.077 26.85 11.624 47.26 33.002 62.07 50.329 35.46 41.538 55.67 82.876 60.1 122.906 4.11 37.016-4.95 73.922-13.71 109.593-4.31 17.546-8.75 35.69-11.58 53.617-5.02 31.657-5.19 64.386-5.37 96.025-.16 29.787-.34 60.572-4.49 90.577-6.49 46.714-22.99 92.629-47.72 132.769-19.39 31.494-52.39 71.197-99.3 81.532-28.79 6.32-59.15.599-85.96-4.468l-78.1-14.694c-48.91-9.208-99.49-18.744-144.72-42.173-27.79-14.385-91.888-54.579-86.957-116.931 4.477-56.468-17.095-97.043-53.37-144.175l1.559-1.199-1.559 1.199a2366.319 2366.319 0 00-12.417-15.965c-23.893-30.513-48.493-61.916-62.578-98.005z" fill="url(#paint7_linear)"/><path d="M1502.59-151.585c-9.63-24.709-25.27-49.799-46.74-75.017-14.06-16.52-33.49-36.898-58.77-47.87-15.6-6.75-32.54-9.625-51.48-12.427a2980.682 2980.682 0 00-93.25-12.245c-21.88-2.511-41.58-4.385-61.15-1.837-52.39 6.768-93.96 43.576-134.17 79.164-37.31 33.042-75.891 67.193-123.786 78.783-6.687 1.62-13.573 2.784-20.26 3.93-12.612 2.129-25.678 4.349-37.403 9.662-44.887 20.378-58.115 80.42-44.977 126.69 11.706 41.246 38.997 76.162 65.4 109.949 4.041 5.186 8.101 10.353 12.069 15.557 35.718 46.505 56.938 86.588 52.516 142.682-4.603 58.296 55.991 96.268 82.251 109.896 43.37 22.525 92.11 31.713 139.25 40.61l75.69 14.301c25.64 4.84 54.69 10.299 81.84 4.312 44.16-9.734 75.4-47.487 93.83-77.454 23.69-38.555 39.51-82.622 45.72-127.49 4.01-28.893 4.17-58.678 4.32-87.48.18-30.876.36-62.826 5.23-93.866 2.79-17.576 7.12-35.28 11.31-52.383 8.41-34.351 17.13-69.849 13.21-105.146-1.54-13.938-5.09-28.075-10.65-42.321zM832.38 14.386c-2.048-5.258-3.878-10.625-5.419-16.102-13.591-47.834.308-109.968 47.062-131.183 12.159-5.513 25.461-7.788 38.345-9.971 6.596-1.128 13.428-2.274 19.988-3.857 46.971-11.354 85.194-45.214 122.174-77.946 40.63-35.971 82.65-73.179 136.18-80.093 20.03-2.584 39.94-.691 62.07 1.838 31.04 3.566 62.45 7.696 93.36 12.263 19.23 2.838 36.43 5.749 52.45 12.7 26 11.28 45.81 32.041 60.14 48.889 34.38 40.337 53.99 80.493 58.28 119.393 3.99 35.97-4.8 71.814-13.3 106.475-4.17 17.03-8.48 34.661-11.24 52.073-4.83 30.75-5.02 62.553-5.2 93.284-.16 28.93-.31 58.824-4.35 87.971-6.28 45.378-22.27 89.991-46.26 128.982-18.81 30.604-50.76 69.158-96.23 79.183-27.9 6.15-57.35.601-83.34-4.312l-75.71-14.283c-47.39-8.951-96.4-18.212-140.28-40.974-26.93-13.992-89.064-53.037-84.298-113.571 4.349-54.875-16.581-94.285-51.719-140.062-3.987-5.204-8.028-10.371-12.069-15.539-23.141-29.62-46.971-60.133-60.634-95.158z" fill="url(#paint8_linear)"/><path d="M1495.08-142.541c-9.33-23.922-24.45-48.208-45.25-72.603-13.62-15.997-32.43-35.72-56.94-46.336-15.09-6.544-31.5-9.325-49.85-12.034a2793.414 2793.414 0 00-90.29-11.834c-21.15-2.436-40.23-4.254-59.21-1.8-50.73 6.544-91 42.174-129.93 76.639-36.13 31.976-73.506 65.042-119.881 76.239-6.467 1.564-13.151 2.709-19.619 3.8-12.227 2.072-24.872 4.217-36.212 9.361-43.476 19.724-56.283 77.82-43.567 122.612 11.322 39.9 37.77 73.73 63.349 106.433a3399.38 3399.38 0 0111.684 15.033l-1.449 1.127 1.449-1.127c34.564 45.027 55.143 83.837 50.849 138.117-4.456 56.407 54.217 93.163 79.657 106.379 42 21.777 89.21 30.684 134.84 39.301l73.32 13.833c24.8 4.672 52.93 9.98 79.23 4.181 42.77-9.434 73.02-45.972 90.87-74.985 22.95-37.301 38.26-79.965 44.29-123.393 3.86-27.958 4.02-56.77 4.17-84.637.18-29.921.34-60.824 5.09-90.872 2.68-17.015 6.88-34.139 10.94-50.717 8.13-33.23 16.55-67.605 12.79-101.761-1.51-13.489-4.95-27.159-10.33-40.956zM846.052 18.081a169.045 169.045 0 01-5.253-15.56c-13.152-46.3.308-106.451 45.578-126.974 11.774-5.345 24.672-7.526 37.136-9.653 6.394-1.091 13.006-2.2 19.365-3.745 45.469-10.979 82.492-43.736 118.292-75.421 39.36-34.829 80.05-70.822 131.9-77.529 19.38-2.509 38.69-.673 60.1 1.781 30.07 3.454 60.47 7.453 90.43 11.87 18.59 2.745 35.25 5.563 50.76 12.289 25.2 10.925 44.38 31.03 58.26 47.317 33.28 39.047 52.26 77.93 56.43 115.541 3.84 34.829-4.64 69.513-12.86 103.051-4.04 16.506-8.25 33.557-10.89 50.426-4.69 29.776-4.87 60.533-5.02 90.309-.16 27.976-.33 56.916-4.24 85.11-6.08 43.937-21.57 87.091-44.78 124.829-18.22 29.612-49.18 66.95-93.2 76.657-27.05 5.945-55.56.564-80.72-4.162l-73.31-13.852c-45.89-8.653-93.35-17.615-135.85-39.647-26.08-13.524-86.263-51.335-81.626-109.941 4.203-53.08-16.05-91.218-50.088-135.554-3.859-4.999-7.772-9.998-11.684-15.015-22.427-28.685-45.506-58.206-58.73-92.127z" fill="url(#paint9_linear)"/><path d="M1485.55-135.503c-9.05-23.119-23.7-46.6-43.85-70.209-13.2-15.455-31.41-34.523-55.15-44.784-14.64-6.32-30.54-9.008-48.29-11.623a2780.84 2780.84 0 00-87.49-11.478c-20.51-2.324-38.99-4.086-57.36-1.725-49.17 6.338-88.18 40.789-125.9 74.096-35 30.909-71.216 62.89-116.138 73.714-6.274 1.525-12.749 2.615-19.005 3.686-11.843 1.998-24.102 4.068-35.092 9.044-42.111 19.05-54.534 75.24-42.202 118.553 10.972 38.555 36.598 71.28 61.371 102.898 3.808 4.849 7.598 9.698 11.316 14.528l-1.396 1.09 1.396-1.09c33.496 43.531 53.409 81.033 49.274 133.535-4.316 54.518 52.516 90.077 77.166 102.826 40.68 21.066 86.42 29.674 130.65 38.01l71.02 13.366c24.03 4.522 51.28 9.643 76.76 4.068 41.44-9.117 70.75-44.475 88.05-72.515 22.22-36.049 37.07-77.31 42.89-119.297 3.75-27.023 3.92-54.882 4.06-81.85.17-28.912.33-58.786 4.92-87.843 2.61-16.436 6.65-32.998 10.59-49.016 7.91-32.126 16.05-65.36 12.4-98.394-1.45-13.039-4.78-26.26-9.99-39.59zM856.742 19.788a168.863 168.863 0 01-5.096-15.055c-12.731-44.748.29-102.916 44.178-122.766 11.407-5.157 23.884-7.264 35.944-9.316 6.202-1.035 12.622-2.125 18.77-3.614 44.069-10.624 79.942-42.296 114.612-72.933 38.14-33.67 77.57-68.484 127.79-74.949 18.78-2.415 37.48-.654 58.23 1.725 29.07 3.324 58.54 7.192 87.59 11.478 18.03 2.651 34.17 5.375 49.19 11.877 24.42 10.551 43 30.001 56.45 45.746 32.26 37.738 50.64 75.349 54.68 111.707 3.72 33.67-4.52 67.212-12.48 99.647-3.91 15.945-7.98 32.435-10.53 48.725-4.56 28.784-4.72 58.531-4.88 87.298-.17 27.059-.31 55.063-4.1 82.304-5.89 42.478-20.91 84.211-43.4 120.695-17.64 28.64-47.64 64.725-90.3 74.114-26.18 5.739-53.8.545-78.18-4.05l-71.02-13.366c-44.48-8.372-90.47-17.017-131.62-38.319-25.28-13.094-83.57-49.633-79.09-106.294 4.062-51.34-15.561-88.206-48.531-131.065-3.718-4.831-7.508-9.68-11.298-14.511-21.726-27.731-44.106-56.28-56.909-89.078z" fill="url(#paint10_linear)"/><path d="M1477.06-128.254c-8.71-22.366-22.86-45.076-42.3-67.877-12.74-14.971-30.32-33.394-53.22-43.332-14.11-6.122-29.45-8.721-46.6-11.246-27.99-4.142-56.4-7.867-84.4-11.083-19.77-2.271-37.6-3.96-55.34-1.671-47.42 6.141-85.05 39.443-121.45 71.656-33.77 29.887-68.72 60.809-112.054 71.292-6.046 1.454-12.272 2.508-18.318 3.543-11.439 1.944-23.258 3.943-33.865 8.757-40.652 18.423-52.616 72.764-40.725 114.642 10.589 37.3 35.295 68.931 59.205 99.508 3.657 4.688 7.331 9.375 10.933 14.063l-1.358 1.054 1.358-1.054c32.308 42.078 51.531 78.378 47.53 129.122-4.163 52.743 50.684 87.117 74.444 99.454 39.26 20.366 83.39 28.687 126.05 36.754l68.53 12.918c23.18 4.397 49.46 9.357 74.06 3.924 39.99-8.793 68.26-42.986 84.93-70.093 21.46-34.883 35.76-74.781 41.39-115.387 3.6-26.126 3.77-53.088 3.91-79.142.16-27.961.33-56.867 4.74-84.955 2.5-15.915 6.43-31.922 10.23-47.42 7.62-31.067 15.49-63.189 11.96-95.147-1.39-12.59-4.63-25.381-9.64-38.28zM870.399 21.926a161.736 161.736 0 01-4.905-14.554c-12.308-43.277.272-99.526 42.608-118.712 11.004-4.996 23.059-7.049 34.715-9.029 5.973-1.018 12.145-2.072 18.064-3.507 42.539-10.265 77.139-40.897 110.589-70.511 36.8-32.558 74.83-66.224 123.28-72.492 18.14-2.343 36.17-.636 56.18 1.672 28.04 3.216 56.48 6.958 84.53 11.101 17.38 2.561 32.94 5.196 47.44 11.482 23.57 10.211 41.49 29.015 54.46 44.24 31.12 36.518 48.86 72.855 52.75 108.047 3.6 32.54-4.36 64.988-12.04 96.347-3.76 15.406-7.67 31.358-10.17 47.11-4.38 27.852-4.54 56.613-4.71 84.447-.12 26.162-.29 53.251-3.92 79.613-5.71 41.042-20.19 81.412-41.89 116.714-17.01 27.67-45.95 62.59-87.1 71.655-25.28 5.56-51.94.527-75.44-3.906l-68.52-12.936c-42.92-8.103-87.28-16.46-126.99-37.081-24.38-12.645-80.62-48.001-76.294-102.76 3.909-49.673-15.023-85.319-46.825-126.779-3.602-4.669-7.258-9.338-10.914-14.026-20.96-26.816-42.535-54.414-54.898-86.136z" fill="url(#paint11_linear)"/><path d="M1468.52-120.222c-8.43-21.561-22.11-43.485-40.9-65.482-12.32-14.41-29.29-32.196-51.43-41.779-13.66-5.899-28.47-8.403-45.03-10.835a2549.226 2549.226 0 00-81.6-10.708c-19.12-2.178-36.36-3.811-53.5-1.597-45.85 5.916-82.22 38.04-117.41 69.112-32.64 28.82-66.41 58.639-108.311 68.748-5.836 1.398-11.87 2.432-17.705 3.431-11.054 1.869-22.489 3.793-32.746 8.439-39.269 17.768-50.867 70.183-39.36 110.583 10.239 35.971 34.141 66.48 57.228 95.972a1710.15 1710.15 0 0110.565 13.557c31.241 40.582 49.816 75.592 45.956 124.54-4.041 50.853 48.983 84.03 71.963 95.918 37.94 19.637 80.58 27.677 121.83 35.445l66.25 12.487c22.42 4.192 47.84 8.983 71.6 3.775 38.65-8.512 65.96-41.471 82.09-67.624 20.75-33.648 34.58-72.125 40.01-111.272 3.52-25.228 3.65-51.217 3.79-76.354.15-26.969.31-54.846 4.58-81.925 2.43-15.354 6.22-30.78 9.9-45.735 7.36-29.965 14.97-60.963 11.56-91.762-1.36-12.16-4.46-24.502-9.33-36.934zM882.087 24.626a155.589 155.589 0 01-4.748-14.029c-11.888-41.761.272-96.009 41.19-114.521 10.637-4.809 22.29-6.788 33.543-8.693 5.781-.98 11.761-1.997 17.487-3.376 41.101-9.91 74.551-39.456 106.901-68.023 35.55-31.398 72.32-63.867 119.17-69.91 17.52-2.251 34.97-.599 54.31 1.615 27.18 3.122 54.67 6.715 81.69 10.708 16.8 2.468 31.86 5.009 45.88 11.071 22.76 9.855 40.09 27.968 52.64 42.668 30.07 35.21 47.23 70.274 50.98 104.213 3.5 31.398-4.2 62.668-11.62 92.905-3.66 14.9-7.42 30.255-9.84 45.464-4.25 26.86-4.38 54.61-4.54 81.435-.15 25.245-.29 51.362-3.81 76.788-5.51 39.62-19.5 78.532-40.48 112.561-16.46 26.716-44.44 60.364-84.21 69.13-24.43 5.372-50.2.508-72.92-3.775l-66.26-12.468c-41.46-7.822-84.37-15.899-122.73-35.772-23.56-12.178-77.945-46.28-73.759-99.112 3.787-47.896-14.515-82.289-45.268-122.253a1196.338 1196.338 0 00-10.546-13.539c-20.26-25.88-41.118-52.487-53.06-83.087z" fill="url(#paint12_linear)"/><path d="M1460-112.97c-8.11-20.808-21.3-41.944-39.41-63.17-11.87-13.908-28.22-31.067-49.58-40.309-13.17-5.701-27.44-8.116-43.42-10.459a2447.675 2447.675 0 00-78.63-10.313c-18.44-2.106-35.03-3.686-51.57-1.562-44.18 5.702-79.25 36.696-113.16 66.674-31.48 27.817-64.03 56.579-104.408 66.329-5.633 1.362-11.448 2.361-17.081 3.305-10.651 1.797-21.664 3.668-31.537 8.152-37.876 17.16-49.034 67.691-37.948 106.657 9.872 34.717 32.895 64.15 55.157 92.603 3.423 4.358 6.829 8.715 10.18 13.091 30.123 39.166 48.037 72.902 44.287 120.148-3.875 49.079 47.24 81.054 69.38 92.548 36.59 18.938 77.69 26.673 117.43 34.172l63.87 12.038c21.59 4.068 46.06 8.698 69 3.65 37.26-8.207 63.59-40.001 79.13-65.239 19.98-32.448 33.32-69.58 38.57-107.347 3.39-24.331 3.51-49.406 3.64-73.664.15-26.002.31-52.893 4.42-79.021 2.34-14.799 6.01-29.706 9.53-44.105 7.08-28.924 14.43-58.83 11.14-88.553-1.29-11.73-4.29-23.623-8.99-35.625zM894.759 26.77a150.807 150.807 0 01-4.583-13.546c-11.448-40.273.272-92.603 39.706-110.47 10.253-4.648 21.483-6.555 32.333-8.389 5.58-.944 11.34-1.924 16.864-3.25 39.611-9.569 71.861-38.076 103.031-65.621 34.27-30.304 69.7-61.626 114.86-67.454 16.9-2.179 33.71-.581 52.35 1.561a2478.25 2478.25 0 0178.76 10.314c16.18 2.397 30.68 4.848 44.2 10.694 21.95 9.515 38.65 26.982 50.73 41.163 29.01 33.973 45.54 67.8 49.17 100.538 3.33 30.286-4.06 60.464-11.22 89.66-3.53 14.345-7.17 29.162-9.49 43.833-4.07 25.91-4.22 52.656-4.36 78.549-.15 24.367-.29 49.551-3.68 74.082-5.31 38.221-18.8 75.771-39.02 108.599-15.87 25.766-42.84 58.249-81.17 66.674-23.56 5.193-48.4.509-70.3-3.631l-63.83-12.021c-39.98-7.535-81.31-15.342-118.32-34.499-22.71-11.784-75.136-44.667-71.097-95.635 3.657-46.192-13.984-79.384-43.618-117.95-3.351-4.358-6.757-8.697-10.162-13.073-19.527-24.93-39.633-50.623-51.154-80.129z" fill="url(#paint13_linear)"/><path d="M1452.47-106.528c-7.83-20.089-20.53-40.469-38-60.958-11.44-13.411-27.24-29.988-47.79-38.886-12.68-5.495-26.46-7.824-41.86-10.099a2385.63 2385.63 0 00-75.86-9.953c-17.75-2.038-33.77-3.567-49.71-1.511-42.61 5.514-76.42 35.411-109.12 64.343-30.33 26.858-61.73 54.608-100.67 64.015-5.441 1.31-11.028 2.257-16.469 3.184-10.267 1.747-20.877 3.549-30.418 7.861-36.512 16.541-47.268 65.344-36.585 102.938 9.523 33.5 31.724 61.904 53.199 89.362 3.283 4.222 6.585 8.425 9.813 12.629l-1.215.946 1.215-.946c29.039 37.794 46.31 70.366 42.7 115.948-3.74 47.365 45.52 78.226 66.91 89.29 35.26 18.305 74.89 25.766 113.22 33.008l61.56 11.609c20.86 3.931 44.47 8.389 66.55 3.53 35.93-7.915 61.32-38.594 76.31-62.959 19.28-31.335 32.14-67.163 37.18-103.611 3.26-23.473 3.41-47.675 3.54-71.075.12-25.093.27-51.041 4.26-76.262 2.25-14.284 5.77-28.659 9.18-42.58 6.83-27.894 13.91-56.754 10.75-85.432-1.27-11.318-4.15-22.8-8.69-34.391zM907.439 28.326a139.595 139.595 0 01-4.407-13.065c-11.047-38.868.253-89.363 38.271-106.613 9.885-4.476 20.714-6.314 31.18-8.08 5.369-.927 10.937-1.855 16.27-3.147 38.197-9.226 69.267-36.721 99.347-63.324 33.04-29.242 67.22-59.466 110.77-65.089 16.27-2.11 32.48-.564 50.46 1.492a2352.18 2352.18 0 0175.92 9.972c15.64 2.311 29.62 4.677 42.65 10.299 21.14 9.171 37.25 26.058 48.91 39.741 27.96 32.772 43.9 65.417 47.38 97.006 3.25 29.241-3.88 58.356-10.79 86.524-3.39 13.847-6.91 28.168-9.14 42.306-3.94 24.984-4.08 50.823-4.23 75.807-.11 23.51-.25 47.802-3.54 71.494-5.11 36.866-18.12 73.113-37.61 104.811-15.31 24.857-41.3 56.191-78.29 64.343-22.67 4.986-46.63.473-67.76-3.53l-61.56-11.591c-38.55-7.279-78.42-14.794-114.08-33.281-21.91-11.373-72.46-43.108-68.56-92.311 3.52-44.581-13.493-76.607-42.078-113.819a1878.3 1878.3 0 00-9.795-12.592c-18.828-24.074-38.217-48.876-49.318-77.353z" fill="url(#paint14_linear)"/><path d="M1441.99-99.49c-7.53-19.286-19.71-38.861-36.47-58.546-10.98-12.887-26.11-28.791-45.85-37.352-13.14-5.707-28.13-7.925-40.18-9.706-24.1-3.563-48.57-6.78-72.73-9.543-17.05-1.963-32.41-3.435-47.72-1.454-40.86 5.29-73.31 34.026-104.67 61.799-29.12 25.774-59.22 52.438-96.586 61.472-5.212 1.272-10.587 2.181-15.799 3.072-9.844 1.672-20.033 3.399-29.172 7.543-35.035 15.904-45.368 62.762-35.107 98.878 9.12 32.19 30.438 59.472 51.051 85.828a1988.72 1988.72 0 019.41 12.123c27.833 36.298 44.413 67.597 40.953 111.365-3.58 45.477 43.69 75.141 64.17 85.755 33.82 17.559 71.86 24.756 108.65 31.718l59.04 11.142c20.01 3.78 42.69 8.052 63.86 3.362 34.46-7.597 58.83-37.061 73.2-60.453 18.48-30.082 30.82-64.489 35.67-99.497 3.11-22.556 3.26-45.785 3.39-68.269.12-24.102.25-49.021 4.07-73.25 2.15-13.723 5.55-27.537 8.83-40.896 6.55-26.81 13.34-54.51 10.3-82.066-1.2-10.869-3.99-21.902-8.31-33.026zM919.081 30.031a141.61 141.61 0 01-4.217-12.541c-10.586-37.334.236-85.846 36.719-102.404 9.501-4.308 19.87-6.053 29.914-7.762 5.157-.872 10.478-1.8 15.599-3.035 36.644-8.852 66.474-35.262 95.314-60.817 31.71-28.083 64.5-57.11 106.27-62.508 15.61-2.018 31.16-.545 48.41 1.436 24.19 2.781 48.71 5.998 72.84 9.56 12.23 1.818 27.43 4.054 40.91 9.925 20.31 8.815 35.74 25.01 46.93 38.151 26.82 31.481 42.11 62.835 45.46 93.171 3.11 28.082-3.75 56.055-10.37 83.102-3.26 13.304-6.61 27.046-8.78 40.641-3.78 24.011-3.89 48.803-4.04 72.814-.12 22.575-.25 45.913-3.4 68.651-4.9 35.426-17.39 70.233-36.08 100.66-14.68 23.883-39.62 53.983-75.09 61.817-21.77 4.78-44.75.454-65.02-3.363l-59.07-11.16c-36.99-6.998-75.22-14.214-109.45-31.972-21.01-10.924-69.49-41.387-65.76-88.645 3.38-42.823-12.94-73.577-40.356-109.329-3.094-4.017-6.243-8.052-9.392-12.087-18.06-23.12-36.682-46.95-47.341-74.305z" fill="url(#paint15_linear)"/><path d="M1435.42-91.237c-7.22-18.533-18.97-37.338-35.13-56.252-10.56-12.367-25.13-27.644-44.15-35.882-11.71-5.056-24.46-7.202-38.68-9.312a2192.343 2192.343 0 00-70.06-9.184c-16.45-1.892-31.23-3.274-45.97-1.382-39.36 5.074-70.59 32.681-100.81 59.361-28.05 24.77-57.04 50.377-93.03 59.052-5.01 1.219-10.201 2.092-15.212 2.947-9.496 1.618-19.3 3.273-28.106 7.256-33.734 15.259-43.666 60.27-33.807 94.953 8.788 30.953 29.322 57.124 49.149 82.44 3.05 3.892 6.082 7.766 9.078 11.658 26.838 34.863 42.778 64.908 39.458 106.974-3.47 43.702 42.08 72.183 61.8 82.385 32.61 16.878 69.23 23.77 104.63 30.445l56.89 10.712c19.26 3.619 41.08 7.747 61.49 3.255 33.19-7.311 56.67-35.609 70.52-58.088 17.79-28.899 29.67-61.944 34.33-95.589 3.02-21.642 3.14-43.976 3.27-65.563.13-23.17.26-47.104 3.94-70.365 2.07-13.185 5.34-26.461 8.5-39.3 6.3-25.735 12.85-52.342 9.89-78.804-1.14-10.457-3.83-21.042-7.99-31.717zM931.809 33.178a134.782 134.782 0 01-4.085-12.076c-10.204-35.846.236-82.44 35.368-98.336 9.151-4.146 19.137-5.838 28.814-7.475 4.956-.836 10.094-1.709 15.014-2.891 35.3-8.512 64.04-33.9 91.82-58.434 30.54-26.971 62.09-54.851 102.34-60.034 15.04-1.946 30.02-.528 46.63 1.364 23.35 2.691 46.97 5.783 70.15 9.202 14.44 2.128 27.37 4.31 39.4 9.512 19.56 8.457 34.44 24.043 45.21 36.664 25.82 30.245 40.56 60.344 43.79 89.497 2.98 26.953-3.63 53.814-9.98 79.803-3.14 12.785-6.39 25.989-8.46 39.047-3.63 23.06-3.78 46.885-3.91 69.946-.1 21.679-.23 44.103-3.25 65.945-4.73 34.027-16.75 67.454-34.78 96.68-14.13 22.952-38.15 51.869-72.3 59.38-20.97 4.601-43.1.436-62.64-3.237l-56.88-10.712c-35.61-6.711-72.45-13.658-105.42-30.699-20.22-10.494-66.92-39.757-63.33-85.169 3.25-41.12-12.47-70.655-38.869-104.991a1353.82 1353.82 0 00-9.078-11.64c-17.394-22.224-35.296-45.085-45.554-71.346z" fill="url(#paint16_linear)"/><path d="M1425.93-85.203c-6.91-17.728-18.13-35.728-33.58-53.82-10.1-11.861-24.05-26.482-42.22-34.347-12.1-5.25-25.88-7.284-36.98-8.919-22.12-3.269-44.65-6.23-66.99-8.791-15.7-1.798-29.83-3.142-43.94-1.326-37.62 4.868-67.49 31.278-96.38 56.816-26.8 23.704-54.53 48.225-88.93 56.526-4.8 1.144-9.74 1.998-14.53 2.816-9.071 1.525-18.472 3.124-26.894 6.938-32.241 14.622-41.75 57.689-32.314 90.892 8.405 29.589 28.021 54.655 46.985 78.904 2.916 3.723 5.814 7.429 8.676 11.152l-1.068.836 1.068-.836c25.647 33.367 40.917 62.139 37.727 102.39-3.31 41.813 40.23 69.077 59.1 78.849 31.18 16.166 66.17 22.759 100.02 29.135l54.4 10.262c18.4 3.47 39.25 7.411 58.77 3.106 31.74-6.975 54.16-34.075 67.42-55.581 17.01-27.645 28.38-59.287 32.84-91.491 2.88-20.725 2.99-42.086 3.11-62.756.13-22.16.26-45.065 3.75-67.352 2.01-12.605 5.11-25.32 8.12-37.58 6.05-24.649 12.3-50.133 9.51-75.453-1.13-10.008-3.66-20.144-7.67-30.37zM944.44 33.879a125.305 125.305 0 01-3.876-11.552c-9.763-34.312.218-78.904 33.817-94.125 8.73-3.96 18.294-5.576 27.549-7.157 4.75-.799 9.64-1.635 14.35-2.76 33.74-8.138 61.2-32.441 87.77-55.927 29.18-25.811 59.37-52.494 97.85-57.471 14.38-1.852 28.71-.508 44.57 1.326 22.35 2.562 44.92 5.522 67.07 8.792 11.25 1.671 25.24 3.723 37.68 9.118 18.67 8.083 32.91 22.995 43.22 35.074 24.68 28.954 38.76 57.78 41.86 85.661 2.84 25.81-3.45 51.53-9.55 76.415-3.01 12.225-6.1 24.866-8.08 37.345-3.49 22.07-3.62 44.883-3.71 66.952-.13 20.761-.26 42.213-3.15 63.119-4.51 32.568-16.01 64.554-33.22 92.545-13.51 21.942-36.5 49.624-69.16 56.816-20.05 4.414-41.2.436-59.86-3.087l-54.39-10.263c-34.04-6.412-69.25-13.042-100.78-29.389-19.35-10.026-64-38.071-60.55-81.501 3.11-39.361-11.92-67.642-37.172-100.501-2.844-3.705-5.76-7.429-8.658-11.134-16.628-21.27-33.762-43.157-43.58-68.296z" fill="url(#paint17_linear)"/><path d="M1417.42-77.956c-6.61-16.975-17.34-34.204-32.08-51.507-9.68-11.359-23.01-25.353-40.39-32.878-10.71-4.652-22.34-6.615-35.35-8.542a2035.881 2035.881 0 00-64.03-8.414c-15.01-1.709-28.53-2.999-42-1.273-35.99 4.671-64.54 29.934-92.15 54.397-25.63 22.682-52.13 46.145-85.03 54.088-4.58 1.108-9.3 1.926-13.88 2.69-8.69 1.471-17.652 2.998-25.708 6.651-30.83 13.995-39.917 55.215-30.902 87.002 8.056 28.316 26.793 52.306 44.93 75.516 2.79 3.562 5.56 7.106 8.29 10.668l-1.03.8 1.03-.8c24.51 31.951 39.11 59.485 36.06 97.997-3.16 40.003 38.46 66.12 56.5 75.461 29.78 15.467 63.26 21.773 95.62 27.88l52 9.814c17.59 3.326 37.52 7.107 56.19 2.981 30.34-6.688 51.79-32.605 64.44-53.197 16.28-26.462 27.14-56.723 31.41-87.565 2.76-19.81 2.86-40.275 2.97-60.049.11-21.21.24-43.146 3.61-64.465 1.9-12.068 4.86-24.227 7.74-35.986 5.8-23.572 11.77-47.963 9.07-72.208-1.05-9.578-3.49-19.265-7.31-29.06zM957.131 36.017a121.8 121.8 0 01-3.729-11.05c-9.323-32.842.217-75.516 32.332-90.092 8.345-3.78 17.486-5.343 26.336-6.833 4.53-.782 9.22-1.581 13.73-2.654 32.24-7.815 58.5-31.042 83.89-53.524 27.91-24.717 56.78-50.253 93.53-55.014 13.78-1.782 27.47-.473 42.64 1.272 21.34 2.453 42.92 5.27 64.12 8.415 13.19 1.944 25 3.944 36.02 8.723 17.85 7.743 31.45 22.01 41.31 33.569 23.61 27.698 37.08 55.305 40.01 81.986 2.74 24.699-3.29 49.325-9.12 73.116-2.86 11.704-5.83 23.809-7.71 35.767-3.34 21.12-3.46 42.965-3.57 64.084-.11 19.847-.24 40.384-3.01 60.394-4.3 31.188-15.29 61.812-31.77 88.583-12.9 21.01-34.86 47.491-66.07 54.379-19.19 4.216-39.41.418-57.24-2.963l-52.01-9.814c-32.55-6.143-66.23-12.504-96.35-28.134-18.48-9.597-61.17-36.404-57.89-78.006 2.97-37.676-11.37-64.719-35.52-96.18-2.73-3.544-5.5-7.106-8.274-10.65-15.912-20.356-32.278-41.31-41.655-65.374z" fill="url(#paint18_linear)"/><path d="M1407.92-70.92c-6.33-16.17-16.55-32.595-30.61-49.111-9.25-10.817-21.95-24.157-38.52-31.326-10.24-4.428-21.33-6.316-33.74-8.131a1918.92 1918.92 0 00-61.1-8.022c-14.31-1.651-27.21-2.867-40.05-1.216-34.33 4.429-61.57 28.531-87.91 51.835-24.45 21.633-49.74 43.993-81.11 51.58-4.36 1.052-8.88 1.815-13.24 2.559-8.29 1.397-16.85 2.85-24.538 6.334-29.4 13.34-38.084 52.633-29.472 82.942 7.671 26.951 25.564 49.856 42.86 71.962 2.66 3.412 5.3 6.787 7.91 10.181 23.39 30.455 37.3 56.698 34.41 93.414-3.02 38.114 36.67 62.996 53.89 71.926 28.41 14.755 60.36 20.762 91.22 26.588l49.61 9.365c16.79 3.158 35.81 6.752 53.61 2.813 28.93-6.352 49.39-31.089 61.46-50.708 15.54-25.228 25.91-54.085 29.96-83.451 2.62-18.893 2.75-38.403 2.86-57.26.09-20.219.2-41.127 3.42-61.454 1.83-11.488 4.65-23.086 7.4-34.302 5.52-22.469 11.2-45.718 8.66-68.822-1.01-9.129-3.34-18.367-6.98-27.695zM968.806 37.723a112.385 112.385 0 01-3.564-10.527c-8.883-31.307.199-71.998 30.847-85.882 7.961-3.612 16.701-5.1 25.131-6.534 4.32-.725 8.79-1.488 13.08-2.522 30.77-7.423 55.83-29.602 80.04-51.018 26.63-23.558 54.17-47.896 89.23-52.433 13.13-1.688 26.18-.454 40.67 1.216 20.21 2.305 40.78 5.009 61.17 8.004 12.59 1.869 23.85 3.775 34.34 8.33 17.06 7.387 30.03 20.981 39.42 31.997 22.53 26.426 35.37 52.724 38.18 78.151 2.62 23.558-3.13 47.007-8.71 69.693-2.71 11.162-5.57 22.687-7.34 34.103-3.19 20.127-3.31 40.944-3.42 61.072-.11 18.929-.2 38.512-2.86 57.587-4.11 29.71-14.6 58.894-30.3 84.412-12.32 20.037-33.28 45.301-63.05 51.853-18.3 4.029-37.58.381-54.61-2.814l-49.61-9.364c-31.04-5.863-63.16-11.906-91.89-26.825-17.65-9.147-58.36-34.72-55.23-74.339 2.84-35.918-10.87-61.726-33.91-91.708a1055.05 1055.05 0 00-7.88-10.146c-15.183-19.401-30.797-39.366-39.734-62.306z" fill="url(#paint19_linear)"/><path d="M1399.38-64.462c-6.02-15.45-15.79-31.138-29.21-46.899-8.81-10.337-20.93-23.058-36.75-29.919-9.75-4.24-20.34-6.024-32.17-7.771a1812.548 1812.548 0 00-58.28-7.662c-13.66-1.565-25.95-2.73-38.2-1.147-32.77 4.241-58.73 27.245-83.87 49.502-23.32 20.656-47.44 42.004-77.38 49.247-4.17 1.001-8.48 1.747-12.63 2.439-7.92 1.346-16.07 2.73-23.4 6.06-28.048 12.721-36.33 50.266-28.12 79.184 7.339 25.789 24.37 47.628 40.88 68.757 2.54 3.221 5.06 6.461 7.56 9.718 22.31 29.064 35.57 54.125 32.82 89.194-2.88 36.435 34.99 60.185 51.41 68.72 27.09 14.05 57.55 19.801 87.02 25.37l47.32 8.936c16 3.021 34.16 6.46 51.14 2.711 27.6-6.078 47.11-29.701 58.64-48.428 14.82-24.095 24.7-51.649 28.58-79.712 2.5-18.053 2.61-36.671 2.7-54.67.1-19.328.23-39.274 3.26-58.692 1.74-10.974 4.46-22.058 7.08-32.759 5.26-21.457 10.7-43.66 8.25-65.717-.98-8.717-3.19-17.544-6.65-26.462zM980.493 39.293a104.13 104.13 0 01-3.389-10.064c-8.499-29.901.182-68.739 29.416-82.006 7.61-3.458 15.93-4.859 23.97-6.242 4.11-.691 8.37-1.42 12.49-2.402 29.35-7.098 53.24-28.264 76.34-48.719 25.41-22.494 51.67-45.753 85.12-50.084 12.52-1.62 24.97-.437 38.8 1.146 19.37 2.239 39 4.805 58.35 7.68 12.02 1.766 22.75 3.585 32.77 7.935 16.27 7.043 28.63 20.037 37.6 30.556 21.49 25.224 33.74 50.34 36.43 74.635 2.48 22.494-3.01 44.897-8.32 66.573-2.59 10.646-5.29 21.656-7.02 32.558-3.04 19.218-3.13 39.092-3.24 58.31-.09 18.09-.2 36.78-2.74 54.998-3.93 28.372-13.91 56.253-28.88 80.622-11.78 19.127-31.75 43.241-60.17 49.52-17.45 3.84-35.84.364-52.1-2.712l-47.29-8.917c-29.65-5.606-60.28-11.393-87.7-25.607-16.83-8.753-55.67-33.158-52.68-71.031 2.72-34.287-10.36-58.929-32.33-87.538-2.48-3.257-5-6.479-7.53-9.7-14.47-18.545-29.38-37.618-37.897-59.511z" fill="url(#paint20_linear)"/><path d="M1390.85-55.43c-5.7-14.664-14.98-29.53-27.73-44.485-8.34-9.795-19.88-21.88-34.88-28.386-9.27-4.016-19.3-5.724-30.55-7.378a1736.402 1736.402 0 00-55.33-7.25c-12.96-1.49-24.64-2.599-36.27-1.091-31.1 4.016-55.76 25.842-79.63 46.94-22.13 19.608-45.04 39.852-73.46 46.721-3.96.963-8.06 1.654-12 2.326-7.5 1.272-15.25 2.58-22.21 5.743-26.639 12.066-34.48 47.684-26.693 75.124 6.954 24.424 23.143 45.159 38.813 65.221 2.41 3.071 4.81 6.142 7.17 9.214 21.17 27.567 33.78 51.355 31.15 84.61-2.72 34.546 33.23 57.08 48.82 65.167 25.74 13.356 54.64 18.808 82.62 24.078l44.92 8.487c15.19 2.871 32.43 6.124 48.55 2.562 26.21-5.779 44.75-28.167 55.67-45.94 14.07-22.861 23.46-48.993 27.13-75.615 2.38-17.119 2.48-34.782 2.57-51.864.11-18.3.22-37.254 3.12-55.663 1.65-10.43 4.22-20.916 6.7-31.074 4.98-20.372 10.16-41.415 7.84-62.35-.9-8.268-3.02-16.646-6.32-25.096zM993.165 42.994a99.963 99.963 0 01-3.223-9.54c-8.059-28.368.181-65.222 27.928-77.815 7.22-3.253 15.12-4.598 22.74-5.888 3.93-.672 7.99-1.363 11.87-2.29 27.87-6.742 50.56-26.804 72.49-46.23 24.13-21.335 49.05-43.396 80.81-47.503 11.9-1.527 23.73-.4 36.84 1.09 18.38 2.126 37.02 4.58 55.4 7.269 11.41 1.69 21.6 3.417 31.11 7.524 15.43 6.705 27.18 19.026 35.7 29.003 20.39 23.933 32.03 47.739 34.59 70.8 2.35 21.334-2.86 42.578-7.9 63.13-2.48 10.105-5.03 20.572-6.66 30.912-2.88 18.227-2.99 37.09-3.1 55.317-.09 17.154-.18 34.873-2.59 52.173-3.73 26.913-13.22 53.354-27.44 76.487-11.15 18.137-30.11 40.998-57.1 46.958-16.59 3.653-34.05.345-49.46-2.562l-44.91-8.487c-28.13-5.306-57.21-10.794-83.26-24.296-15.97-8.287-52.84-31.42-50-67.347 2.57-32.547-9.85-55.899-30.71-83.066-2.36-3.072-4.75-6.125-7.14-9.196-13.74-17.573-27.89-35.672-35.985-56.443z" fill="url(#paint21_linear)"/><path d="M1383.33-48.384c-5.43-13.861-14.21-27.94-26.31-42.073-7.95-9.271-18.85-20.701-33.12-26.852-9.47-4.1-20.3-5.697-28.99-6.985-17.33-2.54-35-4.844-52.53-6.858-12.28-1.415-23.39-2.449-34.42-1.034-29.52 3.792-52.93 24.457-75.58 44.414-21.01 18.542-42.74 37.7-69.71 44.196-3.77.889-7.65 1.56-11.41 2.195-7.11 1.197-14.48 2.45-21.07 5.425-25.29 11.412-32.749 45.103-25.35 71.065 6.59 23.132 21.98 42.708 36.86 61.667 2.26 2.903 4.55 5.806 6.78 8.709 20.13 26.107 32.08 48.586 29.58 80.046-2.58 32.657 31.53 53.993 46.32 61.631 24.44 12.627 51.9 17.798 78.44 22.787l42.63 8.001c14.42 2.722 30.79 5.806 46.08 2.432 24.88-5.461 42.48-26.652 52.86-43.434 13.35-21.627 22.25-46.355 25.75-71.537 2.25-16.184 2.34-32.875 2.43-49.04.11-17.327.2-35.234 2.96-52.65 1.56-9.852 4.01-19.795 6.37-29.392 4.73-19.268 9.63-39.189 7.43-58.982-.87-7.82-2.86-15.748-6-23.731zm-377.49 93.09c-1.14-2.957-2.17-5.95-3.05-9.016-7.653-26.834.19-61.704 26.51-73.588 6.86-3.102 14.36-4.372 21.61-5.588 3.71-.635 7.55-1.288 11.25-2.177 26.46-6.368 47.98-25.345 68.81-43.706 22.9-20.193 46.54-41.057 76.7-44.939 11.28-1.452 22.52-.381 34.96 1.034 17.55 2.013 35.24 4.336 52.61 6.876 8.8 1.306 19.77 2.921 29.5 7.13 14.66 6.314 25.8 17.979 33.89 27.414 19.36 22.642 30.4 45.175 32.81 66.965 2.25 20.175-2.69 40.295-7.48 59.726-2.36 9.561-4.79 19.43-6.31 29.21-2.74 17.235-2.85 35.088-2.94 52.324-.07 16.237-.18 33.001-2.45 49.348-3.56 25.454-12.56 50.473-26.06 72.335-10.59 17.145-28.59 38.808-54.19 44.414-15.74 3.465-32.32.345-46.95-2.395l-42.64-8.037c-26.69-5.008-54.3-10.196-79.02-22.969-15.17-7.838-50.15-29.754-47.46-63.699 2.43-30.789-9.35-52.887-29.14-78.577l.85-.635-.85.635c-2.24-2.884-4.5-5.805-6.79-8.708-13.05-16.62-26.47-33.728-34.17-53.377z" fill="url(#paint22_linear)"/><path d="M1374.82-42.14c-5.09-13.108-13.38-26.398-24.75-39.76-7.47-8.77-17.78-19.573-31.18-25.383-8.93-3.867-19.1-5.374-27.29-6.59-16.44-2.415-33.06-4.612-49.44-6.482-11.58-1.343-22.01-2.342-32.41-.98-27.78 3.577-49.82 23.094-71.15 41.958-19.78 17.52-40.23 35.64-65.61 41.776-3.56.835-7.19 1.47-10.74 2.07-6.69 1.144-13.62 2.324-19.84 5.12-23.8 10.802-30.81 42.647-23.85 67.158 6.22 21.84 20.69 40.396 34.69 58.298 2.13 2.76 4.28 5.501 6.4 8.242 18.93 24.674 30.18 45.934 27.83 75.637-2.44 30.883 29.68 51.036 43.6 58.262 22.99 11.928 48.85 16.812 73.82 21.532l40.15 7.571c13.58 2.56 28.99 5.483 43.39 2.306 23.41-5.156 39.98-25.182 49.75-41.068 12.55-20.444 20.94-43.81 24.21-67.612 2.13-15.287 2.23-31.083 2.3-46.352.09-16.376.2-33.297 2.78-49.764 1.49-9.314 3.78-18.7 5.99-27.76 4.47-18.21 9.08-37.02 7-55.757-.8-7.37-2.7-14.87-5.65-22.422zm-355.3 87.965a90.996 90.996 0 01-2.9-8.516c-7.19-25.363.19-58.297 24.98-69.554 6.44-2.923 13.49-4.121 20.31-5.283 3.51-.581 7.12-1.199 10.61-2.034 24.91-6.028 45.16-23.965 64.76-41.322 21.54-19.082 43.82-38.799 72.2-42.466 10.63-1.362 21.19-.363 32.91.98a1552.61 1552.61 0 0149.5 6.5c10.2 1.507 19.31 3.05 27.8 6.736 13.79 5.973 24.28 16.993 31.9 25.908 18.23 21.387 28.61 42.702 30.88 63.29 2.12 19.064-2.55 38.091-7.05 56.465-2.2 9.023-4.5 18.355-5.95 27.578-2.57 16.304-2.66 33.17-2.75 49.456-.09 15.324-.18 31.192-2.31 46.642-3.35 24.057-11.81 47.714-24.52 68.375-9.97 16.213-26.93 36.656-51.02 41.976-14.79 3.268-30.42.327-44.18-2.288l-40.15-7.571c-25.14-4.757-51.12-9.659-74.36-21.714-14.29-7.408-47.24-28.105-44.71-60.222 2.3-29.068-8.79-49.947-27.41-74.239-2.12-2.742-4.25-5.483-6.41-8.225-12.26-15.722-24.9-31.881-32.13-50.472z" fill="url(#paint23_linear)"/><path d="M1366.31-34.1c-4.82-12.305-12.63-24.808-23.38-37.366-7.03-8.228-16.74-18.376-29.39-23.83-8.43-3.642-18.01-5.056-25.73-6.198a1508.249 1508.249 0 00-46.63-6.088c-10.93-1.251-20.79-2.193-30.57-.924-26.19 3.37-46.99 21.709-67.09 39.431-18.67 16.455-37.95 33.47-61.89 39.233-3.35.797-6.79 1.395-10.13 1.94-6.32 1.068-12.85 2.174-18.7 4.838-22.45 10.13-29.07 40.03-22.51 63.08 5.84 20.513 19.5 37.928 32.71 54.744 2.03 2.592 4.04 5.165 6.04 7.756 17.86 23.141 28.47 43.129 26.26 71.054-2.29 29.048 27.99 47.931 41.11 54.726 21.7 11.217 46.07 15.802 69.63 20.242l37.86 7.103c12.81 2.41 27.32 5.129 40.92 2.157 22.09-4.857 37.69-23.649 46.91-38.581 11.85-19.19 19.76-41.153 22.87-63.479 2-14.388 2.09-29.229 2.16-43.563.09-15.385.16-31.296 2.61-46.753 1.38-8.753 3.55-17.578 5.65-26.095 4.21-17.106 8.56-34.775 6.62-52.352-.78-6.94-2.58-13.972-5.33-21.075zm-335.13 82.65a90.892 90.892 0 01-2.7-8.009c-6.8-23.811.16-54.78 23.54-65.345 6.07-2.737 12.72-3.878 19.17-4.947 3.28-.58 6.71-1.142 9.99-1.94 23.48-5.653 42.6-22.506 61.09-38.797 20.31-17.922 41.32-36.46 68.1-39.885 9.99-1.305 19.97-.362 31.01.906a1453.38 1453.38 0 0146.72 6.107c9.6 1.413 18.19 2.863 26.2 6.324 13.01 5.618 22.91 15.965 30.08 24.337 17.16 20.097 26.99 40.085 29.12 59.456 2 17.922-2.39 35.772-6.65 53.023-2.08 8.5-4.22 17.252-5.6 25.932-2.42 15.33-2.52 31.168-2.61 46.463-.07 14.406-.16 29.284-2.17 43.799-3.15 22.597-11.15 44.814-23.12 64.24-9.41 15.24-25.41 34.449-48.14 39.432-13.97 3.063-28.68.308-41.66-2.138l-37.86-7.122c-23.7-4.458-48.2-9.079-70.13-20.405-13.48-6.976-44.54-26.384-42.15-56.556 2.18-27.345-8.3-46.971-25.88-69.749-1.99-2.591-4-5.165-6.01-7.738-11.58-14.769-23.51-29.954-30.34-47.387z" fill="url(#paint24_linear)"/><path d="M1357.78-27.862c-4.5-11.533-11.82-23.266-21.89-35.035-6.59-7.725-15.68-17.246-27.52-22.378-7.32-3.155-15.25-4.497-24.14-5.785-14.43-2.14-29.13-4.062-43.66-5.73-10.23-1.179-19.46-2.05-28.64-.87-24.54 3.173-44 20.364-62.83 36.993-17.5 15.433-35.57 31.39-58 36.813-3.12.744-6.36 1.287-9.47 1.831-5.92.998-12.04 2.032-17.53 4.516-21.02 9.52-27.24 37.574-21.08 59.19 5.51 19.277 18.29 35.598 30.66 51.375 1.9 2.43 3.78 4.842 5.65 7.254 16.71 21.743 26.67 40.457 24.59 66.661-2.18 27.238 26.22 44.991 38.51 51.338 20.32 10.518 43.15 14.834 65.22 18.987l35.48 6.673c11.98 2.249 25.58 4.824 38.31 2.031 20.7-4.551 35.31-22.196 43.95-36.214 11.1-18.007 18.51-38.59 21.42-59.571 1.87-13.492 1.96-27.383 2.03-40.856.07-14.435.16-29.342 2.46-43.85 1.29-8.214 3.32-16.483 5.29-24.462 3.93-16.05 8-32.642 6.17-49.144-.72-6.51-2.37-13.111-4.98-19.767zm-313.93 77.524a76.47 76.47 0 01-2.53-7.507c-6.36-22.324.14-51.375 22.05-61.294 5.69-2.575 11.92-3.627 17.95-4.643 3.1-.525 6.3-1.07 9.38-1.813 21.98-5.295 39.89-21.108 57.22-36.395 19.03-16.81 38.71-34.202 63.79-37.43 9.38-1.215 18.71-.326 29.06.87 14.56 1.651 29.27 3.591 43.73 5.713 9 1.324 17.08 2.684 24.57 5.948 12.17 5.26 21.44 14.961 28.16 22.831 16.12 18.842 25.3 37.61 27.31 55.781 1.86 16.81-2.27 33.549-6.23 49.743-1.96 7.96-3.97 16.194-5.27 24.336-2.28 14.362-2.35 29.196-2.43 43.577-.07 13.51-.14 27.491-2.04 41.092-2.95 21.217-10.43 42.035-21.66 60.26-8.82 14.29-23.81 32.316-45.07 36.994-13.11 2.884-26.89.29-39.06-2.013l-35.45-6.673c-22.2-4.189-45.18-8.505-65.7-19.132-12.62-6.528-41.71-24.789-39.49-53.079 2.03-25.624-7.77-44.012-24.23-65.428a882.43 882.43 0 00-5.64-7.236c-10.85-13.855-22.01-28.108-28.42-44.502z" fill="url(#paint25_linear)"/><path d="M1348.25-19.812c-4.21-10.748-11.05-21.676-20.47-32.64-6.17-7.183-14.69-16.049-25.76-20.825-6.84-2.95-14.27-4.198-22.56-5.41a1291.874 1291.874 0 00-40.88-5.32c-9.56-1.103-18.18-1.917-26.79-.814-22.94 2.95-41.16 18.962-58.79 34.45-16.35 14.365-33.25 29.238-54.25 34.268-2.93.705-5.96 1.212-8.88 1.719-5.53.94-11.25 1.9-16.39 4.215-19.66 8.848-25.46 34.974-19.71 55.112 5.12 17.894 17.1 33.128 28.66 47.838 1.8 2.261 3.56 4.505 5.3 6.767 15.65 20.228 24.94 37.669 23.02 62.059-2.02 25.384 24.54 41.903 36.04 47.82 18.99 9.788 40.35 13.805 61.01 17.659l33.18 6.224c11.22 2.099 23.96 4.487 35.85 1.881 19.36-4.233 33.05-20.662 41.13-33.707 10.38-16.754 17.3-35.951 20.04-55.455 1.74-12.575 1.81-25.53 1.88-38.068.08-13.443.17-27.32 2.31-40.818 1.2-7.653 3.1-15.361 4.94-22.797 3.7-14.945 7.51-30.397 5.79-45.74-.68-6.079-2.24-12.212-4.67-18.418zm-293.7 72.191a83.09 83.09 0 01-2.38-6.984c-5.95-20.825.15-47.856 20.64-57.084 5.32-2.406 11.14-3.383 16.79-4.342 2.9-.47 5.9-.977 8.77-1.683 20.58-4.939 37.33-19.667 53.54-33.888 17.81-15.669 36.21-31.844 59.68-34.865 8.77-1.122 17.52-.29 27.19.814a1246.96 1246.96 0 0140.91 5.337c8.43 1.23 15.98 2.497 22.98 5.519 11.4 4.903 20.08 13.95 26.36 21.277 15.06 17.532 23.65 35.01 25.54 51.927 1.74 15.65-2.11 31.247-5.83 46.319-1.81 7.436-3.72 15.09-4.92 22.652-2.12 13.407-2.19 27.23-2.27 40.601-.07 12.593-.14 25.602-1.92 38.285-2.76 19.74-9.77 39.135-20.28 56.088-8.24 13.317-22.23 30.089-42.16 34.468-12.23 2.678-25.14.253-36.52-1.882l-33.18-6.224c-20.76-3.89-42.24-7.907-61.48-17.822-11.8-6.079-39.02-23.068-36.92-49.394 1.89-23.901-7.26-41.035-22.67-60.955-1.74-2.262-3.52-4.505-5.28-6.749-10.15-12.9-20.6-26.162-26.59-41.415z" fill="url(#paint26_linear)"/><path d="M1339.76-12.369c-3.9-10.027-10.23-20.2-18.94-30.427-5.69-6.685-13.55-14.969-23.8-19.42-6.35-2.742-13.2-3.905-20.88-5.031a1162.2 1162.2 0 00-37.76-4.96c-8.87-1.035-16.82-1.798-24.77-.762-21.24 2.743-38.09 17.675-54.37 32.116-15.13 13.407-30.76 27.267-50.16 31.954-2.73.672-5.51 1.126-8.22 1.598-5.12.872-10.39 1.763-15.15 3.924-18.18 8.266-23.55 32.608-18.22 51.373 4.76 16.785 15.8 30.9 26.5 44.596 1.65 2.126 3.27 4.215 4.9 6.322 14.46 18.856 23.06 35.132 21.27 57.876-1.86 23.597 22.69 39.038 33.33 44.578 17.59 9.138 37.32 12.862 56.41 16.458l30.69 5.795c10.37 1.98 22.14 4.197 33.15 1.762 17.89-3.96 30.54-19.273 38.01-31.426 9.6-15.641 16.01-33.516 18.54-51.7 1.59-11.735 1.66-23.815 1.74-35.477.07-12.534.14-25.505 2.11-38.076 1.14-7.139 2.89-14.314 4.59-21.253 3.42-13.933 6.92-28.339 5.35-42.653-.63-5.65-2.06-11.39-4.32-17.167zM1068.2 54.953a79.08 79.08 0 01-2.19-6.521c-5.51-19.42.13-44.615 19.07-53.226 4.93-2.234 10.32-3.142 15.53-4.032 2.67-.455 5.44-.927 8.11-1.58 19.03-4.597 34.52-18.312 49.51-31.591 16.44-14.605 33.49-29.683 55.18-32.498 8.11-1.054 16.19-.291 25.14.763 12.69 1.453 25.43 3.124 37.83 4.959 7.79 1.144 14.75 2.325 21.23 5.159 10.56 4.56 18.57 12.988 24.4 19.819 13.9 16.349 21.87 32.643 23.59 48.43 1.61 14.586-1.93 29.119-5.39 43.179-1.68 6.903-3.43 14.06-4.55 21.127-1.95 12.48-2.02 25.359-2.1 37.839-.07 11.735-.14 23.851-1.75 35.677-2.57 18.402-9.04 36.495-18.76 52.317-7.61 12.407-20.57 28.048-38.99 32.117-11.31 2.507-23.24.254-33.76-1.744l-30.67-5.795c-19.21-3.633-39.06-7.375-56.84-16.621-10.92-5.686-36.12-21.527-34.16-46.068 1.75-22.253-6.73-38.239-20.97-56.804a607.592 607.592 0 00-4.88-6.304c-9.38-12.007-19.05-24.396-24.58-38.602z" fill="url(#paint27_linear)"/><path d="M1331.21-5.127c-3.6-9.256-9.45-18.659-17.52-28.115-5.27-6.184-12.54-13.822-22.05-17.95-6.29-2.728-13.5-3.801-19.28-4.656-11.55-1.71-23.31-3.237-34.98-4.583-8.19-.946-15.56-1.637-22.92-.691-19.65 2.546-35.25 16.331-50.32 29.68-13.99 12.385-28.47 25.188-46.41 29.516-2.52.6-5.11 1.055-7.61 1.473-4.73.819-9.63 1.637-14.03 3.638-16.82 7.62-21.78 30.134-16.87 47.484 4.4 15.44 14.62 28.534 24.53 41.192 1.53 1.964 3.03 3.892 4.54 5.856 13.39 17.422 21.34 32.462 19.68 53.467-1.73 21.842 21 36.1 30.86 41.21 16.25 8.421 34.54 11.876 52.2 15.222l28.4 5.347c9.6 1.8 20.48 3.874 30.68 1.637 16.56-3.674 28.27-17.823 35.17-29.062 8.9-14.44 14.84-30.971 17.16-47.775 1.51-10.839 1.56-22.006 1.62-32.808.07-11.567.12-23.533 1.97-35.154 1.03-6.602 2.65-13.24 4.22-19.641 3.18-12.876 6.44-26.189 4.97-39.41-.6-5.238-1.92-10.53-4.01-15.877zM1079.89 57.07a63.718 63.718 0 01-2.03-6.02c-5.09-17.93.11-41.21 17.65-49.175 4.57-2.073 9.55-2.91 14.37-3.728 2.48-.418 5.04-.855 7.5-1.455 17.62-4.256 31.95-16.931 45.83-29.207 15.22-13.494 30.97-27.425 51.07-30.026 7.52-.964 14.98-.254 23.27.691 11.68 1.346 23.44 2.892 35.01 4.602 5.87.873 13.17 1.945 19.66 4.764 9.76 4.22 17.18 12.022 22.56 18.314 12.88 15.13 20.24 30.19 21.85 44.756 1.49 13.476-1.81 26.898-5 39.901-1.54 6.402-3.17 13.003-4.2 19.514-1.83 11.53-1.87 23.442-1.94 34.972-.06 10.839-.13 22.06-1.63 32.99-2.36 16.986-8.36 33.717-17.34 48.339-7.07 11.457-19.07 25.934-36.1 29.68-10.49 2.31-21.53.218-31.26-1.619l-28.38-5.365c-17.78-3.346-36.17-6.819-52.61-15.349-10.11-5.237-33.41-19.914-31.62-42.574 1.63-20.568-6.21-35.336-19.39-52.485-1.5-1.965-3.01-3.892-4.53-5.838-8.68-11.094-17.61-22.533-22.74-35.682z" fill="url(#paint28_linear)"/><path d="M1322.72.924c-3.32-8.47-8.68-17.069-16.06-25.703-4.84-5.66-11.5-12.661-20.19-16.416-5.36-2.322-11.17-3.301-17.68-4.263a1001.92 1001.92 0 00-32.01-4.19c-7.49-.852-14.25-1.505-21-.635-17.99 2.322-32.26 14.929-46.07 27.137-12.82 11.319-26.07 23.018-42.51 26.99-2.3.563-4.67.962-6.95 1.343-4.34.744-8.83 1.488-12.85 3.32-15.43 6.983-19.97 27.553-15.46 43.425 4.04 14.13 13.41 26.084 22.46 37.675 1.4 1.778 2.79 3.556 4.15 5.333 12.26 15.945 19.55 29.676 18.03 48.886-1.57 19.971 19.23 32.995 28.24 37.675 14.92 7.709 31.63 10.865 47.83 13.913l26 4.915c8.79 1.633 18.77 3.519 28.09 1.47 15.17-3.338 25.91-16.289 32.22-26.556 8.15-13.206 13.58-28.316 15.72-43.68 1.36-9.904 1.43-20.116 1.48-29.984.06-10.593.11-21.531 1.79-32.16.95-6.023 2.45-12.1 3.88-17.959 2.88-11.79 5.86-23.943 4.54-36.042-.52-4.771-1.75-9.614-3.65-14.494zm-230.17 56.867c-.68-1.796-1.32-3.628-1.84-5.496-4.67-16.416.09-37.712 16.15-44.967 4.18-1.905 8.76-2.667 13.17-3.41 2.27-.4 4.62-.799 6.87-1.343 16.13-3.882 29.25-15.49 41.94-26.701 13.96-12.335 28.39-25.087 46.78-27.463 6.9-.87 13.74-.218 21.31.653 10.59 1.215 21.36 2.612 32.06 4.19 6.59.98 12.5 1.96 17.99 4.354 8.96 3.863 15.75 10.992 20.67 16.76 11.81 13.823 18.54 27.608 20.01 40.923 1.37 12.298-1.65 24.597-4.56 36.46-1.45 5.859-2.92 11.899-3.86 17.867-1.67 10.539-1.72 21.422-1.79 31.961-.06 9.904-.11 20.171-1.49 30.148-2.17 15.563-7.65 30.855-15.89 44.205-6.45 10.485-17.43 23.708-33.04 27.137-9.59 2.104-19.71.217-28.62-1.47l-26.01-4.916c-16.26-3.047-33.11-6.221-48.16-14.021-9.25-4.807-30.59-18.194-28.94-38.927 1.48-18.811-5.71-32.306-17.76-47.997-1.38-1.795-2.76-3.537-4.15-5.333-7.95-10.14-16.15-20.606-20.84-32.614z" fill="url(#paint29_linear)"/><path d="M1313.18 9.153c-3.01-7.7-7.92-15.527-14.64-23.39-4.41-5.158-10.48-11.496-18.4-14.929-4.9-2.124-10.21-2.996-16.13-3.886a949.036 949.036 0 00-29.21-3.814c-6.84-.78-13.02-1.362-19.16-.563-16.4 2.107-29.42 13.584-42.03 24.68-11.68 10.316-23.78 20.958-38.76 24.572-2.11.508-4.25.871-6.34 1.235-3.96.672-8.05 1.362-11.74 3.014-14.04 6.357-18.2 25.08-14.07 39.518 3.65 12.875 12.2 23.754 20.49 34.287 1.25 1.616 2.52 3.232 3.77 4.849 11.17 14.528 17.82 27.022 16.44 44.511-1.43 18.179 17.55 30.019 25.78 34.287 13.57 7.01 28.82 9.88 43.61 12.658l23.7 4.468c8.03 1.507 17.13 3.214 25.63 1.343 13.84-3.032 23.63-14.819 29.41-24.171 7.41-12.023 12.37-25.77 14.31-39.754 1.26-9.007 1.31-18.305 1.37-27.295.05-9.625.11-19.595 1.63-29.257.87-5.502 2.24-11.023 3.54-16.362 2.64-10.715 5.36-21.775 4.14-32.78-.49-4.359-1.59-8.772-3.34-13.22zM1103.24 60.93c-.63-1.635-1.22-3.305-1.69-5.013-4.25-14.927.09-34.305 14.73-40.933 3.82-1.708 8-2.434 12.03-3.106 2.07-.345 4.19-.708 6.26-1.198 14.72-3.542 26.69-14.093 38.26-24.3 12.73-11.24 25.88-22.827 42.67-24.988 6.26-.817 12.51-.218 19.43.563 9.72 1.108 19.55 2.415 29.25 3.832 6.01.89 11.4 1.78 16.42 3.959 8.15 3.523 14.35 9.988 18.83 15.236 10.77 12.586 16.93 25.116 18.26 37.248 1.25 11.223-1.49 22.41-4.14 33.215-1.33 5.321-2.67 10.824-3.55 16.236-1.5 9.607-1.56 19.522-1.61 29.111-.06 9.026-.11 18.361-1.37 27.441-1.96 14.147-6.99 28.058-14.49 40.207-5.89 9.553-15.91 21.593-30.15 24.717-8.74 1.907-17.97.199-26.09-1.344l-23.72-4.449c-14.86-2.815-30.22-5.703-43.94-12.786-8.44-4.358-27.9-16.526-26.41-35.431 1.36-17.107-5.19-29.402-16.2-43.694-1.25-1.616-2.51-3.214-3.78-4.849-7.25-9.225-14.71-18.741-19-29.674z" fill="url(#paint30_linear)"/><path d="M1305.64 16.201c-2.72-6.913-7.15-13.936-13.24-20.995-3.98-4.615-9.46-10.316-16.63-13.375-4.76-2.045-10.2-2.841-14.57-3.475a804.072 804.072 0 00-26.39-3.439c-6.19-.688-11.75-1.23-17.31-.525-14.83 1.9-26.59 12.2-37.97 22.172-10.56 9.23-21.48 18.787-35.03 22.026-1.9.453-3.85.797-5.73 1.087-3.59.633-7.28 1.248-10.6 2.733-12.71 5.683-16.45 22.479-12.73 35.438 3.32 11.51 11.04 21.32 18.51 30.768 1.15 1.448 2.28 2.896 3.41 4.344 10.11 13.013 16.13 24.217 14.87 39.909-1.3 16.325 15.85 26.95 23.29 30.769 12.25 6.28 26.06 8.868 39.39 11.348l21.45 4c7.26 1.339 15.48 2.877 23.16 1.212 12.49-2.733 21.34-13.303 26.55-21.683 6.71-10.769 11.18-23.112 12.95-35.655 1.13-8.09 1.17-16.434 1.22-24.488.04-8.633.09-17.575 1.48-26.244.78-4.923 2.02-9.882 3.19-14.678 2.39-9.593 4.85-19.53 3.74-29.412-.42-3.91-1.44-7.837-3.01-11.837zm-189.7 46.425a45.755 45.755 0 01-1.54-4.507c-3.84-13.375.1-30.75 13.34-36.687 3.44-1.538 7.2-2.172 10.83-2.787 1.88-.326 3.81-.634 5.67-1.086 13.3-3.186 24.13-12.651 34.58-21.792 11.51-10.08 23.4-20.488 38.55-22.424 5.67-.724 11.31-.181 17.56.524 8.78.996 17.69 2.154 26.43 3.421 4.43.652 9.94 1.466 14.85 3.548 7.35 3.167 12.96 8.977 17.01 13.683 9.76 11.294 15.28 22.533 16.51 33.393 1.11 10.08-1.37 20.108-3.76 29.809-1.19 4.76-2.41 9.683-3.19 14.57-1.37 8.597-1.41 17.484-1.46 26.099-.06 8.09-.09 16.452-1.24 24.597-1.77 12.723-6.31 25.194-13.1 36.108-5.32 8.542-14.39 19.33-27.24 22.135-7.88 1.737-16.22.181-23.6-1.195l-21.41-4c-13.42-2.515-27.29-5.103-39.7-11.474-7.63-3.91-25.23-14.806-23.88-31.764 1.24-15.349-4.68-26.389-14.62-39.203-1.13-1.43-2.27-2.878-3.41-4.326-6.57-8.29-13.32-16.832-17.18-26.642z" fill="url(#paint31_linear)"/><path d="M1298.15 24.253c-2.41-6.129-6.31-12.347-11.69-18.583-3.52-4.092-8.36-9.138-14.68-11.86-4.21-1.803-9.01-2.505-12.87-3.082a802.65 802.65 0 00-23.32-3.028c-5.45-.631-10.37-1.082-15.28-.45-13.12 1.675-23.5 10.796-33.54 19.61-9.33 8.182-18.97 16.636-30.95 19.501-1.67.415-3.41.685-5.06.974-3.17.523-6.43 1.081-9.37 2.397-11.21 5.047-14.53 19.917-11.25 31.38 2.95 10.22 9.77 18.853 16.36 27.235 1.02 1.28 2.03 2.559 3.01 3.839l-.36.288.36-.288c8.94 11.517 14.25 21.448 13.14 35.327-1.16 14.419 13.99 23.846 20.57 27.216 10.85 5.588 23.03 7.877 34.81 10.076 6.31 1.171 12.61 2.361 18.92 3.533 6.41 1.207 13.66 2.559 20.46 1.081 11.03-2.415 18.85-11.788 23.47-19.196 5.9-9.534 9.87-20.457 11.41-31.578 1-7.138 1.04-14.509 1.09-21.665.04-7.642.07-15.555 1.32-23.251.69-4.344 1.76-8.724 2.81-12.96 2.1-8.507 4.28-17.303 3.3-26.044-.38-3.443-1.27-6.958-2.66-10.472zm-167.56 41.095a52.71 52.71 0 01-1.36-3.984c-3.38-11.86.1-27.234 11.78-32.48 3.05-1.369 6.36-1.946 9.59-2.486 1.65-.27 3.35-.56 4.98-.956 11.75-2.811 21.31-11.193 30.54-19.286 10.18-8.922 20.68-18.132 34.07-19.844 5.02-.649 10-.18 15.51.45 7.68.884 15.51 1.893 23.34 3.028 3.93.595 8.79 1.316 13.1 3.155 6.51 2.793 11.45 7.948 15.06 12.112 8.59 9.985 13.48 19.953 14.55 29.56 1 8.904-1.19 17.79-3.31 26.369-1.06 4.218-2.14 8.597-2.83 12.905-1.2 7.624-1.23 15.483-1.29 23.107-.03 7.174-.09 14.564-1.08 21.773-1.56 11.247-5.57 22.296-11.57 31.957-4.71 7.57-12.7 17.123-24.04 19.592-7 1.532-14.36.162-20.86-1.045-6.29-1.19-12.61-2.361-18.92-3.551-11.85-2.199-24.1-4.488-35.07-10.148-6.74-3.46-22.27-13.121-21.07-28.117 1.07-13.59-4.15-23.341-12.94-34.697-1-1.297-2.01-2.559-3.01-3.839-5.8-7.336-11.76-14.888-15.17-23.575z" fill="url(#paint32_linear)"/><path d="M1288.64 30.696c-2.08-5.39-5.48-10.87-10.12-16.352-3.05-3.63-7.28-8.057-12.76-10.471-3.38-1.47-7.06-2.087-11.18-2.704a642.864 642.864 0 00-20.23-2.668c-4.71-.545-8.99-.962-13.27-.4-11.36 1.47-20.38 9.51-29.09 17.26-8.09 7.223-16.47 14.682-26.86 17.204-1.45.345-2.94.617-4.4.853-2.73.472-5.57.944-8.1 2.124-9.75 4.446-12.62 17.531-9.76 27.622 2.55 9.02 8.44 16.623 14.18 23.992.88 1.143 1.76 2.268 2.62 3.412 7.75 10.126 12.35 18.892 11.4 31.124-1.01 12.722 12.14 21.016 17.84 23.974 9.4 4.9 19.99 6.915 30.21 8.856l16.43 3.122c5.54 1.071 11.84 2.25 17.74.962 9.58-2.142 16.36-10.381 20.36-16.914 5.14-8.421 8.58-18.04 9.92-27.822.88-6.316.92-12.794.96-19.092.01-6.733.05-13.702 1.11-20.471.61-3.848 1.55-7.695 2.46-11.434 1.82-7.495 3.71-15.226 2.86-22.94-.34-3.048-1.11-6.133-2.32-9.237zm-145.4 36.206a32.315 32.315 0 01-1.16-3.502c-2.95-10.436.07-24.01 10.2-28.62 2.65-1.216 5.52-1.706 8.31-2.178 1.43-.236 2.93-.508 4.35-.835 10.19-2.486 18.49-9.873 26.51-17.023 8.8-7.84 17.93-15.953 29.53-17.477 4.38-.563 8.69-.145 13.47.417 6.71.762 13.52 1.67 20.26 2.668 4.17.617 7.91 1.252 11.38 2.777 5.66 2.468 9.94 6.987 13.04 10.653 7.46 8.82 11.7 17.567 12.66 26.06.86 7.86-1.06 15.663-2.9 23.23-.89 3.721-1.85 7.55-2.42 11.362-1.06 6.697-1.12 13.647-1.15 20.362-.04 6.316-.06 12.831-.94 19.201-1.35 9.891-4.83 19.619-10.03 28.13-4.08 6.679-11.01 15.1-20.88 17.277-6.06 1.343-12.44.146-18.08-.943l-16.43-3.122c-10.28-1.942-20.94-3.974-30.43-8.929-5.85-3.049-19.33-11.579-18.29-24.772.95-11.978-3.6-20.581-11.22-30.58-.86-1.126-1.74-2.269-2.62-3.394-5.03-6.46-10.19-13.121-13.16-20.762z" fill="url(#paint33_linear)"/><path d="M1280.11 38.943c-1.82-4.638-4.76-9.348-8.78-14.059-2.68-3.11-6.32-6.929-11.08-8.984-2.93-1.255-6.13-1.8-9.7-2.328a582.486 582.486 0 00-17.54-2.291c-4.09-.473-7.8-.819-11.51-.346-9.88 1.255-17.69 8.166-25.25 14.84-7.03 6.184-14.3 12.604-23.33 14.768-1.25.291-2.54.51-3.82.728-2.34.4-4.82.818-7 1.818-8.46 3.802-10.95 15.077-8.48 23.734 2.22 7.766 7.33 14.277 12.32 20.624.76.964 1.53 1.928 2.27 2.91 6.71 8.73 10.72 16.241 9.88 26.735-.86 10.894 10.53 18.041 15.48 20.606 8.15 4.201 17.32 5.947 26.22 7.602l14.24 2.673c4.82.91 10.28 1.946 15.39.819 8.34-1.837 14.21-8.894 17.67-14.532 4.46-7.202 7.44-15.458 8.62-23.879.75-5.42.78-11.003.8-16.405.04-5.783.07-11.766.98-17.568.53-3.31 1.35-6.638 2.15-9.84 1.58-6.437 3.2-13.076 2.48-19.696-.3-2.619-.95-5.274-2.01-7.93zm-126.16 31.1c-.38-1-.73-1.983-1.02-3.02-2.55-8.966.05-20.605 8.86-24.588 2.29-1.037 4.78-1.455 7.22-1.855 1.24-.219 2.51-.455 3.77-.728 8.84-2.128 16.03-8.475 22.97-14.622 7.66-6.73 15.58-13.713 25.64-15.004 3.8-.473 7.55-.128 11.7.345 5.82.673 11.75 1.437 17.57 2.292 3.62.545 6.86 1.091 9.88 2.382 4.87 2.11 8.6 6.002 11.31 9.167 6.46 7.565 10.16 15.095 10.96 22.37.76 6.747-.88 13.458-2.48 19.95-.8 3.201-1.6 6.511-2.11 9.767-.93 5.765-.96 11.73-.98 17.477-.04 5.438-.07 11.04-.84 16.514-1.18 8.493-4.2 16.841-8.71 24.171-3.53 5.71-9.55 12.967-18.1 14.822-5.26 1.164-10.79.127-15.69-.8l-14.24-2.674c-8.93-1.691-18.16-3.419-26.42-7.693-5.07-2.619-16.75-9.948-15.86-21.279.8-10.275-3.11-17.677-9.75-26.243-.75-.982-1.51-1.946-2.27-2.91-4.35-5.547-8.83-11.276-11.41-17.842z" fill="url(#paint34_linear)"/><path d="M1270.62 46.98c-1.5-3.834-3.93-7.74-7.26-11.646-2.18-2.568-5.18-5.733-9.12-7.451-2.42-1.031-5.04-1.483-8-1.917-4.73-.705-9.61-1.338-14.45-1.917-3.4-.38-6.44-.67-9.5-.271-8.14 1.049-14.58 6.763-20.83 12.279-5.79 5.154-11.77 10.453-19.2 12.243-1.05.253-2.09.452-3.14.615-1.96.325-3.99.687-5.81 1.501-6.97 3.165-9.02 12.496-6.98 19.676 1.81 6.402 6.04 11.845 10.17 17.09.61.813 1.24 1.61 1.85 2.405 5.54 7.215 8.84 13.437 8.14 22.153-.71 9.06 8.71 14.956 12.78 17.072 6.75 3.508 14.29 4.937 21.6 6.311 3.92.742 7.84 1.483 11.75 2.207 3.98.759 8.48 1.609 12.71.669 6.85-1.501 11.7-7.361 14.54-12.026 3.69-5.986 6.14-12.84 7.11-19.803.61-4.485.65-9.096.67-13.581.03-4.793.05-9.766.81-14.576.43-2.73 1.09-5.48 1.76-8.12 1.31-5.335 2.65-10.85 2.05-16.348-.25-2.17-.79-4.359-1.65-6.565zm-104.01 25.77c-.34-.814-.61-1.645-.84-2.495-2.11-7.433.05-17.072 7.29-20.381 1.91-.85 3.96-1.194 5.97-1.538 1.03-.18 2.07-.343 3.08-.596 7.29-1.773 13.21-7.035 18.97-12.117 6.29-5.588 12.84-11.357 21.14-12.424 3.11-.416 6.2-.109 9.62.271 4.86.56 9.74 1.212 14.49 1.917 2.97.434 5.66.886 8.16 1.971 4.03 1.755 7.09 4.974 9.32 7.596 5.33 6.257 8.37 12.478 9.04 18.518.61 5.606-.74 11.176-2.05 16.547-.65 2.659-1.32 5.372-1.75 8.102-.76 4.757-.79 9.712-.81 14.468-.04 4.503-.05 9.132-.68 13.672-.98 7.034-3.44 13.979-7.17 20.037-2.91 4.738-7.9 10.724-14.94 12.279-4.34.959-8.91.091-12.94-.669-3.91-.723-7.83-1.464-11.75-2.206-7.35-1.392-14.94-2.821-21.76-6.366-4.18-2.152-13.83-8.228-13.09-17.632.67-8.536-2.57-14.63-8.03-21.755-.63-.796-1.24-1.61-1.87-2.406-3.58-4.611-7.29-9.331-9.4-14.793z" fill="url(#paint35_linear)"/><path d="M1262.07 53.211c-1.2-3.08-3.15-6.197-5.84-9.332-1.75-2.048-4.2-4.603-7.35-5.962-2.11-.906-4.52-1.25-6.44-1.558-3.8-.544-7.72-1.05-11.65-1.522-2.72-.29-5.18-.544-7.63-.218-6.58.852-11.76 5.419-16.78 9.858-4.67 4.113-9.49 8.354-15.47 9.821-.84.181-1.71.326-2.52.471-1.58.272-3.23.544-4.7 1.196-5.61 2.537-7.26 10.02-5.61 15.783 1.46 5.128 4.87 9.477 8.15 13.663.53.652 1.02 1.323 1.52 1.957 4.48 5.799 7.12 10.782 6.58 17.758-.6 7.266 6.98 11.978 10.28 13.681 5.4 2.79 11.5 3.95 17.39 5.055 3.17.617 6.33 1.196 9.48 1.794 3.17.598 6.81 1.269 10.22.526 5.53-1.196 9.42-5.907 11.72-9.64a41.007 41.007 0 005.73-15.874c.49-3.588.51-7.302.53-10.872.03-3.86.05-7.828.65-11.706.36-2.174.9-4.367 1.41-6.505 1.07-4.276 2.16-8.698 1.65-13.101-.2-1.74-.63-3.48-1.32-5.273zm-83.78 20.675c-.25-.67-.47-1.34-.67-2.011-1.7-5.962.04-13.699 5.87-16.327 1.53-.688 3.21-.978 4.82-1.232.82-.145 1.65-.29 2.47-.489 5.89-1.413 10.65-5.617 15.28-9.694 5.07-4.494 10.32-9.115 17.03-9.985 2.52-.308 5-.09 7.76.236 3.93.435 7.86.96 11.67 1.522 1.95.29 4.4.652 6.54 1.595 3.26 1.395 5.74 3.986 7.52 6.07 4.31 5.02 6.76 10.02 7.3 14.859.49 4.475-.62 8.951-1.67 13.264-.52 2.12-1.07 4.313-1.39 6.469-.62 3.841-.64 7.792-.65 11.633-.02 3.588-.04 7.32-.57 10.945a41.424 41.424 0 01-5.78 16.054c-2.33 3.806-6.34 8.608-12.01 9.858-3.52.779-7.2.091-10.42-.544-3.15-.598-6.33-1.177-9.48-1.775-5.92-1.124-12.05-2.265-17.54-5.092-3.35-1.74-11.13-6.614-10.53-14.152.56-6.832-2.06-11.724-6.45-17.432-.51-.652-1.01-1.305-1.52-1.939-2.88-3.678-5.87-7.484-7.58-11.833z" fill="url(#paint36_linear)"/><path d="M1253.57 61.265c-.88-2.276-2.31-4.607-4.28-6.937-1.3-1.524-3.09-3.406-5.42-4.41-1.44-.627-2.99-.896-4.73-1.147-2.84-.43-5.72-.807-8.57-1.148-2.02-.215-3.84-.394-5.61-.179-4.84.646-8.66 4.052-12.36 7.332-3.43 3.065-6.96 6.202-11.37 7.278-.61.161-1.26.269-1.87.359-1.15.197-2.36.412-3.43.896-4.14 1.882-5.35 7.421-4.16 11.706 1.09 3.8 3.61 7.045 6.03 10.164.39.466.74.95 1.12 1.416 3.27 4.284 5.24 7.995 4.82 13.176-.41 5.413 5.15 8.909 7.57 10.164 4 2.079 8.48 2.922 12.81 3.746l6.95 1.327c2.35.43 5.03.95 7.52.412 4.07-.914 6.95-4.41 8.64-7.17a30.863 30.863 0 004.19-11.778c.38-2.67.38-5.413.39-8.067.02-2.868.04-5.826.5-8.694.25-1.613.66-3.244 1.03-4.822.77-3.173 1.57-6.471 1.23-9.716-.14-1.29-.48-2.6-1-3.908zm-61.62 15.31c-.19-.467-.35-.95-.5-1.47-1.24-4.428.04-10.165 4.32-12.119 1.14-.52 2.37-.699 3.54-.914.6-.108 1.24-.215 1.83-.359 4.32-1.04 7.84-4.176 11.25-7.206 3.73-3.316 7.57-6.758 12.51-7.385 1.83-.251 3.68-.072 5.71.16 2.84.324 5.74.718 8.58 1.13 1.76.27 3.35.538 4.82 1.183 2.4 1.04 4.21 2.958 5.53 4.518 3.16 3.728 4.98 7.44 5.37 11.024.37 3.317-.45 6.633-1.23 9.842-.39 1.577-.78 3.173-1.03 4.804-.44 2.832-.46 5.772-.48 8.622-.02 2.653-.02 5.414-.41 8.12a30.762 30.762 0 01-4.25 11.904c-1.7 2.832-4.67 6.382-8.85 7.314-2.56.573-5.28.071-7.66-.377l-6.95-1.344c-4.35-.825-8.87-1.667-12.9-3.783-2.47-1.29-8.2-4.875-7.75-10.486.39-5.073-1.53-8.713-4.77-12.943-.35-.466-.72-.932-1.08-1.416-2.13-2.743-4.34-5.557-5.6-8.82z" fill="url(#paint37_linear)"/><path d="M1246.02 67.701c-.61-1.557-1.6-3.133-2.93-4.708-.9-1.045-2.13-2.346-3.72-3.024-1.01-.42-2.13-.604-3.27-.769-1.9-.275-3.88-.55-5.88-.788-1.39-.146-2.64-.256-3.87-.11-3.32.44-5.94 2.748-8.48 4.984-2.37 2.088-4.81 4.232-7.83 4.965-.42.092-.86.165-1.28.238-.79.147-1.62.293-2.37.605-2.82 1.282-3.66 5.075-2.84 7.988.09.33.2.66.33.971.86 2.199 2.35 4.086 3.79 5.955.28.312.54.641.77.953 2.26 2.95 3.6 5.46 3.32 8.996-.29 3.664 3.54 6.064 5.21 6.926 2.73 1.41 5.81 1.978 8.81 2.546.77.147 1.58.293 2.37.458.8.129 1.59.294 2.4.44 1.61.312 3.46.641 5.17.275 2.8-.623 4.76-2.987 5.94-4.874a21.03 21.03 0 002.89-8.025c.26-1.814.28-3.7.28-5.496.02-1.96.02-3.958.33-5.918.16-1.1.46-2.236.69-3.298.55-2.162 1.1-4.398.85-6.615a9.561 9.561 0 00-.68-2.675zm-42.36 10.444c-.13-.311-.24-.66-.35-.99-.86-3.023.04-6.925 2.99-8.281.77-.33 1.61-.476 2.42-.623.42-.073.86-.147 1.26-.22 2.97-.714 5.39-2.858 7.72-4.928 2.58-2.254 5.22-4.6 8.61-5.02 1.25-.166 2.53-.056 3.93.091 2.01.238 3.99.495 5.9.77 1.15.183 2.29.366 3.32.806 1.63.696 2.89 2.033 3.81 3.078 2.16 2.546 3.39 5.075 3.66 7.53.26 2.254-.29 4.507-.82 6.688-.27 1.062-.53 2.18-.71 3.28-.32 1.941-.33 3.939-.33 5.88-.02 1.814-.04 3.702-.28 5.534-.4 2.858-1.43 5.661-2.93 8.117-1.18 1.905-3.19 4.342-6.09 4.965-1.76.403-3.63.036-5.28-.257-.78-.146-1.57-.311-2.38-.458-.81-.146-1.58-.293-2.38-.439-3.01-.568-6.11-1.173-8.87-2.584-1.71-.879-5.63-3.335-5.34-7.145.28-3.463-1.04-5.937-3.28-8.813l.11-.092-.11.092c-.24-.33-.49-.66-.75-.99-1.47-1.85-2.97-3.774-3.83-5.991z" fill="url(#paint38_linear)"/><path d="M1237.55 73.964c-.3-.804-.77-1.609-1.42-2.413-.42-.524-1.02-1.179-1.79-1.534-.47-.225-1-.337-1.54-.393-1-.169-1.92-.3-2.82-.412-.57-.056-1.21-.15-1.84-.056-1.59.224-2.83 1.403-4.06 2.544-1.12 1.086-2.27 2.17-3.73 2.545-.19.056-.42.093-.61.112-.39.075-.79.131-1.14.318-1.35.655-1.75 2.582-1.35 4.079.06.168.11.318.18.486.38 1.123 1.1 2.096 1.78 3.032.13.168.27.336.39.523 1.07 1.478 1.7 2.75 1.58 4.566-.13 1.89 1.69 3.105 2.48 3.536 1.31.71 2.79 1.01 4.2 1.31.76.13 1.53.299 2.28.448.79.15 1.66.337 2.49.15 1.33-.318 2.27-1.534 2.83-2.507.7-1.216 1.18-2.657 1.37-4.097.12-.936.14-1.871.14-2.788 0-1.01.02-2.04.16-3.013.07-.598.21-1.16.33-1.702.26-1.123.51-2.245.42-3.387-.05-.43-.16-.898-.33-1.347zm-20.24 5.333c-.06-.188-.13-.337-.16-.506-.4-1.552 0-3.554 1.42-4.228.36-.187.77-.243 1.13-.318l.63-.112c1.42-.393 2.56-1.46 3.68-2.507 1.23-1.16 2.51-2.358 4.12-2.582.64-.094 1.29-.02 1.87.056.89.112 1.82.243 2.8.393.58.093 1.11.187 1.6.411.78.356 1.38 1.03 1.82 1.572 1.03 1.29 1.64 2.582 1.75 3.835.12 1.16-.13 2.283-.39 3.406-.12.542-.26 1.122-.35 1.683-.14.992-.14 2.021-.14 3.013-.02.916-.02 1.87-.14 2.806-.19 1.46-.66 2.919-1.4 4.154-.56.991-1.52 2.226-2.91 2.544-.84.187-1.73.019-2.52-.13-.75-.15-1.52-.319-2.27-.468-1.44-.281-2.93-.58-4.24-1.329-.82-.43-2.7-1.684-2.54-3.63.11-1.777-.51-3.03-1.56-4.508a8.336 8.336 0 01-.38-.506c-.7-.954-1.42-1.927-1.82-3.05z" fill="url(#paint39_linear)"/></g></g><defs><linearGradient id="paint0_linear" x1="702.59" y1="-1291.29" x2="-341.925" y2="380.541" gradientUnits="userSpaceOnUse"><stop stop-opacity=".01"/><stop offset="1"/></linearGradient><linearGradient id="paint1_linear" x1="716.077" y1="-1255.34" x2="-301.855" y2="372.797" gradientUnits="userSpaceOnUse"><stop stop-opacity=".01"/><stop offset="1"/></linearGradient><linearGradient id="paint2_linear" x1="729.521" y1="-1222.35" x2="-262.386" y2="365.042" gradientUnits="userSpaceOnUse"><stop stop-opacity=".01"/><stop offset="1"/></linearGradient><linearGradient id="paint3_linear" x1="741.987" y1="-1190.31" x2="-226.035" y2="356.035" gradientUnits="userSpaceOnUse"><stop stop-opacity=".01"/><stop offset="1"/></linearGradient><linearGradient id="paint4_linear" x1="756.431" y1="-1154.36" x2="-183.955" y2="350.453" gradientUnits="userSpaceOnUse"><stop stop-opacity=".01"/><stop offset="1"/></linearGradient><linearGradient id="paint5_linear" x1="768.897" y1="-1121.36" x2="-145.992" y2="341.618" gradientUnits="userSpaceOnUse"><stop stop-opacity=".01"/><stop offset="1"/></linearGradient><linearGradient id="paint6_linear" x1="782.362" y1="-1085.41" x2="-105.416" y2="334.954" gradientUnits="userSpaceOnUse"><stop stop-opacity=".01"/><stop offset="1"/></linearGradient><linearGradient id="paint7_linear" x1="793.806" y1="-1052.41" x2="-67.948" y2="327.199" gradientUnits="userSpaceOnUse"><stop stop-opacity=".01"/><stop offset="1"/></linearGradient><linearGradient id="paint8_linear" x1="807.272" y1="-1020.37" x2="-30.597" y2="318.193" gradientUnits="userSpaceOnUse"><stop stop-opacity=".01"/><stop offset="1"/></linearGradient><linearGradient id="paint9_linear" x1="821.738" y1="-983.423" x2="10.979" y2="312.53" gradientUnits="userSpaceOnUse"><stop stop-opacity=".01"/><stop offset="1"/></linearGradient><linearGradient id="paint10_linear" x1="833.182" y1="-948.471" x2="50.059" y2="305.945" gradientUnits="userSpaceOnUse"><stop stop-opacity=".01"/><stop offset="1"/></linearGradient><linearGradient id="paint11_linear" x1="847.669" y1="-914.476" x2="89.517" y2="297.03" gradientUnits="userSpaceOnUse"><stop stop-opacity=".01"/><stop offset="1"/></linearGradient><linearGradient id="paint12_linear" x1="860.113" y1="-878.524" x2="129.597" y2="291.446" gradientUnits="userSpaceOnUse"><stop stop-opacity=".01"/><stop offset="1"/></linearGradient><linearGradient id="paint13_linear" x1="873.579" y1="-844.528" x2="168.561" y2="283.612" gradientUnits="userSpaceOnUse"><stop stop-opacity=".01"/><stop offset="1"/></linearGradient><linearGradient id="paint14_linear" x1="887.023" y1="-812.489" x2="206.417" y2="275.687" gradientUnits="userSpaceOnUse"><stop stop-opacity=".01"/><stop offset="1"/></linearGradient><linearGradient id="paint15_linear" x1="899.51" y1="-777.537" x2="245.487" y2="266.941" gradientUnits="userSpaceOnUse"><stop stop-opacity=".01"/><stop offset="1"/></linearGradient><linearGradient id="paint16_linear" x1="912.933" y1="-742.542" x2="285.461" y2="262.268" gradientUnits="userSpaceOnUse"><stop stop-opacity=".01"/><stop offset="1"/></linearGradient><linearGradient id="paint17_linear" x1="926.42" y1="-708.59" x2="325.531" y2="252.524" gradientUnits="userSpaceOnUse"><stop stop-opacity=".01"/><stop offset="1"/></linearGradient><linearGradient id="paint18_linear" x1="939.885" y1="-674.595" x2="364.494" y2="244.689" gradientUnits="userSpaceOnUse"><stop stop-opacity=".01"/><stop offset="1"/></linearGradient><linearGradient id="paint19_linear" x1="952.351" y1="-639.643" x2="404.069" y2="237.025" gradientUnits="userSpaceOnUse"><stop stop-opacity=".01"/><stop offset="1"/></linearGradient><linearGradient id="paint20_linear" x1="964.795" y1="-607.604" x2="440.926" y2="229.099" gradientUnits="userSpaceOnUse"><stop stop-opacity=".01"/><stop offset="1"/></linearGradient><linearGradient id="paint21_linear" x1="978.261" y1="-570.652" x2="481.501" y2="223.436" gradientUnits="userSpaceOnUse"><stop stop-opacity=".01"/><stop offset="1"/></linearGradient><linearGradient id="paint22_linear" x1="991.705" y1="-535.7" x2="522.581" y2="216.849" gradientUnits="userSpaceOnUse"><stop stop-opacity=".01"/><stop offset="1"/></linearGradient><linearGradient id="paint23_linear" x1="1006.19" y1="-502.705" x2="562.039" y2="206.937" gradientUnits="userSpaceOnUse"><stop stop-opacity=".01"/><stop offset="1"/></linearGradient><linearGradient id="paint24_linear" x1="1018.64" y1="-466.753" x2="602.12" y2="201.351" gradientUnits="userSpaceOnUse"><stop stop-opacity=".01"/><stop offset="1"/></linearGradient><linearGradient id="paint25_linear" x1="1032.1" y1="-433.757" x2="641.083" y2="192.518" gradientUnits="userSpaceOnUse"><stop stop-opacity=".01"/><stop offset="1"/></linearGradient><linearGradient id="paint26_linear" x1="1043.55" y1="-397.806" x2="680.164" y2="186.924" gradientUnits="userSpaceOnUse"><stop stop-opacity=".01"/><stop offset="1"/></linearGradient><linearGradient id="paint27_linear" x1="1058.03" y1="-364.766" x2="718.009" y2="177.847" gradientUnits="userSpaceOnUse"><stop stop-opacity=".01"/><stop offset="1"/></linearGradient><linearGradient id="paint28_linear" x1="1070.48" y1="-330.771" x2="756.478" y2="171.094" gradientUnits="userSpaceOnUse"><stop stop-opacity=".01"/><stop offset="1"/></linearGradient><linearGradient id="paint29_linear" x1="1083.94" y1="-296.819" x2="797.053" y2="162.43" gradientUnits="userSpaceOnUse"><stop stop-opacity=".01"/><stop offset="1"/></linearGradient><linearGradient id="paint30_linear" x1="1095.39" y1="-261.824" x2="834.522" y2="156.674" gradientUnits="userSpaceOnUse"><stop stop-opacity=".01"/><stop offset="1"/></linearGradient><linearGradient id="paint31_linear" x1="1108.83" y1="-226.872" x2="875.604" y2="150.071" gradientUnits="userSpaceOnUse"><stop stop-opacity=".01"/><stop offset="1"/></linearGradient><linearGradient id="paint32_linear" x1="1124.32" y1="-190.92" x2="917.673" y2="142.336" gradientUnits="userSpaceOnUse"><stop stop-opacity=".01"/><stop offset="1"/></linearGradient><linearGradient id="paint33_linear" x1="1137.8" y1="-158.881" x2="954.519" y2="132.254" gradientUnits="userSpaceOnUse"><stop stop-opacity=".01"/><stop offset="1"/></linearGradient><linearGradient id="paint34_linear" x1="1149.23" y1="-123.885" x2="992.492" y2="127.586" gradientUnits="userSpaceOnUse"><stop stop-opacity=".01"/><stop offset="1"/></linearGradient><linearGradient id="paint35_linear" x1="1162.71" y1="-87.934" x2="1032.56" y2="119.843" gradientUnits="userSpaceOnUse"><stop stop-opacity=".01"/><stop offset="1"/></linearGradient><linearGradient id="paint36_linear" x1="1175.16" y1="-54.938" x2="1071.03" y2="112.088" gradientUnits="userSpaceOnUse"><stop stop-opacity=".01"/><stop offset="1"/></linearGradient><linearGradient id="paint37_linear" x1="1189.65" y1="-18.986" x2="1112.1" y2="104.342" gradientUnits="userSpaceOnUse"><stop stop-opacity=".01"/><stop offset="1"/></linearGradient><linearGradient id="paint38_linear" x1="1202.07" y1="13.053" x2="1149.46" y2="97.498" gradientUnits="userSpaceOnUse"><stop stop-opacity=".01"/><stop offset="1"/></linearGradient><linearGradient id="paint39_linear" x1="1216.56" y1="46.048" x2="1188.93" y2="87.493" gradientUnits="userSpaceOnUse"><stop stop-opacity=".01"/><stop offset="1"/></linearGradient></defs></svg>