<svg width="18" height="18" fill="none" xmlns="http://www.w3.org/2000/svg"><path fill-rule="evenodd" clip-rule="evenodd" d="M17.838 16.394l-4.654-4.692a.52.52 0 01-.057-.654c1.908-2.93 1.463-6.957-1.352-9.363-2.71-2.314-6.833-2.235-9.457.176C-.695 4.63-.771 9.34 2.09 12.204c2.44 2.444 6.217 2.741 8.99.905a.517.517 0 01.657.057l4.644 4.682a.514.514 0 00.728.001l.727-.728c.2-.2.2-.525 0-.727zM3.544 10.75a5.112 5.112 0 010-7.214 5.093 5.093 0 017.203 0 5.112 5.112 0 010 7.213 5.093 5.093 0 01-7.203 0z" fill="#E60000"/></svg>