<svg width="32" height="32" viewBox="0 0 32 32" fill="none" xmlns="http://www.w3.org/2000/svg">
<path fill-rule="evenodd" clip-rule="evenodd" d="M16.0174 31C24.2959 31 31.007 24.2843 31.007 16C31.007 7.71573 24.2959 1 16.0174 1C7.7389 1 1.02783 7.71573 1.02783 16C1.02783 24.2843 7.7389 31 16.0174 31Z" fill="white" stroke="#EAEAEA"/>
<path fill-rule="evenodd" clip-rule="evenodd" d="M10.3071 13.2671C10.3071 10.045 12.9219 7.42847 16.1417 7.42847C19.3615 7.42847 21.9763 10.0667 21.9763 13.2671C21.9763 14.4564 21.5873 15.6242 20.7661 16.8351C19.6208 18.5435 16.6171 23.9929 16.5955 24.0577L16.401 24.4254C16.293 24.62 15.9904 24.62 15.8824 24.4254L15.6879 24.0577C15.6811 24.0476 15.6021 23.9045 15.4692 23.664C14.7547 22.3703 12.483 18.2574 11.5173 16.8351C10.6961 15.6242 10.3071 14.4564 10.3071 13.2671ZM16.2714 15.9269C17.6328 15.862 18.7348 14.7592 18.7997 13.3968C18.8645 11.8399 17.5895 10.5424 16.012 10.6289C14.6506 10.6938 13.5486 11.7966 13.4837 13.159C13.4189 14.7159 14.6939 16.0134 16.2714 15.9269Z" fill="#E60000"/>
</svg>
