<svg width="634" height="759" fill="none" xmlns="http://www.w3.org/2000/svg"><g opacity=".05" fill-rule="evenodd" clip-rule="evenodd"><path d="M172.602 520.157c23.339-3.413 47.557-7.04 69.318-18.344 34.528-17.908 63.15-55.627 80.591-106.187 11.832-34.254 18.538-74.118 25.023-112.695 3.084-18.452 6.305-37.528 10.031-55.832 3.978-19.487 8.724-39.001 13.309-57.855 13.085-53.861 26.632-109.556 23.886-171.376-5.129-115.001-35.951-192.149-94.21-235.859-66.456-49.881-139.089-59.779-199.265-27.165-15.036 8.159-29.56 18.947-43.64 29.418-15.12 11.236-30.757 22.846-47.13 31.259-30.247 15.573-63.556 20.53-95.772 25.349-39.619 5.965-80.84 12.069-115.766 38.298-27.005 20.284-49.091 51.903-65.313 77.17-25.434 39.654-55.049 94.435-58.039 166.671-3.539 85.84 29.516 171.413 61.523 254.177l4.211 10.949c2.742 7.109 5.454 14.222 8.179 21.318 15.813 41.404 32.146 84.181 51.893 122.084 18.213 34.953 47.56 80.619 83.987 99.681 29.395 15.356 58.848 11.677 88.858 6.179 22.234-4.062 43.74-8.846 62.577-22.374 9.198-6.591 17.8-15.363 26.136-23.847 7.664-7.822 15.585-15.886 24.015-22.342 24.68-18.904 53.412-23.863 81.502-28.058 1.359-.211 2.736-.409 4.096-.619zm-287.712 96.711c-37.43-19.556-67.457-66.23-86.062-101.927-19.968-38.333-36.403-81.373-52.279-122.984-2.724-7.096-5.436-14.209-8.161-21.304l-4.241-10.945c-32.349-83.686-65.785-170.236-62.155-258.101 3.06-74.01 33.111-129.679 58.919-169.917 16.402-25.51 38.718-57.444 66.109-78.035 35.381-26.593 76.705-32.729 116.781-38.734 31.958-4.794 65.176-9.737 95.096-25.12 16.201-8.325 31.752-19.89 46.804-31.069 14.135-10.511 28.741-21.373 43.923-29.587 61.001-33.081 134.6-23.039 201.931 27.511 59.901 44.941 91.565 124.046 96.838 241.81 2.801 63.095-10.874 119.367-24.092 173.774-4.576 18.807-9.307 38.225-13.255 57.6-3.702 18.16-6.901 37.171-9.995 55.563-6.534 38.863-13.285 79.043-25.284 113.818-17.799 51.558-47.001 90.033-82.23 108.312-22.092 11.464-46.474 15.132-69.994 18.573-29.066 4.392-59.169 8.775-84.57 28.223-8.262 6.338-16.115 14.344-23.702 22.062-8.413 8.589-17.096 17.436-26.487 24.18-19.241 13.823-41.018 18.649-63.477 22.761-4.889.896-9.739 1.74-14.608 2.463-25.414 3.796-50.528 4.298-75.809-8.927z" fill="url(#paint0_linear)"/><path d="M168.622 508.88c22.639-3.359 46.003-6.83 67.052-17.765 33.408-17.352 61.097-53.838 77.988-102.749 11.436-33.113 17.924-71.706 24.222-109.016 2.994-17.843 6.095-36.305 9.713-54.012 3.858-18.873 8.445-37.721 12.879-55.957 12.679-52.107 25.798-105.983 23.144-165.79-4.925-111.235-34.691-185.852-91.016-228.117-64.283-48.234-134.501-57.792-192.707-26.218-14.547 7.87-28.62 18.341-42.208 28.443-14.644 10.884-29.772 22.137-45.608 30.268-29.244 15.067-61.572 19.852-92.63 24.548-38.47 5.754-78.195 11.686-111.983 37.075-26.12 19.638-47.477 50.225-63.186 74.679-24.622 38.36-53.254 91.35-56.171 161.238-3.459 83.036 28.511 165.814 59.414 245.852l4.089 10.59c2.654 6.855 5.251 13.75 7.892 20.622 15.277 40.038 31.067 81.419 50.139 118.07 17.601 33.803 45.981 77.977 81.215 96.38 28.417 14.855 56.886 11.318 85.93 5.976 21.484-3.937 42.304-8.575 60.538-21.655 8.885-6.388 17.201-14.883 25.27-23.077 7.405-7.581 15.084-15.39 23.236-21.618 23.882-18.301 51.69-23.127 78.858-27.188 1.316-.189 2.632-.378 3.93-.579zm-278.284 93.634c-36.193-18.92-65.213-64.046-83.189-98.579-19.304-37.063-35.192-78.676-50.548-118.934-2.628-6.89-5.239-13.767-7.875-20.609l-4.085-10.56c-31.262-80.971-63.573-164.671-60.046-249.697 2.987-71.552 32.055-125.43 57.038-164.356 15.859-24.694 37.446-55.595 63.956-75.51 34.23-25.735 74.15-31.606 112.951-37.519 30.998-4.686 63.041-9.411 91.984-24.323 15.665-8.044 30.707-19.252 45.269-30.062 13.67-10.176 27.816-20.674 42.487-28.64 59.005-32.008 130.201-22.323 195.306 26.541 57.913 43.456 88.51 119.97 93.551 233.891 2.705 61.053-10.547 115.475-23.345 168.111-4.426 18.188-9.006 36.988-12.826 55.701-3.589 17.595-6.686 35.979-9.672 53.774-6.334 37.579-12.872 76.457-24.493 110.079-17.235 49.892-45.492 87.115-79.557 104.817-21.381 11.094-44.913 14.576-67.715 17.976-28.036 4.149-57.21 8.537-81.786 27.348-7.998 6.127-15.596 13.861-22.936 21.355-8.133 8.281-16.543 16.868-25.626 23.38-18.624 13.357-39.67 18.045-61.408 22.037a447.31 447.31 0 01-14.098 2.404c-24.602 3.663-48.884 4.154-73.337-8.625z" fill="url(#paint1_linear)"/><path d="M163.976 498.076c21.887-3.223 44.5-6.558 64.857-17.094 32.29-16.717 59.047-51.964 75.333-99.231 11.028-32.011 17.249-69.317 23.276-105.37 2.892-17.258 5.865-35.101 9.338-52.201 3.716-18.235 8.129-36.469 12.401-54.11 12.204-50.367 24.796-102.433 22.174-160.267-4.921-107.551-33.855-179.719-88.422-220.694-62.26-46.724-130.247-56.047-186.535-25.621-14.063 7.621-27.67 17.693-40.812 27.461-14.16 10.498-28.775 21.359-44.102 29.204-28.266 14.521-59.519 19.106-89.596 23.587-37.245 5.552-75.665 11.207-108.302 35.71-25.276 18.965-45.907 48.492-61.076 72.106-23.77 37.063-51.409 88.254-54.124 155.818-3.244 80.282 27.805 160.354 57.814 237.786l3.98 10.263c2.574 6.658 5.135 13.333 7.691 19.979 14.835 38.726 30.165 78.753 48.689 114.206 17.065 32.723 44.6 75.454 78.709 93.307 27.545 14.408 55.07 11.03 83.19 5.89 20.795-3.783 40.917-8.22 58.54-20.842 8.594-6.162 16.642-14.359 24.439-22.285 7.15-7.301 14.557-14.843 22.444-20.881 23.08-17.652 50.012-22.269 76.282-26.166 1.269-.195 2.543-.36 3.812-.555zm-269.202 90.159c-35.053-18.358-63.195-62.017-80.631-95.44-18.727-35.871-34.168-76.113-49.084-115.059-2.556-6.645-5.099-13.308-7.655-19.953l-3.981-10.263c-30.359-78.306-61.765-159.282-58.442-241.464 2.787-69.199 30.837-121.242 54.955-158.853 15.318-23.854 36.166-53.677 61.79-72.896C-155.179-150.53-116.289-156.35-79-161.816c29.953-4.385 60.993-9.045 88.963-23.381 15.168-7.775 29.713-18.579 43.775-29.015 13.229-9.812 26.9-19.971 41.096-27.628 57.057-30.854 125.945-21.406 189.03 25.948 56.102 42.101 85.83 116.111 90.875 226.273 2.695 59.014-10.029 111.626-22.357 162.492-4.251 17.575-8.656 35.762-12.347 53.854-3.445 16.987-6.426 34.769-9.28 51.975-6.076 36.34-12.35 73.901-23.55 106.403-16.618 48.23-43.886 84.175-76.851 101.227-20.671 10.708-43.43 14.097-65.49 17.3-27.211 4.01-55.364 8.134-79.122 26.309-7.72 5.919-15.075 13.391-22.174 20.622-7.86 8.014-15.99 16.285-24.765 22.583-17.982 12.894-38.36 17.386-59.409 21.223-4.545.822-9.095 1.613-13.633 2.28-23.804 3.533-47.296 3.971-70.987-8.414z" fill="url(#paint2_linear)"/><path d="M160.337 485.625c21.16-3.079 42.953-6.365 62.605-16.589 31.171-16.185 57.029-50.246 72.812-95.907 10.675-30.918 16.737-66.936 22.595-101.763 2.802-16.674 5.702-33.921 9.067-50.451 3.618-17.605 7.872-35.201 12.028-52.224 11.829-48.667 24.074-98.961 21.589-154.797-4.597-103.858-32.423-173.552-85.038-213.016-59.991-45.034-125.585-53.981-179.926-24.49-13.58 7.349-26.715 17.118-39.42 26.559-13.661 10.16-27.8 20.643-42.562 28.252-27.324 14.042-57.352 18.481-86.503 22.893-35.928 5.292-73.011 10.917-104.55 34.615-24.395 18.336-44.338 46.886-58.987 69.713-22.993 35.813-49.711 85.288-52.437 150.531-3.215 77.523 26.639 154.822 55.5 229.567l3.831 9.893c2.461 6.393 4.914 12.833 7.38 19.256 14.277 37.382 29.024 76.02 46.823 110.241 16.45 31.569 42.944 72.81 75.829 89.999 26.546 13.857 53.127 10.54 80.246 5.577 20.078-3.685 39.506-7.981 56.532-20.21 8.287-5.971 16.063-13.874 23.594-21.553 6.915-7.058 14.075-14.339 21.672-20.172 22.316-17.071 48.268-21.574 73.617-25.365 1.239-.192 2.465-.367 3.703-.559zm-259.85 87.4c-33.793-17.667-60.888-59.805-77.673-92.049-18.027-34.603-32.855-73.461-47.207-111.032a3851.6 3851.6 0 00-7.38-19.256l-3.8-9.898c-29.206-75.589-59.393-153.748-56.088-233.11 2.779-66.814 29.913-117.112 53.242-153.456 14.785-23.049 34.933-51.878 59.689-70.487 31.967-24.027 69.271-29.625 105.479-35.007 28.992-4.34 58.864-8.786 85.853-22.699 14.65-7.53 28.703-17.968 42.296-28.072 12.743-9.492 25.95-19.289 39.686-26.739 55.071-29.867 121.531-20.822 182.34 24.812 54.087 40.597 82.673 112.03 87.39 218.39 2.54 57.002-9.826 107.825-21.784 156.961-4.117 16.971-8.393 34.524-11.97 51.999-3.353 16.404-6.245 33.603-9.044 50.2-5.893 35.095-11.992 71.382-22.84 102.791-16.076 46.572-42.463 81.318-74.262 97.848-19.97 10.366-42.009 13.659-63.225 16.778-26.299 3.954-53.427 7.944-76.365 25.497-7.473 5.737-14.563 12.961-21.427 19.949-7.6 7.736-15.453 15.744-23.908 21.834-17.39 12.471-37.038 16.847-57.357 20.57-4.392.805-8.759 1.574-13.143 2.223-22.976 3.439-45.636 3.889-68.503-8.047z" fill="url(#paint3_linear)"/><path d="M156.995 474.522c20.288-2.952 41.39-6.139 60.347-15.965 30.036-15.591 54.96-48.414 70.137-92.406 10.288-29.803 16.115-64.511 21.759-98.093 2.684-16.075 5.476-32.66 8.723-48.59 3.475-16.97 7.585-33.929 11.579-50.33 11.381-46.883 23.164-95.374 20.767-149.168-4.499-100.107-31.319-167.252-82.043-205.302-57.867-43.422-121.085-52.055-173.457-23.673-13.088 7.079-25.741 16.487-37.98 25.583-13.168 9.782-26.765 19.892-41.02 27.214-26.334 13.533-55.36 17.961-83.386 22.048-34.644 5.189-70.353 10.48-100.747 33.314-23.523 17.659-42.737 45.178-56.849 67.163-22.134 34.494-47.888 82.178-50.466 145.059-3.103 74.695 25.705 149.168 53.551 221.194l3.691 9.57c2.37 6.188 4.757 12.388 7.114 18.593 13.769 36.021 28.018 73.251 45.187 106.242 15.848 30.413 41.393 70.163 73.128 86.756 25.586 13.372 51.185 10.185 77.356 5.38 19.336-3.516 38.065-7.665 54.467-19.446 7.99-5.75 15.478-13.37 22.721-20.766 6.689-6.785 13.586-13.819 20.917-19.435 21.482-16.447 46.521-20.768 70.967-24.426 1.177-.182 2.359-.334 3.537-.516zm-250.433 84.12c-32.574-17.02-58.733-57.649-74.928-88.719-17.363-33.347-31.674-70.784-45.524-107.025-2.37-6.187-4.726-12.393-7.109-18.563l-3.704-9.552c-28.156-72.844-57.28-148.165-54.126-224.645 2.658-64.378 28.802-112.848 51.271-147.874 14.249-22.207 33.672-49.975 57.524-67.901 30.811-23.146 66.834-28.609 101.646-33.7 27.923-4.164 56.751-8.468 82.783-21.847 14.097-7.251 27.626-17.304 40.738-27.046 12.294-9.136 25.003-18.584 38.233-25.746 53.085-28.771 117.168-20.04 175.776 23.979 52.156 39.127 79.732 107.979 84.32 210.484 2.46 54.913-9.435 103.885-20.945 151.236-3.969 16.366-8.07 33.278-11.516 50.134-3.236 15.805-6.002 32.355-8.7 48.339-5.668 33.834-11.561 68.815-21.995 99.073-15.488 44.89-40.897 78.376-71.553 94.263-19.24 9.994-40.429 13.117-60.937 16.15-25.313 3.745-51.484 7.638-73.6 24.585-7.181 5.485-14.028 12.449-20.63 19.19-7.33 7.441-14.907 15.182-23.069 21.02-16.748 12.036-35.702 16.235-55.245 19.814-4.239.78-8.47 1.511-12.701 2.135-22.134 3.315-43.985 3.727-66.01-7.784z" fill="url(#paint4_linear)"/><path d="M152.294 464.081c19.563-2.916 39.843-5.897 58.108-15.366 28.913-15.01 52.905-46.6 67.505-88.963 9.898-28.684 15.514-62.116 20.93-94.435 2.607-15.456 5.286-31.449 8.408-46.769 3.337-16.341 7.309-32.673 11.143-48.489 10.978-45.126 22.308-91.79 19.98-143.59-4.321-96.358-30.161-161.03-78.994-197.666-55.697-41.804-116.582-50.103-167.005-22.804-12.595 6.847-24.762 15.883-36.556 24.63-12.676 9.44-25.79 19.149-39.51 26.215-25.34 13.021-53.425 17.193-80.268 21.203-33.378 4.929-67.756 10.089-96.99 32.072-22.642 17.008-41.145 43.484-54.726 64.67C-237 7.99-261.784 53.875-264.295 114.43c-2.965 71.907 24.775 143.626 51.596 212.984l3.558 9.202c2.272 5.954 4.562 11.921 6.851 17.888 13.256 34.672 26.955 70.527 43.502 102.279 15.274 29.291 39.882 67.57 70.42 83.528 24.626 12.884 49.28 9.815 74.472 5.209 18.625-3.389 36.63-7.394 52.445-18.741 7.685-5.515 14.9-12.874 21.895-19.968 6.4-6.537 13.056-13.316 20.124-18.72 20.688-15.841 44.792-19.984 68.34-23.516l3.386-.493zM-88.83 545.063c-31.362-16.403-56.532-55.523-72.132-85.427-16.728-32.126-30.502-68.17-43.833-103.031-2.29-5.968-4.566-11.952-6.851-17.889l-3.558-9.202c-27.123-70.115-55.174-142.651-52.131-216.27 2.548-62.028 27.713-108.652 49.343-142.349 13.734-21.396 32.411-48.145 55.387-65.39 29.042-21.831 62.92-27.223 95.806-32.137.694-.107 1.376-.197 2.04-.3 26.753-3.996 54.64-8.153 79.709-21.023 13.578-6.983 26.619-16.665 39.214-26.03 11.85-8.787 24.097-17.898 36.808-24.793 51.124-27.67 112.796-19.277 169.259 23.088 50.2 37.693 76.765 103.968 81.165 202.663 2.383 52.859-9.071 100.021-20.136 145.592-3.826 15.769-7.777 32.035-11.084 48.264-3.107 15.225-5.795 31.157-8.364 46.561-5.469 32.575-11.126 66.245-21.157 95.367-14.933 43.218-39.398 75.453-68.9 90.755-18.523 9.602-38.863 12.591-58.68 15.562-24.339 3.516-49.56 7.322-70.858 23.628-6.93 5.29-13.505 11.994-19.867 18.48-7.058 7.18-14.343 14.596-22.207 20.248-16.119 11.579-34.366 15.621-53.198 19.073-4.074.738-8.153 1.446-12.216 2.059-21.314 3.187-42.346 3.579-63.56-7.499z" fill="url(#paint5_linear)"/><path d="M148.039 452.662c18.83-2.753 38.35-5.643 55.894-14.724 27.828-14.403 50.886-44.79 64.927-85.514 9.495-27.577 14.867-59.731 20.064-90.808 2.468-14.884 5.047-30.249 8.043-45.013 3.207-15.709 7.001-31.416 10.689-46.611 10.505-43.397 21.351-88.284 19.076-138.13-4.243-92.688-29.165-154.906-76.211-190.206-53.643-40.27-112.247-48.325-160.748-22.072-12.12 6.548-23.832 15.243-35.17 23.65-12.184 9.046-24.814 18.409-38 25.166-24.376 12.512-51.187 16.46-77.251 20.34-32.094 4.79-65.199 9.643-93.337 30.759-21.762 16.332-39.548 41.796-52.599 62.156-20.486 31.925-44.317 76.054-46.67 134.296-2.785 69.18 23.99 138.196 49.875 204.952l3.401 8.818a5905.073 5905.073 0 016.612 17.2c12.79 33.386 26.028 67.879 41.985 98.443 14.712 28.204 38.439 65.028 67.83 80.416 23.72 12.408 47.443 9.491 71.706 5.068 17.916-3.262 35.268-7.071 50.444-17.969 7.409-5.314 14.348-12.364 21.056-19.209 6.178-6.268 12.565-12.785 19.343-17.971 19.893-15.21 43.081-19.189 65.73-22.544 1.106-.154 2.193-.321 3.311-.493zm-232.014 77.683c-30.213-15.803-54.469-53.443-69.52-82.244-16.117-30.896-29.422-65.625-42.282-99.17a2349.18 2349.18 0 00-6.608-17.171l-3.419-8.83c-26.17-67.501-53.234-137.292-50.381-208.137 2.402-59.626 26.584-104.49 47.397-136.898 13.175-20.564 31.14-46.272 53.223-62.824 28.511-21.405 61.836-26.338 94.176-31.135 25.934-3.921 52.573-7.781 76.679-20.144 13.07-6.708 25.6-16.009 37.728-25.016 11.394-8.446 23.161-17.181 35.41-23.795 49.173-26.619 108.551-18.451 162.927 22.356 48.341 36.276 73.955 100.074 78.314 195.017 2.338 50.857-8.654 96.2-19.257 140.06-3.68 15.148-7.467 30.806-10.644 46.403-2.968 14.651-5.539 29.969-8.016 44.792-5.22 31.328-10.62 63.703-20.283 91.693-14.313 41.569-37.822 72.536-66.235 87.26-17.802 9.214-37.392 12.053-56.424 14.899-23.461 3.402-47.725 7.021-68.202 22.661-6.666 5.106-12.99 11.536-19.095 17.778-6.794 6.889-13.796 14.027-21.342 19.453-15.515 11.105-33.087 14.995-51.215 18.29-3.926.711-7.828 1.387-11.743 1.973-20.517 3.043-40.765 3.416-61.188-7.271z" fill="url(#paint6_linear)"/><path d="M144.963 440.506c18.082-2.693 36.791-5.436 53.622-14.194 26.709-13.873 48.857-43.021 62.342-82.141 9.162-26.472 14.345-57.336 19.362-87.169 2.389-14.28 4.89-29.04 7.778-43.197 3.055-15.078 6.728-30.16 10.276-44.743 10.13-41.66 20.612-84.75 18.488-132.58-3.978-88.947-27.815-148.623-72.882-182.445-51.39-38.592-107.565-46.243-154.137-21.009-11.63 6.299-22.867 14.654-33.757 22.755-11.696 8.689-23.795 17.672-36.454 24.208-23.393 12.015-49.316 15.876-74.075 19.571-30.814 4.618-62.537 9.346-89.563 29.636-20.882 15.707-37.955 40.159-50.511 59.692-19.688 30.683-42.595 73.055-44.909 128.945-2.732 66.386 22.827 132.58 47.575 196.596l3.276 8.487c2.123 5.498 4.216 11.001 6.327 16.516 12.22 32.016 24.866 65.095 40.135 94.413 14.072 27.047 36.777 62.354 64.958 77.092 22.736 11.872 45.5 9.073 68.745 4.777 17.18-3.14 33.815-6.813 48.404-17.295 7.115-5.105 13.772-11.886 20.216-18.448 5.935-6.05 12.04-12.297 18.556-17.278 19.1-14.627 41.348-18.475 63.071-21.716 1.056-.163 2.1-.309 3.157-.473zm-222.56 74.823c-28.953-15.144-52.18-51.236-66.573-78.866-15.423-29.62-28.131-62.905-40.427-95.111-2.106-5.485-4.199-10.987-6.322-16.485l-3.276-8.488c-25.027-64.73-50.87-131.667-48.072-199.641 2.37-57.242 25.62-100.3 45.593-131.446 12.666-19.72 29.931-44.433 51.122-60.342 27.368-20.576 59.4-25.506 90.345-29.974 24.724-3.721 50.423-7.532 73.56-19.414 12.53-6.47 24.56-15.396 36.183-24.058 10.933-8.123 22.256-16.523 34.014-22.888 47.182-25.591 104.101-17.823 156.187 21.279 46.338 34.754 70.837 95.934 74.884 187.05 2.182 48.81-8.405 92.334-18.638 134.427-3.54 14.536-7.174 29.565-10.244 44.553-2.871 14.061-5.333 28.769-7.732 42.989-5.045 30.053-10.274 61.125-19.569 88.035-13.754 39.888-36.349 69.646-63.605 83.79-17.075 8.873-35.883 11.678-54.151 14.368-22.482 3.328-45.749 6.777-65.402 21.829-6.374 4.898-12.459 11.08-18.325 17.073-6.512 6.619-13.251 13.474-20.503 18.693C26.56 513.416 9.73 517.135-7.662 520.308c-3.772.693-7.519 1.35-11.28 1.917-19.682 2.94-39.092 3.319-58.655-6.896z" fill="url(#paint7_linear)"/><path d="M141.29 429.615c17.307-2.587 35.24-5.224 51.384-13.595 25.573-13.277 46.785-41.222 59.729-78.687 8.75-25.398 13.727-54.955 18.529-83.542 2.295-13.675 4.658-27.808 7.433-41.372 2.948-14.455 6.47-28.892 9.876-42.877 9.693-39.929 19.723-81.193 17.685-127.017-3.816-85.212-26.655-142.401-69.814-174.797-49.262-36.951-103.096-44.316-147.685-20.137-11.14 6.035-21.917 14.054-32.35 21.788-11.191 8.331-22.803 16.943-34.93 23.193-21.855 11.233-45.869 15.013-69.186 18.5-1.208.186-2.402.356-3.579.538-28.905 4.32-58.675 9.053-84.013 28.103-20.02 15.044-36.394 38.47-48.419 57.204-18.844 29.386-40.764 69.972-42.998 123.518-2.639 63.622 21.882 127.056 45.587 188.391l3.142 8.12c2.026 5.265 4.039 10.547 6.047 15.798 11.723 30.68 23.837 62.397 38.453 90.481 13.511 25.907 35.249 59.749 62.278 73.859 21.777 11.385 43.561 8.677 65.845 4.594 16.47-3.014 32.411-6.548 46.384-16.591 6.808-4.871 13.182-11.374 19.371-17.663 5.664-5.791 11.546-11.77 17.782-16.551 18.294-14.004 39.588-17.687 60.384-20.799a215.06 215.06 0 013.065-.459zm-213.238 71.674c-27.737-14.495-49.992-49.092-63.772-75.544-14.805-28.411-26.976-60.304-38.77-91.143-2.008-5.252-4.021-10.533-6.047-15.798l-3.125-8.107c-23.967-62.037-48.766-126.185-46.078-191.297 2.251-54.847 24.531-96.107 43.665-125.924 12.136-18.922 28.676-42.574 48.987-57.833 26.226-19.713 56.852-24.192 86.546-28.712 23.662-3.555 48.312-7.217 70.48-18.622 12.016-6.171 23.542-14.739 34.695-23.017 10.472-7.786 21.29-15.827 32.56-21.929 45.191-24.488 99.729-17.063 149.67 20.386 44.394 33.302 67.856 91.94 71.758 179.225 2.09 46.773-8.061 88.457-17.862 128.789-3.385 13.921-6.881 28.322-9.813 42.683-2.759 13.468-5.114 27.554-7.4 41.181-4.83 28.808-9.836 58.586-18.729 84.361-13.199 38.216-34.851 66.723-60.952 80.282-16.372 8.499-34.412 11.138-51.883 13.765-21.537 3.211-43.838 6.478-62.672 20.89-6.123 4.703-11.937 10.625-17.562 16.363-6.241 6.359-12.696 12.936-19.642 17.921-14.25 10.241-30.387 13.821-47.05 16.88-3.607.651-7.202 1.285-10.799 1.811-18.846 2.825-37.466 3.189-56.205-6.611z" fill="url(#paint8_linear)"/><path d="M136.703 418.444c16.565-2.417 33.681-4.966 49.109-12.983 24.455-12.667 44.72-39.357 57.07-75.17 8.365-24.251 13.107-52.498 17.681-79.823 2.195-13.062 4.457-26.582 7.102-39.528 2.803-13.819 6.163-27.632 9.407-40.995 9.244-38.144 18.828-77.591 16.86-121.386-3.686-81.436-25.543-136.12-66.83-167.114-47.11-35.346-98.582-42.381-141.215-19.296-10.648 5.766-20.943 13.423-30.91 20.813-10.715 7.938-21.785 16.178-33.406 22.14-21.409 10.993-44.967 14.52-67.837 17.91-28.01 4.2-57.282 8.516-82.004 27.092-19.129 14.378-34.778 36.742-46.266 54.635-17.997 28.084-38.969 66.865-41.054 118.048-2.495 60.788 20.97 121.415 43.667 180.061l2.998 7.767c1.948 5.042 3.882 10.101 5.817 15.161 11.212 29.29 22.798 59.603 36.798 86.44 12.909 24.751 33.734 57.127 59.55 70.622 20.83 10.883 41.663 8.301 62.973 4.411 15.74-2.862 30.983-6.249 44.319-15.826 6.524-4.666 12.627-10.873 18.511-16.892 5.437-5.518 11.044-11.231 17.013-15.796 17.49-13.384 37.855-16.897 57.734-19.857.982-.136 1.947-.285 2.913-.434zm-203.835 68.403c-26.536-13.863-47.823-46.925-61.017-72.234-14.155-27.137-25.811-57.609-37.081-87.075-1.935-5.06-3.852-10.106-5.8-15.148l-2.998-7.767c-22.95-59.287-46.689-120.597-44.141-182.845 2.146-52.397 23.417-91.841 41.708-120.326 11.598-18.08 27.379-40.696 46.804-55.258 25.056-18.813 54.358-23.242 82.713-27.402 22.796-3.363 46.204-6.868 67.398-17.75 11.462-5.892 22.477-14.092 33.15-22.008 9.99-7.425 20.36-15.108 31.105-20.936 43.205-23.389 95.368-16.276 143.109 19.559 42.439 31.868 64.906 87.908 68.682 171.338 2.012 44.683-7.65 84.528-17.019 123.063-3.218 13.327-6.558 27.075-9.358 40.817-2.628 12.851-4.882 26.323-7.064 39.367-4.607 27.516-9.381 55.953-17.889 80.581-12.58 36.528-33.271 63.762-58.224 76.708-15.647 8.096-32.876 10.616-49.578 13.147-20.624 3.029-41.925 6.177-59.912 19.946-5.858 4.486-11.414 10.13-16.777 15.621-5.97 6.063-12.124 12.34-18.773 17.102-13.626 9.792-29.05 13.207-44.985 16.114a267.385 267.385 0 01-10.34 1.734c-18.02 2.689-35.799 3.039-53.713-6.348z" fill="url(#paint9_linear)"/><path d="M133.816 406.551c15.872-2.383 32.224-4.763 46.964-12.4 23.377-12.107 42.758-37.626 54.554-71.844 8.001-23.194 12.511-50.18 16.875-76.309 2.101-12.48 4.254-25.432 6.789-37.808 2.687-13.204 5.883-26.41 8.976-39.181 8.836-36.469 18.004-74.195 16.099-116.046-3.549-77.88-24.455-130.151-63.947-159.778-45.042-33.83-94.281-40.551-135.027-18.5-10.179 5.512-20.036 12.815-29.559 19.88-10.243 7.61-20.833 15.474-31.927 21.172-20.467 10.515-43.052 13.9-64.86 17.106-26.863 3.92-54.765 8.126-78.419 25.874-18.288 13.721-33.231 35.123-44.224 52.236-17.201 26.822-37.245 63.92-39.234 112.834-2.365 58.13 20.098 116.1 41.806 172.175l2.872 7.415c1.872 4.83 3.727 9.649 5.568 14.484 10.729 28.026 21.817 56.987 35.201 82.671 12.364 23.676 32.263 54.62 56.968 67.533 19.93 10.432 39.857 7.966 60.206 4.228 15.06-2.738 29.613-5.954 42.404-15.1 6.208-4.482 12.042-10.392 17.683-16.148 5.188-5.284 10.546-10.765 16.25-15.108 16.716-12.782 36.196-16.139 55.215-18.975.924-.127 1.861-.272 2.767-.411zm-194.895 65.344c-25.361-13.261-45.735-44.874-58.363-69.066-13.534-25.955-24.681-55.092-35.463-83.265-1.859-4.848-3.713-9.666-5.55-14.472l-2.873-7.414c-21.961-56.717-44.664-115.346-42.262-174.842 2.036-50.113 22.377-87.797 39.855-115.034 11.061-17.278 26.186-38.893 44.736-52.824C-97.04-63.003-69.025-67.18-41.882-71.19c21.7-3.204 44.15-6.554 64.403-16.958 10.965-5.632 21.53-13.462 31.687-21.027 9.578-7.105 19.46-14.442 29.769-20.02 41.305-22.339 91.163-15.512 136.84 18.73 40.613 30.476 62.091 84.05 65.729 163.82 1.932 42.728-7.302 80.835-16.251 117.676-3.084 12.725-6.273 25.882-8.942 38.991-2.515 12.311-4.664 25.185-6.735 37.66-4.414 26.307-8.97 53.502-17.088 77.038-12.026 34.934-31.795 60.946-55.641 73.326-14.972 7.735-31.473 10.246-47.437 12.535-19.709 2.974-40.059 5.908-57.273 19.076-5.605 4.281-10.912 9.692-16.044 14.937-5.697 5.795-11.595 11.792-17.932 16.341-13.052 9.357-27.8 12.618-43.01 15.379-3.322.62-6.606 1.187-9.887 1.677-17.236 2.563-34.246 2.878-51.385-6.096z" fill="url(#paint10_linear)"/><path d="M129.733 395.148c15.126-2.244 30.665-4.506 44.706-11.776 22.242-11.511 40.671-35.805 51.891-68.358 7.6-22.06 11.9-47.772 16.024-72.621 1.997-11.897 4.058-24.175 6.428-35.959 2.56-12.555 5.599-25.107 8.544-37.273 8.399-34.701 17.097-70.576 15.258-110.428-3.4-74.09-23.335-123.837-60.954-152.063-42.9-32.205-89.737-38.648-128.54-17.671-9.673 5.224-19.063 12.182-28.118 18.904-9.75 7.23-19.816 14.709-30.386 20.133C5.596-62.22-15.29-58.952-35.572-55.963c-1.057.163-2.114.325-3.158.47-25.13 3.717-51.02 7.814-73.059 24.348-17.41 13.073-31.61 33.426-42.054 49.68-16.38 25.555-35.404 60.82-37.292 107.364-2.205 55.309 19.17 110.476 39.864 163.831l2.763 7.086c1.758 4.583 3.534 9.179 5.297 13.792 10.221 26.666 20.798 54.235 33.566 78.671 11.748 22.537 30.716 52.002 54.237 64.295 18.97 9.946 37.927 7.593 57.32 4.061 14.33-2.586 28.202-5.642 40.35-14.353 5.912-4.261 11.47-9.904 16.828-15.348 4.926-5.036 10.027-10.239 15.46-14.395 15.9-12.146 34.437-15.315 52.552-18.018l2.631-.373zm-185.49 62.079c-24.146-12.645-43.567-42.736-55.575-65.758-12.9-24.694-23.535-52.44-33.81-79.253-1.776-4.595-3.522-9.195-5.31-13.773l-2.733-7.092c-20.925-53.953-42.566-109.743-40.285-166.362 1.897-47.689 21.234-83.527 37.852-109.444 10.553-16.44 24.894-36.985 42.57-50.238 22.802-17.099 49.462-21.113 75.296-24.877 20.699-3.084 42.041-6.205 61.302-16.1 10.44-5.358 20.469-12.785 30.163-19.975 9.111-6.761 18.526-13.754 28.315-19.027 39.301-21.254 86.783-14.741 130.259 17.887 38.669 29.022 59.167 80.012 62.63 155.916 1.887 40.664-6.893 76.907-15.392 111.963-2.924 12.101-5.95 24.635-8.476 37.108-2.384 11.694-4.42 23.937-6.409 35.786-4.169 25.057-8.489 50.942-16.206 73.344-11.441 33.221-30.246 57.99-52.947 69.726-14.225 7.376-29.846 9.712-45.132 11.919-18.861 2.771-38.163 5.594-54.517 18.102-5.321 4.078-10.384 9.228-15.272 14.213-5.421 5.53-11.018 11.226-17.058 15.553-12.397 8.903-26.433 12-40.944 14.614-3.14.59-6.27 1.132-9.398 1.597-16.399 2.408-32.596 2.715-48.922-5.829z" fill="url(#paint11_linear)"/><path d="M124.964 383.894c14.334-2.16 29.126-4.36 42.456-11.31 21.153-10.986 38.702-34.117 49.419-65.103 7.26-20.984 11.384-45.421 15.382-69.066 1.93-11.309 3.896-22.995 6.181-34.204 2.464-11.965 5.395-23.909 8.199-35.463 8.061-33.014 16.384-67.151 14.747-105.02-3.073-70.438-21.88-117.703-57.503-144.44-40.661-30.512-85.131-36.543-122-16.519-9.206 5.008-18.116 11.656-26.74 18.057-9.274 6.89-18.837 14.025-28.883 19.196-18.055 9.31-37.925 12.458-57.198 15.373-.953.134-1.919.285-2.885.435-23.895 3.606-48.495 7.554-69.477 23.336-16.541 12.46-30.103 31.831-40.032 47.342-15.595 24.295-33.768 57.866-35.655 102.146-2.231 52.589 17.96 105.002 37.488 155.695l2.594 6.707c1.661 4.333 3.328 8.695 4.981 13.075 9.654 25.333 19.609 51.531 31.675 74.74 11.127 21.392 29.06 49.36 51.363 61.015 17.972 9.393 35.993 7.09 54.394 3.724 13.632-2.514 26.798-5.45 38.345-13.761 5.63-4.033 10.899-9.432 15.996-14.633 4.712-4.786 9.57-9.734 14.73-13.709 15.128-11.591 32.741-14.649 49.93-17.239.815-.127 1.66-.259 2.493-.374zm-176.23 59.445c-22.888-11.95-41.254-40.53-52.622-62.395-12.18-23.454-22.219-49.794-31.913-75.29-1.666-4.363-3.315-8.712-4.994-13.058l-2.577-6.694c-19.753-51.26-40.157-104.259-37.871-158.125 1.928-45.321 20.356-79.459 36.203-104.133 10.031-15.65 23.716-35.225 40.511-47.85 21.672-16.322 46.913-20.122 71.52-23.824 19.53-2.94 39.925-5.999 58.267-15.448 9.9-5.116 19.437-12.217 28.67-19.084 8.648-6.437 17.601-13.106 26.91-18.146 37.368-20.303 82.417-14.223 123.622 16.714 36.648 27.489 55.975 75.94 59.106 148.085 1.679 38.652-6.732 73.127-14.863 106.492-2.827 11.511-5.714 23.433-8.149 35.285-2.281 11.132-4.252 22.787-6.156 34.062-4.035 23.805-8.193 48.433-15.558 69.743-10.945 31.624-28.856 55.214-50.422 66.433-13.532 7.044-28.444 9.263-42.887 11.425-17.811 2.671-36.225 5.437-51.782 17.358-5.066 3.882-9.885 8.778-14.541 13.524-5.153 5.242-10.49 10.697-16.227 14.839-11.8 8.475-25.113 11.465-38.896 14.002-2.98.527-5.959 1.054-8.917 1.515-15.59 2.341-30.96 2.668-46.434-5.43z" fill="url(#paint12_linear)"/><path d="M121.816 372.776c13.538-1.989 27.563-4.132 40.206-10.695 20.043-10.424 36.661-32.323 46.82-61.668 6.853-19.88 10.785-43.029 14.556-65.411 1.818-10.717 3.689-21.798 5.862-32.416 2.313-11.319 5.076-22.632 7.755-33.576 7.625-31.284 15.526-63.6 13.958-99.477C248.076 2.81 230.271-41.94 196.509-67.258 158-96.165 115.88-101.848 80.975-82.892c-8.735 4.733-17.159 11.01-25.32 17.075-8.785 6.548-17.877 13.3-27.375 18.198-17.105 8.821-35.914 11.803-54.173 14.544-.905.142-1.81.283-2.733.412-22.635 3.424-45.919 7.15-65.784 22.106-15.679 11.798-28.495 30.151-37.928 44.839-14.782 23.003-31.977 54.838-33.758 96.74-2.109 49.821 16.996 99.469 35.511 147.477l2.43 6.345c1.582 4.111 3.151 8.241 4.72 12.37 9.144 24.015 18.592 48.816 30.006 70.791 10.54 20.288 27.531 46.757 48.653 57.788 17.027 8.889 34.108 6.733 51.525 3.536 12.879-2.365 25.37-5.149 36.3-13.023 5.333-3.846 10.34-8.924 15.165-13.866 4.442-4.526 9.058-9.219 13.943-12.964 14.318-10.999 31.008-13.897 47.288-16.345.784-.123 1.586-.233 2.371-.355zm-166.913 56.297c-21.69-11.315-39.067-38.387-49.839-59.087-11.545-22.233-21.047-47.181-30.239-71.312-1.569-4.129-3.138-8.258-4.72-12.37l-2.443-6.327c-18.706-48.551-38.035-98.766-35.86-149.772 1.811-42.928 19.27-75.267 34.273-98.645 9.523-14.81 22.479-33.354 38.382-45.311 20.53-15.461 44.592-19.047 67.74-22.55 18.676-2.838 37.815-5.686 55.16-14.653 9.411-4.854 18.431-11.578 27.164-18.057 8.2-6.118 16.697-12.421 25.488-17.194 35.403-19.235 78.077-13.468 117.076 15.826 34.706 26.037 53.039 71.926 56.011 140.26 1.587 36.615-6.384 69.282-14.101 100.874-2.654 10.91-5.408 22.174-7.718 33.416-2.152 10.553-4.015 21.586-5.825 32.255-3.821 22.56-7.76 45.865-14.736 66.058-10.36 29.949-27.316 52.271-47.758 62.912-12.811 6.682-26.926 8.839-40.602 10.834-16.901 2.529-34.315 5.139-49.053 16.419-4.803 3.671-9.364 8.324-13.763 12.829-4.882 4.981-9.94 10.129-15.37 14.037-11.184 8.036-23.808 10.857-36.85 13.263-2.811.516-5.626 1.002-8.432 1.44-14.754 2.225-29.322 2.52-43.985-5.145z" fill="url(#paint13_linear)"/><path d="M117.372 361.352c12.794-1.848 26.061-3.831 38-10.03 18.915-9.794 34.598-30.453 44.144-58.158 6.468-18.759 10.129-40.595 13.681-61.734 1.69-10.124 3.437-20.581 5.482-30.604 2.177-10.678 4.756-21.355 7.265-31.682 7.149-29.516 14.559-60.046 13.032-93.913-2.871-63.018-19.79-105.304-51.735-129.29C150.787-81.43 110.949-86.87 77.985-69.022c-8.25 4.456-16.212 10.383-23.93 16.086C45.788-46.776 37.2-40.398 28.23-35.8 11.653-27.294-6.693-24.56-24.272-21.96c-21.78 3.325-44.311 6.581-63.45 20.955-14.786 11.105-26.888 28.414-35.764 42.273-13.948 21.69-30.141 51.702-31.751 91.309-1.923 47.014 16.234 93.933 33.813 139.302l2.328 5.995c1.493 3.882 2.991 7.794 4.472 11.694 8.681 22.685 17.652 46.146 28.5 66.936 9.992 19.145 26.114 44.178 46.087 54.642 16.118 8.415 32.23 6.427 48.723 3.406 12.18-2.217 23.963-4.806 34.308-12.228 5.026-3.604 9.746-8.397 14.286-13.054 4.211-4.282 8.555-8.708 13.176-12.233 13.529-10.34 29.295-13.064 44.681-15.342l2.235-.344zm-157.704 52.9c-20.542-10.747-37.012-36.33-47.207-55.891-10.976-21.018-19.982-44.612-28.713-67.414-1.51-3.895-2.991-7.794-4.484-11.676l-2.346-6.008c-17.753-45.899-36.128-93.325-34.147-141.476 1.634-40.554 18.094-71.04 32.238-93.07 8.947-13.993 21.177-31.476 36.2-42.758 18.988-14.242 41.137-17.779 62.659-20.971l1.359-.21c17.66-2.675 35.713-5.302 52.118-13.72 8.867-4.567 17.386-10.889 25.64-17.03C60.73-61.71 68.734-67.659 77.07-72.159c33.437-18.092 73.798-12.563 110.723 15.154 32.851 24.65 50.244 68.008 53.166 132.563 1.573 34.572-5.929 65.409-13.14 95.228-2.5 10.279-5.066 20.94-7.24 31.539-2.024 9.959-3.763 20.368-5.475 30.448-3.546 21.278-7.24 43.304-13.8 62.371-9.755 28.248-25.733 49.307-45.047 59.318-12.111 6.287-25.409 8.275-38.366 10.163-15.956 2.397-32.439 4.783-46.353 15.429-4.522 3.464-8.827 7.838-12.983 12.08-4.626 4.702-9.384 9.547-14.522 13.23-10.537 7.575-22.467 10.218-34.798 12.458-2.661.487-5.327.944-7.972 1.337-13.95 2.072-27.728 2.34-41.595-4.907z" fill="url(#paint14_linear)"/><path d="M113.023 350.915c12.026-1.789 24.565-3.657 35.803-9.487 17.83-9.267 32.617-28.739 41.611-54.85 6.121-17.664 9.581-38.273 12.944-58.201 1.595-9.518 3.259-19.387 5.205-28.835 2.052-10.068 4.506-20.137 6.873-29.867 6.768-27.823 13.764-56.579 12.341-88.502-2.63-59.39-18.521-99.235-48.587-121.791-34.314-25.75-71.801-30.843-102.877-13.996-7.773 4.208-15.273 9.798-22.525 15.195-7.823 5.81-15.912 11.801-24.358 16.16-15.219 7.825-31.924 10.48-48.168 12.907-.846.132-1.722.268-2.586.386-20.117 2.998-40.832 6.337-58.486 19.6-13.93 10.488-25.345 26.822-33.703 39.865-13.164 20.474-28.446 48.768-30.006 86.074-1.865 44.334 15.213 88.513 31.714 131.25l2.195 5.664c1.393 3.653 2.821 7.331 4.201 11.002 8.167 21.373 16.6 43.48 26.777 63.025 9.393 18.057 24.547 41.627 43.343 51.462 15.181 7.936 30.375 6.027 45.889 3.171 11.469-2.09 22.584-4.573 32.315-11.561 4.741-3.398 9.186-7.926 13.48-12.322 3.966-4.02 8.064-8.184 12.395-11.534 12.757-9.764 27.634-12.335 42.138-14.509.695-.108 1.39-.215 2.072-.306zm-148.555 49.98c-19.33-10.092-34.827-34.182-44.418-52.627-10.305-19.773-18.787-41.995-26.972-63.49-1.41-3.665-2.82-7.331-4.213-10.984l-2.195-5.664c-16.684-43.219-33.931-87.898-32.042-133.288 1.596-38.194 17.115-66.958 30.449-87.737 8.461-13.183 19.99-29.674 34.132-40.303C-62.89-6.655-42.023-10.017-21.772-13.051c.423-.066.864-.118 1.287-.184 16.573-2.402 33.654-5.021 49.114-12.992 8.347-4.297 16.393-10.266 24.173-16.054 7.294-5.42 14.838-11.031 22.697-15.284 31.475-17.064 69.482-11.913 104.236 14.188 30.907 23.199 47.257 64.025 49.935 124.847 1.447 32.584-5.611 61.644-12.445 89.741-2.371 9.7-4.813 19.751-6.861 29.741-1.925 9.383-3.564 19.217-5.164 28.704-3.387 20.072-6.871 40.824-13.072 58.779-9.209 26.623-24.291 46.498-42.482 55.929-11.406 5.949-23.993 7.809-36.14 9.617-14.949 2.196-30.54 4.538-43.641 14.587-4.28 3.28-8.352 7.409-12.275 11.407-4.337 4.419-8.82 8.999-13.673 12.475-9.925 7.143-21.16 9.645-32.794 11.775-2.512.467-4.998.9-7.507 1.289-13.131 1.945-26.1 2.209-39.148-4.619z" fill="url(#paint15_linear)"/><path d="M109.753 338.531c11.356-1.646 23.005-3.399 33.527-8.874 16.698-8.639 30.532-26.886 38.966-51.316 5.714-16.56 8.955-35.844 12.077-54.492 1.49-8.934 3.041-18.171 4.838-27.014 1.925-9.419 4.218-18.863 6.44-27.957 6.33-26.054 12.85-52.987 11.513-82.866-2.5-55.61-17.42-92.93-45.613-114.083-32.142-24.131-67.275-28.954-96.387-13.171-7.25 3.933-14.3 9.165-21.1 14.204-7.312 5.443-14.877 11.049-22.786 15.115C16.601-4.392.508-2.091-15.088.333c-19.213 2.829-39.115 5.795-55.997 18.483-13.07 9.826-23.728 25.092-31.579 37.297-12.299 19.184-26.601 45.666-28.03 80.594-1.72 41.498 14.288 82.885 29.777 122.899l2.055 5.341c1.332 3.443 2.634 6.89 3.965 10.333 7.66 20.013 15.548 40.701 25.114 59.028 8.807 16.913 23.013 38.991 40.656 48.201 14.185 7.425 28.4 5.677 42.97 3.009 10.752-1.954 21.155-4.272 30.261-10.812 4.444-3.175 8.6-7.419 12.624-11.519 3.716-3.79 7.556-7.676 11.62-10.809 11.94-9.126 25.838-11.535 39.425-13.556a89.425 89.425 0 001.98-.291zm-139.154 46.725c-18.117-9.477-32.63-32.048-41.632-49.318-9.658-18.529-17.624-39.329-25.316-59.445-1.319-3.46-2.633-6.89-3.965-10.333l-2.038-5.328c-15.666-40.466-31.852-82.305-30.099-124.797 1.468-35.785 15.982-62.701 28.472-82.147 7.906-12.352 18.68-27.776 31.946-37.725C-54.915 3.3-34.917.35-15.563-2.562-.062-4.895 15.963-7.247 30.435-14.677c7.836-4.04 15.357-9.623 22.643-15.03 6.827-5.075 13.89-10.324 21.242-14.29 29.487-15.964 65.099-11.137 97.677 13.313 28.981 21.759 44.309 60.02 46.875 116.965 1.373 30.522-5.231 57.716-11.627 84.043-2.209 9.076-4.476 18.486-6.38 27.84-1.807 8.782-3.35 17.971-4.844 26.875-3.147 18.791-6.412 38.218-12.198 55.021-8.618 24.938-22.721 43.551-39.763 52.367-10.681 5.546-22.506 7.357-33.849 8.986-14.1 2.1-28.627 4.236-40.897 13.629-4 3.046-7.81 6.927-11.47 10.677-4.05 4.135-8.262 8.419-12.818 11.673-9.316 6.68-19.823 9.03-30.696 11.003-2.346.425-4.697.819-7.035 1.195-12.318 1.826-24.462 2.063-36.696-4.334z" fill="url(#paint16_linear)"/><path d="M105.776 327.236c10.614-1.57 21.421-3.185 31.249-8.278 15.561-8.099 28.481-25.1 36.349-47.896 5.332-15.438 8.373-33.439 11.291-50.834 1.388-8.308 2.854-16.906 4.544-25.153 1.788-8.818 3.922-17.597 5.989-26.103 5.911-24.285 12.035-49.405 10.804-77.292-2.294-51.844-16.187-86.63-42.445-106.34-29.953-22.47-62.696-26.918-89.832-12.22-6.77 3.692-13.33 8.555-19.666 13.26C47.238-8.544 40.18-3.295 32.795.508 19.484 7.361 4.86 9.661-9.312 11.783c-.712.095-1.418.22-2.13.315-17.597 2.639-35.698 5.525-51.138 17.142-12.19 9.15-22.133 23.404-29.441 34.793-11.488 17.89-24.839 42.588-26.195 75.17-1.626 38.708 13.279 77.29 27.68 114.592l1.898 4.957c1.248 3.219 2.466 6.443 3.714 9.663 7.105 18.635 14.463 37.91 23.352 54.986 8.213 15.775 21.434 36.349 37.859 44.935 13.236 6.919 26.502 5.231 40.068 2.77 10.002-1.83 19.708-3.985 28.21-10.077 4.145-2.99 8.02-6.928 11.773-10.769 3.444-3.531 7.042-7.162 10.83-10.067 11.141-8.524 24.104-10.783 36.751-12.684.621-.081 1.224-.175 1.857-.273zm-129.732 43.655c-16.876-8.81-30.386-29.864-38.788-45.965-8.978-17.248-16.383-36.639-23.537-55.39-1.23-3.207-2.466-6.444-3.696-9.651l-1.9-4.956c-14.572-37.723-29.637-76.744-27.981-116.368 1.392-33.359 14.942-58.474 26.591-76.621 7.385-11.494 17.444-25.905 29.813-35.191 15.633-11.77 33.884-14.68 51.603-17.337.694-.108 1.405-.203 2.099-.31C4.36 6.989 18.906 4.685 32.063-2.068c7.312-3.775 14.344-8.99 21.109-14.024 6.393-4.745 12.948-9.64 19.82-13.362 27.475-14.905 60.677-10.39 91.029 12.374 26.993 20.275 41.266 55.928 43.615 109.047 1.271 28.451-4.924 53.814-10.889 78.354-2.072 8.476-4.192 17.238-5.977 25.978-1.669 8.182-3.123 16.763-4.514 25.04-2.943 17.538-5.996 35.665-11.417 51.332-8.027 23.269-21.203 40.619-37.081 48.86-9.97 5.176-20.894 6.841-31.572 8.39-13.104 1.941-26.66 3.952-38.12 12.727-3.73 2.864-7.286 6.474-10.704 9.97-3.778 3.876-7.71 7.853-11.94 10.888-8.682 6.227-18.491 8.414-28.627 10.28-2.193.402-4.373.787-6.575 1.129-11.457 1.701-22.77 1.927-34.176-4.024z" fill="url(#paint17_linear)"/><path d="M101.469 316.437c9.77-1.419 19.977-2.92 29.111-7.648 14.481-7.513 26.488-23.303 33.8-44.521 4.935-14.351 7.722-31.083 10.423-47.259 1.279-7.752 2.624-15.778 4.181-23.433 1.66-8.198 3.648-16.368 5.553-24.278 5.473-22.593 11.106-45.954 9.91-71.908-2.215-48.266-15.233-80.662-39.73-99.053-27.947-20.974-58.459-25.189-83.729-11.533-6.3 3.427-12.4 7.938-18.309 12.296-6.345 4.735-12.919 9.597-19.776 13.125-12.373 6.323-25.95 8.464-39.139 10.407-.363.055-.726.111-1.076.15-16.8 2.433-33.96 5.03-48.618 16.008-11.325 8.486-20.582 21.733-27.384 32.328-10.668 16.638-23.052 39.609-24.266 69.911-1.442 36.036 12.514 71.989 26.022 106.757l1.76 4.562c1.142 2.983 2.298 5.95 3.458 8.946 6.67 17.389 13.555 35.365 21.87 51.278 7.679 14.696 20.047 33.875 35.364 41.888 12.351 6.455 24.71 4.949 37.332 2.644 9.33-1.661 18.374-3.666 26.263-9.333 3.849-2.757 7.46-6.438 10.953-9.993 3.21-3.278 6.557-6.671 10.09-9.364 10.345-7.918 22.415-9.983 34.213-11.713l1.724-.264zm-120.812 40.397c-15.723-8.23-28.36-27.848-36.223-42.84-8.404-16.086-15.338-34.178-22.04-51.671-1.155-2.966-2.28-5.937-3.436-8.903l-1.794-4.587c-13.63-35.152-27.742-71.515-26.275-108.391 1.24-31.034 13.827-54.392 24.644-71.269 6.879-10.7 16.22-24.1 27.714-32.704C-42.226 25.557-25.26 22.897-8.79 20.437c.363-.056.713-.094 1.077-.15C5.778 18.298 19.664 16.25 32.22 9.82 39.005 6.32 45.535 1.48 51.86-3.19c5.916-4.406 12.074-8.957 18.434-12.393 25.61-13.863 56.534-9.587 84.847 11.656 25.213 18.916 38.544 52.131 40.833 101.577 1.215 26.478-4.489 50.082-9.989 72.896-1.923 7.898-3.898 16.051-5.537 24.183-1.549 7.608-2.868 15.598-4.169 23.307-2.714 16.302-5.511 33.159-10.535 47.741-7.45 21.626-19.683 37.76-34.482 45.415-9.264 4.795-19.505 6.27-29.392 7.738-12.16 1.785-24.852 3.636-35.502 11.786-3.477 2.654-6.768 6.007-9.952 9.251-3.518 3.589-7.186 7.309-11.103 10.123-8.087 5.791-17.223 7.81-26.669 9.52-2.035.358-4.07.716-6.098 1.027-10.69 1.575-21.254 1.768-31.889-3.803z" fill="url(#paint18_linear)"/><path d="M97.486 304.003c9.117-1.304 18.402-2.726 26.819-7.09 13.354-6.936 24.413-21.508 31.155-41.067 4.585-13.259 7.17-28.682 9.678-43.598 1.194-7.14 2.447-14.505 3.879-21.604 1.537-7.533 3.366-15.065 5.156-22.358 5.062-20.845 10.298-42.366 9.236-66.28-1.984-44.482-13.902-74.319-36.438-91.245C121.263-8.517 93.191-12.346 69.891.273 64.1 3.426 58.465 7.606 53.042 11.645c-5.857 4.338-11.92 8.847-18.236 12.097-11.447 5.868-24 7.843-36.187 9.684-.29.03-.574.09-.863.118-15.344 2.207-31.27 4.658-44.778 14.833-10.452 7.831-18.981 20.048-25.272 29.831-9.829 15.34-21.266 36.522-22.431 64.46-1.381 33.195 11.42 66.28 23.797 98.302l1.623 4.246c1.068 2.74 2.11 5.515 3.179 8.255 6.11 16.008 12.424 32.541 20.06 47.2 7.026 13.517 18.38 31.17 32.472 38.555 11.37 5.951 22.754 4.512 34.372 2.389 8.596-1.579 16.905-3.422 24.217-8.65 3.55-2.544 6.877-5.949 10.084-9.227 2.967-3.025 6.028-6.142 9.29-8.657 9.546-7.289 20.652-9.225 31.516-10.83.526-.097 1.056-.164 1.6-.248zm-111.287 37.402c-14.474-7.557-26.09-25.618-33.284-39.418-7.706-14.818-14.051-31.454-20.206-47.548-1.055-2.757-2.11-5.515-3.161-8.242l-1.64-4.259c-12.505-32.358-25.445-65.839-24.029-99.812 1.184-28.621 12.8-50.156 22.777-65.734 6.342-9.853 14.974-22.21 25.576-30.172C-34.355 36.137-18.684 33.633-3.47 31.385a31.93 31.93 0 011.69-.262c12.144-1.82 24.637-3.785 35.955-9.587 6.274-3.228 12.28-7.697 18.106-12.03C57.736 5.462 63.395 1.247 69.26-1.933 92.86-14.706 121.326-10.83 147.365 8.69c23.162 17.386 35.429 47.988 37.436 93.532 1.094 24.42-4.201 46.166-9.309 67.219-1.776 7.276-3.593 14.79-5.121 22.275-1.429 7.022-2.669 14.369-3.868 21.479-2.52 15.042-5.134 30.577-9.781 44.032-6.886 19.936-18.174 34.821-31.799 41.908-8.547 4.43-18.056 5.794-27.07 7.175-11.298 1.688-22.89 3.375-32.724 10.91-3.193 2.457-6.229 5.539-9.17 8.529-3.245 3.331-6.602 6.741-10.234 9.359-7.449 5.342-15.86 7.216-24.548 8.809-1.892.355-3.777.662-5.648.952-9.85 1.463-19.54 1.65-29.33-3.464z" fill="url(#paint19_linear)"/><path d="M93.817 293.116c8.286-1.266 16.869-2.502 24.565-6.505 12.232-6.357 22.373-19.713 28.557-37.633 4.2-12.112 6.562-26.242 8.855-39.913 1.101-6.535 2.241-13.308 3.567-19.785 1.411-6.923 3.086-13.84 4.707-20.502 4.644-19.102 9.436-38.845 8.461-60.754-1.82-40.749-12.754-68.084-33.381-83.584-23.555-17.673-49.295-21.167-70.632-9.615-5.32 2.878-10.48 6.704-15.472 10.412-5.352 3.98-10.884 8.095-16.683 11.078-10.467 5.374-21.958 7.183-33.115 8.863-.56.072-1.103.156-1.664.227-13.829 2.078-28.061 4.343-40.196 13.45-9.556 7.195-17.387 18.387-23.134 27.355-9.016 14.048-19.51 33.468-20.566 59.059-1.258 30.427 10.456 60.746 21.803 90.072l1.507 3.891c.97 2.507 1.928 5.032 2.89 7.586 5.609 14.642 11.403 29.796 18.402 43.234 6.436 12.382 16.852 28.567 29.746 35.315 10.425 5.446 20.85 4.142 31.504 2.2 7.886-1.452 15.506-3.126 22.184-7.929 3.24-2.34 6.287-5.437 9.24-8.443 2.727-2.771 5.53-5.645 8.517-7.93 8.753-6.684 18.936-8.461 28.89-9.924l1.448-.225zm-101.97 34.257c-13.263-6.939-23.903-23.475-30.488-36.127-7.083-13.58-12.904-28.807-18.543-43.552a1832.8 1832.8 0 00-2.891-7.586l-1.502-3.861c-11.445-29.666-23.323-60.346-22.02-91.491 1.07-26.196 11.718-45.933 20.87-60.202 5.797-9.039 13.718-20.352 23.415-27.63 12.534-9.432 27.164-11.62 41.39-13.728 11.428-1.722 23.101-3.452 33.71-8.91 5.725-2.956 11.245-7.054 16.572-10.999 5.005-3.725 10.19-7.586 15.583-10.49 21.603-11.732 47.693-8.17 71.565 9.764 21.202 15.92 32.44 43.934 34.305 85.68 1.015 22.367-3.841 42.305-8.535 61.584-1.621 6.662-3.283 13.562-4.691 20.407-1.299 6.443-2.445 13.185-3.545 19.72-2.31 13.767-4.706 27.979-8.951 40.3-6.314 18.279-16.66 31.914-29.136 38.386-7.825 4.069-16.499 5.319-24.802 6.573-10.276 1.575-20.959 3.12-29.973 10.015-2.93 2.245-5.713 5.055-8.41 7.82-2.965 3.024-6.05 6.174-9.377 8.558-6.82 4.886-14.526 6.604-22.49 8.053-1.74.331-3.455.627-5.175.893-9.014 1.349-17.915 1.521-26.881-3.177z" fill="url(#paint20_linear)"/><path d="M90.474 281.992c7.538-1.128 15.292-2.258 22.306-5.881 11.114-5.749 20.29-17.862 25.898-34.116 3.794-11.009 5.934-23.846 8.018-36.242.982-5.935 1.997-12.059 3.204-17.936 1.272-6.257 2.785-12.55 4.258-18.607 4.194-17.316 8.546-35.213 7.624-55.105-1.689-36.971-11.622-61.787-30.388-75.868-21.402-16.066-44.77-19.276-64.132-8.805-4.827 2.608-9.52 6.09-14.032 9.436-4.871 3.618-9.897 7.336-15.17 10.043-9.477 4.865-19.899 6.498-30.033 7.994-.512.078-1.037.175-1.537.236-12.562 1.854-25.463 3.913-36.467 12.175-8.7 6.503-15.801 16.663-20.994 24.803-8.173 12.715-17.673 30.338-18.628 53.558-1.115 27.593 9.56 55.117 19.862 81.726l1.38 3.551c.91 2.298 1.771 4.586 2.65 6.888 5.106 13.312 10.372 27.062 16.755 39.252 5.85 11.238 15.318 25.931 27.045 32.071 9.464 4.962 18.938 3.783 28.6 2.021 7.143-1.283 14.065-2.81 20.118-7.164 2.961-2.105 5.733-4.937 8.398-7.66 2.482-2.51 5.027-5.107 7.717-7.17 7.962-6.082 17.203-7.672 26.252-9.001l1.296-.199zm-92.546 31.003c-12.062-6.305-21.731-21.306-27.731-32.815-6.419-12.323-11.729-26.159-16.861-39.544-.875-2.271-1.754-4.573-2.646-6.857l-1.38-3.551c-10.413-26.932-21.212-54.761-20.075-83.005.976-23.793 10.601-41.698 18.91-54.635 5.261-8.196 12.427-18.443 21.233-25.055 11.14-8.375 24.167-10.424 36.802-12.304l1.537-.236c10.074-1.487 20.435-3.11 29.826-7.93 5.218-2.669 10.214-6.383 15.06-9.965 4.538-3.381 9.23-6.863 14.112-9.51 19.62-10.604 43.303-7.35 65.001 8.934 19.288 14.463 29.504 39.914 31.236 77.773.94 20.306-3.444 38.392-7.688 55.886-1.46 6.039-2.978 12.302-4.242 18.512-1.182 5.841-2.214 11.953-3.201 17.858-2.083 12.504-4.243 25.405-8.1 36.609-5.712 16.578-15.084 28.923-26.424 34.799-7.114 3.684-14.979 4.893-22.513 5.943-9.39 1.428-19.033 2.802-27.2 9.054-2.665 2.029-5.185 4.591-7.624 7.079-2.69 2.758-5.505 5.612-8.504 7.769-6.195 4.438-13.207 5.978-20.437 7.305-1.562.271-3.124.542-4.691.783-8.188 1.212-16.246 1.371-24.4-2.897z" fill="url(#paint21_linear)"/><path d="M87.026 271.603c6.734-1.014 13.822-2.036 20.144-5.31 10.036-5.188 18.346-16.118 23.382-30.79 3.429-9.952 5.367-21.533 7.223-32.746.889-5.353 1.829-10.884 2.896-16.186 1.138-5.654 2.491-11.31 3.825-16.793 3.787-15.642 7.693-31.812 6.863-49.766-1.553-33.417-10.554-55.833-27.515-68.565-19.36-14.517-40.484-17.432-57.96-7.995-4.358 2.354-8.594 5.495-12.663 8.516-4.404 3.259-8.945 6.631-13.71 9.063-8.534 4.386-17.938 5.855-27.084 7.191-.242.037-.497.092-.756.116-11.544 1.75-23.495 3.47-33.637 11.073-7.854 5.876-14.236 15.057-18.939 22.386-7.385 11.501-15.979 27.398-16.802 48.375-.984 24.935 8.673 49.79 18.022 73.856l1.236 3.186c.804 2.091 1.603 4.151 2.39 6.229 4.618 12.019 9.392 24.447 15.154 35.454 5.307 10.164 13.867 23.438 24.466 28.984 8.56 4.481 17.103 3.453 25.852 1.852 6.464-1.159 12.708-2.532 18.187-6.45 2.675-1.926 5.16-4.474 7.582-6.934 2.22-2.259 4.522-4.592 6.972-6.469 7.158-5.475 15.515-6.908 23.675-8.109.41-.048.804-.108 1.197-.168zm-83.61 27.941c-10.905-5.716-19.65-19.286-25.08-29.648-5.828-11.137-10.617-23.656-15.257-35.718-.804-2.09-1.59-4.168-2.407-6.242l-1.237-3.185c-9.434-24.317-19.216-49.478-18.182-74.993.839-21.475 9.546-37.637 17.042-49.325 4.736-7.412 11.217-16.654 19.166-22.622C-12.26 70.093-.24 68.317 11.404 66.614c9.314-1.347 18.952-2.806 27.633-7.245 4.721-2.409 9.22-5.76 13.61-9 4.095-3.057 8.331-6.197 12.75-8.56 17.717-9.583 39.14-6.636 58.749 8.09 17.433 13.078 26.678 36.076 28.275 70.275.843 18.339-3.1 34.67-6.936 50.49-1.308 5.447-2.68 11.091-3.809 16.697-1.072 5.272-1.981 10.799-2.876 16.121-1.871 11.309-3.813 22.968-7.296 33.067-5.146 14.967-13.622 26.124-23.86 31.405-6.403 3.348-13.522 4.375-20.334 5.386-8.407 1.208-17.202 2.506-24.583 8.14-2.394 1.837-4.683 4.153-6.86 6.39-2.466 2.482-4.977 5.064-7.725 7.017-5.573 4.01-11.908 5.397-18.445 6.582-1.417.248-2.834.496-4.243.696-7.387 1.098-14.676 1.222-22.038-2.621z" fill="url(#paint22_linear)"/><path d="M83.084 259.689c5.962-.92 12.222-1.808 17.832-4.724 8.867-4.59 16.242-14.283 20.72-27.276 3.028-8.791 4.752-19.046 6.419-28.969.782-4.745 1.613-9.667 2.572-14.363 1.016-5.028 2.252-10.028 3.416-14.894 3.363-13.838 6.837-28.155 6.105-44.059-1.335-29.576-9.252-49.412-24.253-60.678-17.107-12.838-35.779-15.384-51.264-7.014-3.868 2.108-7.618 4.89-11.244 7.578-3.874 2.879-7.884 5.871-12.102 8.017-7.586 3.9-15.923 5.216-24.028 6.436-.409.047-.8.108-1.192.168-10.037 1.487-20.387 3.145-29.177 9.743-6.952 5.219-12.64 13.342-16.79 19.84-6.543 10.197-14.156 24.258-14.909 42.842-.91 22.077 7.602 44.087 15.848 65.367l1.099 2.837a639.226 639.226 0 012.113 5.532c4.067 10.625 8.267 21.616 13.337 31.347 4.71 8.985 12.248 20.74 21.633 25.643 7.573 3.95 15.134 2.999 22.859 1.607 5.71-1.05 11.256-2.276 16.102-5.752 2.36-1.69 4.574-3.943 6.718-6.139 1.974-2 4-4.07 6.162-5.745 6.36-4.85 13.763-6.131 20.982-7.199.362-.055.693-.106 1.041-.145zM9.087 284.516c-9.636-5.034-17.367-17.037-22.168-26.224-5.12-9.847-9.341-20.88-13.435-31.579-.713-1.832-1.413-3.682-2.126-5.514l-1.08-2.824c-8.35-21.542-16.946-43.801-16.024-66.404.779-19.019 8.493-33.328 15.12-43.676 4.218-6.555 9.953-14.778 17.003-20.058 8.914-6.694 19.33-8.332 29.422-9.858.422-.065.813-.125 1.222-.173 8.062-1.198 16.352-2.523 23.84-6.36 4.156-2.137 8.172-5.1 12.045-7.978 3.639-2.704 7.389-5.487 11.3-7.617 15.682-8.493 34.621-5.911 51.942 7.11 15.418 11.571 23.581 31.909 24.95 62.205.717 16.214-2.777 30.704-6.181 44.671-1.169 4.836-2.374 9.831-3.382 14.812-.977 4.683-1.796 9.588-2.582 14.303-1.688 9.987-3.403 20.303-6.485 29.241-4.575 13.269-12.072 23.167-21.14 27.849-5.683 2.943-11.943 3.831-18.01 4.782-7.49 1.11-15.208 2.239-21.73 7.238-2.138 1.64-4.138 3.675-6.099 5.658-2.157 2.213-4.413 4.488-6.812 6.23-4.944 3.538-10.563 4.79-16.334 5.85a163.6 163.6 0 01-3.742.624c-6.557.965-13.01 1.097-19.514-2.308z" fill="url(#paint23_linear)"/><path d="M78.957 247.766c5.278-.828 10.689-1.584 15.582-4.108 7.757-4.028 14.182-12.5 18.102-23.851 2.651-7.692 4.151-16.653 5.603-25.33.687-4.14 1.412-8.44 2.246-12.526.895-4.387 1.959-8.785 2.985-13.024 2.926-12.106 5.959-24.614 5.332-38.499-1.174-25.841-8.11-43.204-21.216-53.027-14.954-11.232-31.297-13.474-44.83-6.155-3.368 1.827-6.626 4.27-9.808 6.607-3.399 2.525-6.91 5.129-10.59 7.02-6.606 3.403-13.899 4.542-20.973 5.6-.36.056-.722.111-1.1.154-8.758 1.318-17.779 2.738-25.482 8.512-6.06 4.551-11.02 11.644-14.673 17.318-5.71 8.917-12.345 21.241-13.005 37.464-.791 19.276 6.665 38.515 13.886 57.127l.935 2.474a245.197 245.197 0 011.846 4.797c3.57 9.29 7.255 18.931 11.69 27.44 4.105 7.868 10.703 18.123 18.893 22.421 6.628 3.445 13.243 2.611 20.002 1.401 4.988-.907 9.827-1.975 14.056-5.013 2.08-1.491 3.996-3.449 5.887-5.372 1.703-1.74 3.487-3.555 5.374-5 5.55-4.258 12.017-5.361 18.339-6.304.288-.029.619-.08.92-.126zm-64.675 21.676c-8.437-4.398-15.196-14.906-19.385-22.915-4.483-8.625-8.19-18.309-11.77-27.659-.615-1.599-1.23-3.198-1.829-4.784l-.965-2.469c-7.296-18.801-14.832-38.258-14.025-58.03.678-16.611 7.422-29.12 13.222-38.159 3.675-5.739 8.686-12.901 14.856-17.531 7.784-5.849 16.864-7.278 25.683-8.605.379-.042.74-.098 1.1-.154 7.044-1.053 14.277-2.182 20.827-5.547 3.651-1.886 7.149-4.473 10.535-6.98 3.165-2.35 6.453-4.797 9.864-6.646 13.733-7.412 30.266-5.138 45.424 6.217 13.475 10.12 20.601 27.916 21.807 54.368.644 14.19-2.414 26.84-5.386 39.047-1.027 4.238-2.077 8.619-2.964 12.959-.822 4.068-1.551 8.338-2.238 12.478-1.46 8.724-2.964 17.763-5.674 25.571-3.99 11.593-10.53 20.222-18.458 24.338-4.68 2.414-9.827 3.283-14.825 4.022l-.92.126c-6.54 1.023-13.293 1.97-19.01 6.346-1.844 1.423-3.62 3.19-5.323 4.931-1.873 1.936-3.844 3.933-5.937 5.441-4.34 3.116-9.24 4.194-14.288 5.11-1.109.201-2.204.385-3.287.552-5.72.85-11.341.946-17.034-2.027z" fill="url(#paint24_linear)"/><path d="M74.851 236.027c4.486-.665 9.178-1.393 13.403-3.593 6.688-3.486 12.217-10.809 15.634-20.594 2.298-6.625 3.615-14.346 4.89-21.829.611-3.56 1.246-7.262 1.982-10.81.777-3.787 1.715-7.537 2.618-11.205 2.562-10.438 5.213-21.216 4.708-33.177-.901-22.257-6.817-37.164-18.017-45.591-12.813-9.61-26.847-11.482-38.48-5.14-2.91 1.604-5.73 3.705-8.439 5.727-2.931 2.18-5.957 4.453-9.125 6.083-5.704 2.945-11.943 3.964-18.01 4.895-.331.052-.68.092-1.012.145-7.515 1.159-15.261 2.418-21.88 7.409-5.227 3.966-9.5 10.084-12.66 14.975-4.93 7.707-10.692 18.328-11.32 32.309-.745 16.612 5.6 33.151 11.726 49.154l.794 2.115c.527 1.354 1.04 2.726 1.571 4.11 3.016 7.994 6.167 16.275 9.946 23.59 3.495 6.758 9.133 15.573 16.15 19.237 5.673 2.95 11.34 2.238 17.164 1.129 4.282-.786 8.451-1.71 12.1-4.359 1.768-1.285 3.444-2.989 5.067-4.622 1.47-1.531 3.012-3.089 4.648-4.338 4.776-3.678 10.325-4.666 15.758-5.496.271-.043.53-.068.784-.124zm-55.636 18.91c-7.201-3.774-12.975-12.768-16.54-19.685-3.835-7.384-6.978-15.713-10.033-23.762-.513-1.371-1.027-2.743-1.553-4.097l-.812-2.128c-6.184-16.179-12.586-32.895-11.84-49.909.64-14.323 6.482-25.127 11.508-32.926 3.168-4.938 7.492-11.127 12.805-15.138 6.717-5.052 14.507-6.333 22.069-7.485.344-.07.676-.123 1.025-.162 6.037-.926 12.245-1.94 17.863-4.84 3.138-1.627 6.151-3.882 9.07-6.045 2.721-2.038 5.554-4.157 8.493-5.767 11.806-6.43 26.013-4.539 38.969 5.203 11.56 8.664 17.625 23.949 18.555 46.711.498 12.226-2.182 23.116-4.774 33.667-.878 3.633-1.81 7.413-2.579 11.152-.741 3.518-1.363 7.203-1.974 10.763-1.283 7.53-2.608 15.299-4.954 22.024-3.475 10.011-9.137 17.478-15.954 21.032-4.268 2.222-9.012 2.912-13.52 3.642-5.623.798-11.456 1.738-16.357 5.514-1.592 1.226-3.122 2.767-4.608 4.285-1.62 1.664-3.308 3.384-5.12 4.691-3.721 2.677-7.929 3.653-12.271 4.449a58.53 58.53 0 01-2.8.475c-4.921.749-9.764.883-14.668-1.664z" fill="url(#paint25_linear)"/><path d="M72.196 226.446c3.78-.575 7.697-1.155 11.221-2.994 5.598-2.909 10.244-9.025 13.083-17.221 1.909-5.533 3.01-11.981 4.049-18.233.507-3 1.031-6.096 1.651-9.067.654-3.162 1.416-6.326 2.166-9.364 2.118-8.751 4.334-17.781 3.903-27.781-.81-18.641-5.793-31.115-15.207-38.206-10.771-8.06-22.506-9.678-32.27-4.348-2.427 1.296-4.785 3.046-7.057 4.753-2.453 1.843-4.997 3.7-7.644 5.076-4.808 2.491-10.086 3.314-15.217 4.084l-.607.095c-6.344.959-12.878 1.994-18.439 6.171-4.388 3.31-7.958 8.435-10.582 12.527-4.135 6.409-8.934 15.298-9.438 27.013-.594 13.889 4.757 27.766 9.926 41.159l.675 1.79 1.32 3.476c2.567 6.684 5.2 13.605 8.383 19.742 2.94 5.663 7.679 13.048 13.564 16.123 4.756 2.489 9.51 1.902 14.402.983 3.595-.654 7.077-1.446 10.13-3.631 1.5-1.058 2.881-2.501 4.227-3.86 1.252-1.268 2.542-2.588 3.891-3.621 4.004-3.08 8.679-3.887 13.216-4.58.2-.015.442-.053.654-.086zm-46.612 15.725c-6.037-3.159-10.894-10.712-13.9-16.504-3.223-6.193-5.879-13.158-8.438-19.89l-1.319-3.476-.688-1.772c-5.227-13.571-10.614-27.582-10.01-41.814.51-11.98 5.382-21.005 9.577-27.532 2.65-4.127 6.258-9.304 10.702-12.654 5.643-4.252 12.207-5.292 18.612-6.261l.304-.047c5.178-.762 10.565-1.587 15.403-4.082 2.635-1.359 5.16-3.229 7.588-5.037 2.29-1.693 4.66-3.461 7.108-4.822 9.873-5.332 21.79-3.743 32.688 4.437 9.688 7.266 14.8 20.078 15.632 39.165.463 10.213-1.769 19.339-3.939 28.16-.72 3.033-1.499 6.184-2.14 9.329-.607 2.954-1.131 6.049-1.626 9.032-1.081 6.274-2.174 12.783-4.129 18.417-2.877 8.357-7.613 14.595-13.31 17.566-3.382 1.755-7.09 2.381-10.688 2.927l-.667.104c-4.737.708-9.582 1.417-13.698 4.577-1.336 1.016-2.596 2.331-3.834 3.581-1.36 1.377-2.77 2.825-4.296 3.917-3.122 2.243-6.634 3.04-10.273 3.716-.802.141-1.59.264-2.38.387-4.112.626-8.168.7-12.279-1.424z" fill="url(#paint26_linear)"/><path d="M67.262 215.5c3.05-.461 6.162-.931 8.983-2.397 4.475-2.33 8.173-7.227 10.442-13.765 1.545-4.452 2.42-9.638 3.275-14.65.4-2.378.817-4.851 1.295-7.225.52-2.505 1.145-5.042 1.736-7.496 1.705-6.978 3.47-14.183 3.122-22.208-.646-14.907-4.63-24.897-12.164-30.556-8.587-6.458-17.989-7.74-25.806-3.489-1.952 1.05-3.819 2.461-5.647 3.818-1.953 1.455-4.005 2.972-6.122 4.064-3.814 1.978-8 2.632-12.082 3.254l-.637.1c-5.07.76-10.253 1.601-14.685 4.934-3.514 2.631-6.368 6.743-8.466 10.008-3.318 5.148-7.162 12.258-7.558 21.626-.471 11.121 3.804 22.214 7.946 32.94l.524 1.41c.372.92.732 1.859 1.074 2.784 2.038 5.353 4.152 10.895 6.681 15.798 2.366 4.541 6.149 10.444 10.87 12.907 3.81 1.984 7.62 1.513 11.514.781 2.868-.541 5.648-1.146 8.098-2.912 1.19-.854 2.309-1.976 3.397-3.094.98-1.008 2.03-2.073 3.116-2.895 3.199-2.457 6.92-3.1 10.548-3.651l.546-.086zm-37.266 12.579c-4.868-2.518-8.753-8.577-11.145-13.19-2.568-4.959-4.7-10.515-6.742-15.898-.36-.938-.72-1.876-1.062-2.802l-.554-1.404c-4.178-10.861-8.502-22.071-8.01-33.474.41-9.573 4.314-16.801 7.653-22.015 2.137-3.316 5.017-7.464 8.586-10.134 4.488-3.374 9.731-4.224 14.802-4.984l.637-.1c4.052-.617 8.22-1.284 12.009-3.227 2.104-1.075 4.126-2.587 6.079-4.042 1.828-1.357 3.725-2.772 5.69-3.84 7.89-4.278 17.43-3.002 26.14 3.546 7.775 5.808 11.86 16.061 12.514 31.325.34 8.181-1.441 15.482-3.15 22.538-.595 2.424-1.22 4.961-1.727 7.448-.496 2.361-.9 4.817-1.3 7.195-.85 5.042-1.72 10.258-3.287 14.776-2.324 6.686-6.117 11.675-10.678 14.05-2.692 1.399-5.655 1.924-8.541 2.344a3.179 3.179 0 01-.534.068c-3.76.587-7.666 1.151-10.946 3.683-1.086.822-2.093 1.865-3.073 2.872-1.106 1.105-2.22 2.258-3.44 3.117-2.506 1.805-5.33 2.432-8.228 2.978-.65.117-1.269.23-1.906.329-3.294.499-6.53.554-9.787-1.159z" fill="url(#paint27_linear)"/><path d="M63.936 204.042c2.116-.325 4.3-.706 6.268-1.73 3.332-1.766 6.098-5.394 7.804-10.282 1.143-3.291 1.803-7.15 2.455-10.853.305-1.787.632-3.639.988-5.388.399-1.879.858-3.768 1.296-5.591 1.293-5.191 2.636-10.559 2.391-16.503-.43-11.065-3.348-18.486-8.923-22.681-6.349-4.762-13.298-5.675-19.11-2.511-1.432.8-2.842 1.857-4.184 2.857-1.465 1.097-2.956 2.228-4.556 3.039-2.836 1.486-5.954 1.988-8.983 2.474a4.235 4.235 0 00-.437.055c-3.753.573-7.617 1.225-10.902 3.721-2.611 1.973-4.741 5.022-6.316 7.46-2.461 3.825-5.336 9.116-5.66 16.089-.38 8.274 2.743 16.461 5.77 24.418l.404 1.073c.256.697.512 1.394.781 2.074 1.493 3.99 3.046 8.077 4.914 11.699 1.708 3.37 4.531 7.745 7.99 9.558 2.81 1.471 5.668 1.073 8.538.55 2.15-.407 4.202-.86 6.018-2.182.871-.648 1.7-1.488 2.514-2.312.747-.766 1.524-1.536 2.323-2.157 2.384-1.844 5.151-2.335 7.837-2.751.257-.026.51-.082.78-.126zm-28.05 9.537c-3.576-1.871-6.43-6.349-8.194-9.788-1.906-3.676-3.464-7.794-4.956-11.783a91.107 91.107 0 01-.78-2.074l-.404-1.073c-3.054-8.03-6.212-16.35-5.83-24.809.333-7.128 3.242-12.502 5.741-16.379 1.584-2.485 3.744-5.539 6.38-7.547 3.34-2.536 7.235-3.193 11.018-3.77.15-.024.287-.031.45-.072 3.003-.452 6.104-.966 8.897-2.43 1.57-.806 3.06-1.938 4.514-3.017 1.367-1.035 2.781-2.062 4.227-2.879 5.867-3.204 12.94-2.28 19.375 2.545 5.73 4.308 8.717 11.887 9.175 23.241.232 6.068-1.103 11.496-2.417 16.752-.442 1.794-.9 3.682-1.287 5.544-.37 1.766-.7 3.588-.992 5.358-.66 3.751-1.334 7.627-2.498 10.982-1.74 4.971-4.553 8.699-7.944 10.474-1.993 1.059-4.195 1.428-6.341 1.758l-.78.125c-2.656.412-5.406.915-7.739 2.69-.799.62-1.558 1.404-2.292 2.152-.799.836-1.656 1.681-2.558 2.334-1.829 1.34-3.936 1.832-6.103 2.227-.463.089-.925.179-1.393.239-2.446.377-4.859.458-7.27-.8z" fill="url(#paint28_linear)"/><path d="M59.237 191.098c1.401-.229 2.832-.462 4.135-1.164 2.213-1.157 4.044-3.583 5.179-6.813.779-2.208 1.22-4.744 1.641-7.215.21-1.183.43-2.412.674-3.569a96.55 96.55 0 01.882-3.709c.844-3.444 1.744-7.034 1.603-10.959-.272-7.362-2.206-12.281-5.885-15.032-4.213-3.17-8.8-3.753-12.66-1.639-.962.524-1.885 1.21-2.791 1.909-.966.708-1.97 1.469-3.021 2.007-1.873.979-3.9 1.31-5.899 1.636l-.387.063c-2.462.386-5.01.817-7.196 2.474-1.719 1.306-3.15 3.329-4.182 4.952-1.644 2.563-3.532 6.069-3.764 10.683-.273 5.492 1.797 10.939 3.782 16.217l.27.706.528 1.429c.973 2.611 1.99 5.307 3.222 7.707 1.13 2.219 2.969 5.117 5.277 6.302 1.869.996 3.739.737 5.656.378 1.41-.275 2.781-.606 3.985-1.461.608-.435 1.153-.999 1.684-1.544.476-.506.982-1.017 1.53-1.444 1.579-1.221 3.41-1.535 5.2-1.827l.537-.087zm-18.63 6.358c-2.376-1.235-4.254-4.189-5.422-6.462-1.237-2.43-2.24-5.144-3.23-7.767a41.437 41.437 0 00-.54-1.412l-.258-.723c-2.024-5.333-4.103-10.839-3.835-16.469.233-4.721 2.172-8.296 3.845-10.865 1.045-1.639 2.472-3.693 4.233-5.021 2.212-1.692 4.76-2.123 7.251-2.514.137-.007.256-.026.375-.045 1.998-.326 4.038-.674 5.886-1.618 1.034-.551 2.025-1.295 2.974-2.015.923-.687 1.846-1.373 2.82-1.914 3.904-2.136 8.567-1.55 12.831 1.657 3.782 2.826 5.767 7.89 6.044 15.389.141 4.032-.754 7.652-1.624 11.13a96.196 96.196 0 00-.87 3.692 91.777 91.777 0 00-.66 3.551c-.434 2.489-.884 5.072-1.663 7.28-1.168 3.313-3.038 5.791-5.276 6.982-1.35.694-2.777.958-4.195 1.174a3.268 3.268 0 00-.537.087c-1.776.275-3.59.601-5.127 1.8-.536.409-1.041.92-1.518 1.426-.531.546-1.105 1.114-1.684 1.545-1.242.906-2.63 1.225-4.057 1.488-.311.066-.64.119-.938.168-1.627.25-3.208.294-4.825-.544z" fill="url(#paint29_linear)"/><path d="M55.995 180.498c.698-.109 1.438-.24 2.099-.592 1.123-.579 2.04-1.794 2.616-3.422.372-1.129.595-2.422.823-3.684.081-.588.189-1.21.318-1.79.138-.627.276-1.254.43-1.868.42-1.743.86-3.551.773-5.557-.145-3.72-1.147-6.234-3.037-7.647-2.135-1.592-4.484-1.94-6.431-.859-.488.263-.962.616-1.423.952-.487.371-1.005.747-1.523 1.015-.95.49-1.98.651-3.011.812l-.182.028c-1.274.199-2.578.403-3.664 1.225-.861.663-1.59 1.693-2.103 2.503-.843 1.296-1.8 3.077-1.897 5.406-.119 2.798.955 5.581 1.997 8.26l.112.325.279.717c.51 1.318 1.03 2.697 1.682 3.93.574 1.122 1.528 2.604 2.69 3.214.811.432 1.614.4 2.42.29.168-.011.315-.065.467-.089.71-.126 1.416-.283 2.015-.734.31-.204.594-.481.848-.754.27-.26.511-.515.787-.744.793-.605 1.715-.765 2.625-.907.108-.002.2-.016.29-.03zm-9.467 3.172c-1.215-.649-2.174-2.161-2.765-3.296-.657-1.264-1.176-2.642-1.691-3.991-.098-.233-.178-.453-.275-.687l-.111-.324c-1.065-2.722-2.143-5.535-2.033-8.395.118-2.394 1.1-4.209 1.913-5.501.539-.845 1.267-1.876 2.16-2.543 1.116-.827 2.42-1.03 3.693-1.229.06-.01.121-.019.195-.046.988-.139 2.031-.318 2.968-.79.518-.268 1.018-.656 1.523-1.015.443-.349.935-.689 1.405-.965 1.977-1.085 4.388-.747 6.544.888 1.943 1.451 2.954 4.027 3.126 7.82.078 2.053-.375 3.879-.789 5.652-.142.597-.31 1.229-.417 1.851-.13.58-.237 1.202-.336 1.777-.21 1.275-.434 2.568-.819 3.715-.584 1.675-1.527 2.925-2.68 3.509-.66.352-1.388.466-2.116.579-.091.015-.195.046-.286.061-.897.124-1.802.297-2.599.872-.263.212-.516.484-.757.739-.284.278-.568.555-.86.771-.63.456-1.336.613-2.059.757a5.021 5.021 0 01-.472.058c-.819.128-1.638.147-2.462-.267z" fill="url(#paint30_linear)"/></g><defs><linearGradient id="paint0_linear" x1="630.754" y1="-82.165" x2="84.924" y2="-334.695" gradientUnits="userSpaceOnUse"><stop stop-color="#737373" stop-opacity=".01"/><stop offset="1" stop-color="#3F3F3F"/></linearGradient><linearGradient id="paint1_linear" x1="611.911" y1="-73.927" x2="84.16" y2="-318.176" gradientUnits="userSpaceOnUse"><stop stop-color="#737373" stop-opacity=".01"/><stop offset="1" stop-color="#3F3F3F"/></linearGradient><linearGradient id="paint2_linear" x1="592.15" y1="-64.796" x2="80.774" y2="-301.097" gradientUnits="userSpaceOnUse"><stop stop-color="#737373" stop-opacity=".01"/><stop offset="1" stop-color="#3F3F3F"/></linearGradient><linearGradient id="paint3_linear" x1="574.183" y1="-58.453" x2="81.341" y2="-286.514" gradientUnits="userSpaceOnUse"><stop stop-color="#737373" stop-opacity=".01"/><stop offset="1" stop-color="#3F3F3F"/></linearGradient><linearGradient id="paint4_linear" x1="555.721" y1="-49.665" x2="80.519" y2="-269.477" gradientUnits="userSpaceOnUse"><stop stop-color="#737373" stop-opacity=".01"/><stop offset="1" stop-color="#3F3F3F"/></linearGradient><linearGradient id="paint5_linear" x1="536.156" y1="-40.567" x2="78.611" y2="-252.199" gradientUnits="userSpaceOnUse"><stop stop-color="#737373" stop-opacity=".01"/><stop offset="1" stop-color="#3F3F3F"/></linearGradient><linearGradient id="paint6_linear" x1="517.049" y1="-32.441" x2="76.318" y2="-236.095" gradientUnits="userSpaceOnUse"><stop stop-color="#737373" stop-opacity=".01"/><stop offset="1" stop-color="#3F3F3F"/></linearGradient><linearGradient id="paint7_linear" x1="499.378" y1="-25.434" x2="77.164" y2="-220.778" gradientUnits="userSpaceOnUse"><stop stop-color="#737373" stop-opacity=".01"/><stop offset="1" stop-color="#3F3F3F"/></linearGradient><linearGradient id="paint8_linear" x1="480.847" y1="-16.792" x2="76.29" y2="-203.956" gradientUnits="userSpaceOnUse"><stop stop-color="#737373" stop-opacity=".01"/><stop offset="1" stop-color="#3F3F3F"/></linearGradient><linearGradient id="paint9_linear" x1="461.123" y1="-8.066" x2="74.206" y2="-186.982" gradientUnits="userSpaceOnUse"><stop stop-color="#737373" stop-opacity=".01"/><stop offset="1" stop-color="#3F3F3F"/></linearGradient><linearGradient id="paint10_linear" x1="443.948" y1="-1.142" x2="73.878" y2="-172.218" gradientUnits="userSpaceOnUse"><stop stop-color="#737373" stop-opacity=".01"/><stop offset="1" stop-color="#3F3F3F"/></linearGradient><linearGradient id="paint11_linear" x1="424.741" y1="7.357" x2="72.312" y2="-155.47" gradientUnits="userSpaceOnUse"><stop stop-color="#737373" stop-opacity=".01"/><stop offset="1" stop-color="#3F3F3F"/></linearGradient><linearGradient id="paint12_linear" x1="405.898" y1="14.527" x2="72.019" y2="-140.129" gradientUnits="userSpaceOnUse"><stop stop-color="#737373" stop-opacity=".01"/><stop offset="1" stop-color="#3F3F3F"/></linearGradient><linearGradient id="paint13_linear" x1="387.885" y1="22.942" x2="71.663" y2="-123.535" gradientUnits="userSpaceOnUse"><stop stop-color="#737373" stop-opacity=".01"/><stop offset="1" stop-color="#3F3F3F"/></linearGradient><linearGradient id="paint14_linear" x1="368.329" y1="31.441" x2="68.904" y2="-106.988" gradientUnits="userSpaceOnUse"><stop stop-color="#737373" stop-opacity=".01"/><stop offset="1" stop-color="#3F3F3F"/></linearGradient><linearGradient id="paint15_linear" x1="349.661" y1="39.793" x2="67.926" y2="-90.596" gradientUnits="userSpaceOnUse"><stop stop-color="#737373" stop-opacity=".01"/><stop offset="1" stop-color="#3F3F3F"/></linearGradient><linearGradient id="paint16_linear" x1="331.261" y1="47.318" x2="67.167" y2="-74.822" gradientUnits="userSpaceOnUse"><stop stop-color="#737373" stop-opacity=".01"/><stop offset="1" stop-color="#3F3F3F"/></linearGradient><linearGradient id="paint17_linear" x1="312.419" y1="55.557" x2="66.403" y2="-58.303" gradientUnits="userSpaceOnUse"><stop stop-color="#737373" stop-opacity=".01"/><stop offset="1" stop-color="#3F3F3F"/></linearGradient><linearGradient id="paint18_linear" x1="293.555" y1="63.942" x2="63.948" y2="-42.11" gradientUnits="userSpaceOnUse"><stop stop-color="#737373" stop-opacity=".01"/><stop offset="1" stop-color="#3F3F3F"/></linearGradient><linearGradient id="paint19_linear" x1="274.691" y1="71.031" x2="63.584" y2="-26.641" gradientUnits="userSpaceOnUse"><stop stop-color="#737373" stop-opacity=".01"/><stop offset="1" stop-color="#3F3F3F"/></linearGradient><linearGradient id="paint20_linear" x1="256.16" y1="79.673" x2="62.71" y2="-9.819" gradientUnits="userSpaceOnUse"><stop stop-color="#737373" stop-opacity=".01"/><stop offset="1" stop-color="#3F3F3F"/></linearGradient><linearGradient id="paint21_linear" x1="237.698" y1="88.462" x2="61.889" y2="7.218" gradientUnits="userSpaceOnUse"><stop stop-color="#737373" stop-opacity=".01"/><stop offset="1" stop-color="#3F3F3F"/></linearGradient><linearGradient id="paint22_linear" x1="219.944" y1="96.876" x2="60.982" y2="23.472" gradientUnits="userSpaceOnUse"><stop stop-color="#737373" stop-opacity=".01"/><stop offset="1" stop-color="#3F3F3F"/></linearGradient><linearGradient id="paint23_linear" x1="200.858" y1="104.856" x2="60.379" y2="39.901" gradientUnits="userSpaceOnUse"><stop stop-color="#737373" stop-opacity=".01"/><stop offset="1" stop-color="#3F3F3F"/></linearGradient><linearGradient id="paint24_linear" x1="181.872" y1="112.464" x2="59.05" y2="55.688" gradientUnits="userSpaceOnUse"><stop stop-color="#737373" stop-opacity=".01"/><stop offset="1" stop-color="#3F3F3F"/></linearGradient><linearGradient id="paint25_linear" x1="163.716" y1="119.18" x2="58.6" y2="70.376" gradientUnits="userSpaceOnUse"><stop stop-color="#737373" stop-opacity=".01"/><stop offset="1" stop-color="#3F3F3F"/></linearGradient><linearGradient id="paint26_linear" x1="146.486" y1="128.775" x2="58.201" y2="87.879" gradientUnits="userSpaceOnUse"><stop stop-color="#737373" stop-opacity=".01"/><stop offset="1" stop-color="#3F3F3F"/></linearGradient><linearGradient id="paint27_linear" x1="126.692" y1="137.355" x2="56.065" y2="104.638" gradientUnits="userSpaceOnUse"><stop stop-color="#737373" stop-opacity=".01"/><stop offset="1" stop-color="#3F3F3F"/></linearGradient><linearGradient id="paint28_linear" x1="107.834" y1="145.853" x2="55.69" y2="121.587" gradientUnits="userSpaceOnUse"><stop stop-color="#737373" stop-opacity=".01"/><stop offset="1" stop-color="#3F3F3F"/></linearGradient><linearGradient id="paint29_linear" x1="88.393" y1="152.425" x2="53.905" y2="136.339" gradientUnits="userSpaceOnUse"><stop stop-color="#737373" stop-opacity=".01"/><stop offset="1" stop-color="#3F3F3F"/></linearGradient><linearGradient id="paint30_linear" x1="70.707" y1="160.985" x2="53.05" y2="152.806" gradientUnits="userSpaceOnUse"><stop stop-color="#737373" stop-opacity=".01"/><stop offset="1" stop-color="#3F3F3F"/></linearGradient></defs></svg>