<svg width="578" height="1179" viewBox="0 0 578 1179" fill="none" xmlns="http://www.w3.org/2000/svg">
<g opacity="0.05">
<path fill-rule="evenodd" clip-rule="evenodd" d="M1281.57 243.723C1263.45 204.749 1234.05 165.133 1193.59 125.379C1167.08 99.2893 1130.56 67.1599 1082.89 49.8435C1053.52 39.1643 1021.63 34.6399 985.954 30.2305C927.834 23.0421 868.759 16.5197 810.367 10.916C769.227 6.9429 732.183 4.00325 695.22 7.99934C596.589 18.6785 518.295 76.7597 442.568 132.935C372.301 185.045 299.658 238.946 209.49 257.227C196.905 259.776 183.938 261.613 171.38 263.405C147.576 266.781 122.979 270.294 100.894 278.677C16.3769 310.807 -8.54707 405.541 16.1858 478.573C38.2706 543.636 89.6473 598.755 139.386 652.082C147.002 660.235 154.619 668.411 162.099 676.564C229.336 749.94 269.302 813.212 260.975 901.723C252.294 993.679 366.404 1053.6 415.87 1075.12C497.521 1110.62 589.3 1125.14 678.076 1139.19L820.604 1161.72C868.869 1169.37 923.576 1178 974.706 1168.57C1057.89 1153.2 1116.69 1093.6 1151.39 1046.34C1196.02 985.503 1225.8 915.939 1237.51 845.157C1245.02 799.593 1245.32 752.604 1245.65 707.154C1245.95 658.42 1246.28 608.033 1255.5 559.046C1260.72 531.326 1268.88 503.4 1276.77 476.392C1292.6 422.215 1308.98 366.201 1301.64 310.485C1298.74 288.507 1292.06 266.206 1281.57 243.723ZM19.5435 505.581C15.6944 497.291 12.2547 488.839 9.33373 480.204C-16.2454 404.738 9.93432 306.673 97.9734 273.211C120.877 264.507 145.938 260.947 170.179 257.479C182.627 255.711 195.458 253.874 207.824 251.37C296.246 233.48 368.233 180.061 437.873 128.41C514.364 71.6612 593.504 12.96 694.319 2.05112C732.046 -2.0598 769.582 0.948752 811.213 4.94484C869.633 10.5715 928.79 17.0939 986.991 24.2822C1023.16 28.7836 1055.59 33.3768 1085.73 44.3086C1134.71 62.1303 1172 94.9028 1199.02 121.452C1263.75 185.113 1300.66 248.5 1308.74 309.819C1316.24 366.591 1299.7 423.133 1283.7 477.816C1275.84 504.709 1267.71 532.521 1262.55 559.988C1253.43 608.515 1253.1 658.696 1252.77 707.2C1252.47 752.834 1252.17 800.029 1244.56 845.984C1232.74 917.592 1202.6 987.96 1157.45 1049.46C1122.04 1097.76 1061.84 1158.6 976.235 1174.42C923.685 1184.14 868.213 1175.36 819.294 1167.62L676.766 1145.09C587.471 1130.95 495.173 1116.36 412.594 1080.44C361.872 1058.37 244.869 996.779 253.85 901.24C262.013 814.658 222.62 752.489 156.448 680.238C148.968 672.085 141.379 663.932 133.79 655.779C90.1659 609.02 45.2592 560.861 19.5435 505.581Z" fill="url(#paint0_linear)"/>
<path fill-rule="evenodd" clip-rule="evenodd" d="M1267.3 253.907C1249.64 215.928 1221.02 177.352 1181.6 138.592C1155.81 113.189 1120.24 81.8643 1073.85 64.9973C1045.25 54.6018 1014.2 50.1957 979.474 45.9044C922.748 38.8593 865.232 32.5485 808.533 27.0868C768.489 23.2315 732.425 20.34 696.443 24.2412C600.382 34.6597 524.166 91.2271 450.457 145.959C382.037 196.743 311.3 249.249 223.498 267.034C211.259 269.535 198.638 271.325 186.426 273.069C163.256 276.373 139.322 279.77 117.815 287.939C35.5196 319.264 11.259 411.539 35.3561 482.678C56.7817 546.061 106.857 599.783 155.269 651.692C162.683 659.678 170.098 667.641 177.403 675.581C242.825 747.111 281.778 808.727 273.655 894.943C265.205 984.487 376.285 1042.91 424.452 1063.86C503.967 1098.47 593.322 1112.61 679.706 1126.28L818.51 1148.27C865.477 1155.68 918.714 1164.13 968.516 1154.92C1049.5 1139.96 1106.75 1081.9 1140.55 1035.85C1183.97 976.593 1212.98 908.827 1224.37 839.844C1231.7 795.44 1232 749.681 1232.3 705.391C1232.6 657.911 1232.93 608.825 1241.9 561.092C1247 534.082 1254.93 506.866 1262.61 480.567C1278.04 427.786 1293.99 373.215 1286.82 318.942C1283.99 297.509 1277.47 275.823 1267.3 253.907ZM38.5999 509C34.8381 500.922 31.5125 492.706 28.6776 484.284C3.76275 410.758 29.25 315.225 114.953 282.615C137.25 274.124 161.647 270.659 185.254 267.286C197.384 265.565 209.869 263.798 221.89 261.365C308.001 243.902 378.085 191.878 445.878 141.553C520.35 86.2702 597.384 29.0832 695.544 18.4352C732.316 14.4422 768.843 17.3567 809.323 21.2808C866.104 26.7425 923.702 33.0762 980.51 40.1213C1015.73 44.4815 1047.24 48.9564 1076.6 59.6273C1124.3 76.9762 1160.61 108.92 1186.92 134.783C1249.91 196.812 1285.87 258.543 1293.74 318.3C1301 373.582 1284.91 428.681 1269.35 481.967C1261.71 508.173 1253.81 535.229 1248.74 562.01C1239.88 609.306 1239.55 658.186 1239.25 705.437C1238.95 749.887 1238.63 795.875 1231.24 840.647C1219.71 910.41 1190.41 978.957 1146.44 1038.92C1111.98 1085.92 1053.35 1145.22 970.015 1160.61C918.823 1170.09 864.823 1161.53 817.201 1154.01L678.425 1132.04C591.523 1118.3 501.704 1104.05 421.263 1069.07C371.869 1047.57 257.954 987.539 266.731 894.484C274.664 810.149 236.337 749.566 171.87 679.184C164.591 671.221 157.204 663.258 149.79 655.318C107.347 609.765 63.6237 562.859 38.5999 509Z" fill="url(#paint1_linear)"/>
<path fill-rule="evenodd" clip-rule="evenodd" d="M1255.95 261.799C1238.73 224.772 1210.79 187.17 1172.38 149.408C1147.22 124.639 1112.52 94.1077 1067.29 77.6714C1039.43 67.5479 1009.15 63.2552 975.261 59.0543C920.014 52.2135 863.948 46.0614 808.564 40.7127C769.495 36.9479 734.3 34.1473 699.242 37.958C605.58 48.0815 531.262 103.244 459.372 156.593C392.639 206.086 323.668 257.254 238.055 274.609C226.105 277.019 213.773 278.787 201.851 280.462C179.288 283.699 155.934 287.028 134.981 294.97C54.7149 325.479 31.0607 415.442 54.5239 484.769C75.4497 546.565 124.286 598.905 171.485 649.545C178.742 657.304 185.945 665.04 193.066 672.799C256.88 742.47 294.857 802.568 286.945 886.609C278.733 973.909 387.046 1030.84 433.999 1051.25C511.509 1084.95 598.678 1098.74 682.927 1112.1L818.276 1133.52C864.084 1140.75 916.003 1148.95 964.566 1139.99C1043.55 1125.39 1099.4 1068.81 1132.33 1023.93C1174.7 966.173 1202.99 900.13 1214.07 832.915C1221.24 789.621 1221.52 745.018 1221.82 701.861C1222.12 655.582 1222.42 607.72 1231.17 561.211C1236.11 534.881 1243.89 508.367 1251.39 482.725C1266.42 431.259 1281.95 378.07 1274.99 325.18C1272.23 304.313 1265.88 283.148 1255.95 261.799ZM57.7159 510.433C54.06 502.559 50.8134 494.548 48.0306 486.352C23.7489 414.685 48.5762 321.576 132.198 289.782C153.915 281.518 177.705 278.121 200.732 274.861C212.545 273.185 224.741 271.441 236.472 269.053C320.421 252.043 388.792 201.334 454.871 152.3C527.524 98.4004 602.661 42.6639 698.369 32.2879C734.191 28.4084 769.822 31.2549 809.328 35.0655C864.766 40.3913 920.941 46.5664 976.271 53.4072C1010.62 57.6769 1041.37 62.0385 1069.99 72.4375C1116.5 89.3329 1151.92 120.461 1177.54 145.689C1239 206.155 1274.03 266.322 1281.73 324.56C1288.82 378.46 1273.13 432.154 1257.94 484.08C1250.49 509.607 1242.8 536.006 1237.88 562.106C1229.21 608.202 1228.88 655.812 1228.58 701.907C1228.28 745.247 1228.01 790.034 1220.78 833.673C1209.57 901.668 1180.95 968.492 1138.11 1026.91C1104.44 1072.76 1047.31 1130.56 966.04 1145.55C916.112 1154.78 863.457 1146.44 817.021 1139.1L681.672 1117.68C596.932 1104.28 509.3 1090.41 430.889 1056.3C382.735 1035.36 271.64 976.825 280.179 886.15C287.928 803.945 250.523 744.903 187.691 676.288L190.365 674.544L187.691 676.288C180.597 668.552 173.367 660.816 166.165 653.034C124.75 608.638 82.134 562.933 57.7159 510.433Z" fill="url(#paint2_linear)"/>
<path fill-rule="evenodd" clip-rule="evenodd" d="M1241.61 269.95C1224.87 233.855 1197.67 197.186 1160.31 160.356C1135.79 136.216 1102.05 106.444 1058.01 90.3971C1030.84 80.5344 1001.36 76.3502 968.412 72.2579C914.737 65.5908 860.136 59.5904 806.161 54.3716C768.142 50.6932 733.886 47.9574 699.74 51.6588C608.591 61.5675 536.235 115.341 466.251 167.345C401.312 215.624 334.165 265.536 250.844 282.433C239.198 284.801 227.198 286.526 215.579 288.158C193.624 291.308 170.905 294.549 150.504 302.32C72.3928 332.069 49.3467 419.776 72.2292 487.39C92.5753 547.647 140.113 598.685 186.042 648.045C193.106 655.609 200.115 663.172 207.042 670.759C269.172 738.718 306.127 797.274 298.409 879.233C290.418 964.389 395.885 1019.86 441.568 1039.77C517.034 1072.67 601.855 1086.12 683.894 1099.11L815.625 1120.01C860.217 1127.07 910.728 1135.07 958.02 1126.33C1034.88 1112.1 1089.23 1056.9 1121.31 1013.13C1162.55 956.825 1190.04 892.407 1200.86 826.862C1207.82 784.675 1208.09 741.155 1208.39 699.083C1208.69 653.953 1208.99 607.283 1217.5 561.924C1222.33 536.267 1229.86 510.38 1237.17 485.39C1251.81 435.226 1266.95 383.337 1260.16 331.77C1257.48 311.401 1251.27 290.779 1241.61 269.95ZM75.3112 512.426C71.7383 504.725 68.5746 496.931 65.8745 488.907C42.2283 419.04 66.42 328.253 147.804 297.239C168.941 289.192 192.124 285.882 214.488 282.686C225.998 281.054 237.889 279.353 249.289 277.031C331.028 260.455 397.548 211.003 461.914 163.184C532.607 110.605 605.728 56.2797 698.922 46.1641C733.777 42.3707 768.442 45.1295 806.925 48.8539C860.954 54.0727 915.61 60.0961 969.394 66.7632C1002.8 70.9014 1032.75 75.1546 1060.6 85.3162C1105.87 101.8 1140.34 132.147 1165.3 156.746C1225.11 215.67 1259.23 274.364 1266.7 331.172C1273.63 383.728 1258.33 436.076 1243.57 486.723C1236.32 511.622 1228.79 537.37 1224.02 562.798C1215.59 607.72 1215.27 654.183 1214.96 699.106C1214.72 741.362 1214.42 785.043 1207.38 827.62C1196.45 893.947 1168.6 959.101 1126.9 1016.05C1094.17 1060.74 1038.53 1117.11 959.411 1131.73C910.837 1140.75 859.59 1132.61 814.398 1125.46L682.667 1104.58C600.164 1091.5 514.879 1077.96 438.541 1044.72C391.657 1024.3 283.518 967.239 291.836 878.773C299.391 798.607 262.981 741.04 201.833 674.139C194.933 666.598 187.896 659.057 180.86 651.493C140.55 608.203 99.0664 563.602 75.3112 512.426Z" fill="url(#paint3_linear)"/>
<path fill-rule="evenodd" clip-rule="evenodd" d="M1231.74 280.114C1215.42 245.013 1188.97 209.384 1152.58 173.571C1128.72 150.094 1095.82 121.15 1052.94 105.575C1026.48 95.9498 997.792 91.9068 965.688 87.9098C913.493 81.4547 860.342 75.5969 807.655 70.5202C770.638 66.9596 737.306 64.2949 704.028 67.9014C615.252 77.5266 544.794 129.81 476.656 180.371C413.404 227.302 347.996 275.818 266.864 292.266C255.535 294.54 243.851 296.217 232.522 297.825C211.12 300.88 189.008 304.027 169.161 311.585C93.0794 340.506 70.6398 425.777 92.9156 491.522C112.735 550.1 159.034 599.742 203.776 647.707C210.628 655.08 217.48 662.408 224.223 669.759C284.718 735.826 320.697 792.796 313.218 872.461C305.383 955.228 408.108 1009.19 452.606 1028.55C526.122 1060.51 608.701 1073.6 688.604 1086.21L816.882 1106.52C860.314 1113.39 909.534 1121.18 955.56 1112.68C1030.41 1098.85 1083.32 1045.21 1114.58 1002.64C1154.73 947.9 1181.51 885.28 1192.08 821.533C1198.85 780.529 1199.12 738.215 1199.39 697.325C1199.67 653.426 1199.99 608.08 1208.29 563.975C1212.99 539.027 1220.33 513.874 1227.43 489.57C1241.68 440.801 1256.39 390.355 1249.81 340.208C1247.19 320.406 1241.16 300.352 1231.74 280.114ZM95.9185 515.849C92.4515 508.383 89.3667 500.757 86.746 492.992C63.7058 425.065 87.2647 336.785 166.513 306.646C187.097 298.813 209.646 295.597 231.457 292.495C242.65 290.91 254.225 289.256 265.363 287.005C344.966 270.879 409.746 222.799 472.397 176.305C541.272 125.216 612.468 72.3809 703.237 62.549C737.196 58.8735 770.938 61.5382 808.392 65.1678C861.133 70.2445 914.366 76.1023 966.616 82.5803C999.156 86.6003 1028.31 90.7352 1055.47 100.613C1099.56 116.647 1133.14 146.143 1157.44 170.056C1215.69 227.371 1248.91 284.409 1256.2 339.633C1262.95 390.722 1248.07 441.628 1233.65 490.856C1226.61 515.068 1219.27 540.084 1214.63 564.825C1206.38 608.494 1206.11 653.656 1205.84 697.348C1205.54 738.445 1205.26 780.896 1198.41 822.291C1187.79 886.773 1160.66 950.106 1120.04 1005.49C1088.15 1048.93 1033.99 1103.72 956.952 1117.94C909.616 1126.69 859.714 1118.79 815.708 1111.85L687.403 1091.54C607.063 1078.82 523.992 1065.68 449.657 1033.35C404.014 1013.48 298.695 957.985 306.802 872.025C314.146 794.105 278.712 738.123 219.146 673.067C212.403 665.739 205.578 658.388 198.726 651.037C159.47 608.953 119.068 565.606 95.9185 515.849Z" fill="url(#paint4_linear)"/>
<path fill-rule="evenodd" clip-rule="evenodd" d="M1217.45 288.011C1201.57 253.886 1175.86 219.209 1140.47 184.394C1117.27 161.552 1085.31 133.402 1043.64 118.258C1017.96 108.928 990.043 104.953 958.85 101.092C908.145 94.7958 856.457 89.1197 805.26 84.1791C769.291 80.7091 736.897 78.1124 704.531 81.6283C618.239 90.9811 549.767 141.836 483.533 190.99C422.075 236.651 358.516 283.828 279.647 299.822C268.621 302.051 257.269 303.683 246.298 305.246C225.503 308.187 203.97 311.266 184.676 318.62C110.746 346.747 88.9141 429.682 110.555 493.612C129.85 550.556 174.824 598.814 218.298 645.509C224.984 652.679 231.643 659.826 238.193 666.972C297.003 731.224 331.99 786.606 324.676 864.094C317.116 944.569 416.917 997.056 460.173 1015.92C531.619 1046.99 611.907 1059.72 689.521 1071.99L814.238 1091.76C856.429 1098.44 904.215 1106 948.998 1097.73C1021.75 1084.29 1073.2 1032.12 1103.54 990.713C1142.6 937.469 1168.63 876.549 1178.87 814.572C1185.44 774.679 1185.74 733.545 1185.99 693.744C1186.26 651.093 1186.56 606.972 1194.61 564.091C1199.17 539.802 1206.32 515.374 1213.25 491.705C1227.09 444.274 1241.42 395.235 1235 346.472C1232.46 327.214 1226.6 307.705 1217.45 288.011ZM113.503 517.281C110.119 510.02 107.117 502.62 104.579 495.037C82.2007 428.969 105.097 343.117 182.111 313.817C202.142 306.211 224.056 303.063 245.261 300.052C256.122 298.513 267.393 296.904 278.173 294.721C355.541 279.026 418.528 232.262 479.412 187.06C546.356 137.355 615.564 85.9715 703.74 76.4119C736.788 72.827 769.591 75.4467 805.969 78.9627C857.248 83.9033 908.991 89.6024 959.778 95.8988C991.408 99.8054 1019.76 103.827 1046.12 113.433C1088.97 129.013 1121.58 157.715 1145.22 180.97C1201.84 236.697 1234.13 292.193 1241.2 345.897C1247.72 395.58 1233.28 445.078 1219.28 492.968C1212.41 516.5 1205.31 540.859 1200.81 564.919C1192.81 607.385 1192.51 651.323 1192.24 693.767C1191.96 733.729 1191.72 775.047 1185.06 815.307C1174.72 877.997 1148.35 939.583 1108.87 993.471C1077.89 1035.73 1025.22 1089.02 950.336 1102.88C904.324 1111.38 855.856 1103.68 813.065 1096.9L688.375 1077.19C610.297 1064.82 529.545 1052.02 457.307 1020.59C412.933 1001.26 310.594 947.281 318.454 863.68C325.604 787.892 291.163 733.453 233.253 670.189L235.736 668.604L233.253 670.189C226.703 663.043 220.072 655.919 213.386 648.749C175.261 607.822 135.99 565.677 113.503 517.281Z" fill="url(#paint5_linear)"/>
<path fill-rule="evenodd" clip-rule="evenodd" d="M1204.61 298.175C1189.22 265.044 1164.24 231.407 1129.86 197.587C1107.36 175.43 1076.31 148.131 1035.83 133.413C1010.89 124.344 983.802 120.51 953.494 116.767C904.143 110.637 853.947 105.104 804.351 100.328C769.405 96.9527 737.951 94.4501 706.523 97.8481C622.745 106.917 556.235 156.282 491.935 204.016C432.245 248.306 370.51 294.111 293.933 309.655C283.239 311.813 272.218 313.375 261.551 314.89C241.337 317.783 220.44 320.745 201.725 327.862C129.896 355.162 108.753 435.683 129.759 497.721C148.501 553.009 192.15 599.871 234.38 645.171C240.846 652.128 247.311 659.039 253.695 665.996C310.765 728.355 344.757 782.128 337.664 857.322C330.326 935.455 427.226 986.381 469.238 1004.68C538.612 1034.83 616.58 1047.2 691.956 1059.12L813.026 1078.27C854.029 1084.76 900.488 1092.14 943.918 1084.1C1014.57 1071.03 1064.53 1020.41 1094.02 980.228C1131.91 928.544 1157.22 869.422 1167.15 809.267C1173.54 770.533 1173.81 730.605 1174.06 692.01C1174.36 650.567 1174.6 607.769 1182.46 566.119C1186.88 542.562 1193.81 518.844 1200.52 495.884C1213.97 449.849 1227.88 402.23 1221.63 354.909C1219.18 336.22 1213.48 317.278 1204.61 298.175ZM132.597 520.681C129.296 513.632 126.404 506.469 123.921 499.122C102.206 434.994 124.412 351.672 199.216 323.224C218.667 315.831 239.973 312.8 260.542 309.862C271.1 308.346 282.039 306.785 292.515 304.673C367.645 289.45 428.781 244.081 487.925 200.181C552.907 151.942 620.126 102.073 705.76 92.7968C737.869 89.3298 769.705 91.8554 805.061 95.2765C854.711 100.052 904.962 105.586 954.367 111.693C985.112 115.504 1012.64 119.431 1038.23 128.729C1079.86 143.86 1111.53 171.711 1134.47 194.28C1189.42 248.374 1220.82 302.216 1227.69 354.335C1234.02 402.574 1219.97 450.63 1206.38 497.101C1199.73 519.946 1192.83 543.572 1188.43 566.946C1180.69 608.159 1180.39 650.796 1180.14 692.032C1179.87 730.812 1179.59 770.9 1173.16 809.978C1163.12 870.823 1137.5 930.611 1099.17 982.891C1069.08 1023.92 1017.93 1075.63 945.228 1089.08C900.57 1097.32 853.483 1089.86 811.908 1083.3L690.837 1064.12C615.025 1052.12 536.621 1039.72 466.455 1009.2C423.379 990.468 323.969 938.073 331.635 856.909C338.537 783.345 305.091 730.536 248.893 669.118L251.294 667.557L248.893 669.118C242.537 662.184 236.072 655.25 229.606 648.316C192.559 608.595 154.421 567.681 132.597 520.681Z" fill="url(#paint6_linear)"/>
<path fill-rule="evenodd" clip-rule="evenodd" d="M1190.26 306.08C1175.29 273.924 1151.01 241.24 1117.64 208.417C1095.74 186.919 1065.62 160.39 1026.27 146.103C1002.04 137.306 975.717 133.562 946.278 129.933C898.379 123.984 849.632 118.632 801.378 113.993C767.46 110.708 736.847 108.274 706.316 111.581C624.908 120.401 560.323 168.314 497.84 214.665C439.836 257.662 379.866 302.153 305.449 317.197C295.072 319.31 284.34 320.849 273.99 322.319C254.355 325.121 234.037 327.993 215.849 334.906C146.075 361.435 125.512 439.575 145.939 499.845C164.154 553.522 206.564 599.024 247.582 642.986C253.863 649.739 260.171 656.468 266.343 663.221C321.835 723.79 354.824 775.975 347.942 848.992C340.814 924.812 434.948 974.31 475.775 992.042C543.173 1021.35 618.927 1033.32 692.17 1044.92L809.816 1063.54C849.632 1069.81 894.774 1076.96 936.993 1069.17C1005.62 1056.49 1054.18 1007.32 1082.8 968.315C1119.63 918.128 1144.19 860.729 1153.85 802.297C1160.08 764.72 1160.32 725.949 1160.57 688.441C1160.84 648.223 1161.14 606.672 1168.74 566.247C1173.02 543.37 1179.77 520.333 1186.27 498.03C1199.35 453.356 1212.87 407.12 1206.8 361.159C1204.43 343.014 1198.89 324.639 1190.26 306.08ZM148.697 522.124C145.502 515.28 142.689 508.32 140.258 501.2C119.176 438.931 140.75 358.013 213.419 330.404C232.316 323.238 253.017 320.275 273.007 317.427C283.275 315.98 293.871 314.464 304.057 312.397C377.053 297.605 436.477 253.551 493.935 210.921C557.073 164.111 622.396 115.669 705.578 106.666C736.792 103.289 767.706 105.747 802.033 109.054C850.37 113.717 899.198 119.092 947.152 125.018C976.974 128.716 1003.74 132.506 1028.61 141.555C1069.06 156.255 1099.81 183.289 1122.12 205.202C1175.54 257.731 1205.99 310.008 1212.65 360.631C1218.85 407.441 1205.19 454.114 1192 499.224C1185.5 521.412 1178.81 544.358 1174.55 567.028C1166.99 607.063 1166.74 648.452 1166.47 688.464C1166.22 726.133 1165.95 765.065 1159.7 803.009C1149.92 862.084 1125.07 920.149 1087.82 970.91C1058.6 1010.74 1008.9 1060.95 938.222 1074.02C894.856 1082.01 849.114 1074.77 808.724 1068.37L691.077 1049.78C617.398 1038.14 541.207 1026.08 473.071 996.452C431.207 978.26 334.643 927.431 342.071 848.579C348.816 777.169 316.318 725.857 261.673 666.253L264.022 664.737L261.673 666.253C255.502 659.523 249.248 652.793 242.967 646.063C206.974 607.476 169.916 567.763 148.697 522.124Z" fill="url(#paint7_linear)"/>
<path fill-rule="evenodd" clip-rule="evenodd" d="M1177.41 314.236C1162.91 282.989 1139.36 251.259 1107.01 219.368C1085.82 198.476 1056.56 172.706 1018.48 158.831C994.971 150.295 969.447 146.659 940.919 143.116C894.402 137.363 847.148 132.14 800.439 127.63C767.489 124.455 737.815 122.085 708.333 125.307C629.411 133.866 566.788 180.414 506.211 225.42C450.003 267.205 391.883 310.393 319.732 325.05C309.659 327.098 299.285 328.57 289.212 330.02C270.212 332.712 250.53 335.519 232.867 342.238C165.248 368.008 145.32 443.939 165.111 502.451C182.746 554.613 223.859 598.768 263.633 641.496C269.721 648.054 275.836 654.589 281.814 661.169C335.62 719.981 367.587 770.67 360.926 841.608C353.993 915.329 445.28 963.35 484.836 980.584C550.163 1009.07 623.597 1020.69 694.601 1031.94L808.629 1050.03C847.257 1056.15 891.017 1063.05 931.911 1055.48C998.438 1043.17 1045.5 995.425 1073.26 957.528C1108.94 908.772 1132.78 853.043 1142.14 796.302C1148.17 759.764 1148.42 722.098 1148.64 685.674C1148.91 646.627 1149.18 606.223 1156.53 566.969C1160.73 544.742 1167.25 522.354 1173.56 500.726C1186.23 457.284 1199.36 412.393 1193.46 367.755C1191.14 350.13 1185.79 332.252 1177.41 314.236ZM167.787 524.126C164.702 517.476 161.945 510.688 159.624 503.763C139.15 443.271 160.088 364.695 230.52 337.866C248.837 330.894 268.874 328.018 288.284 325.257C298.221 323.83 308.513 322.381 318.395 320.379C389.154 306.021 446.727 263.201 502.444 221.807C563.648 176.318 626.954 129.264 707.596 120.52C737.761 117.253 767.762 119.646 801.094 122.844C847.857 127.354 895.166 132.577 941.738 138.353C970.703 141.942 996.609 145.624 1020.74 154.413C1059.92 168.679 1089.75 194.932 1111.35 216.239C1163.13 267.25 1192.67 318.032 1199.14 367.226C1205.15 412.715 1191.91 458.043 1179.1 501.876C1172.82 523.413 1166.33 545.708 1162.18 567.728C1154.89 606.614 1154.62 646.834 1154.34 685.697C1154.1 722.281 1153.88 760.086 1147.79 796.947C1138.32 854.332 1114.24 910.75 1078.1 960.059C1049.76 998.761 1001.63 1047.52 933.139 1060.2C891.099 1067.97 846.738 1060.95 807.591 1054.74L693.537 1036.68C622.15 1025.36 548.306 1013.65 482.216 984.863C441.649 967.169 348.041 917.791 355.221 841.239C361.773 771.844 330.242 722.005 277.31 664.114C271.304 657.533 265.216 650.999 259.129 644.464C224.268 607.005 188.37 568.419 167.787 524.126Z" fill="url(#paint8_linear)"/>
<path fill-rule="evenodd" clip-rule="evenodd" d="M1166.1 325.673C1152.05 295.421 1129.26 264.708 1097.94 233.858C1077.41 213.628 1049.09 188.686 1012.17 175.261C989.434 166.985 964.71 163.467 937.066 160.042C892.038 154.456 846.274 149.422 801.056 145.077C769.182 141.996 740.446 139.698 711.847 142.801C635.437 151.077 574.773 196.134 516.128 239.72C461.686 280.156 405.388 321.972 335.528 336.133C325.785 338.11 315.716 339.558 305.973 340.938C287.553 343.558 268.505 346.271 251.422 352.777C185.928 377.719 166.634 451.19 185.791 507.833C202.847 558.292 242.689 601.074 281.222 642.43C287.144 648.797 293.011 655.119 298.823 661.441L296.64 662.866L298.823 661.441C350.891 718.383 381.892 767.463 375.425 836.107C368.711 907.439 457.101 953.922 495.416 970.634C558.699 998.174 629.815 1009.44 698.557 1020.34L808.997 1037.83C846.356 1043.74 888.736 1050.45 928.36 1043.12C992.79 1031.19 1038.36 984.979 1065.24 948.29C1099.82 901.118 1122.88 847.164 1131.97 792.245C1137.78 756.889 1138.02 720.452 1138.24 685.211C1138.52 647.372 1138.76 608.292 1145.91 570.292C1149.95 548.775 1156.28 527.12 1162.39 506.155C1174.65 464.132 1187.34 420.661 1181.66 377.466C1179.39 360.409 1174.21 343.121 1166.1 325.673ZM188.384 528.798C185.382 522.385 182.735 515.81 180.47 509.12C160.658 450.569 180.934 374.501 249.13 348.547C266.868 341.788 286.298 339.029 305.073 336.34C314.706 334.961 324.666 333.558 334.245 331.604C402.741 317.719 458.52 276.294 512.444 236.226C571.744 192.18 633.036 146.663 711.138 138.18C740.337 135.008 769.427 137.33 801.683 140.433C846.984 144.801 892.775 149.858 937.912 155.445C965.91 158.916 991.016 162.479 1014.38 170.985C1052.34 184.801 1081.23 210.226 1102.14 230.823C1152.27 280.202 1180.87 329.374 1187.14 376.937C1192.93 420.983 1180.16 464.845 1167.77 507.258C1161.68 528.132 1155.35 549.695 1151.37 571.028C1144.3 608.683 1144.03 647.579 1143.81 685.234C1143.56 720.613 1143.32 757.211 1137.42 792.865C1128.25 848.428 1104.92 903.003 1069.96 950.726C1042.51 988.174 995.874 1035.39 929.561 1047.67C888.818 1055.19 845.865 1048.38 807.96 1042.4L697.52 1024.89C628.396 1013.94 556.898 1002.61 492.878 974.749C453.581 957.646 362.926 909.83 369.912 835.716C376.243 768.59 345.734 720.36 294.457 664.292C288.645 657.97 282.75 651.648 276.856 645.303C243.071 609.028 208.305 571.695 188.384 528.798Z" fill="url(#paint9_linear)"/>
<path fill-rule="evenodd" clip-rule="evenodd" d="M1151.75 334.573C1138.12 305.337 1116.04 275.642 1085.69 245.786C1065.8 226.241 1038.37 202.127 1002.61 189.151C980.562 181.159 956.603 177.76 929.857 174.453C886.117 169.033 841.777 164.164 798.065 159.938C767.167 156.998 739.328 154.771 711.653 157.756C637.589 165.771 578.824 209.338 521.998 251.458C469.271 290.547 414.713 330.99 347.042 344.678C337.589 346.607 327.836 347.985 318.411 349.34C300.571 351.867 282.102 354.485 265.547 360.778C202.11 384.869 183.396 455.927 201.973 510.701C218.502 559.458 257.105 600.844 294.424 640.828C300.161 646.96 305.871 653.092 311.471 659.201L309.368 660.579L311.471 659.201C361.931 714.251 391.928 761.676 385.699 828.071C379.197 897.016 464.818 941.984 501.945 958.106C563.224 984.747 632.125 995.633 698.758 1006.17L805.742 1023.08C841.941 1028.8 883.003 1035.27 921.387 1028.22C983.813 1016.69 1027.96 971.978 1054.03 936.518C1087.49 890.93 1109.87 838.751 1118.64 785.653C1124.29 751.479 1124.54 716.249 1124.76 682.144C1125 645.582 1125.25 607.802 1132.16 571.056C1136.09 550.272 1142.19 529.327 1148.11 509.071C1160.03 468.443 1172.29 426.415 1166.8 384.64C1164.62 368.15 1159.59 351.43 1151.75 334.573ZM204.487 530.957C201.591 524.756 199.023 518.395 196.81 511.918C177.631 455.329 197.247 381.769 263.361 356.667C280.545 350.144 299.341 347.48 317.509 344.885C326.852 343.576 336.524 342.198 345.785 340.315C412.172 326.879 466.211 286.826 518.447 248.082C575.9 205.503 635.294 161.477 710.942 153.301C739.246 150.246 767.413 152.474 798.667 155.482C842.46 159.685 886.855 164.577 930.622 169.997C957.777 173.35 982.092 176.795 1004.71 185.017C1041.51 198.36 1069.49 222.957 1089.76 242.869C1138.36 290.593 1166.04 338.156 1172.13 384.134C1177.73 426.714 1165.33 469.132 1153.33 510.15C1147.43 530.314 1141.31 551.168 1137.46 571.768C1130.6 608.17 1130.36 645.788 1130.11 682.167C1129.87 716.387 1129.65 751.8 1123.94 786.25C1115.06 839.968 1092.44 892.744 1058.56 938.883C1031.98 975.101 986.791 1020.73 922.535 1032.61C883.085 1039.87 841.477 1033.3 804.759 1027.49L697.774 1010.58C630.759 999.997 561.475 989.065 499.487 962.125C461.403 945.567 373.597 899.359 380.345 827.704C386.464 762.778 356.904 716.157 307.237 661.957C301.636 655.848 295.926 649.716 290.216 643.607C257.487 608.537 223.775 572.434 204.487 530.957Z" fill="url(#paint10_linear)"/>
<path fill-rule="evenodd" clip-rule="evenodd" d="M1138.95 343.74C1125.84 315.457 1104.52 286.737 1075.23 257.902C1056.04 238.97 1029.56 215.672 995.068 203.104C973.8 195.361 950.705 192.076 924.857 188.882C882.702 183.643 839.894 178.933 797.713 174.867C767.938 171.995 741.08 169.858 714.359 172.753C642.92 180.519 586.233 222.634 531.4 263.37C480.521 301.166 427.869 340.271 362.593 353.528C353.486 355.366 344.106 356.699 334.999 358.008C317.767 360.467 299.962 362.994 283.984 369.083C222.743 392.38 204.72 461.101 222.634 514.061C238.585 561.231 275.804 601.232 311.823 639.9C317.331 645.828 322.866 651.756 328.292 657.684L326.247 659.016L328.292 657.684C376.962 710.896 405.92 756.802 399.894 820.974C393.622 887.673 476.24 931.144 512.041 946.745C571.182 972.501 637.658 983.024 701.925 993.225L805.156 1009.56C840.085 1015.12 879.676 1021.39 916.731 1014.52C976.963 1003.4 1019.55 960.163 1044.67 925.882C1077 881.768 1098.54 831.313 1107.02 779.962C1112.45 746.922 1112.7 712.826 1112.91 679.879C1113.16 644.519 1113.4 607.964 1120.06 572.443C1123.82 552.316 1129.74 532.074 1135.46 512.476C1146.94 473.187 1158.8 432.565 1153.49 392.15C1151.39 376.228 1146.51 360.053 1138.95 343.74ZM225.061 533.659C222.252 527.64 219.798 521.505 217.671 515.256C199.13 460.527 218.08 389.393 281.857 365.131C298.435 358.812 316.594 356.216 334.154 353.712C343.152 352.425 352.45 351.092 361.366 349.277C425.442 336.296 477.576 297.558 527.965 260.107C583.398 218.935 640.685 176.36 713.677 168.433C740.998 165.469 768.156 167.629 798.312 170.547C840.548 174.614 883.384 179.347 925.647 184.585C951.823 187.825 975.272 191.157 997.113 199.106C1032.61 212.019 1059.61 235.799 1079.16 255.053C1126.03 301.234 1152.75 347.186 1158.61 391.691C1164.04 432.841 1152.04 473.876 1140.48 513.533C1134.81 533.016 1128.92 553.189 1125.16 573.109C1118.56 608.331 1118.31 644.702 1118.07 679.902C1117.88 712.987 1117.63 747.244 1112.15 780.582C1103.56 832.485 1081.75 883.538 1049.06 928.18C1023.43 963.172 979.826 1007.33 917.849 1018.8C879.758 1025.83 839.594 1019.46 804.202 1013.86L700.971 997.498C636.322 987.251 569.492 976.682 509.669 950.605C472.941 934.613 388.224 889.902 394.74 820.652C400.63 757.836 372.109 712.757 324.202 660.326C318.776 654.421 313.268 648.516 307.76 642.589C276.185 608.676 243.684 573.776 225.061 533.659Z" fill="url(#paint11_linear)"/>
<path fill-rule="evenodd" clip-rule="evenodd" d="M1126.09 353.898C1113.4 326.631 1092.78 298.906 1064.48 271.088C1045.91 252.865 1020.36 230.372 987.001 218.254C966.418 210.794 944.114 207.627 919.163 204.552C878.515 199.502 837.157 194.958 796.236 191.01C767.435 188.256 741.474 186.19 715.649 188.99C646.583 196.473 591.794 237.097 538.779 276.39C489.614 312.838 438.728 350.547 375.613 363.331C366.823 365.098 357.732 366.407 348.942 367.669C332.29 370.033 315.064 372.466 299.613 378.342C240.456 400.811 222.984 467.096 240.319 518.186C255.743 563.676 291.751 602.258 326.529 639.555C331.88 645.27 337.203 650.985 342.445 656.7C389.508 708.019 417.49 752.293 411.675 814.194C405.587 878.505 485.464 920.46 520.079 935.493C577.243 960.327 641.478 970.495 703.61 980.318L803.415 996.109C837.184 1001.41 875.485 1007.47 911.274 1000.88C969.503 990.118 1010.64 948.438 1034.94 915.365C1066.2 872.812 1087.02 824.155 1095.21 774.648C1100.51 742.745 1100.7 709.879 1100.92 678.09C1101.14 643.984 1101.38 608.731 1107.83 574.487C1111.48 555.069 1117.19 535.561 1122.73 516.648C1133.82 478.755 1145.28 439.554 1140.15 400.605C1138.1 385.227 1133.43 369.62 1126.09 353.898ZM242.667 537.075C239.964 531.269 237.562 525.37 235.515 519.334C217.607 466.522 235.924 397.919 297.565 374.509C313.59 368.426 331.143 365.925 348.096 363.515C356.804 362.275 365.813 360.99 374.439 359.246C436.353 346.714 486.747 309.349 535.476 273.223C589.037 233.516 644.426 192.456 714.994 184.813C741.392 181.967 767.681 184.056 796.809 186.856C837.758 190.803 879.17 195.348 919.873 200.397C945.179 203.519 967.865 206.732 988.994 214.398C1023.28 226.86 1049.38 249.766 1068.3 268.357C1113.59 312.883 1139.44 357.226 1145.09 400.146C1150.36 439.852 1138.76 479.398 1127.59 517.635C1122.08 536.479 1116.4 555.896 1112.77 575.129C1106.35 609.098 1106.16 644.191 1105.92 678.113C1105.7 710.039 1105.48 743.067 1100.18 775.222C1091.88 825.325 1070.81 874.534 1039.2 917.568C1014.41 951.353 972.26 993.905 912.339 1004.99C875.539 1011.78 836.72 1005.63 802.487 1000.22L702.682 984.449C640.222 974.557 575.578 964.344 517.786 939.212C482.298 923.811 400.373 880.685 406.679 813.872C412.385 753.303 384.813 709.81 338.486 659.27C333.272 653.555 327.949 647.84 322.598 642.148C292.078 609.419 260.657 575.772 242.667 537.075Z" fill="url(#paint12_linear)"/>
<path fill-rule="evenodd" clip-rule="evenodd" d="M1113.26 363.069C1101.04 336.754 1081.17 310.026 1053.89 283.183C1036.01 265.594 1011.37 243.895 979.2 232.208C959.362 224.997 937.859 221.943 913.792 218.981C874.661 214.136 834.794 209.728 795.337 205.939C767.558 203.275 742.563 201.278 717.649 203.964C651.095 211.174 598.267 250.371 547.184 288.281C499.759 323.459 450.723 359.831 389.9 372.162C381.413 373.884 372.654 375.147 364.167 376.341C348.122 378.614 331.532 380.979 316.66 386.651C259.602 408.35 242.793 472.254 259.493 521.53C274.364 565.434 309.047 602.656 342.583 638.637C347.74 644.148 352.87 649.659 357.919 655.193C403.298 704.722 430.285 747.386 424.636 807.133C418.797 869.2 495.802 909.636 529.147 924.171C584.268 948.121 646.183 957.903 706.052 967.386L802.268 982.61C834.794 987.754 871.66 993.609 906.206 987.225C962.336 976.847 1002.01 936.64 1025.42 904.722C1055.52 863.689 1075.61 816.732 1083.52 768.97C1088.62 738.201 1088.81 706.49 1089 675.813C1089.22 642.931 1089.47 608.924 1095.66 575.882C1099.18 557.168 1104.72 538.316 1110.02 520.107C1120.69 483.528 1131.76 445.709 1126.8 408.12C1124.86 393.287 1120.33 378.247 1113.26 363.069ZM261.758 539.785C259.138 534.183 256.846 528.488 254.854 522.656C237.608 471.726 255.263 405.549 314.668 382.954C330.113 377.076 347.031 374.665 363.376 372.345C371.781 371.151 380.458 369.911 388.781 368.235C448.458 356.134 497.03 320.084 543.992 285.25C595.62 246.926 648.994 207.317 717.022 199.946C742.481 197.19 767.804 199.211 795.882 201.92C835.367 205.709 875.289 210.118 914.528 214.963C938.896 217.994 960.753 221.094 981.11 228.488C1014.18 240.52 1039.34 262.609 1057.54 280.543C1101.23 323.505 1126.14 366.283 1131.6 407.684C1136.62 445.985 1125.49 484.148 1114.71 521.071C1109.39 539.211 1103.9 557.948 1100.41 576.502C1094.27 609.269 1094.05 643.092 1093.83 675.836C1093.62 706.651 1093.4 738.5 1088.29 769.521C1080.3 817.857 1059.97 865.342 1029.52 906.858C1005.61 939.441 964.983 980.521 907.242 991.175C871.742 997.742 834.33 991.818 801.34 986.583L705.179 971.382C644.955 961.852 582.685 951.979 526.937 927.754C492.719 912.851 413.749 871.267 419.834 806.812C425.346 748.396 398.768 706.422 354.126 657.65C349.077 652.139 343.947 646.651 338.817 641.117C309.401 609.59 279.112 577.099 261.758 539.785Z" fill="url(#paint13_linear)"/>
<path fill-rule="evenodd" clip-rule="evenodd" d="M1101.92 371.216C1090.12 345.811 1070.99 320.038 1044.68 294.127C1027.43 277.167 1003.64 256.204 972.677 244.951C953.578 238.002 932.812 235.056 909.614 232.18C871.934 227.509 833.516 223.274 795.344 219.593C768.594 217.015 744.467 215.082 720.449 217.683C656.265 224.655 605.332 262.463 556.067 299.051C510.381 333.016 463.083 368.109 404.418 380.006C396.221 381.663 387.805 382.859 379.608 384.033C364.143 386.242 348.158 388.52 333.786 393.974C278.782 414.892 262.579 476.608 278.673 524.15C293.018 566.514 326.463 602.436 358.814 637.16C363.76 642.499 368.733 647.814 373.597 653.13L371.766 654.327L373.597 653.13C417.343 700.925 443.355 742.116 437.918 799.759C432.289 859.658 506.501 898.686 538.716 912.677C591.834 935.827 651.537 945.261 709.273 954.42L802.011 969.101C833.434 974.072 869.01 979.71 902.263 973.566C956.392 963.556 994.646 924.758 1017.22 893.946C1046.26 854.32 1065.63 809.01 1073.23 762.918C1078.15 733.233 1078.37 702.628 1078.56 673.035C1078.75 641.302 1078.97 608.488 1084.98 576.594C1088.37 558.529 1093.67 540.35 1098.81 522.747C1109.11 487.47 1119.76 450.974 1115.01 414.707C1113.1 400.394 1108.75 385.874 1101.92 371.216ZM280.859 541.754C278.345 536.369 276.104 530.847 274.219 525.232C257.579 476.079 274.602 412.222 331.873 390.407C346.765 384.746 363.077 382.422 378.843 380.19C386.931 379.017 395.319 377.843 403.353 376.209C460.897 364.542 507.703 329.772 553.007 296.129C602.791 259.149 654.27 220.927 719.875 213.817C744.385 211.147 768.812 213.103 795.891 215.704C834.062 219.385 872.535 223.62 910.269 228.314C933.823 231.236 954.89 234.228 974.508 241.338C1006.37 252.936 1030.63 274.291 1048.2 291.596C1090.31 333.039 1114.33 374.322 1119.57 414.27C1124.46 451.25 1113.72 488.068 1103.31 523.69C1098.2 541.202 1092.9 559.312 1089.54 577.192C1083.61 608.787 1083.39 641.463 1083.18 673.058C1083.01 702.789 1082.79 733.509 1077.85 763.47C1070.14 810.092 1050.55 855.931 1021.18 896.017C998.116 927.45 958.961 967.076 903.247 977.385C869.092 983.691 832.997 977.984 801.164 972.921L708.426 958.263C650.363 949.058 590.304 939.555 536.585 916.175C503.578 901.793 427.425 861.66 433.3 799.437C438.601 743.059 412.971 702.559 369.908 655.5C365.044 650.207 360.126 644.892 355.153 639.576C326.791 609.132 297.581 577.767 280.859 541.754Z" fill="url(#paint14_linear)"/>
<path fill-rule="evenodd" clip-rule="evenodd" d="M1086.12 380.115C1074.78 355.727 1056.44 330.971 1031.19 306.078C1014.64 289.781 991.854 269.668 962.111 258.842C942.319 251.624 919.746 248.82 901.59 246.567C865.277 242.062 828.419 237.993 792.025 234.5C766.344 232.017 743.199 230.155 720.136 232.661C658.579 239.35 609.698 275.69 562.454 310.813C518.59 343.407 473.253 377.127 416.958 388.551C409.106 390.16 401.01 391.309 393.158 392.435C378.328 394.55 362.98 396.734 349.212 401.974C296.434 422.087 280.867 481.345 296.325 527.017C310.065 567.725 342.179 602.227 373.23 635.557C377.974 640.66 382.717 645.762 387.406 650.888C429.335 696.791 454.306 736.373 449.099 791.722C443.702 849.233 514.909 886.746 545.77 900.17C596.722 922.374 654.026 931.476 709.449 940.28L798.377 954.37C828.528 959.151 862.687 964.553 894.584 958.623C946.49 949.015 983.212 911.755 1004.86 882.172C1032.69 844.13 1051.28 800.618 1058.59 756.347C1063.28 727.822 1063.5 698.446 1063.69 670.012C1063.88 639.533 1064.07 608.02 1069.82 577.379C1073.07 560.025 1078.19 542.556 1083.13 525.661C1092.99 491.757 1103.22 456.727 1098.64 421.88C1096.84 408.135 1092.64 394.182 1086.12 380.115ZM298.397 543.912C295.997 538.74 293.871 533.431 292.045 528.052C276.096 480.839 292.399 419.49 347.359 398.55C361.671 393.102 377.292 390.895 392.422 388.735C400.192 387.631 408.207 386.459 415.922 384.896C471.127 373.702 516.054 340.303 559.51 307.985C607.272 272.472 656.67 235.764 719.591 228.937C743.117 226.386 766.535 228.247 792.516 230.753C828.965 234.27 865.904 238.338 902.244 242.843C920.673 245.142 943.573 247.969 963.883 255.394C994.471 266.542 1017.72 287.022 1034.57 303.641C1074.97 343.453 1098.01 383.103 1103.05 421.467C1107.74 456.98 1097.41 492.355 1087.43 526.558C1082.53 543.383 1077.48 560.761 1074.21 577.954C1068.51 608.319 1068.35 639.671 1068.13 670.035C1067.94 698.584 1067.75 728.098 1063.01 756.853C1055.62 801.652 1036.81 845.67 1008.65 884.149C986.538 914.352 948.971 952.417 895.538 962.324C862.742 968.369 828.12 962.898 797.586 958.071L708.604 943.958C652.881 935.108 595.277 925.983 543.725 903.526C512.074 889.711 439.04 851.187 444.656 791.424C449.754 737.269 425.164 698.377 383.862 653.164C379.2 648.084 374.457 642.981 369.713 637.878C342.506 608.64 314.454 578.506 298.397 543.912Z" fill="url(#paint15_linear)"/>
<path fill-rule="evenodd" clip-rule="evenodd" d="M1076.24 390.552C1065.35 367.116 1047.65 343.335 1023.31 319.416C1007.39 303.776 985.458 284.457 956.794 274.038C939.153 267.645 919.952 264.931 898.536 262.263C863.636 257.939 828.107 254.029 792.988 250.648C768.208 248.256 745.944 246.508 723.735 248.9C664.438 255.317 617.394 290.23 571.881 323.97C529.624 355.294 485.944 387.677 431.734 398.648C424.185 400.189 416.363 401.293 408.814 402.374C394.509 404.421 379.74 406.514 366.474 411.55C315.656 430.847 300.695 487.77 315.546 531.629C328.784 570.774 359.719 603.87 389.586 635.885C394.181 640.806 398.749 645.705 403.262 650.627C443.687 694.716 467.701 732.711 462.696 785.908C457.472 841.175 526.096 877.192 555.799 890.095C604.922 911.438 660.089 920.155 713.424 928.595L799.115 942.142C828.134 946.719 861.011 951.939 891.753 946.259C941.751 937.013 977.116 901.226 997.985 872.799C1024.79 836.253 1042.68 794.464 1049.71 751.915C1054.25 724.546 1054.44 696.303 1054.63 669.003C1054.82 639.702 1055.01 609.436 1060.56 580.02C1063.68 563.345 1068.61 546.556 1073.36 530.318C1082.86 497.774 1092.73 464.127 1088.27 430.663C1086.55 417.438 1082.5 404.053 1076.24 390.552ZM317.57 547.89C315.246 542.899 313.194 537.839 311.416 532.618C296.045 487.287 311.772 428.363 364.696 408.262C378.481 403.018 393.525 400.879 408.103 398.809C415.57 397.751 423.31 396.647 430.722 395.152C483.893 384.388 527.19 352.282 569.037 321.256C615.042 287.148 662.578 251.89 723.215 245.335C745.862 242.874 768.427 244.668 793.453 247.06C828.627 250.464 864.211 254.374 899.138 258.698C920.882 261.389 940.356 264.149 958.49 270.726C987.947 281.421 1010.38 301.131 1026.59 317.093C1065.49 355.34 1087.7 393.404 1092.57 430.272C1097.05 464.357 1087.1 498.326 1077.52 531.192C1072.79 547.361 1067.89 564.058 1064.78 580.572C1059.31 609.734 1059.09 639.863 1058.9 669.026C1058.73 696.441 1058.54 724.799 1054 752.421C1046.86 795.453 1028.76 837.725 1001.6 874.685C980.316 903.71 944.131 940.279 892.683 949.778C861.093 955.596 827.752 950.33 798.322 945.684L712.63 932.137C658.995 923.65 603.499 914.865 553.83 893.315C523.36 880.044 453.013 843.038 458.429 785.609C463.325 733.608 439.639 696.257 399.87 652.835C395.357 647.913 390.789 643.014 386.194 638.115C359.992 610.01 333.024 581.1 317.57 547.89Z" fill="url(#paint16_linear)"/>
<path fill-rule="evenodd" clip-rule="evenodd" d="M1061.94 398.183C1051.52 375.764 1034.63 353.001 1011.35 330.122C996.127 315.123 975.117 296.632 947.749 286.686C929.522 280.047 908.757 277.475 892.031 275.407C858.715 271.273 824.771 267.528 791.128 264.29C767.471 262.016 746.188 260.316 724.932 262.613C668.259 268.769 623.265 302.168 579.744 334.464C539.361 364.44 497.586 395.45 445.77 405.947C438.539 407.394 431.09 408.474 423.887 409.508C410.216 411.437 396.055 413.459 383.367 418.282C334.798 436.773 320.473 491.236 334.689 533.226C347.35 570.644 376.9 602.343 405.469 633.009C409.862 637.717 414.227 642.403 418.539 647.112L416.929 648.169L418.539 647.112C457.175 689.309 480.177 725.694 475.375 776.596C470.382 829.473 535.977 863.952 564.409 876.31C611.368 896.753 664.084 905.092 715.082 913.154L797.021 926.132C824.744 930.52 856.15 935.504 885.564 930.06C933.369 921.24 967.149 886.968 987.122 859.771C1012.74 824.81 1029.88 784.796 1036.59 744.07C1040.93 717.861 1041.09 690.848 1041.28 664.708C1041.48 636.684 1041.67 607.718 1046.93 579.534C1049.96 563.592 1054.63 547.513 1059.16 532.008C1068.27 500.838 1077.68 468.61 1073.48 436.59C1071.79 423.933 1067.97 411.116 1061.94 398.183ZM336.599 548.776C334.389 543.999 332.424 539.152 330.76 534.167C316.053 490.777 331.087 434.384 381.703 415.135C394.854 410.128 409.261 408.083 423.204 406.085C430.353 405.074 437.721 404.018 444.815 402.594C495.649 392.303 537.014 361.569 577.042 331.868C621 299.227 666.486 265.484 724.441 259.19C746.106 256.847 767.689 258.547 791.592 260.867C825.262 264.106 859.261 267.85 892.631 271.985C909.576 274.098 930.641 276.693 949.386 283.516C977.518 293.737 998.965 312.596 1014.49 327.871C1051.68 364.486 1072.88 400.94 1077.55 436.199C1081.83 468.84 1072.36 501.366 1063.17 532.835C1058.64 548.294 1053.97 564.281 1051 580.062C1045.73 607.971 1045.54 636.822 1045.41 664.73C1045.21 690.985 1045.02 718.113 1040.66 744.552C1033.86 785.738 1016.54 826.189 990.615 861.586C970.26 889.334 935.634 924.341 886.437 933.437C856.232 939.019 824.362 933.988 796.258 929.532L714.318 916.554C663.048 908.445 610.004 900.061 562.499 879.388C533.358 866.708 466.098 831.242 471.282 776.32C475.975 726.543 453.328 690.779 415.292 649.225C411.008 644.54 406.615 639.831 402.249 635.145C377.2 608.247 351.388 580.567 336.599 548.776Z" fill="url(#paint17_linear)"/>
<path fill-rule="evenodd" clip-rule="evenodd" d="M1049.11 407.348C1039.16 385.881 1022.99 364.093 1000.79 342.212C986.198 327.847 966.126 310.149 939.946 300.634C923.801 294.75 906.293 292.268 886.685 289.832C854.778 285.878 822.325 282.293 790.227 279.19C767.62 277.03 747.248 275.398 726.958 277.581C672.743 283.488 629.737 315.436 588.148 346.372C549.533 375.056 509.608 404.728 460.056 414.772C453.156 416.174 446.039 417.208 439.139 418.174C426.049 420.035 412.55 421.966 400.414 426.586C353.971 444.283 340.281 496.411 353.862 536.61C365.998 572.419 394.223 602.757 421.549 632.108C425.749 636.613 429.921 641.094 434.039 645.599L432.485 646.611L434.039 645.599C470.964 686.005 492.945 720.826 488.363 769.528C483.591 820.116 546.287 853.144 573.477 864.958C618.338 884.517 668.762 892.492 717.523 900.215L795.845 912.626C822.353 916.832 852.378 921.613 880.495 916.396C926.201 907.937 958.517 875.162 977.58 849.122C1002.1 815.657 1018.46 777.389 1024.9 738.385C1029.04 713.333 1029.2 687.453 1029.37 662.447C1029.53 635.624 1029.72 607.883 1034.79 580.923C1037.66 565.661 1042.13 550.285 1046.47 535.415C1055.19 505.604 1064.19 474.76 1060.13 444.1C1058.55 431.987 1054.87 419.737 1049.11 407.348ZM355.717 551.48C353.59 546.907 351.708 542.264 350.099 537.506C336.054 495.974 350.426 442.008 398.805 423.575C411.377 418.794 425.149 416.818 438.485 414.933C445.302 413.945 452.366 412.933 459.156 411.577C507.726 401.694 547.296 372.321 585.53 343.89C627.582 312.632 671.08 280.339 726.44 274.318C747.194 272.065 767.811 273.72 790.664 275.926C822.816 279.029 855.324 282.592 887.258 286.568C907.139 289.027 924.919 291.555 941.528 297.6C968.417 307.391 988.897 325.434 1003.76 340.051C1039.32 375.079 1059.61 409.991 1064.03 443.732C1068.15 474.967 1059.07 506.11 1050.28 536.196C1045.98 550.998 1041.5 566.305 1038.67 581.428C1033.65 608.136 1033.46 635.762 1033.29 662.47C1033.13 687.568 1032.94 713.54 1028.77 738.845C1022.28 778.285 1005.72 817.013 980.907 850.869C961.463 877.438 928.383 910.925 881.367 919.636C852.46 924.969 821.998 920.165 795.136 915.89L716.786 903.479C667.753 895.71 617.029 887.666 571.649 867.9C543.806 855.764 479.5 821.863 484.436 769.253C488.909 721.607 467.31 687.407 430.93 647.622C426.813 643.14 422.64 638.635 418.468 634.153C394.496 608.411 369.843 581.911 355.717 551.48Z" fill="url(#paint18_linear)"/>
<path fill-rule="evenodd" clip-rule="evenodd" d="M1034.8 416.247C1025.26 395.797 1009.86 375.025 988.688 354.139C974.761 340.46 955.628 323.59 930.663 314.524C915.236 308.924 898.529 306.537 879.833 304.242C849.144 300.432 818.21 297.035 787.793 294.097C766.235 292.009 746.802 290.471 727.452 292.559C675.75 298.16 634.704 328.64 595.021 358.11C558.2 385.468 520.098 413.745 472.838 423.339C466.27 424.67 459.456 425.634 452.888 426.575C440.405 428.342 427.514 430.178 415.931 434.585C371.642 451.455 358.56 501.146 371.533 539.475C383.089 573.559 410.044 602.524 436.099 630.479C440.106 634.794 444.085 639.063 448.009 643.355C483.25 681.868 504.209 715.056 499.848 761.488C495.296 809.687 555.093 841.154 581.04 852.446C623.829 871.106 671.961 878.703 718.458 886.07L793.19 897.914C818.482 901.907 847.127 906.452 873.945 901.471C917.526 893.438 948.351 862.155 966.53 837.344C989.941 805.441 1005.56 768.947 1011.66 731.811C1015.62 707.918 1015.81 683.245 1015.97 659.398C1016.11 633.83 1016.27 607.389 1021.12 581.683C1023.87 567.155 1028.13 552.489 1032.27 538.305C1040.58 509.89 1049.14 480.489 1045.32 451.271C1043.8 439.726 1040.28 428.044 1034.8 416.247ZM373.304 553.636C371.26 549.275 369.461 544.846 367.935 540.324C354.553 500.732 368.235 449.274 414.404 431.716C426.396 427.149 439.56 425.267 452.261 423.453C458.775 422.535 465.507 421.571 471.966 420.263C518.326 410.876 556.074 382.829 592.541 355.746C632.66 325.954 674.141 295.176 726.961 289.438C746.748 287.303 766.399 288.864 788.23 290.976C818.673 293.89 849.662 297.31 880.378 301.097C899.347 303.461 916.299 305.871 932.107 311.632C957.808 320.974 977.35 338.165 991.495 352.096C1025.43 385.514 1044.78 418.771 1049 450.927C1052.95 480.718 1044.29 510.372 1035.89 539.062C1031.8 553.177 1027.5 567.752 1024.83 582.188C1020.03 607.642 1019.84 633.968 1019.68 659.421C1019.51 683.36 1019.38 708.125 1015.37 732.247C1009.18 769.819 993.375 806.726 969.718 838.996C951.158 864.335 919.597 896.284 874.736 904.57C847.181 909.665 818.128 905.051 792.481 901.012L717.749 889.169C670.98 881.755 622.603 874.112 579.322 855.246C552.722 843.678 491.399 811.339 496.114 761.235C500.393 715.814 479.734 683.176 445.039 645.26C441.141 640.991 437.162 636.722 433.156 632.43C410.289 607.894 386.768 582.647 373.304 553.636Z" fill="url(#paint19_linear)"/>
<path fill-rule="evenodd" clip-rule="evenodd" d="M1021.94 424.414C1012.87 404.874 998.157 385.035 977.929 365.104C964.661 352.032 946.398 335.944 922.565 327.267C907.878 321.905 891.936 319.65 874.109 317.44C845.008 313.827 815.47 310.559 786.314 307.751C765.731 305.772 747.222 304.299 728.767 306.301C679.41 311.663 640.29 340.754 602.426 368.902C567.291 395.023 530.956 422.02 485.857 431.18C479.579 432.446 473.081 433.389 466.83 434.264C454.9 435.967 442.615 437.716 431.586 441.928C389.327 458.015 376.851 505.495 389.218 542.066C400.274 574.678 425.935 602.296 450.805 629.016C454.627 633.09 458.422 637.187 462.189 641.306C495.794 678.061 515.778 709.753 511.628 754.103C507.287 800.178 564.343 830.213 589.076 841.007C629.889 858.775 675.779 866.047 720.168 873.09L791.447 884.39C815.552 888.211 842.906 892.56 868.485 887.819C910.062 880.132 939.464 850.259 956.826 826.577C979.157 796.105 994.035 761.26 999.877 725.771C1003.64 702.94 1003.81 679.396 1003.94 656.634C1004.11 632.192 1004.3 606.968 1008.86 582.411C1011.48 568.533 1015.57 554.517 1019.53 540.984C1027.45 513.85 1035.64 485.771 1031.95 457.877C1030.48 446.853 1027.15 435.691 1021.94 424.414ZM390.91 555.622C388.972 551.479 387.252 547.244 385.805 542.894C373.002 505.081 386.078 455.967 430.112 439.189C441.578 434.816 454.108 433.044 466.229 431.295C472.426 430.42 478.841 429.5 485.038 428.257C529.263 419.281 565.244 392.515 600.051 366.646C638.324 338.2 677.881 308.786 728.276 303.309C747.14 301.261 765.894 302.757 786.724 304.759C815.907 307.59 845.472 310.835 874.628 314.471C892.727 316.704 908.888 319.005 923.985 324.506C948.5 333.412 967.118 349.845 980.631 363.148C1013.01 395.046 1031.46 426.807 1035.5 457.532C1039.24 485.979 1030.97 514.31 1022.97 541.721C1019.07 555.184 1015 569.108 1012.41 582.894C1007.82 607.198 1007.68 632.33 1007.52 656.634C1007.38 679.511 1007.22 703.147 1003.4 726.185C997.475 762.066 982.433 797.325 959.884 828.142C942.139 852.33 912.055 882.825 869.25 890.765C842.96 895.621 815.252 891.226 790.764 887.336L719.513 876.059C674.851 868.97 628.715 861.651 587.411 843.677C562.05 832.607 503.547 801.743 508.052 753.849C512.147 710.489 492.437 679.327 459.35 643.148C455.61 639.028 451.815 634.954 447.993 630.881C426.208 607.428 403.741 583.309 390.91 555.622Z" fill="url(#paint20_linear)"/>
<path fill-rule="evenodd" clip-rule="evenodd" d="M1009.09 435.836C1000.5 417.29 986.527 398.492 967.32 379.578C954.743 367.191 937.365 351.909 914.775 343.682C900.806 338.603 885.692 336.443 868.75 334.351C841.113 330.927 813.067 327.848 785.403 325.182C765.869 323.297 748.272 321.896 730.757 323.803C683.913 328.882 646.755 356.482 610.797 383.163C577.458 407.96 542.946 433.561 500.141 442.248C494.166 443.466 488 444.339 482.053 445.189C470.758 446.798 459.081 448.453 448.605 452.451C408.473 467.711 396.659 512.754 408.391 547.455C418.867 578.342 443.257 604.564 466.856 629.935C470.485 633.819 474.113 637.702 477.66 641.586C509.553 676.449 528.541 706.531 524.585 748.586C520.493 792.274 574.648 820.77 598.138 830.997C636.906 847.888 680.448 854.782 722.599 861.447L790.259 872.179C813.149 875.81 839.121 879.924 863.403 875.419C902.88 868.111 930.817 839.799 947.268 817.323C968.466 788.413 982.598 755.366 988.137 721.699C991.711 700.05 991.874 677.713 992.011 656.11C992.174 632.968 992.338 608.999 996.703 585.719C999.186 572.528 1003.06 559.268 1006.8 546.421C1014.3 520.659 1022.1 494.047 1018.61 467.573C1017.25 457.117 1014.05 446.522 1009.09 435.836ZM410 560.302C408.145 556.372 406.535 552.35 405.144 548.237C393.004 512.363 405.417 465.757 447.213 449.832C458.099 445.718 469.994 444.017 481.48 442.386C487.4 441.535 493.511 440.662 499.349 439.49C541.337 430.964 575.521 405.593 608.56 381.026C644.9 354.046 682.44 326.147 730.293 320.953C748.217 319.023 766.033 320.448 785.785 322.332C813.476 325.021 841.55 328.123 869.241 331.525C886.429 333.662 901.789 335.845 916.112 341.039C939.356 349.519 957.062 365.1 969.885 377.717C1000.6 407.983 1018.15 438.088 1021.99 467.251C1025.54 494.231 1017.68 521.096 1010.1 547.088C1006.36 559.865 1002.51 573.102 1000.06 586.179C995.721 609.229 995.557 633.083 995.394 656.133C995.257 677.827 995.121 700.234 991.492 722.112C985.872 756.147 971.576 789.585 950.16 818.84C933.354 841.775 904.79 870.685 864.139 878.223C839.149 882.842 812.849 878.66 789.632 874.983L721.972 864.25C679.603 857.54 635.787 850.6 596.556 833.525C572.493 823.045 516.946 793.79 521.23 748.357C525.104 707.197 506.388 677.667 474.959 643.31C471.412 639.426 467.811 635.565 464.21 631.681C443.503 609.459 422.195 586.569 410 560.302Z" fill="url(#paint21_linear)"/>
<path fill-rule="evenodd" clip-rule="evenodd" d="M997.757 444.745C989.584 427.216 976.354 409.412 958.122 391.539C946.15 379.815 929.722 365.36 908.238 357.582C893.969 352.397 877.651 350.378 864.558 348.749C838.453 345.537 811.83 342.623 785.425 340.076C766.92 338.286 750.192 336.979 733.572 338.768C689.1 343.564 653.839 369.696 619.726 394.934C588.073 418.383 555.327 442.611 514.708 450.825C509.023 451.949 503.173 452.798 497.515 453.601C486.8 455.116 475.702 456.699 465.78 460.462C427.676 474.893 416.442 517.5 427.594 550.332C437.516 579.585 460.696 604.341 483.11 628.318C486.527 631.989 489.971 635.66 493.333 639.331C523.646 672.347 541.659 700.774 537.887 740.558C534.006 781.857 585.394 808.839 607.671 818.498C644.49 834.467 685.847 841.006 725.837 847.315L790.045 857.433C811.775 860.875 836.431 864.775 859.473 860.508C896.949 853.602 923.463 826.804 939.098 805.581C959.216 778.232 972.609 746.959 977.885 715.114C981.274 694.648 981.411 673.54 981.548 653.097C981.712 631.186 981.848 608.54 986.003 586.514C988.354 574.056 992.044 561.483 995.597 549.345C1002.73 524.979 1010.11 499.787 1006.8 474.756C1005.49 464.867 1002.49 454.84 997.757 444.745ZM429.098 562.469C427.376 558.729 425.817 554.944 424.505 551.066C412.97 517.132 424.779 473.035 464.441 458.007C474.773 454.083 486.062 452.477 496.996 450.94C502.572 450.137 508.367 449.311 513.943 448.187C553.796 440.133 586.214 416.134 617.594 392.915C652.089 367.379 687.706 340.994 733.135 336.084C750.137 334.248 767.057 335.602 785.808 337.392C812.24 339.938 838.891 342.875 865.05 346.087C878.307 347.739 894.844 349.781 909.495 355.104C931.581 363.089 948.364 377.841 960.555 389.772C989.721 418.406 1006.34 446.902 1009.98 474.457C1013.36 499.971 1005.93 525.415 998.714 549.988C995.16 562.079 991.497 574.561 989.201 586.927C985.074 608.724 984.91 631.3 984.773 653.097C984.664 673.631 984.5 694.831 981.083 715.504C975.726 747.694 962.168 779.333 941.831 806.98C925.868 828.662 898.753 856.057 860.184 863.146C836.486 867.529 811.502 863.582 789.471 860.118L725.236 849.954C685.027 843.621 643.425 837.059 606.195 820.907C583.344 810.995 530.644 783.279 534.689 740.352C538.352 701.416 520.612 673.471 490.791 640.983L492.075 640.179L490.791 640.983C487.429 637.334 484.012 633.641 480.568 629.97C460.914 608.953 440.687 587.317 429.098 562.469Z" fill="url(#paint22_linear)"/>
<path fill-rule="evenodd" clip-rule="evenodd" d="M984.947 452.642C977.264 436.065 964.787 419.258 947.651 402.359C936.399 391.27 920.871 377.608 900.683 370.261C887.225 365.371 871.914 363.465 859.573 361.927C834.809 358.873 809.773 356.095 785.09 353.73C767.655 352.031 751.935 350.768 736.27 352.49C694.425 357.013 661.215 381.695 629.095 405.551C599.291 427.707 568.479 450.621 530.257 458.382C524.89 459.438 519.414 460.241 514.074 460.999C503.994 462.446 493.56 463.938 484.189 467.474C448.336 481.135 437.766 521.407 448.255 552.403C457.626 580.024 479.421 603.489 500.507 626.128C503.722 629.617 506.964 633.084 510.151 636.551C538.675 667.754 555.62 694.64 552.079 732.203C548.401 771.258 596.785 796.743 617.762 805.881C652.388 820.966 691.346 827.142 728.969 833.112L789.449 842.686C809.909 845.924 833.12 849.62 854.806 845.602C890.086 839.082 915.04 813.757 929.752 793.667C948.659 767.814 961.299 738.264 966.231 708.164C969.445 688.831 969.581 668.856 969.69 649.547C969.827 628.837 969.99 607.438 973.886 586.613C976.12 574.835 979.58 562.965 982.903 551.508C989.633 528.479 996.58 504.692 993.447 480.997C992.248 471.676 989.387 462.193 984.947 452.642ZM449.699 563.883C448.037 560.37 446.593 556.788 445.34 553.115C434.497 521.04 445.612 479.39 482.963 465.155C492.661 461.458 503.286 459.943 513.557 458.474C518.842 457.739 524.291 456.958 529.549 455.902C567.062 448.279 597.575 425.595 627.107 403.645C659.553 379.514 693.117 354.58 735.862 349.942C751.881 348.22 767.791 349.482 785.444 351.181C810.154 353.569 835.245 356.325 860.009 359.401C875.374 361.307 889.105 363.258 901.882 367.919C922.669 375.473 938.47 389.41 949.939 400.683C977.4 427.73 993.038 454.685 996.47 480.722C999.658 504.83 992.629 528.892 985.846 552.127C982.522 563.539 979.062 575.34 976.883 587.004C973.014 607.622 972.878 628.952 972.742 649.547C972.605 668.925 972.469 688.992 969.254 708.531C964.214 738.953 951.465 768.87 932.313 794.998C917.302 815.502 891.747 841.355 855.459 848.082C833.174 852.215 809.636 848.495 788.904 845.189L728.424 835.615C690.556 829.599 651.408 823.4 616.4 808.154C594.878 798.787 545.241 772.612 549.055 731.996C552.515 695.237 535.814 668.833 507.754 638.113C504.566 634.646 501.352 631.179 498.11 627.712C479.639 607.828 460.596 587.394 449.699 563.883Z" fill="url(#paint23_linear)"/>
<path fill-rule="evenodd" clip-rule="evenodd" d="M972.119 462.809C964.858 447.248 953.091 431.436 936.903 415.555C926.31 405.151 911.678 392.318 892.623 385.42C879.928 380.813 865.487 379.026 853.857 377.582C830.57 374.718 806.956 372.128 783.615 369.882C767.153 368.301 752.302 367.109 737.56 368.714C698.112 372.976 666.772 396.167 636.497 418.58C608.378 439.388 579.331 460.907 543.269 468.194C538.218 469.202 533.031 469.959 528.008 470.646C518.48 471.998 508.653 473.396 499.835 476.765C466.01 489.575 456.046 527.387 465.929 556.537C474.719 582.479 495.303 604.501 515.204 625.768C518.262 629.045 521.292 632.299 524.295 635.576C551.213 664.841 567.183 690.118 563.853 725.432C560.413 762.167 606.031 786.046 625.796 794.64C658.473 808.825 695.191 814.623 730.681 820.237L787.71 829.221C807.011 832.269 828.878 835.706 849.353 831.948C882.631 825.806 906.136 802.042 920.032 783.159C937.886 758.89 949.788 731.115 954.484 702.882C957.487 684.686 957.623 665.918 957.732 647.791C957.869 628.335 957.978 608.214 961.664 588.666C963.738 577.597 967.014 566.437 970.181 555.666C976.515 534.033 983.067 511.69 980.145 489.461C978.972 480.684 976.269 471.792 972.119 462.809ZM467.266 567.331C465.737 564.008 464.372 560.662 463.199 557.202C452.961 527.089 463.444 487.925 498.661 474.565C507.806 471.104 517.825 469.661 527.544 468.309C532.485 467.575 537.645 466.865 542.586 465.857C577.966 458.707 606.768 437.394 634.613 416.792C665.216 394.128 696.857 370.684 737.206 366.353C752.248 364.703 767.29 365.895 783.915 367.499C807.311 369.745 830.98 372.334 854.294 375.222C868.763 377.009 881.703 378.843 893.769 383.22C913.37 390.324 928.276 403.409 939.087 413.996C964.94 439.411 979.736 464.688 982.957 489.186C985.96 511.85 979.354 534.423 972.938 556.239C969.799 566.987 966.577 578.056 964.503 589.033C960.845 608.42 960.708 628.449 960.572 647.791C960.462 666.009 960.326 684.824 957.296 703.18C952.545 731.757 940.506 759.852 922.461 784.419C908.293 803.692 884.187 827.983 849.953 834.285C828.905 838.158 806.738 834.675 787.191 831.581L730.162 822.575C694.454 816.937 657.545 811.094 624.512 796.771C604.201 787.948 557.41 763.404 561.013 725.248C564.289 690.667 548.51 665.849 522.029 637.043C519.026 633.766 515.996 630.512 512.966 627.257C495.521 608.58 477.558 589.376 467.266 567.331Z" fill="url(#paint24_linear)"/>
<path fill-rule="evenodd" clip-rule="evenodd" d="M959.276 470.698C952.483 456.113 941.463 441.275 926.297 426.392C916.368 416.622 902.674 404.583 884.834 398.093C873.814 394.102 861.867 392.405 848.473 390.777C826.733 388.071 804.583 385.64 782.706 383.53C767.294 382.04 753.383 380.939 739.553 382.429C702.591 386.443 673.268 408.183 644.899 429.213C618.548 448.729 591.325 468.909 557.528 475.766C552.836 476.707 547.953 477.395 543.262 478.083C534.342 479.344 525.122 480.651 516.857 483.793C485.187 495.833 475.831 531.31 485.105 558.646C493.398 583.024 512.656 603.663 531.287 623.615C534.151 626.688 536.988 629.738 539.797 632.788C564.975 660.285 579.978 683.952 576.841 717.09C573.567 751.535 616.339 773.986 634.86 782.013C665.466 795.314 699.864 800.772 733.115 806.024L786.552 814.463C804.61 817.307 825.096 820.563 844.272 817.031C875.451 811.275 897.464 788.961 910.476 771.234C927.197 748.462 938.354 722.433 942.745 695.9C945.555 678.838 945.691 661.271 945.8 644.232C945.909 625.977 946.046 607.126 949.51 588.78C951.447 578.391 954.502 567.934 957.475 557.843C963.395 537.548 969.532 516.564 966.777 495.695C965.686 487.462 963.204 479.115 959.276 470.698ZM486.36 568.737C484.914 565.664 483.632 562.499 482.541 559.242C472.967 531.012 482.759 494.273 515.766 481.729C524.331 478.472 533.714 477.142 542.798 475.858C547.462 475.193 552.291 474.505 556.928 473.565C590.043 466.868 617.021 446.871 643.126 427.538C671.795 406.28 701.446 384.287 739.225 380.205C753.355 378.668 767.403 379.792 783.006 381.306C804.938 383.393 827.087 385.846 848.882 388.53C862.439 390.204 874.605 391.924 885.898 396.052C904.229 402.702 918.195 414.971 928.315 424.924C952.593 448.751 966.422 472.487 969.45 495.466C972.26 516.725 966.041 537.892 960.067 558.371C957.121 568.438 954.093 578.85 952.129 589.147C948.692 607.31 948.583 626.069 948.474 644.255C948.365 661.34 948.255 679.021 945.391 696.221C940.945 723.052 929.679 749.379 912.767 772.427C899.483 790.498 876.897 813.293 844.872 819.21C825.123 822.856 804.365 819.577 786.034 816.664L732.624 808.225C699.182 802.928 664.566 797.47 633.66 784.031C614.648 775.775 570.812 752.682 574.167 716.906C577.222 684.502 562.465 661.248 537.67 634.164C534.86 631.114 532.023 628.064 529.159 625.014C512.82 607.493 496.016 589.468 486.36 568.737Z" fill="url(#paint25_linear)"/>
<path fill-rule="evenodd" clip-rule="evenodd" d="M944.915 480.878C938.571 467.286 928.263 453.466 914.072 439.601C904.775 430.517 891.951 419.305 875.271 413.265C864.963 409.535 853.78 407.957 841.284 406.423C820.995 403.929 800.296 401.664 779.706 399.697C765.296 398.301 752.308 397.271 739.347 398.667C704.785 402.396 677.333 422.646 650.782 442.232C626.146 460.399 600.689 479.207 569.053 485.568C564.65 486.461 560.084 487.101 555.682 487.742C547.342 488.932 538.729 490.144 530.991 493.073C501.378 504.262 492.628 537.302 501.296 562.768C509.006 585.397 527.053 604.663 544.471 623.265C547.178 626.125 549.83 628.962 552.455 631.822C576.025 657.403 590.025 679.46 587.127 710.303C584.091 742.405 624.095 763.295 641.431 770.777C670.032 783.156 702.215 788.235 733.332 793.109L783.316 800.98C800.214 803.634 819.409 806.654 837.319 803.36C866.494 798.006 887.111 777.23 899.279 760.733C914.919 739.545 925.337 715.269 929.466 690.603C932.091 674.701 932.2 658.318 932.31 642.462C932.419 625.461 932.556 607.912 935.782 590.843C937.587 581.164 940.458 571.417 943.22 562.013C948.798 543.113 954.54 523.573 951.942 504.17C950.931 496.482 948.579 488.726 944.915 480.878ZM502.471 572.172C501.132 569.289 499.928 566.337 498.889 563.34C489.921 537.004 499.108 502.82 529.979 491.151C537.991 488.108 546.768 486.872 555.272 485.66C559.646 485.065 564.158 484.424 568.478 483.532C599.486 477.285 624.724 458.66 649.141 440.676C675.965 420.861 703.692 400.406 739.047 396.585C752.253 395.166 765.433 396.219 780.007 397.614C800.597 399.582 821.323 401.847 841.639 404.364C854.326 405.92 865.701 407.522 876.256 411.343C893.428 417.543 906.498 428.984 915.958 438.251C938.654 460.422 951.587 482.525 954.431 503.918C957.056 523.71 951.259 543.434 945.653 562.493C942.919 571.897 940.048 581.576 938.243 591.14C935.044 608.095 934.935 625.576 934.825 642.485C934.716 658.41 934.607 674.861 931.927 690.9C927.771 715.863 917.216 740.392 901.384 761.831C888.971 778.671 867.889 799.882 837.866 805.419C819.436 808.805 799.995 805.739 782.851 803.039L732.867 795.168C701.586 790.249 669.239 785.169 640.255 772.631C622.482 764.943 581.467 743.458 584.638 710.166C587.482 679.94 573.701 658.272 550.486 633.081C547.861 630.22 545.182 627.383 542.53 624.546C527.245 608.232 511.495 591.46 502.471 572.172Z" fill="url(#paint26_linear)"/>
<path fill-rule="evenodd" clip-rule="evenodd" d="M932.127 490.291C926.246 477.61 916.716 464.745 903.593 451.812C895.016 443.358 883.172 432.882 867.734 427.254C858.177 423.785 847.858 422.315 836.287 420.891C817.636 418.57 798.495 416.457 779.408 414.619C766.04 413.31 754.059 412.345 742.079 413.654C710.087 417.123 684.711 436.007 660.179 454.27C637.39 471.224 613.838 488.752 584.623 494.679C580.511 495.529 576.318 496.103 572.234 496.7C564.529 497.803 556.579 498.929 549.418 501.662C522.027 512.115 513.94 542.898 521.972 566.629C529.133 587.855 545.769 605.705 561.888 623.026C564.366 625.714 566.816 628.356 569.267 631.021C591.049 654.866 604.009 675.45 601.313 704.212C598.509 734.053 635.484 753.58 651.521 760.586C678.013 772.142 707.746 776.851 736.498 781.399L782.73 788.728C798.359 791.232 816.084 794.034 832.665 790.956C859.62 785.948 878.68 766.582 889.925 751.213C904.382 731.434 914.048 708.829 917.86 685.833C920.256 670.993 920.365 655.716 920.474 640.968C920.583 625.117 920.692 608.714 923.659 592.817C925.375 583.789 928.016 574.715 930.575 565.94C935.721 548.32 941.003 530.102 938.635 512C937.682 504.855 935.531 497.596 932.127 490.291ZM523.034 575.427C521.809 572.74 520.693 569.983 519.74 567.18C511.435 542.622 519.93 510.759 548.465 499.87C555.898 497.045 564.012 495.896 571.853 494.771C575.883 494.196 580.049 493.599 584.078 492.772C612.749 486.96 636.083 469.616 658.654 452.823C683.431 434.353 709.107 415.285 741.78 411.725C754.005 410.392 766.176 411.357 779.653 412.69C798.767 414.527 817.962 416.641 836.64 418.961C848.375 420.408 858.858 421.902 868.633 425.485C884.534 431.251 896.595 441.911 905.39 450.548C926.328 471.224 938.335 491.83 940.922 511.793C943.345 530.24 938.008 548.618 932.808 566.399C930.276 575.129 927.635 584.18 925.947 593.116C923.006 608.898 922.897 625.186 922.788 640.968C922.679 655.808 922.57 671.131 920.147 686.086C916.281 709.358 906.533 732.238 891.885 752.247C880.422 767.938 860.9 787.717 833.155 792.863C816.111 796.033 798.141 793.184 782.294 790.658L736.089 783.329C707.146 778.735 677.251 774.002 650.459 762.309C634.013 755.119 596.058 735.087 598.999 704.051C601.64 675.909 588.87 655.694 567.415 632.216C564.992 629.551 562.541 626.886 560.064 624.244C545.933 609.059 531.366 593.392 523.034 575.427Z" fill="url(#paint27_linear)"/>
<path fill-rule="evenodd" clip-rule="evenodd" d="M919.25 499.449C913.818 487.743 905 475.853 892.852 463.894C884.908 456.074 873.962 446.415 859.63 441.194C850.157 437.744 839.292 436.387 830.584 435.306C813.195 433.144 795.478 431.213 777.897 429.511C765.558 428.315 754.448 427.441 743.364 428.637C713.773 431.856 690.268 449.289 667.556 466.17C646.481 481.833 624.67 498.024 597.644 503.497C593.849 504.256 589.946 504.831 586.178 505.36C579.053 506.395 571.683 507.43 565.049 509.96C539.716 519.596 532.236 548.069 539.634 570.009C546.268 589.535 561.664 606.094 576.596 622.101C578.89 624.585 581.155 627.023 583.421 629.507C603.595 651.54 615.579 670.559 613.068 697.123C610.474 724.744 644.707 742.775 659.557 749.238C684.044 759.886 711.589 764.256 738.205 768.488L780.982 775.249C795.45 777.526 811.83 780.148 827.199 777.319C852.15 772.673 869.785 754.78 880.186 740.567C893.589 722.306 902.543 701.401 906.038 680.15C908.303 666.443 908.385 652.321 908.467 638.66C908.576 624.033 908.658 608.9 911.443 594.204C912.999 585.855 915.428 577.461 917.803 569.365C922.581 553.082 927.495 536.247 925.283 519.527C924.382 512.904 922.39 506.211 919.25 499.449ZM540.644 578.105C539.497 575.644 538.46 573.114 537.587 570.492C529.916 547.816 537.75 518.377 564.176 508.304C571.055 505.682 578.562 504.624 585.823 503.589C589.563 503.06 593.413 502.508 597.125 501.749C623.66 496.368 645.253 480.338 666.164 464.813C689.095 447.748 712.817 430.132 743.092 426.843C754.421 425.624 765.668 426.521 778.143 427.717C795.751 429.419 813.468 431.373 830.884 433.535C839.729 434.639 850.73 435.996 860.503 439.561C875.217 444.897 886.383 454.763 894.49 462.721C913.9 481.855 924.983 500.898 927.413 519.32C929.651 536.362 924.683 553.335 919.878 569.779C917.558 577.875 915.101 586.223 913.545 594.457C910.788 609.038 910.733 624.102 910.624 638.683C910.542 652.39 910.433 666.581 908.167 680.403C904.618 701.883 895.582 723.042 882.042 741.533C871.396 756.022 853.324 774.329 827.663 779.067C811.857 781.988 795.232 779.343 780.573 777.02L737.823 770.235C711.043 766.004 683.335 761.611 658.575 750.825C643.342 744.201 608.236 725.641 610.938 696.985C613.395 670.973 601.575 652.298 581.729 630.611C579.463 628.127 577.197 625.689 574.904 623.228C561.828 609.199 548.37 594.733 540.644 578.105Z" fill="url(#paint28_linear)"/>
<path fill-rule="evenodd" clip-rule="evenodd" d="M906.447 507.102C901.456 496.389 893.384 485.516 882.257 474.597C874.976 467.44 864.94 458.585 851.85 453.837C843.778 450.9 835.024 449.662 825.206 448.446C809.144 446.45 792.917 444.684 776.991 443.147C765.701 442.069 755.529 441.243 745.357 442.344C718.249 445.28 696.76 461.223 675.952 476.661C656.644 490.975 636.682 505.771 611.92 510.795C608.456 511.506 604.884 512.011 601.447 512.492C594.902 513.433 588.139 514.373 582.085 516.69C558.85 525.522 552.005 551.535 558.796 571.607C564.877 589.476 579.003 604.593 592.639 619.251C594.739 621.5 596.839 623.748 598.884 625.996C617.346 646.159 628.337 663.524 626.046 687.817C623.673 713.073 655.008 729.543 668.589 735.462C691.06 745.211 716.231 749.202 740.639 753.056L779.8 759.273C793.054 761.337 808.08 763.723 822.125 761.131C844.978 756.91 861.15 740.531 870.667 727.548C882.939 710.848 891.121 691.739 894.339 672.31C896.384 659.785 896.493 646.87 896.575 634.391C896.657 620.995 896.738 607.163 899.275 593.72C900.693 586.104 902.956 578.42 905.111 571.01C909.447 556.1 913.946 540.73 911.956 525.43C911.165 519.397 909.31 513.272 906.447 507.102ZM559.723 579.016C558.686 576.745 557.732 574.428 556.941 572.066C549.905 551.306 557.078 524.375 581.267 515.199C587.567 512.791 594.466 511.827 601.12 510.887C604.529 510.382 608.074 509.877 611.456 509.189C635.754 504.28 655.526 489.599 674.643 475.423C695.669 459.824 717.404 443.698 745.111 440.693C755.502 439.591 765.81 440.417 777.209 441.518C793.163 443.055 809.389 444.822 825.506 446.817C835.433 448.056 844.351 449.295 852.614 452.323C866.113 457.209 876.34 466.224 883.757 473.519C901.538 490.998 911.683 508.432 913.892 525.27C915.965 540.822 911.41 556.375 907.02 571.377C904.838 578.787 902.629 586.426 901.211 593.973C898.702 607.3 898.62 621.064 898.511 634.391C898.429 646.916 898.347 659.9 896.275 672.516C893.002 692.198 884.739 711.536 872.331 728.419C862.622 741.678 846.069 758.401 822.561 762.736C808.107 765.397 792.863 763.012 779.446 760.878L740.257 754.662C715.768 750.808 690.378 746.794 667.716 736.93C653.781 730.851 621.628 713.922 624.11 687.702C626.346 663.914 615.519 646.847 597.357 627.005C595.284 624.734 593.212 622.532 591.112 620.261C579.14 607.438 566.786 594.202 559.723 579.016Z" fill="url(#paint29_linear)"/>
<path fill-rule="evenodd" clip-rule="evenodd" d="M892.086 517.508C887.544 507.77 880.156 497.872 870.031 487.927C863.382 481.405 854.243 473.39 842.312 469.049C834.924 466.362 826.934 465.26 818.014 464.134C803.402 462.343 788.599 460.712 774.014 459.312C763.698 458.324 754.395 457.589 745.146 458.6C720.437 461.264 700.818 475.778 681.828 489.811C664.233 502.855 646.009 516.313 623.435 520.884C620.261 521.527 617.032 521.986 613.885 522.445C607.92 523.295 601.763 524.168 596.208 526.258C575.057 534.296 568.791 557.974 575.002 576.232C580.502 592.515 593.39 606.272 605.868 619.592C607.756 621.636 609.671 623.68 611.559 625.724C628.387 644.097 638.402 659.898 636.323 682.014C634.161 705.003 662.756 719.977 675.151 725.374C695.591 734.239 718.576 737.868 740.85 741.381L776.559 747.031C788.653 748.937 802.362 751.096 815.168 748.731C836.019 744.895 850.768 729.99 859.469 718.163C870.633 702.959 878.103 685.574 881.031 667.89C882.919 656.499 883.001 644.74 883.083 633.372C883.166 621.2 883.248 608.591 885.546 596.373C886.86 589.415 888.912 582.433 890.882 575.681C894.85 562.131 898.954 548.145 897.121 534.227C896.382 528.715 894.713 523.134 892.086 517.508ZM575.823 582.984C574.865 580.917 573.99 578.804 573.278 576.646C566.875 557.767 573.415 533.263 595.47 524.88C601.216 522.721 607.509 521.802 613.584 520.953C616.703 520.516 619.905 520.057 623.024 519.437C645.188 514.959 663.221 501.615 680.651 488.708C699.833 474.492 719.644 459.84 744.927 457.107C754.367 456.073 763.78 456.831 774.206 457.819C788.845 459.22 803.648 460.873 818.26 462.665C827.317 463.79 835.444 464.915 842.997 467.671C855.283 472.127 864.613 480.303 871.372 486.94C887.598 502.855 896.875 518.702 898.872 534.043C900.76 548.236 896.628 562.384 892.633 576.048C890.636 582.777 888.611 589.736 887.297 596.58C885.026 608.729 884.944 621.269 884.862 633.395C884.78 644.809 884.698 656.614 882.81 668.097C879.855 685.987 872.275 703.579 860.974 718.944C852.108 731.024 837.004 746.25 815.551 750.201C802.39 752.612 788.489 750.453 776.258 748.501L740.522 742.874C718.139 739.315 694.989 735.663 674.33 726.706C661.606 721.194 632.3 705.807 634.544 681.899C636.596 660.265 626.718 644.717 610.136 626.643C608.248 624.599 606.36 622.578 604.445 620.511C593.527 608.844 582.281 596.81 575.823 582.984Z" fill="url(#paint30_linear)"/>
</g>
<defs>
<linearGradient id="paint0_linear" x1="-27.7335" y1="-1127.06" x2="-1236.84" y2="1178.29" gradientUnits="userSpaceOnUse">
<stop stop-opacity="0.01"/>
<stop offset="1"/>
</linearGradient>
<linearGradient id="paint1_linear" x1="-7.41663" y1="-1081.59" x2="-1185.86" y2="1163.7" gradientUnits="userSpaceOnUse">
<stop stop-opacity="0.01"/>
<stop offset="1"/>
</linearGradient>
<linearGradient id="paint2_linear" x1="12.8365" y1="-1039.87" x2="-1135.4" y2="1149.08" gradientUnits="userSpaceOnUse">
<stop stop-opacity="0.01"/>
<stop offset="1"/>
</linearGradient>
<linearGradient id="paint3_linear" x1="31.6151" y1="-999.351" x2="-1089.23" y2="1133.5" gradientUnits="userSpaceOnUse">
<stop stop-opacity="0.01"/>
<stop offset="1"/>
</linearGradient>
<linearGradient id="paint4_linear" x1="53.3746" y1="-953.886" x2="-1035.23" y2="1121.21" gradientUnits="userSpaceOnUse">
<stop stop-opacity="0.01"/>
<stop offset="1"/>
</linearGradient>
<linearGradient id="paint5_linear" x1="72.1531" y1="-912.159" x2="-987.031" y2="1105.44" gradientUnits="userSpaceOnUse">
<stop stop-opacity="0.01"/>
<stop offset="1"/>
</linearGradient>
<linearGradient id="paint6_linear" x1="92.4382" y1="-866.694" x2="-935.291" y2="1092" gradientUnits="userSpaceOnUse">
<stop stop-opacity="0.01"/>
<stop offset="1"/>
</linearGradient>
<linearGradient id="paint7_linear" x1="109.678" y1="-824.967" x2="-887.841" y2="1077.37" gradientUnits="userSpaceOnUse">
<stop stop-opacity="0.01"/>
<stop offset="1"/>
</linearGradient>
<linearGradient id="paint8_linear" x1="129.963" y1="-784.45" x2="-840.172" y2="1061.79" gradientUnits="userSpaceOnUse">
<stop stop-opacity="0.01"/>
<stop offset="1"/>
</linearGradient>
<linearGradient id="paint9_linear" x1="151.755" y1="-737.72" x2="-786.926" y2="1049.62" gradientUnits="userSpaceOnUse">
<stop stop-opacity="0.01"/>
<stop offset="1"/>
</linearGradient>
<linearGradient id="paint10_linear" x1="168.995" y1="-693.52" x2="-737.44" y2="1036.06" gradientUnits="userSpaceOnUse">
<stop stop-opacity="0.01"/>
<stop offset="1"/>
</linearGradient>
<linearGradient id="paint11_linear" x1="190.818" y1="-650.528" x2="-686.988" y2="1020.41" gradientUnits="userSpaceOnUse">
<stop stop-opacity="0.01"/>
<stop offset="1"/>
</linearGradient>
<linearGradient id="paint12_linear" x1="209.565" y1="-605.063" x2="-635.996" y2="1008.12" gradientUnits="userSpaceOnUse">
<stop stop-opacity="0.01"/>
<stop offset="1"/>
</linearGradient>
<linearGradient id="paint13_linear" x1="229.85" y1="-562.072" x2="-586.291" y2="993.61" gradientUnits="userSpaceOnUse">
<stop stop-opacity="0.01"/>
<stop offset="1"/>
</linearGradient>
<linearGradient id="paint14_linear" x1="250.103" y1="-521.555" x2="-537.864" y2="979.179" gradientUnits="userSpaceOnUse">
<stop stop-opacity="0.01"/>
<stop offset="1"/>
</linearGradient>
<linearGradient id="paint15_linear" x1="268.914" y1="-477.354" x2="-488.389" y2="963.33" gradientUnits="userSpaceOnUse">
<stop stop-opacity="0.01"/>
<stop offset="1"/>
</linearGradient>
<linearGradient id="paint16_linear" x1="289.135" y1="-433.098" x2="-437.167" y2="952.378" gradientUnits="userSpaceOnUse">
<stop stop-opacity="0.01"/>
<stop offset="1"/>
</linearGradient>
<linearGradient id="paint17_linear" x1="309.452" y1="-390.162" x2="-386.186" y2="935.266" gradientUnits="userSpaceOnUse">
<stop stop-opacity="0.01"/>
<stop offset="1"/>
</linearGradient>
<linearGradient id="paint18_linear" x1="329.737" y1="-347.171" x2="-336.482" y2="920.758" gradientUnits="userSpaceOnUse">
<stop stop-opacity="0.01"/>
<stop offset="1"/>
</linearGradient>
<linearGradient id="paint19_linear" x1="348.515" y1="-302.97" x2="-286.248" y2="906.056" gradientUnits="userSpaceOnUse">
<stop stop-opacity="0.01"/>
<stop offset="1"/>
</linearGradient>
<linearGradient id="paint20_linear" x1="367.262" y1="-262.453" x2="-239.327" y2="891.624" gradientUnits="userSpaceOnUse">
<stop stop-opacity="0.01"/>
<stop offset="1"/>
</linearGradient>
<linearGradient id="paint21_linear" x1="387.547" y1="-215.723" x2="-187.587" y2="879.451" gradientUnits="userSpaceOnUse">
<stop stop-opacity="0.01"/>
<stop offset="1"/>
</linearGradient>
<linearGradient id="paint22_linear" x1="407.8" y1="-171.523" x2="-135.089" y2="865.89" gradientUnits="userSpaceOnUse">
<stop stop-opacity="0.01"/>
<stop offset="1"/>
</linearGradient>
<linearGradient id="paint23_linear" x1="429.623" y1="-129.796" x2="-84.6365" y2="848.977" gradientUnits="userSpaceOnUse">
<stop stop-opacity="0.01"/>
<stop offset="1"/>
</linearGradient>
<linearGradient id="paint24_linear" x1="448.37" y1="-84.3308" x2="-33.6451" y2="836.681" gradientUnits="userSpaceOnUse">
<stop stop-opacity="0.01"/>
<stop offset="1"/>
</linearGradient>
<linearGradient id="paint25_linear" x1="468.655" y1="-42.6041" x2="16.0598" y2="820.912" gradientUnits="userSpaceOnUse">
<stop stop-opacity="0.01"/>
<stop offset="1"/>
</linearGradient>
<linearGradient id="paint26_linear" x1="485.895" y1="2.86101" x2="65.5434" y2="808.606" gradientUnits="userSpaceOnUse">
<stop stop-opacity="0.01"/>
<stop offset="1"/>
</linearGradient>
<linearGradient id="paint27_linear" x1="507.719" y1="44.643" x2="113.962" y2="793.161" gradientUnits="userSpaceOnUse">
<stop stop-opacity="0.01"/>
<stop offset="1"/>
</linearGradient>
<linearGradient id="paint28_linear" x1="526.465" y1="87.6341" x2="162.919" y2="779.8" gradientUnits="userSpaceOnUse">
<stop stop-opacity="0.01"/>
<stop offset="1"/>
</linearGradient>
<linearGradient id="paint29_linear" x1="546.75" y1="130.57" x2="214.659" y2="763.833" gradientUnits="userSpaceOnUse">
<stop stop-opacity="0.01"/>
<stop offset="1"/>
</linearGradient>
<linearGradient id="paint30_linear" x1="563.991" y1="174.826" x2="262.109" y2="751.733" gradientUnits="userSpaceOnUse">
<stop stop-opacity="0.01"/>
<stop offset="1"/>
</linearGradient>
</defs>
</svg>
