<svg width="57" height="57" viewBox="0 0 57 57" fill="none" xmlns="http://www.w3.org/2000/svg">
<path d="M45.3953 49.6403C40.867 53.0084 35.2256 54.9963 29.1127 54.9963C14.1999 54.9963 2.1051 43.1346 2.1051 28.4967C2.1051 13.8615 14.1999 2.00244 29.1127 2.00244C37.5356 2.00244 45.0575 5.78173 50.0127 11.7113" stroke="#E60000" stroke-width="3"/>
<path fill-rule="evenodd" clip-rule="evenodd" d="M37.6317 16.1299C37.6317 16.1299 26.5348 13.6496 20.1129 19.5661C12.3841 26.6977 14.0551 37.7763 21.281 39.8165C28.3813 41.8175 31.1025 36.4668 31.9327 34.128C32.7629 31.7944 37.6317 16.1299 37.6317 16.1299Z" stroke="#E60000" stroke-width="3"/>
<path d="M36.8505 18.8075C36.8505 18.8075 32.1021 35.1582 35.3917 38.0942C45.0271 46.6899 67.2131 24.3416 45.6086 7.43823" stroke="#E60000" stroke-width="3"/>
</svg>
