<svg width="18" height="18" viewBox="0 0 18 18" fill="none" xmlns="http://www.w3.org/2000/svg">
<path fill-rule="evenodd" clip-rule="evenodd" d="M17.8379 16.3942L13.1838 11.7024C13.009 11.5266 12.9916 11.2555 13.1267 11.0478C15.0349 8.11894 14.5899 4.0911 11.7746 1.6853C9.0657 -0.628959 4.94247 -0.54976 2.31786 1.86118C-0.694773 4.62853 -0.770834 9.33882 2.0907 12.2044C4.53082 14.6482 8.30766 14.945 11.0813 13.109C11.2895 12.9712 11.5623 12.9892 11.7381 13.1661L16.3819 17.8481C16.5829 18.0502 16.9087 18.0507 17.1102 17.8491L17.8369 17.1214C18.0373 16.9208 18.0378 16.5958 17.8379 16.3942ZM3.54408 10.7485C1.55828 8.75974 1.55828 5.52389 3.54408 3.53517C5.52989 1.54645 8.76094 1.54593 10.7467 3.53517C12.7326 5.52389 12.7326 8.75974 10.7467 10.7485C8.76094 12.7372 5.52989 12.7372 3.54408 10.7485Z" fill="#E60000"/>
</svg>
