<svg width="32" height="32" viewBox="0 0 32 32" fill="none" xmlns="http://www.w3.org/2000/svg">
<path fill-rule="evenodd" clip-rule="evenodd" d="M15.948 31C24.2265 31 30.9376 24.2843 30.9376 16C30.9376 7.71573 24.2265 1 15.948 1C7.66944 1 0.958374 7.71573 0.958374 16C0.958374 24.2843 7.66944 31 15.948 31Z" fill="white" stroke="#EAEAEA"/>
<path fill-rule="evenodd" clip-rule="evenodd" d="M20.2082 12.03L20.1798 12C19.5549 11.41 18.8354 11.13 17.9929 11.17L17.9645 11.1H17.9834C18.7408 10.92 19.1952 10.74 19.3277 10.54C19.3751 10.38 19.3183 10.3 19.1479 10.27C18.7692 10.32 18.4189 10.41 18.1065 10.53C18.5041 10.27 18.6556 10.09 18.5704 10C18.1727 10.01 17.7467 10.21 17.3018 10.61C17.4722 10.33 17.529 10.17 17.4911 10.15C17.2828 10.3 17.0935 10.46 16.9326 10.63C16.6012 11.01 16.3267 11.36 16.1184 11.68L16.1089 11.71C15.5788 12.58 15.2095 13.46 14.9823 14.36L14.9066 14.43L14.8877 14.44C14.5658 14.03 14.1871 13.69 13.7232 13.42C13.1836 13.06 12.5493 12.72 11.8109 12.39C11.0156 11.97 10.2014 11.62 9.3778 11.35C9.3778 12.28 9.82276 13.03 10.7127 13.57V13.58C10.4003 13.58 10.0973 13.63 9.80382 13.72C9.86063 14.58 10.4665 15.18 11.612 15.51L11.6026 15.53C11.1576 15.5 10.7884 15.66 10.4949 15.99C10.8736 16.74 11.5363 17.09 12.5019 17.07C12.3126 17.17 12.1611 17.28 12.0665 17.4C11.8866 17.59 11.8298 17.81 11.8866 18.06C12.0949 18.44 12.4735 18.61 13.0132 18.59L13.051 18.63L13.0321 18.64C12.0854 19.63 10.9493 20.08 9.60501 19.99L9.58608 20C8.77191 19.99 7.89147 19.59 6.95422 18.8C7.90093 20.19 9.16006 21.19 10.7221 21.82C12.5114 22.42 14.3007 22.46 16.0805 21.95H16.1089C17.8414 21.44 19.3088 20.4 20.5206 18.83C21.0792 18 21.4294 17.22 21.5714 16.46C22.4708 16.49 23.124 16.23 23.5311 15.67L23.5217 15.65C23.2187 15.76 22.6318 15.73 21.7513 15.55V15.45C21.7513 15.44 21.7513 15.44 21.7608 15.45C22.717 15.34 23.2755 15.03 23.4649 14.51C22.7927 14.77 22.1395 14.78 21.4862 14.53C21.3726 13.62 20.9466 12.78 20.2082 12.03Z" fill="#E60000"/>
</svg>
