<svg width="63" height="57" viewBox="0 0 63 57" fill="none" xmlns="http://www.w3.org/2000/svg">
<path fill-rule="evenodd" clip-rule="evenodd" d="M17.6915 3.37461C16.3509 4.76027 15.8439 6.64845 16.1477 8.41917C17.9132 8.6797 19.7713 8.11978 21.1102 6.73324C22.4508 5.34669 22.9586 3.45939 22.6539 1.6869C20.8894 1.42637 19.0312 1.98806 17.6915 3.37461Z" stroke="#E60000" stroke-width="2"/>
<path fill-rule="evenodd" clip-rule="evenodd" d="M8.58696 11.0753C8.75917 12.9476 9.82337 14.5161 11.3159 15.4037C12.6177 14.2538 13.3789 12.514 13.205 10.6417C13.031 8.76943 11.9668 7.20183 10.4769 6.3125C9.17161 7.46325 8.41386 9.20394 8.58696 11.0753Z" stroke="#E60000" stroke-width="2"/>
<path fill-rule="evenodd" clip-rule="evenodd" d="M3.70078 22.6848C4.64134 24.3071 6.26369 25.276 7.98849 25.4437C8.68706 23.8461 8.64644 21.9474 7.70411 20.3232C6.76355 18.7009 5.13944 17.7338 3.41641 17.5625C2.71783 19.1601 2.75934 21.0607 3.70078 22.6848Z" stroke="#E60000" stroke-width="2"/>
<path fill-rule="evenodd" clip-rule="evenodd" d="M4.40482 36.4696C5.93886 37.5391 7.81467 37.7255 9.44851 37.1443C9.41053 35.3992 8.5786 33.6939 7.04368 32.6235C5.51141 31.5549 3.63383 31.3676 2 31.9488C2.03709 33.6948 2.87167 35.3992 4.40482 36.4696Z" stroke="#E60000" stroke-width="2"/>
<path fill-rule="evenodd" clip-rule="evenodd" d="M10.7615 47.5655C12.5993 47.8808 14.378 47.2511 15.6144 46.028C14.8505 44.463 13.38 43.2725 11.5413 42.9555C9.70258 42.6402 7.92391 43.2716 6.6875 44.493C7.45231 46.0606 8.92187 47.2494 10.7615 47.5655Z" stroke="#E60000" stroke-width="2"/>
<path fill-rule="evenodd" clip-rule="evenodd" d="M21.0426 55.0864C22.8416 54.5891 24.1901 53.26 24.7969 51.6235C23.4483 50.5319 21.6166 50.0789 19.8159 50.5761C18.0187 51.0733 16.6719 52.4025 16.0625 54.0372C17.4137 55.1314 19.2445 55.5827 21.0426 55.0864Z" stroke="#E60000" stroke-width="2"/>
<path d="M28.6456 51.7009C16.5447 49.5734 7.75733 38.5216 8.62105 25.8978C9.08471 19.1558 12.2146 13.2396 16.9015 9.125" stroke="#E60000" stroke-width="2"/>
<path fill-rule="evenodd" clip-rule="evenodd" d="M46.423 3.37343C47.7627 4.75998 48.2714 6.64728 47.965 8.41976C46.2004 8.67941 44.3432 8.11861 43.0034 6.73206C41.6637 5.34551 41.1559 3.45821 41.4606 1.68661C43.2251 1.42696 45.0824 1.98777 46.423 3.37343Z" stroke="#E60000" stroke-width="2"/>
<path fill-rule="evenodd" clip-rule="evenodd" d="M55.3935 11.0745C55.2204 12.9476 54.1571 14.5152 52.6637 15.4037C51.3619 14.2529 50.6006 12.5122 50.7746 10.6399C50.9477 8.76943 52.0128 7.20007 53.5044 6.3125C54.8071 7.46148 55.5648 9.20217 55.3935 11.0745Z" stroke="#E60000" stroke-width="2"/>
<path fill-rule="evenodd" clip-rule="evenodd" d="M60.2047 22.6848C59.2624 24.3089 57.6409 25.276 55.917 25.4455C55.2184 23.8479 55.2582 21.9474 56.2014 20.3232C57.1419 18.7009 58.7643 17.7338 60.4891 17.5625C61.1868 19.1619 61.1453 21.0624 60.2047 22.6848Z" stroke="#E60000" stroke-width="2"/>
<path fill-rule="evenodd" clip-rule="evenodd" d="M59.5428 36.4683C58.0105 37.5378 56.1347 37.7242 54.5 37.1431C54.538 35.398 55.3708 33.6935 56.9048 32.6231C58.438 31.5545 60.3147 31.3681 61.9485 31.9484C61.9105 33.6935 61.0768 35.398 59.5428 36.4683Z" stroke="#E60000" stroke-width="2"/>
<path fill-rule="evenodd" clip-rule="evenodd" d="M53.7288 47.5647C51.8901 47.8809 50.1123 47.2512 48.875 46.0271C49.6407 44.4622 51.1103 43.2735 52.9499 42.9555C54.7868 42.6403 56.5655 43.2708 57.8037 44.4931C57.0371 46.0598 55.5675 47.2494 53.7288 47.5647Z" stroke="#E60000" stroke-width="2"/>
<path fill-rule="evenodd" clip-rule="evenodd" d="M43.2552 55.086C41.4562 54.5896 40.1085 53.2605 39.5 51.6249C40.8495 50.5316 42.682 50.0785 44.481 50.5766C46.2791 51.0729 47.6268 52.403 48.2361 54.0377C46.884 55.131 45.055 55.5823 43.2552 55.086Z" stroke="#E60000" stroke-width="2"/>
<path d="M35.75 51.7009C47.8492 49.5725 56.6383 38.5225 55.7737 25.8978C55.3101 19.155 52.1802 13.2405 47.4942 9.125" stroke="#E60000" stroke-width="2"/>
<path fill-rule="evenodd" clip-rule="evenodd" d="M32.3988 16.625L34.7065 23.7838H42.1718L36.1328 28.2084L38.4396 35.369L32.3988 30.9435L26.3581 35.369L28.664 28.2084L22.625 23.7838H30.0912L32.3988 16.625Z" stroke="#E60000" stroke-width="2"/>
</svg>
