<svg width="32" height="32" viewBox="0 0 32 32" fill="none" xmlns="http://www.w3.org/2000/svg">
<path fill-rule="evenodd" clip-rule="evenodd" d="M16.0174 31C24.2959 31 31.007 24.2843 31.007 16C31.007 7.71573 24.2959 1 16.0174 1C7.7389 1 1.02783 7.71573 1.02783 16C1.02783 24.2843 7.7389 31 16.0174 31Z" fill="white" stroke="#EAEAEA"/>
<path fill-rule="evenodd" clip-rule="evenodd" d="M8.84566 10.9227L14.9528 15.7316C15.2291 15.9487 15.6125 16.0305 15.9815 16.0131C16.3528 16.0305 16.7331 15.9273 17.0125 15.7073L23.1197 10.9267C23.607 10.5398 23.4975 10.2856 22.8759 10.2856H9.08899C8.46829 10.2856 8.35795 10.5359 8.84566 10.9227Z" fill="#E60000"/>
<path fill-rule="evenodd" clip-rule="evenodd" d="M8.37934 12.1339C7.88241 11.7584 7.45197 11.9609 7.45197 12.5823V20.9009C7.45197 21.0608 7.51259 21.2132 7.573 21.3518L13.1572 15.7637L8.37934 12.1339Z" fill="#E60000"/>
<path fill-rule="evenodd" clip-rule="evenodd" d="M23.5513 12.1339L18.8903 15.6776L24.4068 21.2042C24.4338 21.1072 24.4431 21.0056 24.4431 20.9007V12.5823C24.4431 11.9609 24.0474 11.7584 23.5513 12.1339Z" fill="#E60000"/>
<path fill-rule="evenodd" clip-rule="evenodd" d="M16.8843 17.2043C16.6347 17.3916 16.3077 17.4837 15.9842 17.4808C15.657 17.4837 15.3299 17.3918 15.0803 17.2043L13.9455 16.3422L8.30695 21.9882C8.41057 22.0201 8.52049 22.0407 8.63397 22.0407H23.3307C23.4987 22.0407 23.6577 21.9991 23.8014 21.9322L18.1326 16.2578L16.8843 17.2043Z" fill="#E60000"/>
</svg>
