<svg width="60" height="55" viewBox="0 0 60 55" fill="none" xmlns="http://www.w3.org/2000/svg">
<path fill-rule="evenodd" clip-rule="evenodd" d="M2.30031 2.62963V47.9675C2.30031 50.3707 4.25505 52.3265 6.66031 52.3265H47.3972C46.3772 51.1602 45.7582 49.6349 45.7582 47.9675V2.62963H2.30031ZM52.3866 54.5949H6.66031C3.00452 54.5949 0.0318909 51.6223 0.0318909 47.9675V1.49489C0.0318909 0.868574 0.539259 0.361206 1.16558 0.361206H46.8919C47.5193 0.361206 48.0266 0.868574 48.0266 1.49489V47.9675C48.0266 50.3707 49.9824 52.3265 52.3866 52.3265C53.0119 52.3265 53.5203 52.8349 53.5203 53.4612C53.5203 54.0875 53.0119 54.5949 52.3866 54.5949Z" fill="#E60000"/>
<path fill-rule="evenodd" clip-rule="evenodd" d="M52.3861 54.5952C51.7598 54.5952 51.2514 54.0878 51.2514 53.4615V10.0078C51.2514 9.38147 51.7598 8.87305 52.3861 8.87305C53.0124 8.87305 53.5198 9.38147 53.5198 10.0078V53.4615C53.5198 54.0878 53.0124 54.5952 52.3861 54.5952Z" fill="#E60000"/>
<path fill-rule="evenodd" clip-rule="evenodd" d="M52.3861 54.5951C48.7314 54.5951 45.7577 51.6225 45.7577 47.9678V1.49513C45.7577 0.868819 46.2661 0.36145 46.8924 0.36145C47.5187 0.36145 48.0261 0.868819 48.0261 1.49513V47.9678C48.0261 50.3709 49.9819 52.3267 52.3861 52.3267C54.7893 52.3267 56.7451 50.3709 56.7451 47.9678V19.8404C56.7451 19.2151 57.2535 18.7067 57.8798 18.7067C58.5051 18.7067 59.0135 19.2151 59.0135 19.8404V47.9678C59.0135 51.6225 56.0408 54.5951 52.3861 54.5951Z" fill="#E60000"/>
<mask id="mask0" mask-type="alpha" maskUnits="userSpaceOnUse" x="0" y="0" width="60" height="55">
<path fill-rule="evenodd" clip-rule="evenodd" d="M0.0313721 54.5956H59.0135V0.36084H0.0313721V54.5956Z" fill="white"/>
</mask>
<g mask="url(#mask0)">
<path fill-rule="evenodd" clip-rule="evenodd" d="M11.5524 26.344H18.9935V18.904H11.5524V26.344ZM20.1272 28.6124H10.4177C9.79136 28.6124 9.284 28.105 9.284 27.4787V17.7682C9.284 17.1419 9.79136 16.6345 10.4177 16.6345H20.1272C20.7535 16.6345 21.2619 17.1419 21.2619 17.7682V27.4787C21.2619 28.105 20.7535 28.6124 20.1272 28.6124Z" fill="#E60000"/>
<path fill-rule="evenodd" clip-rule="evenodd" d="M29.0651 36.0535H36.5061V28.6124H29.0651V36.0535ZM37.6408 38.3219H27.9314C27.304 38.3219 26.7966 37.8135 26.7966 37.1872V27.4787C26.7966 26.8514 27.304 26.344 27.9314 26.344H37.6408C38.2661 26.344 38.7745 26.8514 38.7745 27.4787V37.1872C38.7745 37.8135 38.2661 38.3219 37.6408 38.3219Z" fill="#E60000"/>
<path fill-rule="evenodd" clip-rule="evenodd" d="M37.6405 18.9033H27.9311C27.3047 18.9033 26.7963 18.3959 26.7963 17.7686C26.7963 17.1423 27.3047 16.6349 27.9311 16.6349H37.6405C38.2669 16.6349 38.7742 17.1423 38.7742 17.7686C38.7742 18.3959 38.2669 18.9033 37.6405 18.9033Z" fill="#E60000"/>
<path fill-rule="evenodd" clip-rule="evenodd" d="M37.6405 23.7583H27.9311C27.3047 23.7583 26.7963 23.2509 26.7963 22.6236C26.7963 21.9972 27.3047 21.4899 27.9311 21.4899H37.6405C38.2669 21.4899 38.7742 21.9972 38.7742 22.6236C38.7742 23.2509 38.2669 23.7583 37.6405 23.7583Z" fill="#E60000"/>
<path fill-rule="evenodd" clip-rule="evenodd" d="M37.6405 43.1765H10.4174C9.79106 43.1765 9.28369 42.6691 9.28369 42.0418C9.28369 41.4154 9.79106 40.9081 10.4174 40.9081H37.6405C38.2668 40.9081 38.7742 41.4154 38.7742 42.0418C38.7742 42.6691 38.2668 43.1765 37.6405 43.1765Z" fill="#E60000"/>
<path fill-rule="evenodd" clip-rule="evenodd" d="M37.6405 48.0316H10.4174C9.79106 48.0316 9.28369 47.5242 9.28369 46.8969C9.28369 46.2706 9.79106 45.7632 10.4174 45.7632H37.6405C38.2668 45.7632 38.7742 46.2706 38.7742 46.8969C38.7742 47.5242 38.2668 48.0316 37.6405 48.0316Z" fill="#E60000"/>
<path fill-rule="evenodd" clip-rule="evenodd" d="M37.6405 14.0483H10.4174C9.79106 14.0483 9.28369 13.5409 9.28369 12.9146C9.28369 12.2883 9.79106 11.7809 10.4174 11.7809H37.6405C38.2668 11.7809 38.7742 12.2883 38.7742 12.9146C38.7742 13.5409 38.2668 14.0483 37.6405 14.0483Z" fill="#E60000"/>
<path fill-rule="evenodd" clip-rule="evenodd" d="M37.6405 9.19315H10.4174C9.79106 9.19315 9.28369 8.68578 9.28369 8.05947C9.28369 7.43315 9.79106 6.92578 10.4174 6.92578H37.6405C38.2668 6.92578 38.7742 7.43315 38.7742 8.05947C38.7742 8.68578 38.2668 9.19315 37.6405 9.19315Z" fill="#E60000"/>
<path fill-rule="evenodd" clip-rule="evenodd" d="M20.1272 33.4665H10.4177C9.79136 33.4665 9.284 32.9601 9.284 32.3328C9.284 31.7065 9.79136 31.1991 10.4177 31.1991H20.1272C20.7535 31.1991 21.2619 31.7065 21.2619 32.3328C21.2619 32.9601 20.7535 33.4665 20.1272 33.4665Z" fill="#E60000"/>
<path fill-rule="evenodd" clip-rule="evenodd" d="M20.1272 38.3214H10.4177C9.79136 38.3214 9.284 37.8141 9.284 37.1878C9.284 36.5614 9.79136 36.0541 10.4177 36.0541H20.1272C20.7535 36.0541 21.2619 36.5614 21.2619 37.1878C21.2619 37.8141 20.7535 38.3214 20.1272 38.3214Z" fill="#E60000"/>
</g>
</svg>
