<svg width="32" height="32" viewBox="0 0 32 32" fill="none" xmlns="http://www.w3.org/2000/svg">
<path fill-rule="evenodd" clip-rule="evenodd" d="M15.9896 31C24.2681 31 30.9792 24.2843 30.9792 16C30.9792 7.71573 24.2681 1 15.9896 1C7.71107 1 1 7.71573 1 16C1 24.2843 7.71107 31 15.9896 31Z" fill="white" stroke="#EAEAEA"/>
<path fill-rule="evenodd" clip-rule="evenodd" d="M23.1275 19.337C23.1275 19.4986 23.0961 19.7095 23.0332 19.9697C22.9703 20.23 22.9043 20.4349 22.8352 20.5845C22.7032 20.8837 22.3197 21.2008 21.6849 21.5358C21.094 21.841 20.5094 21.9935 19.9311 21.9935C19.7614 21.9935 19.5964 21.9831 19.4361 21.9621C19.2758 21.9412 19.0951 21.9038 18.8939 21.85C18.6928 21.7961 18.5435 21.7527 18.4461 21.7198C18.3486 21.6869 18.1742 21.6256 17.9228 21.5358C17.6713 21.4461 17.5173 21.3922 17.4608 21.3743C16.8447 21.1649 16.2947 20.9166 15.8107 20.6294C15.0061 20.1567 14.1748 19.512 13.3168 18.6953C12.4588 17.8786 11.7814 17.0874 11.2849 16.3215C10.9831 15.8608 10.7223 15.3373 10.5023 14.751C10.4834 14.6971 10.4268 14.5505 10.3326 14.3112C10.2383 14.0719 10.1738 13.9058 10.1393 13.8131C10.1047 13.7204 10.0591 13.5783 10.0025 13.3868C9.94598 13.1953 9.90668 13.0233 9.88469 12.8708C9.86267 12.7182 9.85168 12.5612 9.85168 12.3996C9.85168 11.8491 10.012 11.2927 10.3325 10.7303C10.6846 10.126 11.0177 9.76104 11.332 9.63539C11.4892 9.56958 11.7044 9.50675 11.9779 9.44693C12.2513 9.38709 12.4729 9.35718 12.6426 9.35718C12.7306 9.35718 12.7966 9.36615 12.8406 9.3841C12.9538 9.42 13.1203 9.64736 13.3404 10.0662C13.4095 10.1799 13.5038 10.3414 13.6232 10.5508C13.7426 10.7602 13.8527 10.9502 13.9532 11.1207C14.0538 11.2912 14.1512 11.4513 14.2455 11.6009C14.2644 11.6248 14.3194 11.6996 14.4105 11.8252C14.5017 11.9509 14.5692 12.0571 14.6133 12.1438C14.6573 12.2306 14.6792 12.3158 14.6792 12.3996C14.6792 12.5193 14.5897 12.6688 14.4105 12.8483C14.2314 13.0278 14.0365 13.1924 13.8259 13.3419C13.6154 13.4915 13.4205 13.6501 13.2414 13.8176C13.0622 13.9851 12.9726 14.1227 12.9726 14.2304C12.9726 14.2843 12.9883 14.3516 13.0198 14.4324C13.0512 14.5131 13.0779 14.5745 13.0999 14.6163C13.1219 14.6582 13.1659 14.73 13.2319 14.8317C13.2979 14.9335 13.3341 14.9903 13.3404 15.0023C13.8181 15.8219 14.365 16.525 14.981 17.1113C15.597 17.6977 16.3356 18.2182 17.1968 18.6729C17.2093 18.6789 17.269 18.7133 17.3759 18.7761C17.4828 18.8389 17.5582 18.8808 17.6022 18.9018C17.6462 18.9227 17.7106 18.9481 17.7955 18.978C17.8803 19.008 17.9511 19.0229 18.0076 19.0229C18.1208 19.0229 18.2654 18.9377 18.4413 18.7671C18.6174 18.5966 18.7839 18.4111 18.9411 18.2107C19.0982 18.0103 19.2711 17.8248 19.4597 17.6543C19.6482 17.4838 19.8054 17.3985 19.9311 17.3985C20.0191 17.3985 20.1087 17.4194 20.1998 17.4613C20.291 17.5032 20.4025 17.5675 20.5346 17.6543C20.6666 17.741 20.7451 17.7934 20.7703 17.8113C20.9274 17.9011 21.0956 17.9938 21.2747 18.0895C21.4539 18.1853 21.6534 18.29 21.8735 18.4037C22.0935 18.5173 22.2632 18.6071 22.3826 18.6729C22.8226 18.8823 23.0615 19.0409 23.0992 19.1486C23.1181 19.1904 23.1275 19.2533 23.1275 19.337Z" fill="#E60000"/>
</svg>
