<svg width="49" height="60" viewBox="0 0 49 60" fill="none" xmlns="http://www.w3.org/2000/svg">
<mask id="mask0" mask-type="alpha" maskUnits="userSpaceOnUse" x="0" y="0" width="49" height="60">
<path fill-rule="evenodd" clip-rule="evenodd" d="M0 0.931641H48.3411V59.9137H0V0.931641Z" fill="white"/>
</mask>
<g mask="url(#mask0)">
<path fill-rule="evenodd" clip-rule="evenodd" d="M2.26842 57.6453H34.4221V14.8505H2.26842V57.6453ZM35.5568 59.9137H1.13368C0.508421 59.9137 0 59.4063 0 58.78V13.7158C0 13.0895 0.508421 12.5811 1.13368 12.5811H35.5568C36.1832 12.5811 36.6916 13.0895 36.6916 13.7158V58.78C36.6916 59.4063 36.1832 59.9137 35.5568 59.9137Z" fill="#E60000"/>
<path fill-rule="evenodd" clip-rule="evenodd" d="M36.6914 51.8257H40.2419V9.03095H8.09978V12.5815H35.5566C36.1829 12.5815 36.6914 13.0888 36.6914 13.7162V51.8257ZM41.3766 54.0941H35.5566C34.9303 54.0941 34.4229 53.5867 34.4229 52.9604V14.8499H6.96504C6.33873 14.8499 5.83136 14.3425 5.83136 13.7162V7.89726C5.83136 7.2699 6.33873 6.76147 6.96504 6.76147H41.3766C42.0029 6.76147 42.5103 7.2699 42.5103 7.89726V52.9604C42.5103 53.5867 42.0029 54.0941 41.3766 54.0941Z" fill="#E60000"/>
<path fill-rule="evenodd" clip-rule="evenodd" d="M42.5101 45.9952H46.0733V3.2005H13.9185V6.76261H41.3764C42.0027 6.76261 42.5101 7.26998 42.5101 7.89735V45.9952ZM47.207 48.2637H41.3764C40.7501 48.2637 40.2417 47.7563 40.2417 47.1289V9.03103H12.7849C12.1585 9.03103 11.6501 8.52261 11.6501 7.89735V2.06682C11.6501 1.43945 12.1585 0.93103 12.7849 0.93103H47.207C47.8333 0.93103 48.3417 1.43945 48.3417 2.06682V47.1289C48.3417 47.7563 47.8333 48.2637 47.207 48.2637Z" fill="#E60000"/>
<path fill-rule="evenodd" clip-rule="evenodd" d="M29.7346 23.4612H6.95673C6.33041 23.4612 5.82199 22.9538 5.82199 22.3275C5.82199 21.7001 6.33041 21.1927 6.95673 21.1927H29.7346C30.3609 21.1927 30.8694 21.7001 30.8694 22.3275C30.8694 22.9538 30.3609 23.4612 29.7346 23.4612Z" fill="#E60000"/>
<path fill-rule="evenodd" clip-rule="evenodd" d="M29.7346 29.0317H23.9357C23.3094 29.0317 22.802 28.5244 22.802 27.897C22.802 27.2707 23.3094 26.7633 23.9357 26.7633H29.7346C30.3609 26.7633 30.8694 27.2707 30.8694 27.897C30.8694 28.5244 30.3609 29.0317 29.7346 29.0317Z" fill="#E60000"/>
<path fill-rule="evenodd" clip-rule="evenodd" d="M29.7346 34.6023H23.9357C23.3094 34.6023 22.802 34.0949 22.802 33.4675C22.802 32.8412 23.3094 32.3339 23.9357 32.3339H29.7346C30.3609 32.3339 30.8694 32.8412 30.8694 33.4675C30.8694 34.0949 30.3609 34.6023 29.7346 34.6023Z" fill="#E60000"/>
<path fill-rule="evenodd" clip-rule="evenodd" d="M29.7346 40.1717H23.9357C23.3094 40.1717 22.802 39.6644 22.802 39.0381C22.802 38.4107 23.3094 37.9033 23.9357 37.9033H29.7346C30.3609 37.9033 30.8694 38.4107 30.8694 39.0381C30.8694 39.6644 30.3609 40.1717 29.7346 40.1717Z" fill="#E60000"/>
<path fill-rule="evenodd" clip-rule="evenodd" d="M29.7346 45.7423H6.95673C6.33041 45.7423 5.82199 45.2349 5.82199 44.6076C5.82199 43.9812 6.33041 43.4739 6.95673 43.4739H29.7346C30.3609 43.4739 30.8694 43.9812 30.8694 44.6076C30.8694 45.2349 30.3609 45.7423 29.7346 45.7423Z" fill="#E60000"/>
<path fill-rule="evenodd" clip-rule="evenodd" d="M29.7346 51.3129H6.95673C6.33041 51.3129 5.82199 50.8055 5.82199 50.1781C5.82199 49.5518 6.33041 49.0444 6.95673 49.0444H29.7346C30.3609 49.0444 30.8694 49.5518 30.8694 50.1781C30.8694 50.8055 30.3609 51.3129 29.7346 51.3129Z" fill="#E60000"/>
<path fill-rule="evenodd" clip-rule="evenodd" d="M8.09053 37.9032H16.9105V29.0842H8.09053V37.9032ZM18.0442 40.1716H6.95685C6.33053 40.1716 5.82211 39.6642 5.82211 39.0379V27.9495C5.82211 27.3232 6.33053 26.8158 6.95685 26.8158H18.0442C18.6705 26.8158 19.179 27.3232 19.179 27.9495V39.0379C19.179 39.6642 18.6705 40.1716 18.0442 40.1716Z" fill="#E60000"/>
</g>
</svg>
