<svg width="43" height="43" viewBox="0 0 43 43" fill="none" xmlns="http://www.w3.org/2000/svg" preserveAspectRatio="xMidYMid">
<path d="M29.1723 42.8217H0V0H32.1163V20.6079L31.135 20.5187C31.0457 20.5187 30.8673 20.5187 30.7781 20.5187C27.4773 20.5187 24.5333 22.0353 22.5706 24.6225C21.2324 26.4067 20.5187 28.5478 20.5187 30.8673C20.5187 35.9524 24.3548 40.413 29.3507 41.0375L29.1723 42.8217ZM1.78424 41.0375H24.3548C20.9648 38.8964 18.7345 35.0603 18.7345 30.8673C18.7345 28.191 19.5374 25.693 21.1432 23.5519C23.3735 20.6079 26.6744 18.9129 30.2428 18.7345V1.78424H1.78424V41.0375Z" fill="#E60000"/>
<path d="M21.4107 5.44141H4.37122V7.22564H21.4107V5.44141Z" fill="#E60000"/>
<path d="M27.6555 9.9021H4.37122V11.6863H27.6555V9.9021Z" fill="#E60000"/>
<path d="M27.6555 14.3628H4.37122V16.147H27.6555V14.3628Z" fill="#E60000"/>
<path d="M23.1949 18.8235H4.37122V20.6077H23.1949V18.8235Z" fill="#E60000"/>
<path d="M30.7778 42.9999C30.1534 42.9999 29.6181 42.9999 29.0828 42.9107C23.1948 42.1078 18.645 36.9335 18.645 30.9563C18.645 28.2799 19.4479 25.782 21.0537 23.6409C23.3733 20.6077 26.8525 18.8235 30.6886 18.8235C30.8671 18.8235 30.9563 18.8235 31.1347 18.8235C37.6472 19.0019 42.7322 24.3546 42.7322 30.9563C42.8214 37.558 37.4687 42.9999 30.7778 42.9999ZM30.7778 20.5185C27.477 20.5185 24.4438 22.0351 22.4811 24.6223C21.143 26.4065 20.4293 28.5476 20.4293 30.8671C20.4293 35.9522 24.2654 40.4128 29.2612 41.0372C29.7073 41.1265 30.1534 41.1265 30.6886 41.1265C36.3982 41.1265 41.0372 36.4874 41.0372 30.7779C41.0372 25.1575 36.6658 20.6969 31.1347 20.4293C31.0455 20.5185 30.867 20.5185 30.7778 20.5185Z" fill="#E60000"/>
<path d="M31.1348 37.2014C28.9937 37.2014 27.2094 35.2388 27.2094 32.7408H28.9937C28.9937 34.1682 29.975 35.4172 31.1348 35.4172C31.9377 35.4172 33.0082 34.7927 33.4543 34.079C33.6327 33.7222 33.5435 33.4545 33.4543 33.2761C33.0974 32.7408 31.9377 32.2056 30.8671 31.7595C29.3505 31.135 27.9231 30.5105 27.2986 29.44C26.8526 28.5479 26.8526 27.6558 27.3879 26.7636C28.1015 25.5147 29.7074 24.6226 31.1348 24.6226C33.2758 24.6226 35.0601 26.5852 35.0601 29.0832H33.2758C33.2758 27.6558 32.2945 26.4068 31.1348 26.4068C30.3318 26.4068 29.3505 27.0313 28.9045 27.6558C28.6368 28.1018 28.726 28.3695 28.8152 28.5479C29.0829 29.0832 30.4211 29.7076 31.4916 30.1537C32.919 30.7782 34.2572 31.3134 34.8817 32.2948C35.4169 33.0977 35.4169 33.9898 34.9709 34.8819C34.3464 36.2201 32.6514 37.2014 31.1348 37.2014Z" fill="#E60000"/>
<path d="M31.8486 23.2842H30.0644V38.5394H31.8486V23.2842Z" fill="#E60000"/>
</svg>
